<svg width="576" height="384" viewBox="0 0 576 384" fill="none" xmlns="http://www.w3.org/2000/svg">
<path d="M576 64C576 28.7 547.3 0 512 0H205.3C188.3 0 172 6.7 160 18.7L9.4 169.4C3.4 175.4 0 183.5 0 192C0 200.5 3.4 208.6 9.4 214.6L160 365.3C172 377.3 188.3 384 205.3 384H512C547.3 384 576 355.3 576 320V64ZM271 111C280.4 101.6 295.6 101.6 304.9 111L351.9 158L398.9 111C408.3 101.6 423.5 101.6 432.8 111C442.1 120.4 442.2 135.6 432.8 144.9L385.8 191.9L432.8 238.9C442.2 248.3 442.2 263.5 432.8 272.8C423.4 282.1 408.2 282.2 398.9 272.8L351.9 225.8L304.9 272.8C295.5 282.2 280.3 282.2 271 272.8C261.7 263.4 261.6 248.2 271 238.9L318 191.9L271 144.9C261.6 135.5 261.6 120.3 271 111Z" fill="white"/>
<path d="M271 111C280.4 101.6 295.6 101.6 304.9 111L351.9 158L398.9 111C408.3 101.6 423.5 101.6 432.8 111C442.1 120.4 442.2 135.6 432.8 144.9L385.8 191.9L432.8 238.9C442.2 248.3 442.2 263.5 432.8 272.8C423.4 282.1 408.2 282.2 398.9 272.8L351.9 225.8L304.9 272.8C295.5 282.2 280.3 282.2 271 272.8C261.7 263.4 261.6 248.2 271 238.9L318 191.9L271 144.9C261.6 135.5 261.6 120.3 271 111Z" fill="black"/>
<path d="M278.033 118.109L278.052 118.09L278.071 118.071C283.587 112.555 292.426 112.61 297.791 118.033L297.81 118.052L297.829 118.071L344.829 165.071L351.9 172.142L358.971 165.071L405.971 118.071C411.487 112.555 420.326 112.61 425.691 118.033C431.205 123.606 431.142 132.473 425.767 137.791L425.748 137.81L425.729 137.829L378.729 184.829L371.658 191.9L378.729 198.971L425.729 245.971C431.245 251.487 431.19 260.326 425.767 265.691C420.194 271.205 411.327 271.142 406.009 265.767L405.99 265.748L405.971 265.729L358.971 218.729L351.9 211.658L344.829 218.729L297.829 265.729C292.313 271.245 283.474 271.19 278.109 265.767C272.595 260.194 272.658 251.327 278.033 246.009L278.052 245.99L278.071 245.971L325.071 198.971L332.142 191.9L325.071 184.829L278.071 137.829C272.555 132.313 272.61 123.474 278.033 118.109ZM311.986 103.944C298.755 90.5956 277.223 90.6522 263.945 103.913C250.59 117.149 250.652 138.694 263.929 151.971L303.858 191.9L263.967 231.791C263.959 231.799 263.951 231.807 263.943 231.815C250.542 245.098 250.813 266.614 263.891 279.833C277.126 293.21 298.687 293.155 311.971 279.871L351.9 239.942L391.791 279.833C391.8 279.842 391.808 279.85 391.816 279.859C405.1 293.257 426.615 292.987 439.833 279.909C453.21 266.674 453.155 245.113 439.871 231.829L399.942 191.9L439.833 152.009C439.841 152.001 439.849 151.993 439.857 151.985C453.257 138.702 452.987 117.186 439.909 103.967C426.674 90.59 405.113 90.6447 391.829 103.929L351.9 143.858L312.009 103.967C312.001 103.959 311.994 103.952 311.986 103.944ZM16.4711 176.471L16.4734 176.469L167.071 25.7711C177.179 15.6627 190.929 10 205.3 10H512C541.777 10 566 34.2228 566 64V320C566 349.777 541.777 374 512 374H205.3C190.929 374 177.179 368.337 167.071 358.229L16.4734 207.531L16.4711 207.529C12.3227 203.381 10 197.814 10 192C10 186.186 12.3227 180.619 16.4711 176.471Z" stroke="black" stroke-width="20"/>
</svg>
