<svg width="20" height="20" viewBox="0 0 20 20" fill="none" xmlns="http://www.w3.org/2000/svg">
<g clip-path="url(#clip0_305_305)">
<path d="M17.4588 3.4105L12.7174 16.6484C12.6609 16.8048 12.5124 16.9091 12.346 16.9092H12.2196C12.0644 16.9091 11.923 16.82 11.8561 16.68L9.99113 12.7284C9.71652 12.1458 9.82281 11.4549 10.2598 10.9818L12.6305 8.38952C12.776 8.23687 12.776 7.99685 12.6305 7.8442L12.3302 7.54388C12.1776 7.39836 11.9376 7.39836 11.785 7.54388L9.19299 9.91484C8.71996 10.3519 8.02909 10.4582 7.44658 10.1836L3.4954 8.31839C3.34303 8.26102 3.24015 8.11759 3.23463 7.95485V7.8284C3.22063 7.65058 3.32748 7.48543 3.4954 7.42533L16.7318 2.68341C16.8741 2.63115 17.0338 2.66492 17.1428 2.77034L17.3482 2.97583C17.4717 3.08372 17.5157 3.25669 17.4588 3.4105Z" fill="white"/>
</g>
<defs>
<clipPath id="clip0_305_305">
<rect width="19" height="19" fill="white" transform="translate(0.859375 0.28418)"/>
</clipPath>
</defs>
</svg>
