<svg width="19" height="21" viewBox="0 0 19 21" fill="none" xmlns="http://www.w3.org/2000/svg">
<g clip-path="url(#clip0_721_277)">
<path fill-rule="evenodd" clip-rule="evenodd" d="M0 2.76855C0 2.10551 0.250223 1.46963 0.695621 1.00079C1.14102 0.531947 1.74511 0.268555 2.375 0.268555L16.625 0.268555C17.2549 0.268555 17.859 0.531947 18.3044 1.00079C18.7498 1.46963 19 2.10551 19 2.76855V12.7686C19 13.4316 18.7498 14.0675 18.3044 14.5363C17.859 15.0052 17.2549 15.2686 16.625 15.2686H5.24163C4.92671 15.2686 4.62471 15.4004 4.40206 15.6348L1.01412 19.2011C0.931155 19.2886 0.825373 19.3483 0.710168 19.3725C0.594962 19.3968 0.475513 19.3845 0.366937 19.3373C0.258361 19.29 0.16554 19.2099 0.100222 19.1072C0.0349037 19.0044 2.49552e-05 18.8835 0 18.7598L0 2.76855ZM5.9375 7.76856C5.9375 8.10008 5.81239 8.41802 5.58969 8.65244C5.36699 8.88686 5.06494 9.01856 4.75 9.01856C4.43506 9.01856 4.13301 8.88686 3.91031 8.65244C3.68761 8.41802 3.5625 8.10008 3.5625 7.76856C3.5625 7.43703 3.68761 7.11909 3.91031 6.88467C4.13301 6.65025 4.43506 6.51856 4.75 6.51856C5.06494 6.51856 5.36699 6.65025 5.58969 6.88467C5.81239 7.11909 5.9375 7.43703 5.9375 7.76856V7.76856ZM10.6875 7.76856C10.6875 8.10008 10.5624 8.41802 10.3397 8.65244C10.117 8.88686 9.81494 9.01856 9.5 9.01856C9.18506 9.01856 8.88301 8.88686 8.66031 8.65244C8.43761 8.41802 8.3125 8.10008 8.3125 7.76856C8.3125 7.43703 8.43761 7.11909 8.66031 6.88467C8.88301 6.65025 9.18506 6.51856 9.5 6.51856C9.81494 6.51856 10.117 6.65025 10.3397 6.88467C10.5624 7.11909 10.6875 7.43703 10.6875 7.76856ZM14.25 9.01856C14.5649 9.01856 14.867 8.88686 15.0897 8.65244C15.3124 8.41802 15.4375 8.10008 15.4375 7.76856C15.4375 7.43703 15.3124 7.11909 15.0897 6.88467C14.867 6.65025 14.5649 6.51856 14.25 6.51856C13.9351 6.51856 13.633 6.65025 13.4103 6.88467C13.1876 7.11909 13.0625 7.43703 13.0625 7.76856C13.0625 8.10008 13.1876 8.41802 13.4103 8.65244C13.633 8.88686 13.9351 9.01856 14.25 9.01856V9.01856Z" fill="#FF6D6D"/>
</g>
<defs>
<clipPath id="clip0_721_277">
<rect width="19" height="20" fill="white" transform="translate(0 0.268555)"/>
</clipPath>
</defs>
</svg>
