<svg width="576" height="448" viewBox="0 0 576 448" fill="none" xmlns="http://www.w3.org/2000/svg">
<path d="M512 48C520.8 48 528 55.2 528 64V96H48V64C48 55.2 55.2 48 64 48H512ZM528 192V384C528 392.8 520.8 400 512 400H64C55.2 400 48 392.8 48 384V192H528ZM64 0C28.7 0 0 28.7 0 64V384C0 419.3 28.7 448 64 448H512C547.3 448 576 419.3 576 384V64C576 28.7 547.3 0 512 0H64ZM120 304C106.7 304 96 314.7 96 328C96 341.3 106.7 352 120 352H168C181.3 352 192 341.3 192 328C192 314.7 181.3 304 168 304H120ZM248 304C234.7 304 224 314.7 224 328C224 341.3 234.7 352 248 352H360C373.3 352 384 341.3 384 328C384 314.7 373.3 304 360 304H248Z" fill="#009223"/>
</svg>
