<svg width="20" height="20" viewBox="0 0 20 20" fill="none" xmlns="http://www.w3.org/2000/svg">
<path d="M15.9486 4.18999C14.3789 2.62026 11.8387 2.62026 10.2709 4.18999L8.4729 5.98794L9.41919 6.93423L11.2171 5.13628C12.2154 4.13804 13.9001 4.03228 15.0023 5.13628C16.1063 6.24028 16.0005 7.92319 15.0023 8.92144L13.2043 10.7194L14.1525 11.6675L15.9504 9.86958C17.5165 8.29985 17.5165 5.75972 15.9486 4.18999ZM8.78462 15.141C7.78638 16.1392 6.10161 16.245 4.99946 15.141C3.89546 14.037 4.00122 12.3541 4.99946 11.3558L6.79741 9.55786L5.84927 8.60972L4.05132 10.4077C2.48159 11.9774 2.48159 14.5175 4.05132 16.0854C5.62105 17.6533 8.16118 17.6551 9.72905 16.0854L11.527 14.2875L10.5807 13.3412L8.78462 15.141ZM5.32974 4.52397C5.30184 4.49635 5.26416 4.48085 5.2249 4.48085C5.18564 4.48085 5.14797 4.49635 5.12007 4.52397L4.3853 5.25874C4.35768 5.28664 4.34218 5.32431 4.34218 5.36357C4.34218 5.40284 4.35768 5.44051 4.3853 5.46841L14.672 15.7551C14.7295 15.8126 14.8242 15.8126 14.8817 15.7551L15.6165 15.0204C15.674 14.9628 15.674 14.8682 15.6165 14.8107L5.32974 4.52397Z" fill="white"/>
</svg>
