<svg width="20" height="21" viewBox="0 0 20 21" fill="none" xmlns="http://www.w3.org/2000/svg">
<g clip-path="url(#clip0_154_2181)">
<path fill-rule="evenodd" clip-rule="evenodd" d="M17.5 2.21143H2.5C2.16848 2.21143 1.85054 2.34312 1.61612 2.57754C1.3817 2.81196 1.25 3.12991 1.25 3.46143V17.9439L3.75 15.4439C4.21873 14.9751 4.85451 14.7116 5.5175 14.7114H17.5C17.8315 14.7114 18.1495 14.5797 18.3839 14.3453C18.6183 14.1109 18.75 13.7929 18.75 13.4614V3.46143C18.75 3.12991 18.6183 2.81196 18.3839 2.57754C18.1495 2.34312 17.8315 2.21143 17.5 2.21143ZM2.5 0.961426C1.83696 0.961426 1.20107 1.22482 0.732233 1.69366C0.263392 2.1625 0 2.79838 0 3.46143L0 19.4527C2.62686e-05 19.5763 0.0367407 19.6972 0.105497 19.8C0.174252 19.9028 0.271959 19.9829 0.386249 20.0301C0.50054 20.0774 0.626276 20.0897 0.747545 20.0654C0.868814 20.0412 0.980163 19.9815 1.0675 19.8939L4.63375 16.3277C4.86812 16.0932 5.18601 15.9615 5.5175 15.9614H17.5C18.163 15.9614 18.7989 15.698 19.2678 15.2292C19.7366 14.7604 20 14.1245 20 13.4614V3.46143C20 2.79838 19.7366 2.1625 19.2678 1.69366C18.7989 1.22482 18.163 0.961426 17.5 0.961426L2.5 0.961426Z" fill="black"/>
<path d="M6.25 8.46143C6.25 8.79295 6.1183 9.11089 5.88388 9.34531C5.64946 9.57973 5.33152 9.71143 5 9.71143C4.66848 9.71143 4.35054 9.57973 4.11612 9.34531C3.8817 9.11089 3.75 8.79295 3.75 8.46143C3.75 8.12991 3.8817 7.81196 4.11612 7.57754C4.35054 7.34312 4.66848 7.21143 5 7.21143C5.33152 7.21143 5.64946 7.34312 5.88388 7.57754C6.1183 7.81196 6.25 8.12991 6.25 8.46143ZM11.25 8.46143C11.25 8.79295 11.1183 9.11089 10.8839 9.34531C10.6495 9.57973 10.3315 9.71143 10 9.71143C9.66848 9.71143 9.35054 9.57973 9.11612 9.34531C8.8817 9.11089 8.75 8.79295 8.75 8.46143C8.75 8.12991 8.8817 7.81196 9.11612 7.57754C9.35054 7.34312 9.66848 7.21143 10 7.21143C10.3315 7.21143 10.6495 7.34312 10.8839 7.57754C11.1183 7.81196 11.25 8.12991 11.25 8.46143ZM16.25 8.46143C16.25 8.79295 16.1183 9.11089 15.8839 9.34531C15.6495 9.57973 15.3315 9.71143 15 9.71143C14.6685 9.71143 14.3505 9.57973 14.1161 9.34531C13.8817 9.11089 13.75 8.79295 13.75 8.46143C13.75 8.12991 13.8817 7.81196 14.1161 7.57754C14.3505 7.34312 14.6685 7.21143 15 7.21143C15.3315 7.21143 15.6495 7.34312 15.8839 7.57754C16.1183 7.81196 16.25 8.12991 16.25 8.46143Z" fill="black"/>
</g>
<defs>
<clipPath id="clip0_154_2181">
<rect width="20" height="20" fill="white" transform="translate(0 0.961426)"/>
</clipPath>
</defs>
</svg>
