<svg width="19" height="21" viewBox="0 0 19 21" fill="none" xmlns="http://www.w3.org/2000/svg">
<g clip-path="url(#clip0_219_1233)">
<path fill-rule="evenodd" clip-rule="evenodd" d="M0 3.1377C0 2.47465 0.250223 1.83877 0.695621 1.36993C1.14102 0.901087 1.74511 0.637695 2.375 0.637695L16.625 0.637695C17.2549 0.637695 17.859 0.901087 18.3044 1.36993C18.7498 1.83877 19 2.47465 19 3.1377V13.1377C19 13.8007 18.7498 14.4366 18.3044 14.9055C17.859 15.3743 17.2549 15.6377 16.625 15.6377H5.24162C4.92671 15.6378 4.62471 15.7695 4.40206 16.0039L1.01412 19.5702C0.931155 19.6578 0.825373 19.7174 0.710168 19.7417C0.594962 19.7659 0.475513 19.7537 0.366937 19.7064C0.258361 19.6592 0.16554 19.5791 0.100222 19.4763C0.0349037 19.3735 2.49552e-05 19.2526 0 19.1289L0 3.1377ZM5.9375 8.1377C5.9375 8.46922 5.81239 8.78716 5.58969 9.02158C5.36699 9.256 5.06494 9.3877 4.75 9.3877C4.43506 9.3877 4.13301 9.256 3.91031 9.02158C3.68761 8.78716 3.5625 8.46922 3.5625 8.1377C3.5625 7.80618 3.68761 7.48823 3.91031 7.25381C4.13301 7.01939 4.43506 6.8877 4.75 6.8877C5.06494 6.8877 5.36699 7.01939 5.58969 7.25381C5.81239 7.48823 5.9375 7.80618 5.9375 8.1377ZM10.6875 8.1377C10.6875 8.46922 10.5624 8.78716 10.3397 9.02158C10.117 9.256 9.81494 9.3877 9.5 9.3877C9.18506 9.3877 8.88301 9.256 8.66031 9.02158C8.43761 8.78716 8.3125 8.46922 8.3125 8.1377C8.3125 7.80618 8.43761 7.48823 8.66031 7.25381C8.88301 7.01939 9.18506 6.8877 9.5 6.8877C9.81494 6.8877 10.117 7.01939 10.3397 7.25381C10.5624 7.48823 10.6875 7.80618 10.6875 8.1377ZM14.25 9.3877C14.5649 9.3877 14.867 9.256 15.0897 9.02158C15.3124 8.78716 15.4375 8.46922 15.4375 8.1377C15.4375 7.80618 15.3124 7.48823 15.0897 7.25381C14.867 7.01939 14.5649 6.8877 14.25 6.8877C13.9351 6.8877 13.633 7.01939 13.4103 7.25381C13.1876 7.48823 13.0625 7.80618 13.0625 8.1377C13.0625 8.46922 13.1876 8.78716 13.4103 9.02158C13.633 9.256 13.9351 9.3877 14.25 9.3877Z" fill="#FF6D6D"/>
</g>
<defs>
<clipPath id="clip0_219_1233">
<rect width="19" height="20" fill="white" transform="translate(0 0.637695)"/>
</clipPath>
</defs>
</svg>
