<svg width="52" height="53" viewBox="0 0 52 53" fill="none" xmlns="http://www.w3.org/2000/svg">
<rect x="0.5" y="1.44189" width="51" height="51" rx="4.5" fill="white" stroke="#FF6D6D"/>
<g clip-path="url(#clip0_154_2230)">
<path fill-rule="evenodd" clip-rule="evenodd" d="M36.3162 16.7254H16.0689C15.6214 16.7254 15.1922 16.9072 14.8758 17.231C14.5594 17.5547 14.3816 17.9938 14.3816 18.4517V33.9887L18.8462 29.9249C18.9841 29.7843 19.1652 29.6969 19.359 29.6774C19.5527 29.6579 19.7471 29.7075 19.9091 29.8179L24.3973 32.8787L30.6571 26.474C30.7822 26.3458 30.9436 26.2612 31.1183 26.2321C31.293 26.203 31.4723 26.2308 31.6307 26.3117L38.0035 29.6729V18.4517C38.0035 17.9938 37.8257 17.5547 37.5093 17.231C37.1929 16.9072 36.7637 16.7254 36.3162 16.7254ZM16.0689 14.999C15.1739 14.999 14.3156 15.3628 13.6827 16.0103C13.0499 16.6578 12.6943 17.536 12.6943 18.4517V35.715C12.6943 36.6308 13.0499 37.509 13.6827 38.1565C14.3156 38.804 15.1739 39.1677 16.0689 39.1677H36.3162C36.7594 39.1677 37.1982 39.0784 37.6076 38.9049C38.017 38.7314 38.389 38.4771 38.7024 38.1565C39.0158 37.8358 39.2643 37.4552 39.4339 37.0363C39.6035 36.6174 39.6908 36.1685 39.6908 35.715V18.4517C39.6908 17.536 39.3353 16.6578 38.7024 16.0103C38.0695 15.3628 37.2112 14.999 36.3162 14.999H16.0689ZM22.818 22.7675C22.818 23.1076 22.7525 23.4443 22.6253 23.7585C22.4982 24.0727 22.3117 24.3581 22.0767 24.5986C21.8417 24.839 21.5627 25.0298 21.2556 25.1599C20.9486 25.2901 20.6195 25.357 20.2871 25.357C19.9547 25.357 19.6256 25.2901 19.3185 25.1599C19.0115 25.0298 18.7325 24.839 18.4975 24.5986C18.2624 24.3581 18.076 24.0727 17.9488 23.7585C17.8216 23.4443 17.7562 23.1076 17.7562 22.7675C17.7562 22.0808 18.0228 21.4221 18.4975 20.9365C18.9721 20.4509 19.6158 20.178 20.2871 20.178C20.9583 20.178 21.6021 20.4509 22.0767 20.9365C22.5514 21.4221 22.818 22.0808 22.818 22.7675Z" fill="#FF6D6D"/>
</g>
<defs>
<clipPath id="clip0_154_2230">
<rect width="27" height="26" fill="white" transform="translate(12.6914 14.0835)"/>
</clipPath>
</defs>
</svg>
