<svg width="20" height="21" viewBox="0 0 20 21" fill="none" xmlns="http://www.w3.org/2000/svg">
<path fill-rule="evenodd" clip-rule="evenodd" d="M20 10.4614C20 10.4614 16.25 3.58643 10 3.58643C3.75 3.58643 0 10.4614 0 10.4614C0 10.4614 3.75 17.3364 10 17.3364C16.25 17.3364 20 10.4614 20 10.4614ZM1.46625 10.4614C2.07065 11.38 2.76581 12.2356 3.54125 13.0152C5.15 14.6264 7.35 16.0864 10 16.0864C12.65 16.0864 14.8488 14.6264 16.46 13.0152C17.2354 12.2356 17.9306 11.38 18.535 10.4614C17.9306 9.54283 17.2354 8.68728 16.46 7.90768C14.8488 6.29643 12.6488 4.83643 10 4.83643C7.35 4.83643 5.15125 6.29643 3.54 7.90768C2.76455 8.68728 2.06939 9.54283 1.465 10.4614H1.46625Z" fill="black"/>
<path fill-rule="evenodd" clip-rule="evenodd" d="M10 7.33643C9.1712 7.33643 8.37634 7.66567 7.79029 8.25172C7.20424 8.83777 6.875 9.63262 6.875 10.4614C6.875 11.2902 7.20424 12.0851 7.79029 12.6711C8.37634 13.2572 9.1712 13.5864 10 13.5864C10.8288 13.5864 11.6237 13.2572 12.2097 12.6711C12.7958 12.0851 13.125 11.2902 13.125 10.4614C13.125 9.63262 12.7958 8.83777 12.2097 8.25172C11.6237 7.66567 10.8288 7.33643 10 7.33643ZM5.625 10.4614C5.625 9.3011 6.08594 8.18831 6.90641 7.36783C7.72688 6.54736 8.83968 6.08643 10 6.08643C11.1603 6.08643 12.2731 6.54736 13.0936 7.36783C13.9141 8.18831 14.375 9.3011 14.375 10.4614C14.375 11.6217 13.9141 12.7345 13.0936 13.555C12.2731 14.3755 11.1603 14.8364 10 14.8364C8.83968 14.8364 7.72688 14.3755 6.90641 13.555C6.08594 12.7345 5.625 11.6217 5.625 10.4614Z" fill="black"/>
</svg>
