<svg width="62" height="63" viewBox="0 0 62 63" fill="none" xmlns="http://www.w3.org/2000/svg">
<g clip-path="url(#clip0_154_2240)">
<path d="M31.0003 5.61035C16.733 5.61035 5.16699 17.1763 5.16699 31.4437C5.16699 45.711 16.733 57.277 31.0003 57.277C45.2677 57.277 56.8337 45.711 56.8337 31.4437C56.8337 24.5923 54.1119 18.0215 49.2673 13.1768C44.4226 8.33207 37.8518 5.61035 31.0003 5.61035ZM31.0003 13.3604C35.2805 13.3604 38.7503 16.8301 38.7503 21.1104C38.7503 25.3906 35.2805 28.8604 31.0003 28.8604C26.7201 28.8604 23.2503 25.3906 23.2503 21.1104C23.2503 16.8301 26.7201 13.3604 31.0003 13.3604ZM45.5187 42.1904C42.1072 46.7845 36.7226 49.4929 31.0003 49.4929C25.2781 49.4929 19.8934 46.7845 16.482 42.1904C15.9633 41.4238 15.8943 40.4384 16.3012 39.607L16.8437 38.4704C18.1221 35.7604 20.8481 34.0302 23.8445 34.027H38.1562C41.1104 34.031 43.8055 35.7141 45.1053 38.367L45.6995 39.5812C46.1165 40.4194 46.0473 41.4177 45.5187 42.1904Z" fill="#333333"/>
</g>
<defs>
<clipPath id="clip0_154_2240">
<rect width="62" height="62" fill="white" transform="translate(0 0.443848)"/>
</clipPath>
</defs>
</svg>
