<svg width="25" height="25" viewBox="0 0 25 25" fill="none" xmlns="http://www.w3.org/2000/svg">
<g clip-path="url(#clip0_219_1237)">
<path d="M16.25 12.7539C16.25 13.7485 15.8549 14.7023 15.1517 15.4056C14.4484 16.1088 13.4946 16.5039 12.5 16.5039C11.5054 16.5039 10.5516 16.1088 9.84835 15.4056C9.14509 14.7023 8.75 13.7485 8.75 12.7539C8.75 11.7593 9.14509 10.8055 9.84835 10.1023C10.5516 9.39899 11.5054 9.00391 12.5 9.00391C13.4946 9.00391 14.4484 9.39899 15.1517 10.1023C15.8549 10.8055 16.25 11.7593 16.25 12.7539Z" fill="#FF6D6D"/>
<path fill-rule="evenodd" clip-rule="evenodd" d="M0.5 12.7539C0.5 12.7539 5 4.50391 12.5 4.50391C20 4.50391 24.5 12.7539 24.5 12.7539C24.5 12.7539 20 21.0039 12.5 21.0039C5 21.0039 0.5 12.7539 0.5 12.7539ZM12.5 18.0039C13.8924 18.0039 15.2277 17.4508 16.2123 16.4662C17.1969 15.4817 17.75 14.1463 17.75 12.7539C17.75 11.3615 17.1969 10.0262 16.2123 9.0416C15.2277 8.05703 13.8924 7.50391 12.5 7.50391C11.1076 7.50391 9.77226 8.05703 8.78769 9.0416C7.80312 10.0262 7.25 11.3615 7.25 12.7539C7.25 14.1463 7.80312 15.4817 8.78769 16.4662C9.77226 17.4508 11.1076 18.0039 12.5 18.0039Z" fill="#FF6D6D"/>
</g>
<defs>
<clipPath id="clip0_219_1237">
<rect width="24" height="24" fill="white" transform="translate(0.5 0.753906)"/>
</clipPath>
</defs>
</svg>
