<svg width="25" height="25" viewBox="0 0 25 25" fill="none" xmlns="http://www.w3.org/2000/svg">
<g clip-path="url(#clip0_214_1055)">
<path fill-rule="evenodd" clip-rule="evenodd" d="M12.165 22.7119C14.9498 22.7119 17.6205 21.6057 19.5897 19.6365C21.5588 17.6674 22.665 14.9967 22.665 12.2119C22.665 9.42714 21.5588 6.75642 19.5897 4.78729C17.6205 2.81816 14.9498 1.71191 12.165 1.71191C9.38027 1.71191 6.70955 2.81816 4.74042 4.78729C2.77129 6.75642 1.66504 9.42714 1.66504 12.2119C1.66504 14.9967 2.77129 17.6674 4.74042 19.6365C6.70955 21.6057 9.38027 22.7119 12.165 22.7119ZM12.165 24.2119C15.3476 24.2119 18.3999 22.9476 20.6503 20.6972C22.9008 18.4468 24.165 15.3945 24.165 12.2119C24.165 9.02932 22.9008 5.97707 20.6503 3.72663C18.3999 1.4762 15.3476 0.211914 12.165 0.211914C8.98244 0.211914 5.93019 1.4762 3.67976 3.72663C1.42932 5.97707 0.165039 9.02932 0.165039 12.2119C0.165039 15.3945 1.42932 18.4468 3.67976 20.6972C5.93019 22.9476 8.98244 24.2119 12.165 24.2119Z" fill="#999999"/>
<path d="M10.668 16.7121C10.668 16.5151 10.7068 16.3201 10.7821 16.1381C10.8575 15.9561 10.968 15.7907 11.1073 15.6514C11.2466 15.5121 11.412 15.4017 11.5939 15.3263C11.7759 15.2509 11.971 15.2121 12.168 15.2121C12.365 15.2121 12.56 15.2509 12.742 15.3263C12.924 15.4017 13.0893 15.5121 13.2286 15.6514C13.3679 15.7907 13.4784 15.9561 13.5538 16.1381C13.6292 16.3201 13.668 16.5151 13.668 16.7121C13.668 17.1099 13.5099 17.4914 13.2286 17.7727C12.9473 18.0541 12.5658 18.2121 12.168 18.2121C11.7701 18.2121 11.3886 18.0541 11.1073 17.7727C10.826 17.4914 10.668 17.1099 10.668 16.7121ZM10.815 7.70459C10.795 7.51535 10.815 7.32403 10.8738 7.14303C10.9325 6.96204 11.0286 6.79541 11.1559 6.65397C11.2832 6.51253 11.4389 6.39943 11.6127 6.32201C11.7865 6.2446 11.9747 6.20459 12.165 6.20459C12.3553 6.20459 12.5434 6.2446 12.7173 6.32201C12.8911 6.39943 13.0467 6.51253 13.174 6.65397C13.3013 6.79541 13.3974 6.96204 13.4562 7.14303C13.5149 7.32403 13.5349 7.51535 13.515 7.70459L12.99 12.9651C12.9723 13.1717 12.8778 13.3643 12.725 13.5045C12.5722 13.6448 12.3724 13.7227 12.165 13.7227C11.9576 13.7227 11.7577 13.6448 11.6049 13.5045C11.4522 13.3643 11.3576 13.1717 11.34 12.9651L10.815 7.70459Z" fill="#999999"/>
</g>
<defs>
<clipPath id="clip0_214_1055">
<rect width="24" height="24" fill="white" transform="translate(0.165039 0.211914)"/>
</clipPath>
</defs>
</svg>
