<svg width="25" height="25" viewBox="0 0 25 25" fill="none" xmlns="http://www.w3.org/2000/svg">
<g clip-path="url(#clip0_721_281)">
<path d="M16.25 12.3848C16.25 13.3793 15.8549 14.3332 15.1517 15.0364C14.4484 15.7397 13.4946 16.1348 12.5 16.1348C11.5054 16.1348 10.5516 15.7397 9.84835 15.0364C9.14509 14.3332 8.75 13.3793 8.75 12.3848C8.75 11.3902 9.14509 10.4364 9.84835 9.73312C10.5516 9.02985 11.5054 8.63477 12.5 8.63477C13.4946 8.63477 14.4484 9.02985 15.1517 9.73312C15.8549 10.4364 16.25 11.3902 16.25 12.3848V12.3848Z" fill="#FF6D6D"/>
<path fill-rule="evenodd" clip-rule="evenodd" d="M0.5 12.3848C0.5 12.3848 5 4.13477 12.5 4.13477C20 4.13477 24.5 12.3848 24.5 12.3848C24.5 12.3848 20 20.6348 12.5 20.6348C5 20.6348 0.5 12.3848 0.5 12.3848ZM12.5 17.6348C13.8924 17.6348 15.2277 17.0816 16.2123 16.0971C17.1969 15.1125 17.75 13.7772 17.75 12.3848C17.75 10.9924 17.1969 9.65702 16.2123 8.67246C15.2277 7.68789 13.8924 7.13477 12.5 7.13477C11.1076 7.13477 9.77226 7.68789 8.78769 8.67246C7.80312 9.65702 7.25 10.9924 7.25 12.3848C7.25 13.7772 7.80312 15.1125 8.78769 16.0971C9.77226 17.0816 11.1076 17.6348 12.5 17.6348V17.6348Z" fill="#FF6D6D"/>
</g>
<defs>
<clipPath id="clip0_721_281">
<rect width="24" height="24" fill="white" transform="translate(0.5 0.384766)"/>
</clipPath>
</defs>
</svg>
