<svg width="34" height="34" viewBox="0 0 34 34" fill="none" xmlns="http://www.w3.org/2000/svg">
<circle cx="16.8262" cy="16.8262" r="16.8262" fill="#FF6D6D"/>
<path d="M19.7182 24.0582C19.6009 24.0582 19.3882 24.0582 19.0802 24.0582C18.7869 24.0582 18.4862 24.0508 18.1782 24.0362C17.8702 24.0362 17.5842 24.0288 17.3202 24.0142C17.0709 24.0142 16.9389 24.0142 16.9242 24.0142C16.8802 24.0142 16.7262 24.0142 16.4622 24.0142C16.1982 24.0288 15.9049 24.0362 15.5822 24.0362C15.2449 24.0508 14.9149 24.0582 14.5922 24.0582C14.2696 24.0582 14.0276 24.0582 13.8662 24.0582C13.6902 24.0582 13.5436 24.0288 13.4262 23.9702C13.3236 23.9262 13.2722 23.8015 13.2722 23.5962C13.2722 23.4055 13.3089 23.2735 13.3822 23.2002C13.4702 23.1268 13.6096 23.0828 13.8002 23.0682C14.1082 23.0682 14.3942 23.0462 14.6582 23.0022C14.9369 22.9728 15.1716 22.9215 15.3622 22.8482C15.4942 22.8042 15.5896 22.7088 15.6482 22.5622C15.7216 22.4008 15.7582 22.1808 15.7582 21.9022V11.2762C15.7582 11.0122 15.7289 10.8142 15.6702 10.6822C15.6116 10.5355 15.5162 10.4475 15.3842 10.4182C15.0616 10.3742 14.7389 10.3448 14.4162 10.3302C14.0936 10.3155 13.8002 10.3082 13.5362 10.3082C13.3602 10.3082 13.2136 10.2788 13.0962 10.2202C12.9789 10.1615 12.9202 10.0222 12.9202 9.80217C12.9202 9.62617 12.9569 9.50884 13.0302 9.45017C13.1036 9.37684 13.2356 9.31817 13.4262 9.27417C14.0862 9.1275 14.7756 8.90017 15.4942 8.59217C16.2129 8.28417 16.7996 7.99084 17.2542 7.71217H17.2322C17.4376 7.55084 17.6429 7.4995 17.8482 7.55817C18.0536 7.60217 18.1489 7.77084 18.1342 8.06417C18.0902 8.5335 18.0682 8.9955 18.0682 9.45017C18.0682 9.89017 18.0682 10.3302 18.0682 10.7702V21.9022C18.0682 22.1662 18.0976 22.3788 18.1562 22.5402C18.2149 22.7015 18.3102 22.8042 18.4422 22.8482C18.6329 22.9215 18.8529 22.9728 19.1022 23.0022C19.3662 23.0462 19.5936 23.0682 19.7842 23.0682C19.9602 23.0828 20.0922 23.1268 20.1802 23.2002C20.2682 23.2735 20.3122 23.4055 20.3122 23.5962C20.3122 23.8015 20.2536 23.9262 20.1362 23.9702C20.0189 24.0288 19.8796 24.0582 19.7182 24.0582Z" fill="white"/>
</svg>
