<svg width="18" height="18" viewBox="0 0 18 18" fill="none" xmlns="http://www.w3.org/2000/svg">
<g clip-path="url(#clip0_167_1299)">
<path d="M15.2026 9.045V14.5417C15.2026 14.9329 14.8855 15.25 14.4943 15.25H11.661C11.2698 15.25 10.9526 14.9329 10.9526 14.5417V10.6458C10.9526 10.4502 10.7941 10.2917 10.5985 10.2917H7.0568C6.8612 10.2917 6.70264 10.4502 6.70264 10.6458V14.5417C6.70264 14.9329 6.3855 15.25 5.9943 15.25H3.16097C2.76977 15.25 2.45264 14.9329 2.45264 14.5417V9.045C2.45313 8.4816 2.67734 7.94147 3.07597 7.54333L7.91389 2.70542C8.04582 2.57456 8.2239 2.50078 8.40972 2.5H9.24555C9.43138 2.50078 9.60945 2.57456 9.74139 2.70542L14.5793 7.54333C14.9779 7.94147 15.2021 8.4816 15.2026 9.045Z" fill="black"/>
</g>
<defs>
<clipPath id="clip0_167_1299">
<rect width="17" height="17" fill="white" transform="translate(0.327637 0.375)"/>
</clipPath>
</defs>
</svg>
