<svg width="528" height="524" viewBox="0 0 528 524" fill="none" xmlns="http://www.w3.org/2000/svg">
<path d="M172.482 121.862C172.322 121.862 172.202 121.822 172.122 121.742C172.042 121.662 172.002 121.562 172.002 121.442C172.002 121.322 172.042 121.222 172.122 121.142C172.202 121.062 172.322 121.022 172.482 121.022H179.202V117.782C179.202 117.662 179.182 117.542 179.142 117.422C179.122 117.282 179.112 117.142 179.112 117.002C179.112 116.842 179.182 116.702 179.322 116.582C179.462 116.462 179.622 116.402 179.802 116.402C179.962 116.402 180.112 116.462 180.252 116.582C180.392 116.702 180.462 116.842 180.462 117.002C180.462 117.142 180.442 117.282 180.402 117.422C180.382 117.542 180.372 117.662 180.372 117.782V121.022H188.802V117.782C188.802 117.662 188.782 117.542 188.742 117.422C188.722 117.282 188.712 117.142 188.712 117.002C188.712 116.842 188.782 116.702 188.922 116.582C189.062 116.462 189.222 116.402 189.402 116.402C189.562 116.402 189.712 116.462 189.852 116.582C189.992 116.702 190.062 116.842 190.062 117.002C190.062 117.142 190.042 117.282 190.002 117.422C189.982 117.542 189.972 117.662 189.972 117.782V121.022H196.722C196.882 121.022 197.002 121.062 197.082 121.142C197.182 121.222 197.232 121.322 197.232 121.442C197.232 121.562 197.182 121.662 197.082 121.742C197.002 121.822 196.882 121.862 196.722 121.862H172.482ZM175.002 102.572C174.842 102.572 174.722 102.532 174.642 102.452C174.562 102.372 174.522 102.272 174.522 102.152C174.522 102.032 174.562 101.932 174.642 101.852C174.722 101.772 174.842 101.732 175.002 101.732H184.032V98.6721C184.032 98.5521 184.012 98.4321 183.972 98.3121C183.952 98.1721 183.942 98.0321 183.942 97.8921C183.942 97.7321 184.012 97.5921 184.152 97.4721C184.292 97.3521 184.452 97.2921 184.632 97.2921C184.792 97.2921 184.942 97.3521 185.082 97.4721C185.222 97.5921 185.292 97.7321 185.292 97.8921C185.292 98.0321 185.272 98.1721 185.232 98.3121C185.212 98.4321 185.202 98.5521 185.202 98.6721V101.732H194.202C194.362 101.732 194.482 101.772 194.562 101.852C194.662 101.932 194.712 102.032 194.712 102.152C194.712 102.272 194.662 102.372 194.562 102.452C194.482 102.532 194.362 102.572 194.202 102.572H175.002ZM176.832 110.102C176.832 109.082 177.142 108.152 177.762 107.312C178.382 106.452 179.272 105.772 180.432 105.272C181.612 104.772 183.002 104.522 184.602 104.522C186.182 104.522 187.562 104.772 188.742 105.272C189.922 105.772 190.822 106.452 191.442 107.312C192.062 108.152 192.372 109.082 192.372 110.102C192.372 111.122 192.062 112.062 191.442 112.922C190.822 113.782 189.922 114.462 188.742 114.962C187.562 115.462 186.182 115.712 184.602 115.712C183.002 115.712 181.612 115.462 180.432 114.962C179.272 114.462 178.382 113.782 177.762 112.922C177.142 112.062 176.832 111.122 176.832 110.102ZM178.002 110.102C178.002 111.022 178.272 111.842 178.812 112.562C179.352 113.282 180.122 113.852 181.122 114.272C182.122 114.672 183.282 114.872 184.602 114.872C185.922 114.872 187.082 114.672 188.082 114.272C189.082 113.852 189.852 113.282 190.392 112.562C190.932 111.842 191.202 111.022 191.202 110.102C191.202 109.202 190.932 108.392 190.392 107.672C189.852 106.952 189.082 106.392 188.082 105.992C187.082 105.572 185.922 105.362 184.602 105.362C183.282 105.362 182.122 105.572 181.122 105.992C180.122 106.392 179.352 106.952 178.812 107.672C178.272 108.392 178.002 109.202 178.002 110.102ZM220.539 126.182C220.359 126.182 220.199 126.122 220.059 126.002C219.919 125.882 219.849 125.742 219.849 125.582C219.849 125.442 219.859 125.302 219.879 125.162C219.919 125.042 219.939 124.922 219.939 124.802V98.9721C219.939 98.8521 219.919 98.7321 219.879 98.6121C219.859 98.4721 219.849 98.3321 219.849 98.1921C219.849 98.0321 219.919 97.8921 220.059 97.7721C220.199 97.6521 220.359 97.5921 220.539 97.5921C220.699 97.5921 220.849 97.6521 220.989 97.7721C221.129 97.8921 221.199 98.0321 221.199 98.1921C221.199 98.3321 221.179 98.4721 221.139 98.6121C221.119 98.7321 221.109 98.8521 221.109 98.9721V108.332H225.219C225.379 108.332 225.499 108.372 225.579 108.452C225.679 108.532 225.729 108.632 225.729 108.752C225.729 108.872 225.679 108.972 225.579 109.052C225.499 109.132 225.379 109.172 225.219 109.172H221.109V124.802C221.109 124.922 221.119 125.042 221.139 125.162C221.179 125.302 221.199 125.442 221.199 125.582C221.199 125.742 221.129 125.882 220.989 126.002C220.849 126.122 220.699 126.182 220.539 126.182ZM201.549 100.592C201.549 100.412 201.609 100.262 201.729 100.142C201.849 100.002 201.999 99.9321 202.179 99.9321C202.339 99.9321 202.539 99.9821 202.779 100.082C202.859 100.122 203.019 100.142 203.259 100.142H214.749C214.909 100.142 215.029 100.182 215.109 100.262C215.209 100.342 215.259 100.442 215.259 100.562C215.259 100.682 215.209 100.782 215.109 100.862C215.029 100.942 214.909 100.982 214.749 100.982H202.809V112.472C202.809 113.672 202.989 114.672 203.349 115.472C203.709 116.252 204.239 116.882 204.939 117.362C206.039 118.122 207.459 118.502 209.199 118.502C210.339 118.502 211.499 118.332 212.679 117.992C213.859 117.632 214.969 117.112 216.009 116.432C216.169 116.332 216.309 116.282 216.429 116.282C216.529 116.282 216.609 116.312 216.669 116.372C216.729 116.432 216.759 116.502 216.759 116.582C216.759 116.782 216.639 116.962 216.399 117.122C215.319 117.822 214.139 118.362 212.859 118.742C211.599 119.102 210.359 119.282 209.139 119.282C207.359 119.282 205.839 118.922 204.579 118.202C203.599 117.642 202.859 116.902 202.359 115.982C201.879 115.042 201.639 113.882 201.639 112.502V101.342C201.639 101.222 201.619 101.102 201.579 100.982C201.559 100.842 201.549 100.712 201.549 100.592ZM248.137 114.452C247.957 114.452 247.797 114.392 247.657 114.272C247.517 114.152 247.447 114.012 247.447 113.852C247.447 113.712 247.457 113.582 247.477 113.462C247.517 113.322 247.537 113.192 247.537 113.072V98.9721C247.537 98.8521 247.517 98.7321 247.477 98.6121C247.457 98.4721 247.447 98.3321 247.447 98.1921C247.447 98.0321 247.517 97.8921 247.657 97.7721C247.797 97.6521 247.957 97.5921 248.137 97.5921C248.297 97.5921 248.447 97.6521 248.587 97.7721C248.727 97.8921 248.797 98.0321 248.797 98.1921C248.797 98.3321 248.777 98.4721 248.737 98.6121C248.717 98.7321 248.707 98.8521 248.707 98.9721V105.032H252.817C252.977 105.032 253.097 105.072 253.177 105.152C253.277 105.232 253.327 105.332 253.327 105.452C253.327 105.572 253.277 105.672 253.177 105.752C253.097 105.832 252.977 105.872 252.817 105.872H248.707V113.072C248.707 113.192 248.717 113.322 248.737 113.462C248.777 113.582 248.797 113.712 248.797 113.852C248.797 114.012 248.727 114.152 248.587 114.272C248.447 114.392 248.297 114.452 248.137 114.452ZM229.147 99.9921C229.147 99.8121 229.207 99.6621 229.327 99.5421C229.447 99.4021 229.597 99.3321 229.777 99.3321C229.937 99.3321 230.137 99.3821 230.377 99.4821C230.457 99.5221 230.617 99.5421 230.857 99.5421H242.347C242.507 99.5421 242.627 99.5821 242.707 99.6621C242.807 99.7421 242.857 99.8421 242.857 99.9621C242.857 100.082 242.807 100.182 242.707 100.262C242.627 100.342 242.507 100.382 242.347 100.382H230.407V105.632C230.407 106.952 230.597 107.962 230.977 108.662C231.357 109.342 231.957 109.862 232.777 110.222C233.897 110.702 235.207 110.942 236.707 110.942C237.827 110.942 238.987 110.802 240.187 110.522C241.387 110.222 242.527 109.802 243.607 109.262C243.747 109.182 243.877 109.142 243.997 109.142C244.117 109.142 244.207 109.172 244.267 109.232C244.347 109.292 244.387 109.372 244.387 109.472C244.387 109.652 244.257 109.812 243.997 109.952C242.837 110.532 241.607 110.982 240.307 111.302C239.027 111.622 237.767 111.782 236.527 111.782C235.027 111.782 233.657 111.542 232.417 111.062C231.297 110.622 230.487 109.982 229.987 109.142C229.487 108.302 229.237 107.142 229.237 105.662V100.742C229.237 100.622 229.217 100.502 229.177 100.382C229.157 100.242 229.147 100.112 229.147 99.9921ZM231.727 117.332C231.567 117.332 231.437 117.292 231.337 117.212C231.257 117.132 231.217 117.032 231.217 116.912C231.217 116.792 231.257 116.692 231.337 116.612C231.437 116.532 231.567 116.492 231.727 116.492H246.907C248.107 116.492 248.707 117.072 248.707 118.232V124.772C248.707 124.892 248.717 125.012 248.737 125.132C248.777 125.272 248.797 125.412 248.797 125.552C248.797 125.712 248.727 125.852 248.587 125.972C248.447 126.092 248.297 126.152 248.137 126.152C247.957 126.152 247.797 126.092 247.657 125.972C247.517 125.852 247.447 125.712 247.447 125.552C247.447 125.412 247.457 125.272 247.477 125.132C247.517 125.012 247.537 124.892 247.537 124.772V118.022C247.537 117.822 247.467 117.662 247.327 117.542C247.187 117.402 247.017 117.332 246.817 117.332H231.727ZM272.105 125.762C271.925 125.762 271.765 125.702 271.625 125.582C271.485 125.462 271.415 125.322 271.415 125.162C271.415 125.022 271.425 124.882 271.445 124.742C271.485 124.622 271.505 124.502 271.505 124.382V109.592H267.365H267.335C267.335 112.512 266.835 114.822 265.835 116.522C264.855 118.222 263.455 119.072 261.635 119.072C259.735 119.072 258.305 118.232 257.345 116.552C256.405 114.852 255.935 112.512 255.935 109.532C255.935 106.552 256.405 104.222 257.345 102.542C258.305 100.862 259.735 100.022 261.635 100.022C263.375 100.022 264.735 100.802 265.715 102.362C266.695 103.922 267.235 106.052 267.335 108.752H267.365H271.505V99.1221C271.505 99.0021 271.485 98.8821 271.445 98.7621C271.425 98.6221 271.415 98.4821 271.415 98.3421C271.415 98.1821 271.485 98.0421 271.625 97.9221C271.765 97.8021 271.925 97.7421 272.105 97.7421C272.265 97.7421 272.415 97.8021 272.555 97.9221C272.695 98.0421 272.765 98.1821 272.765 98.3421C272.765 98.4821 272.745 98.6221 272.705 98.7621C272.685 98.8821 272.675 99.0021 272.675 99.1221V124.382C272.675 124.502 272.685 124.622 272.705 124.742C272.745 124.882 272.765 125.022 272.765 125.162C272.765 125.322 272.695 125.462 272.555 125.582C272.415 125.702 272.265 125.762 272.105 125.762ZM257.105 109.532C257.105 112.252 257.485 114.382 258.245 115.922C259.005 117.462 260.135 118.232 261.635 118.232C263.055 118.232 264.165 117.452 264.965 115.892C265.765 114.332 266.165 112.212 266.165 109.532C266.165 106.852 265.765 104.742 264.965 103.202C264.165 101.642 263.055 100.862 261.635 100.862C260.135 100.862 259.005 101.632 258.245 103.172C257.485 104.692 257.105 106.812 257.105 109.532ZM276.995 125.582C276.995 125.442 277.005 125.302 277.025 125.162C277.065 125.042 277.085 124.922 277.085 124.802V98.9721C277.085 98.8521 277.065 98.7321 277.025 98.6121C277.005 98.4721 276.995 98.3321 276.995 98.1921C276.995 98.0321 277.065 97.8921 277.205 97.7721C277.345 97.6521 277.505 97.5921 277.685 97.5921C277.845 97.5921 277.995 97.6521 278.135 97.7721C278.275 97.8921 278.345 98.0321 278.345 98.1921C278.345 98.3321 278.325 98.4721 278.285 98.6121C278.265 98.7321 278.255 98.8521 278.255 98.9721V124.802C278.255 124.922 278.265 125.042 278.285 125.162C278.325 125.302 278.345 125.442 278.345 125.582C278.345 125.742 278.275 125.882 278.135 126.002C277.995 126.122 277.845 126.182 277.685 126.182C277.505 126.182 277.345 126.122 277.205 126.002C277.065 125.882 276.995 125.742 276.995 125.582ZM304.832 126.182C304.652 126.182 304.492 126.122 304.352 126.002C304.212 125.882 304.142 125.742 304.142 125.582C304.142 125.442 304.152 125.302 304.172 125.162C304.212 125.042 304.232 124.922 304.232 124.802V108.992H298.262C298.102 108.992 297.982 108.952 297.902 108.872C297.822 108.792 297.782 108.692 297.782 108.572C297.782 108.452 297.822 108.352 297.902 108.272C297.982 108.192 298.102 108.152 298.262 108.152H304.232V98.9721C304.232 98.8521 304.212 98.7321 304.172 98.6121C304.152 98.4721 304.142 98.3321 304.142 98.1921C304.142 98.0321 304.212 97.8921 304.352 97.7721C304.492 97.6521 304.652 97.5921 304.832 97.5921C304.992 97.5921 305.142 97.6521 305.282 97.7721C305.422 97.8921 305.492 98.0321 305.492 98.1921C305.492 98.3321 305.472 98.4721 305.432 98.6121C305.412 98.7321 305.402 98.8521 305.402 98.9721V124.802C305.402 124.922 305.412 125.042 305.432 125.162C305.472 125.302 305.492 125.442 305.492 125.582C305.492 125.742 305.422 125.882 305.282 126.002C305.142 126.122 304.992 126.182 304.832 126.182ZM283.472 118.622C283.512 118.562 283.562 118.492 283.622 118.412C283.702 118.332 283.762 118.262 283.802 118.202C286.402 113.422 288.552 109.552 290.252 106.592C291.952 103.612 293.132 101.602 293.792 100.562C293.832 100.502 293.862 100.402 293.882 100.262C293.902 100.102 293.952 99.9721 294.032 99.8721C294.152 99.6921 294.322 99.6021 294.542 99.6021C294.662 99.6021 294.782 99.6421 294.902 99.7221C295.122 99.8621 295.232 100.042 295.232 100.262C295.232 100.382 295.202 100.502 295.142 100.622C295.082 100.722 294.992 100.832 294.872 100.952C294.772 101.052 294.702 101.132 294.662 101.192L294.302 101.792C291.462 106.532 288.312 112.122 284.852 118.562C284.812 118.622 284.782 118.712 284.762 118.832C284.742 118.932 284.722 119.012 284.702 119.072C284.642 119.212 284.552 119.322 284.432 119.402C284.312 119.462 284.182 119.492 284.042 119.492C283.862 119.492 283.712 119.432 283.592 119.312C283.472 119.172 283.412 119.022 283.412 118.862C283.412 118.822 283.432 118.742 283.472 118.622ZM292.652 109.082C292.492 108.802 292.412 108.602 292.412 108.482C292.412 108.342 292.492 108.222 292.652 108.122C292.812 108.042 292.962 108.052 293.102 108.152C293.242 108.252 293.402 108.452 293.582 108.752C294.362 109.972 295.852 112.192 298.052 115.412L299.672 117.752C299.712 117.792 299.752 117.832 299.792 117.872C299.832 117.912 299.872 117.952 299.912 117.992C300.052 118.112 300.122 118.272 300.122 118.472C300.122 118.632 300.062 118.772 299.942 118.892C299.802 119.032 299.642 119.102 299.462 119.102C299.322 119.102 299.182 119.052 299.042 118.952C298.962 118.852 298.902 118.762 298.862 118.682C298.822 118.582 298.782 118.512 298.742 118.472C296.942 115.852 294.912 112.722 292.652 109.082ZM316.95 124.892C316.11 124.452 315.41 123.792 314.85 122.912C314.31 122.052 314.04 121.022 314.04 119.822V118.772C314.04 118.652 314.02 118.532 313.98 118.412C313.96 118.272 313.95 118.132 313.95 117.992C313.95 117.832 314.02 117.692 314.16 117.572C314.3 117.452 314.46 117.392 314.64 117.392C314.8 117.392 314.95 117.452 315.09 117.572C315.23 117.692 315.3 117.832 315.3 117.992C315.3 118.132 315.28 118.272 315.24 118.412C315.22 118.532 315.21 118.652 315.21 118.772V119.792C315.21 120.832 315.42 121.702 315.84 122.402C316.26 123.102 316.75 123.632 317.31 123.992C317.99 124.432 318.78 124.762 319.68 124.982C320.6 125.222 321.58 125.342 322.62 125.342C324.18 125.342 325.75 125.092 327.33 124.592C328.91 124.112 330.29 123.422 331.47 122.522C331.63 122.402 331.77 122.342 331.89 122.342C331.99 122.342 332.07 122.372 332.13 122.432C332.19 122.492 332.22 122.572 332.22 122.672C332.22 122.872 332.13 123.032 331.95 123.152C330.67 124.112 329.21 124.852 327.57 125.372C325.93 125.892 324.27 126.152 322.59 126.152C320.45 126.152 318.57 125.732 316.95 124.892ZM310.47 113.972C310.31 113.972 310.19 113.932 310.11 113.852C310.03 113.772 309.99 113.672 309.99 113.552C309.99 113.432 310.03 113.332 310.11 113.252C310.19 113.172 310.31 113.132 310.47 113.132H334.71C334.87 113.132 334.99 113.172 335.07 113.252C335.17 113.332 335.22 113.432 335.22 113.552C335.22 113.672 335.17 113.772 335.07 113.852C334.99 113.932 334.87 113.972 334.71 113.972H310.47ZM314.31 99.8121C314.31 99.6521 314.38 99.5121 314.52 99.3921C314.66 99.2721 314.82 99.2121 315 99.2121C315.16 99.2121 315.31 99.2721 315.45 99.3921C315.59 99.5121 315.66 99.6521 315.66 99.8121C315.66 99.9521 315.64 100.092 315.6 100.232C315.58 100.352 315.57 100.472 315.57 100.592V103.442C315.57 105.642 316.3 107.192 317.76 108.092C318.4 108.472 319.19 108.762 320.13 108.962C321.07 109.162 322.1 109.262 323.22 109.262C324.54 109.262 325.87 109.132 327.21 108.872C328.55 108.612 329.79 108.222 330.93 107.702C331.05 107.642 331.16 107.612 331.26 107.612C331.38 107.612 331.47 107.652 331.53 107.732C331.61 107.792 331.65 107.872 331.65 107.972C331.65 108.152 331.53 108.302 331.29 108.422C330.07 108.962 328.75 109.372 327.33 109.652C325.91 109.932 324.51 110.072 323.13 110.072C320.83 110.072 318.92 109.692 317.4 108.932C315.4 107.892 314.4 106.072 314.4 103.472V100.592C314.4 100.472 314.38 100.352 314.34 100.232C314.32 100.092 314.31 99.9521 314.31 99.8121ZM350.188 114.362C348.708 114.362 347.318 114.052 346.018 113.432C344.738 112.812 343.708 111.912 342.928 110.732C342.148 109.552 341.758 108.182 341.758 106.622C341.758 105.062 342.148 103.702 342.928 102.542C343.708 101.362 344.738 100.462 346.018 99.8421C347.318 99.2221 348.708 98.9121 350.188 98.9121C351.648 98.9121 353.018 99.2221 354.298 99.8421C355.598 100.462 356.638 101.362 357.418 102.542C358.218 103.702 358.618 105.062 358.618 106.622C358.618 108.182 358.218 109.552 357.418 110.732C356.638 111.912 355.598 112.812 354.298 113.432C353.018 114.052 351.648 114.362 350.188 114.362ZM338.068 121.862C337.908 121.862 337.788 121.822 337.708 121.742C337.628 121.662 337.588 121.562 337.588 121.442C337.588 121.322 337.628 121.222 337.708 121.142C337.788 121.062 337.908 121.022 338.068 121.022H344.788V115.982C344.788 115.862 344.768 115.742 344.728 115.622C344.708 115.482 344.698 115.342 344.698 115.202C344.698 115.042 344.768 114.902 344.908 114.782C345.048 114.662 345.208 114.602 345.388 114.602C345.548 114.602 345.698 114.662 345.838 114.782C345.978 114.902 346.048 115.042 346.048 115.202C346.048 115.342 346.028 115.482 345.988 115.622C345.968 115.742 345.958 115.862 345.958 115.982V121.022H354.388V115.982C354.388 115.862 354.368 115.742 354.328 115.622C354.308 115.482 354.298 115.342 354.298 115.202C354.298 115.042 354.368 114.902 354.508 114.782C354.648 114.662 354.808 114.602 354.988 114.602C355.148 114.602 355.298 114.662 355.438 114.782C355.578 114.902 355.648 115.042 355.648 115.202C355.648 115.342 355.628 115.482 355.588 115.622C355.568 115.742 355.558 115.862 355.558 115.982V121.022H362.308C362.468 121.022 362.588 121.062 362.668 121.142C362.768 121.222 362.818 121.322 362.818 121.442C362.818 121.562 362.768 121.662 362.668 121.742C362.588 121.822 362.468 121.862 362.308 121.862H338.068ZM342.928 106.622C342.928 108.082 343.278 109.332 343.978 110.372C344.678 111.412 345.578 112.202 346.678 112.742C347.798 113.262 348.968 113.522 350.188 113.522C351.408 113.522 352.568 113.262 353.668 112.742C354.788 112.202 355.698 111.412 356.398 110.372C357.098 109.332 357.448 108.082 357.448 106.622C357.448 105.162 357.098 103.922 356.398 102.902C355.698 101.862 354.788 101.082 353.668 100.562C352.568 100.022 351.408 99.7521 350.188 99.7521C348.968 99.7521 347.798 100.012 346.678 100.532C345.578 101.052 344.678 101.832 343.978 102.872C343.278 103.912 342.928 105.162 342.928 106.622ZM367.495 123.662C367.195 123.662 366.955 123.562 366.775 123.362C366.595 123.182 366.505 122.932 366.505 122.612C366.505 122.332 366.595 122.102 366.775 121.922C366.975 121.742 367.215 121.652 367.495 121.652C367.775 121.652 368.005 121.742 368.185 121.922C368.365 122.122 368.455 122.352 368.455 122.612C368.455 122.932 368.365 123.182 368.185 123.362C368.005 123.562 367.775 123.662 367.495 123.662ZM374.497 123.662C374.197 123.662 373.957 123.562 373.777 123.362C373.597 123.182 373.507 122.932 373.507 122.612C373.507 122.332 373.597 122.102 373.777 121.922C373.977 121.742 374.217 121.652 374.497 121.652C374.777 121.652 375.007 121.742 375.187 121.922C375.367 122.122 375.457 122.352 375.457 122.612C375.457 122.932 375.367 123.182 375.187 123.362C375.007 123.562 374.777 123.662 374.497 123.662ZM381.499 123.662C381.199 123.662 380.959 123.562 380.779 123.362C380.599 123.182 380.509 122.932 380.509 122.612C380.509 122.332 380.599 122.102 380.779 121.922C380.979 121.742 381.219 121.652 381.499 121.652C381.779 121.652 382.009 121.742 382.189 121.922C382.369 122.122 382.459 122.352 382.459 122.612C382.459 122.932 382.369 123.182 382.189 123.362C382.009 123.562 381.779 123.662 381.499 123.662Z" fill="black"/>
<path d="M157.718 152.794C157.708 158.263 156.234 162.843 149.827 166.173L148.46 164.298C151.273 162.823 153.031 161.173 154.056 159.2L148.89 159.669L148.558 157.56L154.827 157.189C155.033 156.437 155.159 155.636 155.228 154.786H149.515V152.794H157.718ZM157.679 159.962V157.931H161.097V151.095H163.577V168.868H161.097V159.962H157.679ZM182.132 161.017V163.009H178.46V168.907H175.96V163.009H172.132V168.907H169.632V163.009H165.863V161.017H182.132ZM167.777 159.103V151.935H180.179V159.103H167.777ZM170.238 157.11H177.699V153.907H170.238V157.11ZM198.109 151.095V168.868H195.628V151.095H198.109ZM184.124 164.474V152.794H186.585V162.355C188.988 162.316 191.566 162.091 194.183 161.583L194.495 163.634C191.38 164.288 188.431 164.484 185.687 164.474H184.124ZM210.472 152.56V154.591H203.89V157.521H209.73V159.474H203.89V162.833C206.615 162.814 208.783 162.706 211.273 162.325L211.507 164.337C208.714 164.747 206.165 164.825 202.952 164.825H201.429V152.56H210.472ZM212.874 168.868V151.095H215.394V168.868H212.874ZM233.148 151.095V168.868H230.765V151.095H233.148ZM217.894 158.79C217.894 154.816 219.408 152.355 221.761 152.364C223.9 152.355 225.365 154.357 225.638 157.677H227.093V151.349H229.437V168.048H227.093V159.65H225.658C225.443 163.136 223.949 165.255 221.761 165.255C219.408 165.255 217.894 162.784 217.894 158.79ZM220.199 158.79C220.179 161.525 220.765 162.872 221.761 162.853C222.786 162.872 223.392 161.525 223.382 158.79C223.392 156.066 222.786 154.708 221.761 154.708C220.765 154.708 220.179 156.066 220.199 158.79ZM241.741 155.118C241.751 158.458 243.099 161.71 246.058 162.989L244.534 164.982C242.562 164.025 241.234 162.247 240.491 160.05C239.73 162.384 238.363 164.298 236.331 165.294L234.769 163.263C237.816 161.886 239.202 158.458 239.222 155.118V152.462H241.741V155.118ZM244.066 158.693V156.681H247.562V151.095H250.023V168.907H247.562V158.693H244.066ZM263.48 155.939C263.47 158.644 264.915 161.769 267.835 163.126L266.449 165.079C264.466 164.171 263.06 162.355 262.259 160.226C261.468 162.569 260.003 164.562 257.952 165.528L256.507 163.556C259.466 162.179 260.96 158.878 260.98 155.939V154.845H257.21V152.814H267.054V154.845H263.48V155.939ZM268.441 168.868V151.095H270.941V157.872H273.558V159.962H270.941V168.868H268.441ZM290.452 160.978V162.989H286.644V168.868H284.105V162.989H280.472V168.868H277.913V162.989H274.183V160.978H290.452ZM275.824 155.704C275.814 153.253 278.45 151.691 282.269 151.681C286.087 151.691 288.753 153.253 288.753 155.704C288.753 158.097 286.087 159.62 282.269 159.61C278.45 159.62 275.814 158.097 275.824 155.704ZM278.382 155.704C278.372 156.954 279.886 157.648 282.269 157.657C284.671 157.648 286.175 156.954 286.175 155.704C286.175 154.396 284.671 153.683 282.269 153.673C279.886 153.683 278.372 154.396 278.382 155.704ZM307.738 159.923V161.896H291.468V159.923H298.363V158.849H293.499V154.181H303.265V153.263H293.46V151.349H305.765V155.958H295.98V156.954H306.097V158.849H300.843V159.923H307.738ZM293.519 168.673V162.54H295.999V163.712H303.363V162.54H305.824V168.673H293.519ZM295.999 166.759H303.363V165.568H295.999V166.759ZM324.183 151.095V168.868H321.839V151.095H324.183ZM308.558 163.419C312.152 161.29 313.734 158.702 314.075 155.216H309.534V153.204H316.546C316.546 154.903 316.361 156.485 315.931 157.95H318.07V151.485H320.394V168.087H318.07V159.923H315.159C314.144 161.954 312.493 163.712 309.964 165.177L308.558 163.419ZM346.878 158.146V160.118H340.003V161.251H344.906V165.802H335.003V166.876H345.374V168.751H332.562V164.044H342.445V163.126H332.542V161.251H337.503V160.118H330.667V158.146H346.878ZM332.679 157.208V151.603H344.827V157.208H332.679ZM335.12 155.294H342.347V153.536H335.12V155.294ZM352.855 152.345C355.257 152.345 357.054 154.318 357.406 157.521H360.491V151.095H362.952V168.907H360.491V159.513H357.435C357.171 162.931 355.335 165.021 352.855 165.021C350.159 165.021 348.226 162.579 348.245 158.673C348.226 154.796 350.159 152.345 352.855 152.345ZM350.628 158.673C350.618 161.319 351.527 162.765 352.855 162.755C354.193 162.765 355.081 161.319 355.081 158.673C355.081 156.036 354.193 154.591 352.855 154.591C351.527 154.591 350.618 156.036 350.628 158.673ZM368.558 152.501V154.728H372.64V152.501H375.14V160.685H371.878V163.38C373.255 163.312 374.632 163.204 375.921 163.028L376.097 164.845C372.376 165.509 368.372 165.519 365.355 165.528L365.023 163.497C366.331 163.497 367.825 163.497 369.398 163.468V160.685H366.116V152.501H368.558ZM368.558 158.732H372.64V156.622H368.558V158.732ZM376.859 168.868V151.095H379.359V158.204H381.781V160.275H379.359V168.868H376.859ZM398.792 164.747V166.798H382.523V164.747H386.156V160.392C384.779 159.562 383.949 158.302 383.949 156.739C383.949 153.859 386.761 151.964 390.628 151.954C394.476 151.964 397.318 153.859 397.327 156.739C397.318 158.273 396.517 159.513 395.179 160.343V164.747H398.792ZM386.409 156.739C386.409 158.478 388.079 159.552 390.628 159.552C393.138 159.552 394.857 158.478 394.866 156.739C394.857 154.952 393.138 153.917 390.628 153.927C388.079 153.917 386.409 154.952 386.409 156.739ZM388.616 164.747H392.659V161.29C392.025 161.417 391.341 161.485 390.628 161.485C389.915 161.485 389.241 161.417 388.616 161.3V164.747Z" fill="#FF6D6D"/>
<g clip-path="url(#clip0_72_576)">
<path d="M382.489 391.868L383.522 372.788C383.522 372.788 417.38 365.812 417.38 345.706C417.38 325.6 362.051 323.138 356.477 332.371C356.421 332.463 356.366 332.555 356.311 332.647C349.426 344.186 353.313 359.167 365.029 365.83C369.035 368.109 373.811 370.059 379.393 371.146L379 391.416" fill="#CCCCCC"/>
<path d="M351.087 287.697C361.643 287.697 370.201 279.193 370.201 268.702C370.201 258.211 361.643 249.707 351.087 249.707C340.53 249.707 331.973 258.211 331.973 268.702C331.973 279.193 340.53 287.697 351.087 287.697Z" fill="#FF6D6D"/>
<path d="M322.889 387.345L301.331 385.979L300.169 289.647C300.14 287.309 301.078 285.02 302.742 283.366L325.837 260.415C329.07 257.203 334.159 256.97 337.674 259.876L362.737 280.595C364.782 282.286 365.936 284.771 365.905 287.414L365.044 359.86L375.937 374.895L375.96 374.927L377.806 390.824L322.889 387.345Z" fill="#E6E6E6"/>
<path d="M326.512 282.845V278.378C326.512 277.199 327.477 276.24 328.664 276.24H334.979C336.166 276.24 337.131 277.199 337.131 278.378V282.845C337.131 284.024 336.166 284.983 334.979 284.983H328.664C327.477 284.983 326.512 284.024 326.512 282.845Z" fill="#FFC450"/>
<path d="M313.162 317.518V300.991C313.162 299.812 314.127 298.853 315.314 298.853H324.663C325.85 298.853 326.815 299.812 326.815 300.991V317.518C326.815 318.697 325.85 319.657 324.663 319.657H315.314C314.127 319.657 313.162 318.697 313.162 317.518Z" fill="#3F3D56"/>
<path d="M334.296 356.205C333.166 356.165 332.255 355.254 332.221 354.131L331.749 338.156C331.728 337.474 332.025 336.841 332.563 336.417C333.102 335.994 333.791 335.852 334.454 336.027L334.927 336.153C335.867 336.402 336.524 337.252 336.524 338.219V354.068C336.524 354.653 336.29 355.2 335.867 355.606C335.462 355.995 334.934 356.206 334.374 356.206C334.348 356.206 334.322 356.206 334.296 356.205Z" fill="#3F3D56"/>
<path d="M305.628 355.606C305.204 355.2 304.97 354.653 304.97 354.068V338.219C304.97 337.252 305.627 336.402 306.568 336.153L307.04 336.027C307.704 335.852 308.393 335.994 308.931 336.417C309.469 336.841 309.766 337.474 309.746 338.156L309.273 354.131C309.24 355.254 308.328 356.165 307.198 356.205C307.172 356.206 307.146 356.206 307.12 356.206C306.56 356.206 306.033 355.995 305.628 355.606Z" fill="#3F3D56"/>
<path d="M314.679 354.001V337.426C314.679 336.256 315.601 335.317 316.779 335.288L325.276 335.082C326.454 335.066 327.445 335.984 327.48 337.158L327.969 353.939C327.986 354.521 327.77 355.073 327.362 355.491C326.953 355.909 326.405 356.139 325.818 356.139H316.831C315.645 356.139 314.679 355.18 314.679 354.001Z" fill="#3F3D56"/>
<path d="M364.906 365.327L371.566 377.094L372.331 390.327L377.634 390.662L375.814 374.983L364.892 359.908C363.949 361.594 363.954 363.646 364.906 365.327Z" fill="#CCCCCC"/>
<path d="M372.118 386.54L350.501 386.833L350.506 387.135L372.122 386.841L372.118 386.54Z" fill="#3F3D56"/>
<path d="M370.807 383.879L350.311 384.038L350.313 384.339L370.809 384.18L370.807 383.879Z" fill="#3F3D56"/>
<path d="M369.743 381.159L350.138 381.54L350.144 381.841L369.749 381.461L369.743 381.159Z" fill="#3F3D56"/>
<path d="M369.134 378.455L350.307 379.076L350.317 379.378L369.144 378.757L369.134 378.455Z" fill="#3F3D56"/>
<path d="M368.224 376.047L350.135 376.679L350.145 376.981L368.235 376.349L368.224 376.047Z" fill="#3F3D56"/>
<path d="M367.015 373.928H349.396V374.23H367.015V373.928Z" fill="#3F3D56"/>
<path d="M366.104 371.812L348.981 372.012L348.985 372.313L366.107 372.114L366.104 371.812Z" fill="#3F3D56"/>
<path d="M365.19 369.704L348.598 370.251L348.608 370.553L365.2 370.005L365.19 369.704Z" fill="#3F3D56"/>
<path d="M364.586 367.604L348.202 367.89L348.207 368.192L364.591 367.906L364.586 367.604Z" fill="#3F3D56"/>
<path d="M363.37 365.516L347.682 366.003L347.692 366.305L363.379 365.817L363.37 365.516Z" fill="#3F3D56"/>
<path d="M362.767 363.677L347.217 363.828L347.22 364.129L362.769 363.978L362.767 363.677Z" fill="#3F3D56"/>
<path d="M346.081 357.468V337.021C346.081 335.842 347.046 334.883 348.233 334.883H358.189C359.376 334.883 360.341 335.842 360.341 337.021V357.468C360.341 358.647 359.376 359.606 358.189 359.606H348.233C347.046 359.606 346.081 358.647 346.081 357.468Z" fill="#FFC450"/>
<path d="M322.889 387.345L305.264 386.229L305.122 386.22V372.665C305.122 370.951 306.525 369.556 308.25 369.556H325.659C327.384 369.556 328.787 370.951 328.787 372.665V387.345H328.636L322.889 387.345Z" fill="#CCCCCC"/>
<path d="M347.294 320.383V304.76C347.294 303.581 348.26 302.622 349.446 302.622H352.728C353.914 302.622 354.879 303.581 354.879 304.76V320.383C354.879 321.562 353.914 322.521 352.728 322.521H349.446C348.26 322.521 347.294 321.562 347.294 320.383Z" fill="#3F3D56"/>
<path d="M350.632 388.853L349.722 375.586L346.991 362.923L346.233 359.456C344.674 358.402 342.575 359.574 342.669 361.445L342.743 362.923L345.474 375.586L346.384 388.853" fill="#CCCCCC"/>
<path d="M247.342 382.521L225.785 381.155L224.622 284.823C224.594 282.485 225.532 280.195 227.196 278.542L250.291 255.591C253.524 252.378 258.612 252.146 262.128 255.052L287.191 275.771C289.235 277.462 290.39 279.947 290.359 282.59L289.498 355.036L300.391 370.071L300.414 370.103L302.26 385.999L247.342 382.521Z" fill="#E6E6E6"/>
<path d="M250.965 278.021V273.554C250.965 272.375 251.931 271.416 253.117 271.416H259.433C260.619 271.416 261.584 272.375 261.584 273.554V278.021C261.584 279.2 260.619 280.159 259.433 280.159H253.117C251.931 280.159 250.965 279.2 250.965 278.021Z" fill="#FFC450"/>
<path d="M237.616 312.694V296.167C237.616 294.988 238.581 294.029 239.768 294.029H249.117C250.303 294.029 251.269 294.988 251.269 296.167V312.694C251.269 313.873 250.303 314.833 249.117 314.833H239.768C238.581 314.833 237.616 313.873 237.616 312.694Z" fill="#3F3D56"/>
<path d="M257.206 331.829C256.743 332.193 256.488 332.738 256.506 333.323L256.978 349.298C257.007 350.263 257.79 351.045 258.76 351.079C259.271 351.1 259.746 350.915 260.109 350.565C260.474 350.216 260.674 349.747 260.674 349.244V333.395C260.674 332.564 260.11 331.834 259.302 331.62L258.829 331.495C258.669 331.452 258.507 331.431 258.347 331.431C257.937 331.431 257.538 331.568 257.206 331.829Z" fill="#3F3D56"/>
<path d="M230.081 350.782C229.657 350.376 229.424 349.829 229.424 349.244V333.395C229.424 332.427 230.081 331.578 231.021 331.329L231.494 331.203C232.156 331.028 232.846 331.17 233.384 331.593C233.923 332.017 234.22 332.651 234.199 333.332L233.727 349.307C233.693 350.43 232.782 351.341 231.652 351.381C231.626 351.382 231.599 351.382 231.573 351.382C231.014 351.382 230.486 351.171 230.081 350.782Z" fill="#3F3D56"/>
<path d="M239.133 349.177V332.602C239.133 331.431 240.055 330.492 241.232 330.464L249.73 330.258C249.748 330.257 249.765 330.257 249.783 330.257C250.94 330.257 251.9 331.178 251.933 332.334L252.423 349.115C252.44 349.697 252.224 350.249 251.815 350.667C251.407 351.085 250.858 351.315 250.272 351.315H241.285C240.098 351.315 239.133 350.356 239.133 349.177Z" fill="#3F3D56"/>
<path d="M289.36 360.503L296.02 372.27L296.785 385.503L302.088 385.838L300.268 370.159L289.345 355.084C288.403 356.77 288.408 358.822 289.36 360.503Z" fill="#CCCCCC"/>
<path d="M296.572 381.715L274.955 382.009L274.959 382.311L296.576 382.017L296.572 381.715Z" fill="#3F3D56"/>
<path d="M295.26 379.054L274.764 379.214L274.767 379.515L295.263 379.356L295.26 379.054Z" fill="#3F3D56"/>
<path d="M294.196 376.335L274.591 376.716L274.597 377.017L294.202 376.637L294.196 376.335Z" fill="#3F3D56"/>
<path d="M293.588 373.631L274.76 374.252L274.77 374.554L293.598 373.933L293.588 373.631Z" fill="#3F3D56"/>
<path d="M292.678 371.223L274.588 371.855L274.599 372.157L292.688 371.525L292.678 371.223Z" fill="#3F3D56"/>
<path d="M291.469 369.104H273.85V369.406H291.469V369.104Z" fill="#3F3D56"/>
<path d="M290.557 366.988L273.434 367.188L273.438 367.489L290.56 367.29L290.557 366.988Z" fill="#3F3D56"/>
<path d="M289.643 364.88L273.052 365.427L273.062 365.729L289.653 365.181L289.643 364.88Z" fill="#3F3D56"/>
<path d="M289.039 362.78L272.655 363.066L272.661 363.368L289.044 363.081L289.039 362.78Z" fill="#3F3D56"/>
<path d="M287.823 360.692L272.136 361.179L272.145 361.48L287.833 360.993L287.823 360.692Z" fill="#3F3D56"/>
<path d="M287.22 358.853L271.671 359.004L271.674 359.305L287.223 359.154L287.22 358.853Z" fill="#3F3D56"/>
<path d="M270.535 352.644V332.197C270.535 331.018 271.5 330.059 272.686 330.059H282.643C283.829 330.059 284.794 331.018 284.794 332.197V352.644C284.794 353.823 283.829 354.782 282.643 354.782H272.686C271.5 354.782 270.535 353.823 270.535 352.644Z" fill="#FFC450"/>
<path d="M247.342 382.521L229.718 381.405L229.576 381.396V367.841C229.576 366.127 230.979 364.732 232.704 364.732H250.113C251.838 364.732 253.241 366.127 253.241 367.841V382.521H253.089L247.342 382.521Z" fill="#CCCCCC"/>
<path d="M271.748 315.558V299.936C271.748 298.757 272.713 297.797 273.9 297.797H277.181C278.368 297.797 279.333 298.757 279.333 299.936V315.558C279.333 316.738 278.368 317.697 277.181 317.697H273.9C272.713 317.697 271.748 316.738 271.748 315.558Z" fill="#3F3D56"/>
<path d="M275.085 384.029L274.175 370.762L271.445 358.099L270.686 354.632C269.127 353.578 267.029 354.75 267.123 356.621L267.197 358.099L269.928 370.762L270.838 384.029" fill="#CCCCCC"/>
<path d="M171.796 377.697L150.238 376.331L149.076 279.999C149.048 277.661 149.986 275.371 151.65 273.718L174.745 250.767C177.978 247.554 183.066 247.322 186.581 250.228L211.644 270.947C213.689 272.637 214.844 275.123 214.812 277.766L213.951 350.212L224.844 365.247L224.867 365.279L226.713 381.175L171.796 377.697Z" fill="#E6E6E6"/>
<path d="M175.419 273.197V268.73C175.419 267.551 176.384 266.591 177.571 266.591H183.886C185.073 266.591 186.038 267.551 186.038 268.73V273.197C186.038 274.376 185.073 275.335 183.886 275.335H177.571C176.384 275.335 175.419 274.376 175.419 273.197Z" fill="#FFC450"/>
<path d="M162.069 307.87V291.343C162.069 290.164 163.035 289.204 164.221 289.204H173.571C174.757 289.204 175.722 290.164 175.722 291.343V307.87C175.722 309.049 174.757 310.008 173.571 310.008H164.221C163.035 310.008 162.069 309.049 162.069 307.87Z" fill="#3F3D56"/>
<path d="M183.203 346.557C182.073 346.517 181.162 345.606 181.128 344.482L180.656 328.508C180.636 327.826 180.932 327.192 181.471 326.769C182.009 326.346 182.697 326.204 183.361 326.379L183.834 326.505C184.774 326.754 185.431 327.603 185.431 328.571V344.42C185.431 345.005 185.198 345.552 184.774 345.958C184.369 346.347 183.841 346.558 183.282 346.558C183.256 346.558 183.229 346.558 183.203 346.557Z" fill="#3F3D56"/>
<path d="M155.514 326.65L155.987 326.525C157.28 326.182 158.541 327.174 158.501 328.504L158.029 344.478C157.998 345.526 157.154 346.369 156.1 346.406C154.969 346.446 154.029 345.545 154.029 344.42V328.571C154.029 327.67 154.638 326.882 155.514 326.65Z" fill="#3F3D56"/>
<path d="M163.586 344.353V327.777C163.586 326.607 164.508 325.668 165.686 325.639L174.183 325.434C175.367 325.415 176.353 326.336 176.387 327.509L176.876 344.291C176.893 344.873 176.678 345.424 176.269 345.843C175.86 346.261 175.312 346.491 174.725 346.491H165.738C164.552 346.491 163.586 345.532 163.586 344.353Z" fill="#3F3D56"/>
<path d="M213.813 355.679L220.474 367.446L221.238 380.679L226.542 381.014L224.721 365.335L213.799 350.26C212.856 351.946 212.862 353.998 213.813 355.679Z" fill="#CCCCCC"/>
<path d="M221.025 376.891L199.408 377.185L199.412 377.487L221.029 377.193L221.025 376.891Z" fill="#3F3D56"/>
<path d="M219.714 374.23L199.218 374.389L199.22 374.691L219.716 374.532L219.714 374.23Z" fill="#3F3D56"/>
<path d="M218.65 371.511L199.044 371.892L199.05 372.193L218.656 371.813L218.65 371.511Z" fill="#3F3D56"/>
<path d="M218.042 368.807L199.214 369.428L199.224 369.73L218.052 369.108L218.042 368.807Z" fill="#3F3D56"/>
<path d="M217.131 366.399L199.042 367.031L199.053 367.333L217.142 366.701L217.131 366.399Z" fill="#3F3D56"/>
<path d="M215.923 364.28H198.304V364.581H215.923V364.28Z" fill="#3F3D56"/>
<path d="M215.01 362.164L197.888 362.364L197.891 362.665L215.014 362.466L215.01 362.164Z" fill="#3F3D56"/>
<path d="M214.097 360.055L197.505 360.603L197.515 360.904L214.107 360.357L214.097 360.055Z" fill="#3F3D56"/>
<path d="M213.493 357.956L197.109 358.242L197.114 358.544L213.498 358.257L213.493 357.956Z" fill="#3F3D56"/>
<path d="M212.277 355.868L196.589 356.355L196.599 356.656L212.286 356.169L212.277 355.868Z" fill="#3F3D56"/>
<path d="M211.674 354.029L196.125 354.179L196.127 354.481L211.677 354.33L211.674 354.029Z" fill="#3F3D56"/>
<path d="M194.988 347.82V327.373C194.988 326.194 195.953 325.235 197.14 325.235H207.096C208.282 325.235 209.248 326.194 209.248 327.373V347.82C209.248 348.999 208.282 349.958 207.096 349.958H197.14C195.953 349.958 194.988 348.999 194.988 347.82Z" fill="#FFC450"/>
<path d="M171.796 377.697L154.171 376.581L154.029 376.572V363.017C154.029 361.303 155.433 359.908 157.158 359.908H174.566C176.291 359.908 177.694 361.303 177.694 363.017V377.697H177.543L171.796 377.697Z" fill="#CCCCCC"/>
<path d="M196.202 310.734V295.112C196.202 293.933 197.167 292.973 198.354 292.973H201.635C202.821 292.973 203.787 293.933 203.787 295.112V310.734C203.787 311.913 202.821 312.873 201.635 312.873H198.354C197.167 312.873 196.202 311.913 196.202 310.734Z" fill="#3F3D56"/>
<path d="M199.539 379.204L198.629 365.938L195.898 353.275L195.14 349.807C193.581 348.754 191.482 349.926 191.576 351.797L191.651 353.275L194.381 365.938L195.291 379.204" fill="#CCCCCC"/>
<path d="M144.018 375.888L145.05 356.808C145.05 356.808 178.908 349.832 178.908 329.726C178.908 309.62 123.579 307.158 118.005 316.391C117.949 316.483 117.894 316.575 117.839 316.667C110.954 328.206 114.841 343.187 126.557 349.85C130.563 352.129 135.34 354.079 140.921 355.166L140.528 375.436" fill="#CCCCCC"/>
<path d="M122.079 374.271L122.04 374.873L398.096 392.59L398.136 391.988L122.079 374.271Z" fill="#CCCCCC"/>
</g>
<defs>
<clipPath id="clip0_72_576">
<rect width="302.944" height="144.427" fill="white" transform="translate(114.436 248.194)"/>
</clipPath>
</defs>
</svg>
