<svg width="505" height="508" viewBox="0 0 505 508" fill="none" xmlns="http://www.w3.org/2000/svg">
<path d="M155.788 119.741C155.628 119.741 155.508 119.701 155.428 119.621C155.348 119.541 155.308 119.441 155.308 119.321C155.308 119.201 155.348 119.101 155.428 119.021C155.508 118.941 155.628 118.901 155.788 118.901H162.508V115.661C162.508 115.541 162.488 115.421 162.448 115.301C162.428 115.161 162.418 115.021 162.418 114.881C162.418 114.721 162.488 114.581 162.628 114.461C162.768 114.341 162.928 114.281 163.108 114.281C163.268 114.281 163.418 114.341 163.558 114.461C163.698 114.581 163.768 114.721 163.768 114.881C163.768 115.021 163.748 115.161 163.708 115.301C163.688 115.421 163.678 115.541 163.678 115.661V118.901H172.108V115.661C172.108 115.541 172.088 115.421 172.048 115.301C172.028 115.161 172.018 115.021 172.018 114.881C172.018 114.721 172.088 114.581 172.228 114.461C172.368 114.341 172.528 114.281 172.708 114.281C172.868 114.281 173.018 114.341 173.158 114.461C173.298 114.581 173.368 114.721 173.368 114.881C173.368 115.021 173.348 115.161 173.308 115.301C173.288 115.421 173.278 115.541 173.278 115.661V118.901H180.028C180.188 118.901 180.308 118.941 180.388 119.021C180.488 119.101 180.538 119.201 180.538 119.321C180.538 119.441 180.488 119.541 180.388 119.621C180.308 119.701 180.188 119.741 180.028 119.741H155.788ZM158.308 100.451C158.148 100.451 158.028 100.411 157.948 100.331C157.868 100.251 157.828 100.151 157.828 100.031C157.828 99.9114 157.868 99.8114 157.948 99.7314C158.028 99.6514 158.148 99.6114 158.308 99.6114H167.338V96.5514C167.338 96.4314 167.318 96.3114 167.278 96.1914C167.258 96.0514 167.248 95.9114 167.248 95.7714C167.248 95.6114 167.318 95.4714 167.458 95.3514C167.598 95.2314 167.758 95.1714 167.938 95.1714C168.098 95.1714 168.248 95.2314 168.388 95.3514C168.528 95.4714 168.598 95.6114 168.598 95.7714C168.598 95.9114 168.578 96.0514 168.538 96.1914C168.518 96.3114 168.508 96.4314 168.508 96.5514V99.6114H177.508C177.668 99.6114 177.788 99.6514 177.868 99.7314C177.968 99.8114 178.018 99.9114 178.018 100.031C178.018 100.151 177.968 100.251 177.868 100.331C177.788 100.411 177.668 100.451 177.508 100.451H158.308ZM160.138 107.981C160.138 106.961 160.448 106.031 161.068 105.191C161.688 104.331 162.578 103.651 163.738 103.151C164.918 102.651 166.308 102.401 167.908 102.401C169.488 102.401 170.868 102.651 172.048 103.151C173.228 103.651 174.128 104.331 174.748 105.191C175.368 106.031 175.678 106.961 175.678 107.981C175.678 109.001 175.368 109.941 174.748 110.801C174.128 111.661 173.228 112.341 172.048 112.841C170.868 113.341 169.488 113.591 167.908 113.591C166.308 113.591 164.918 113.341 163.738 112.841C162.578 112.341 161.688 111.661 161.068 110.801C160.448 109.941 160.138 109.001 160.138 107.981ZM161.308 107.981C161.308 108.901 161.578 109.721 162.118 110.441C162.658 111.161 163.428 111.731 164.428 112.151C165.428 112.551 166.588 112.751 167.908 112.751C169.228 112.751 170.388 112.551 171.388 112.151C172.388 111.731 173.158 111.161 173.698 110.441C174.238 109.721 174.508 108.901 174.508 107.981C174.508 107.081 174.238 106.271 173.698 105.551C173.158 104.831 172.388 104.271 171.388 103.871C170.388 103.451 169.228 103.241 167.908 103.241C166.588 103.241 165.428 103.451 164.428 103.871C163.428 104.271 162.658 104.831 162.118 105.551C161.578 106.271 161.308 107.081 161.308 107.981ZM203.846 124.061C203.666 124.061 203.506 124.001 203.366 123.881C203.226 123.761 203.156 123.621 203.156 123.461C203.156 123.321 203.166 123.181 203.186 123.041C203.226 122.921 203.246 122.801 203.246 122.681V96.8514C203.246 96.7314 203.226 96.6114 203.186 96.4914C203.166 96.3514 203.156 96.2114 203.156 96.0714C203.156 95.9114 203.226 95.7714 203.366 95.6514C203.506 95.5314 203.666 95.4714 203.846 95.4714C204.006 95.4714 204.156 95.5314 204.296 95.6514C204.436 95.7714 204.506 95.9114 204.506 96.0714C204.506 96.2114 204.486 96.3514 204.446 96.4914C204.426 96.6114 204.416 96.7314 204.416 96.8514V106.211H208.526C208.686 106.211 208.806 106.251 208.886 106.331C208.986 106.411 209.036 106.511 209.036 106.631C209.036 106.751 208.986 106.851 208.886 106.931C208.806 107.011 208.686 107.051 208.526 107.051H204.416V122.681C204.416 122.801 204.426 122.921 204.446 123.041C204.486 123.181 204.506 123.321 204.506 123.461C204.506 123.621 204.436 123.761 204.296 123.881C204.156 124.001 204.006 124.061 203.846 124.061ZM184.856 98.4714C184.856 98.2914 184.916 98.1414 185.036 98.0214C185.156 97.8814 185.306 97.8114 185.486 97.8114C185.646 97.8114 185.846 97.8614 186.086 97.9614C186.166 98.0014 186.326 98.0214 186.566 98.0214H198.056C198.216 98.0214 198.336 98.0614 198.416 98.1414C198.516 98.2214 198.566 98.3214 198.566 98.4414C198.566 98.5614 198.516 98.6614 198.416 98.7414C198.336 98.8214 198.216 98.8614 198.056 98.8614H186.116V110.351C186.116 111.551 186.296 112.551 186.656 113.351C187.016 114.131 187.546 114.761 188.246 115.241C189.346 116.001 190.766 116.381 192.506 116.381C193.646 116.381 194.806 116.211 195.986 115.871C197.166 115.511 198.276 114.991 199.316 114.311C199.476 114.211 199.616 114.161 199.736 114.161C199.836 114.161 199.916 114.191 199.976 114.251C200.036 114.311 200.066 114.381 200.066 114.461C200.066 114.661 199.946 114.841 199.706 115.001C198.626 115.701 197.446 116.241 196.166 116.621C194.906 116.981 193.666 117.161 192.446 117.161C190.666 117.161 189.146 116.801 187.886 116.081C186.906 115.521 186.166 114.781 185.666 113.861C185.186 112.921 184.946 111.761 184.946 110.381V99.2214C184.946 99.1014 184.926 98.9814 184.886 98.8614C184.866 98.7214 184.856 98.5914 184.856 98.4714ZM231.444 112.331C231.264 112.331 231.104 112.271 230.964 112.151C230.824 112.031 230.754 111.891 230.754 111.731C230.754 111.591 230.764 111.461 230.784 111.341C230.824 111.201 230.844 111.071 230.844 110.951V96.8514C230.844 96.7314 230.824 96.6114 230.784 96.4914C230.764 96.3514 230.754 96.2114 230.754 96.0714C230.754 95.9114 230.824 95.7714 230.964 95.6514C231.104 95.5314 231.264 95.4714 231.444 95.4714C231.604 95.4714 231.754 95.5314 231.894 95.6514C232.034 95.7714 232.104 95.9114 232.104 96.0714C232.104 96.2114 232.084 96.3514 232.044 96.4914C232.024 96.6114 232.014 96.7314 232.014 96.8514V102.911H236.124C236.284 102.911 236.404 102.951 236.484 103.031C236.584 103.111 236.634 103.211 236.634 103.331C236.634 103.451 236.584 103.551 236.484 103.631C236.404 103.711 236.284 103.751 236.124 103.751H232.014V110.951C232.014 111.071 232.024 111.201 232.044 111.341C232.084 111.461 232.104 111.591 232.104 111.731C232.104 111.891 232.034 112.031 231.894 112.151C231.754 112.271 231.604 112.331 231.444 112.331ZM212.454 97.8714C212.454 97.6914 212.514 97.5414 212.634 97.4214C212.754 97.2814 212.904 97.2114 213.084 97.2114C213.244 97.2114 213.444 97.2614 213.684 97.3614C213.764 97.4014 213.924 97.4214 214.164 97.4214H225.654C225.814 97.4214 225.934 97.4614 226.014 97.5414C226.114 97.6214 226.164 97.7214 226.164 97.8414C226.164 97.9614 226.114 98.0614 226.014 98.1414C225.934 98.2214 225.814 98.2614 225.654 98.2614H213.714V103.511C213.714 104.831 213.904 105.841 214.284 106.541C214.664 107.221 215.264 107.741 216.084 108.101C217.204 108.581 218.514 108.821 220.014 108.821C221.134 108.821 222.294 108.681 223.494 108.401C224.694 108.101 225.834 107.681 226.914 107.141C227.054 107.061 227.184 107.021 227.304 107.021C227.424 107.021 227.514 107.051 227.574 107.111C227.654 107.171 227.694 107.251 227.694 107.351C227.694 107.531 227.564 107.691 227.304 107.831C226.144 108.411 224.914 108.861 223.614 109.181C222.334 109.501 221.074 109.661 219.834 109.661C218.334 109.661 216.964 109.421 215.724 108.941C214.604 108.501 213.794 107.861 213.294 107.021C212.794 106.181 212.544 105.021 212.544 103.541V98.6214C212.544 98.5014 212.524 98.3814 212.484 98.2614C212.464 98.1214 212.454 97.9914 212.454 97.8714ZM215.034 115.211C214.874 115.211 214.744 115.171 214.644 115.091C214.564 115.011 214.524 114.911 214.524 114.791C214.524 114.671 214.564 114.571 214.644 114.491C214.744 114.411 214.874 114.371 215.034 114.371H230.214C231.414 114.371 232.014 114.951 232.014 116.111V122.651C232.014 122.771 232.024 122.891 232.044 123.011C232.084 123.151 232.104 123.291 232.104 123.431C232.104 123.591 232.034 123.731 231.894 123.851C231.754 123.971 231.604 124.031 231.444 124.031C231.264 124.031 231.104 123.971 230.964 123.851C230.824 123.731 230.754 123.591 230.754 123.431C230.754 123.291 230.764 123.151 230.784 123.011C230.824 122.891 230.844 122.771 230.844 122.651V115.901C230.844 115.701 230.774 115.541 230.634 115.421C230.494 115.281 230.324 115.211 230.124 115.211H215.034ZM255.411 123.641C255.231 123.641 255.071 123.581 254.931 123.461C254.791 123.341 254.721 123.201 254.721 123.041C254.721 122.901 254.731 122.761 254.751 122.621C254.791 122.501 254.811 122.381 254.811 122.261V107.471H250.671H250.641C250.641 110.391 250.141 112.701 249.141 114.401C248.161 116.101 246.761 116.951 244.941 116.951C243.041 116.951 241.611 116.111 240.651 114.431C239.711 112.731 239.241 110.391 239.241 107.411C239.241 104.431 239.711 102.101 240.651 100.421C241.611 98.7414 243.041 97.9014 244.941 97.9014C246.681 97.9014 248.041 98.6814 249.021 100.241C250.001 101.801 250.541 103.931 250.641 106.631H250.671H254.811V97.0014C254.811 96.8814 254.791 96.7614 254.751 96.6414C254.731 96.5014 254.721 96.3614 254.721 96.2214C254.721 96.0614 254.791 95.9214 254.931 95.8014C255.071 95.6814 255.231 95.6214 255.411 95.6214C255.571 95.6214 255.721 95.6814 255.861 95.8014C256.001 95.9214 256.071 96.0614 256.071 96.2214C256.071 96.3614 256.051 96.5014 256.011 96.6414C255.991 96.7614 255.981 96.8814 255.981 97.0014V122.261C255.981 122.381 255.991 122.501 256.011 122.621C256.051 122.761 256.071 122.901 256.071 123.041C256.071 123.201 256.001 123.341 255.861 123.461C255.721 123.581 255.571 123.641 255.411 123.641ZM240.411 107.411C240.411 110.131 240.791 112.261 241.551 113.801C242.311 115.341 243.441 116.111 244.941 116.111C246.361 116.111 247.471 115.331 248.271 113.771C249.071 112.211 249.471 110.091 249.471 107.411C249.471 104.731 249.071 102.621 248.271 101.081C247.471 99.5214 246.361 98.7414 244.941 98.7414C243.441 98.7414 242.311 99.5114 241.551 101.051C240.791 102.571 240.411 104.691 240.411 107.411ZM260.301 123.461C260.301 123.321 260.311 123.181 260.331 123.041C260.371 122.921 260.391 122.801 260.391 122.681V96.8514C260.391 96.7314 260.371 96.6114 260.331 96.4914C260.311 96.3514 260.301 96.2114 260.301 96.0714C260.301 95.9114 260.371 95.7714 260.511 95.6514C260.651 95.5314 260.811 95.4714 260.991 95.4714C261.151 95.4714 261.301 95.5314 261.441 95.6514C261.581 95.7714 261.651 95.9114 261.651 96.0714C261.651 96.2114 261.631 96.3514 261.591 96.4914C261.571 96.6114 261.561 96.7314 261.561 96.8514V122.681C261.561 122.801 261.571 122.921 261.591 123.041C261.631 123.181 261.651 123.321 261.651 123.461C261.651 123.621 261.581 123.761 261.441 123.881C261.301 124.001 261.151 124.061 260.991 124.061C260.811 124.061 260.651 124.001 260.511 123.881C260.371 123.761 260.301 123.621 260.301 123.461ZM288.139 124.061C287.959 124.061 287.799 124.001 287.659 123.881C287.519 123.761 287.449 123.621 287.449 123.461C287.449 123.321 287.459 123.181 287.479 123.041C287.519 122.921 287.539 122.801 287.539 122.681V106.871H281.569C281.409 106.871 281.289 106.831 281.209 106.751C281.129 106.671 281.089 106.571 281.089 106.451C281.089 106.331 281.129 106.231 281.209 106.151C281.289 106.071 281.409 106.031 281.569 106.031H287.539V96.8514C287.539 96.7314 287.519 96.6114 287.479 96.4914C287.459 96.3514 287.449 96.2114 287.449 96.0714C287.449 95.9114 287.519 95.7714 287.659 95.6514C287.799 95.5314 287.959 95.4714 288.139 95.4714C288.299 95.4714 288.449 95.5314 288.589 95.6514C288.729 95.7714 288.799 95.9114 288.799 96.0714C288.799 96.2114 288.779 96.3514 288.739 96.4914C288.719 96.6114 288.709 96.7314 288.709 96.8514V122.681C288.709 122.801 288.719 122.921 288.739 123.041C288.779 123.181 288.799 123.321 288.799 123.461C288.799 123.621 288.729 123.761 288.589 123.881C288.449 124.001 288.299 124.061 288.139 124.061ZM266.779 116.501C266.819 116.441 266.869 116.371 266.929 116.291C267.009 116.211 267.069 116.141 267.109 116.081C269.709 111.301 271.859 107.431 273.559 104.471C275.259 101.491 276.439 99.4814 277.099 98.4414C277.139 98.3814 277.169 98.2814 277.189 98.1414C277.209 97.9814 277.259 97.8514 277.339 97.7514C277.459 97.5714 277.629 97.4814 277.849 97.4814C277.969 97.4814 278.089 97.5214 278.209 97.6014C278.429 97.7414 278.539 97.9214 278.539 98.1414C278.539 98.2614 278.509 98.3814 278.449 98.5014C278.389 98.6014 278.299 98.7114 278.179 98.8314C278.079 98.9314 278.009 99.0114 277.969 99.0714L277.609 99.6714C274.769 104.411 271.619 110.001 268.159 116.441C268.119 116.501 268.089 116.591 268.069 116.711C268.049 116.811 268.029 116.891 268.009 116.951C267.949 117.091 267.859 117.201 267.739 117.281C267.619 117.341 267.489 117.371 267.349 117.371C267.169 117.371 267.019 117.311 266.899 117.191C266.779 117.051 266.719 116.901 266.719 116.741C266.719 116.701 266.739 116.621 266.779 116.501ZM275.959 106.961C275.799 106.681 275.719 106.481 275.719 106.361C275.719 106.221 275.799 106.101 275.959 106.001C276.119 105.921 276.269 105.931 276.409 106.031C276.549 106.131 276.709 106.331 276.889 106.631C277.669 107.851 279.159 110.071 281.359 113.291L282.979 115.631C283.019 115.671 283.059 115.711 283.099 115.751C283.139 115.791 283.179 115.831 283.219 115.871C283.359 115.991 283.429 116.151 283.429 116.351C283.429 116.511 283.369 116.651 283.249 116.771C283.109 116.911 282.949 116.981 282.769 116.981C282.629 116.981 282.489 116.931 282.349 116.831C282.269 116.731 282.209 116.641 282.169 116.561C282.129 116.461 282.089 116.391 282.049 116.351C280.249 113.731 278.219 110.601 275.959 106.961ZM300.257 122.771C299.417 122.331 298.717 121.671 298.157 120.791C297.617 119.931 297.347 118.901 297.347 117.701V116.651C297.347 116.531 297.327 116.411 297.287 116.291C297.267 116.151 297.257 116.011 297.257 115.871C297.257 115.711 297.327 115.571 297.467 115.451C297.607 115.331 297.767 115.271 297.947 115.271C298.107 115.271 298.257 115.331 298.397 115.451C298.537 115.571 298.607 115.711 298.607 115.871C298.607 116.011 298.587 116.151 298.547 116.291C298.527 116.411 298.517 116.531 298.517 116.651V117.671C298.517 118.711 298.727 119.581 299.147 120.281C299.567 120.981 300.057 121.511 300.617 121.871C301.297 122.311 302.087 122.641 302.987 122.861C303.907 123.101 304.887 123.221 305.927 123.221C307.487 123.221 309.057 122.971 310.637 122.471C312.217 121.991 313.597 121.301 314.777 120.401C314.937 120.281 315.077 120.221 315.197 120.221C315.297 120.221 315.377 120.251 315.437 120.311C315.497 120.371 315.527 120.451 315.527 120.551C315.527 120.751 315.437 120.911 315.257 121.031C313.977 121.991 312.517 122.731 310.877 123.251C309.237 123.771 307.577 124.031 305.897 124.031C303.757 124.031 301.877 123.611 300.257 122.771ZM293.777 111.851C293.617 111.851 293.497 111.811 293.417 111.731C293.337 111.651 293.297 111.551 293.297 111.431C293.297 111.311 293.337 111.211 293.417 111.131C293.497 111.051 293.617 111.011 293.777 111.011H318.017C318.177 111.011 318.297 111.051 318.377 111.131C318.477 111.211 318.527 111.311 318.527 111.431C318.527 111.551 318.477 111.651 318.377 111.731C318.297 111.811 318.177 111.851 318.017 111.851H293.777ZM297.617 97.6914C297.617 97.5314 297.687 97.3914 297.827 97.2714C297.967 97.1514 298.127 97.0914 298.307 97.0914C298.467 97.0914 298.617 97.1514 298.757 97.2714C298.897 97.3914 298.967 97.5314 298.967 97.6914C298.967 97.8314 298.947 97.9714 298.907 98.1114C298.887 98.2314 298.877 98.3514 298.877 98.4714V101.321C298.877 103.521 299.607 105.071 301.067 105.971C301.707 106.351 302.497 106.641 303.437 106.841C304.377 107.041 305.407 107.141 306.527 107.141C307.847 107.141 309.177 107.011 310.517 106.751C311.857 106.491 313.097 106.101 314.237 105.581C314.357 105.521 314.467 105.491 314.567 105.491C314.687 105.491 314.777 105.531 314.837 105.611C314.917 105.671 314.957 105.751 314.957 105.851C314.957 106.031 314.837 106.181 314.597 106.301C313.377 106.841 312.057 107.251 310.637 107.531C309.217 107.811 307.817 107.951 306.437 107.951C304.137 107.951 302.227 107.571 300.707 106.811C298.707 105.771 297.707 103.951 297.707 101.351V98.4714C297.707 98.3514 297.687 98.2314 297.647 98.1114C297.627 97.9714 297.617 97.8314 297.617 97.6914ZM333.494 112.241C332.014 112.241 330.624 111.931 329.324 111.311C328.044 110.691 327.014 109.791 326.234 108.611C325.454 107.431 325.064 106.061 325.064 104.501C325.064 102.941 325.454 101.581 326.234 100.421C327.014 99.2414 328.044 98.3414 329.324 97.7214C330.624 97.1014 332.014 96.7914 333.494 96.7914C334.954 96.7914 336.324 97.1014 337.604 97.7214C338.904 98.3414 339.944 99.2414 340.724 100.421C341.524 101.581 341.924 102.941 341.924 104.501C341.924 106.061 341.524 107.431 340.724 108.611C339.944 109.791 338.904 110.691 337.604 111.311C336.324 111.931 334.954 112.241 333.494 112.241ZM321.374 119.741C321.214 119.741 321.094 119.701 321.014 119.621C320.934 119.541 320.894 119.441 320.894 119.321C320.894 119.201 320.934 119.101 321.014 119.021C321.094 118.941 321.214 118.901 321.374 118.901H328.094V113.861C328.094 113.741 328.074 113.621 328.034 113.501C328.014 113.361 328.004 113.221 328.004 113.081C328.004 112.921 328.074 112.781 328.214 112.661C328.354 112.541 328.514 112.481 328.694 112.481C328.854 112.481 329.004 112.541 329.144 112.661C329.284 112.781 329.354 112.921 329.354 113.081C329.354 113.221 329.334 113.361 329.294 113.501C329.274 113.621 329.264 113.741 329.264 113.861V118.901H337.694V113.861C337.694 113.741 337.674 113.621 337.634 113.501C337.614 113.361 337.604 113.221 337.604 113.081C337.604 112.921 337.674 112.781 337.814 112.661C337.954 112.541 338.114 112.481 338.294 112.481C338.454 112.481 338.604 112.541 338.744 112.661C338.884 112.781 338.954 112.921 338.954 113.081C338.954 113.221 338.934 113.361 338.894 113.501C338.874 113.621 338.864 113.741 338.864 113.861V118.901H345.614C345.774 118.901 345.894 118.941 345.974 119.021C346.074 119.101 346.124 119.201 346.124 119.321C346.124 119.441 346.074 119.541 345.974 119.621C345.894 119.701 345.774 119.741 345.614 119.741H321.374ZM326.234 104.501C326.234 105.961 326.584 107.211 327.284 108.251C327.984 109.291 328.884 110.081 329.984 110.621C331.104 111.141 332.274 111.401 333.494 111.401C334.714 111.401 335.874 111.141 336.974 110.621C338.094 110.081 339.004 109.291 339.704 108.251C340.404 107.211 340.754 105.961 340.754 104.501C340.754 103.041 340.404 101.801 339.704 100.781C339.004 99.7414 338.094 98.9614 336.974 98.4414C335.874 97.9014 334.714 97.6314 333.494 97.6314C332.274 97.6314 331.104 97.8914 329.984 98.4114C328.884 98.9314 327.984 99.7114 327.284 100.751C326.584 101.791 326.234 103.041 326.234 104.501ZM350.802 121.541C350.502 121.541 350.262 121.441 350.082 121.241C349.902 121.061 349.812 120.811 349.812 120.491C349.812 120.211 349.902 119.981 350.082 119.801C350.282 119.621 350.522 119.531 350.802 119.531C351.082 119.531 351.312 119.621 351.492 119.801C351.672 120.001 351.762 120.231 351.762 120.491C351.762 120.811 351.672 121.061 351.492 121.241C351.312 121.441 351.082 121.541 350.802 121.541ZM357.804 121.541C357.504 121.541 357.264 121.441 357.084 121.241C356.904 121.061 356.814 120.811 356.814 120.491C356.814 120.211 356.904 119.981 357.084 119.801C357.284 119.621 357.524 119.531 357.804 119.531C358.084 119.531 358.314 119.621 358.494 119.801C358.674 120.001 358.764 120.231 358.764 120.491C358.764 120.811 358.674 121.061 358.494 121.241C358.314 121.441 358.084 121.541 357.804 121.541ZM364.806 121.541C364.506 121.541 364.266 121.441 364.086 121.241C363.906 121.061 363.816 120.811 363.816 120.491C363.816 120.211 363.906 119.981 364.086 119.801C364.286 119.621 364.526 119.531 364.806 119.531C365.086 119.531 365.316 119.621 365.496 119.801C365.676 120.001 365.766 120.231 365.766 120.491C365.766 120.811 365.676 121.061 365.496 121.241C365.316 121.441 365.086 121.541 364.806 121.541Z" fill="black"/>
<path d="M175.04 144.578V158.718H172.091V147.371H172.013L168.771 149.402V146.804L172.267 144.578H175.04ZM180.04 158.894C179.122 158.894 178.38 158.162 178.399 157.253C178.38 156.355 179.122 155.623 180.04 155.632C180.909 155.623 181.661 156.355 181.661 157.253C181.661 158.162 180.909 158.894 180.04 158.894ZM178.399 149.812C178.38 148.914 179.122 148.181 180.04 148.191C180.909 148.181 181.661 148.914 181.661 149.812C181.661 150.72 180.909 151.453 180.04 151.453C179.122 151.453 178.38 150.72 178.399 149.812ZM190.06 144.578V158.718H187.11V147.371H187.032L183.79 149.402V146.804L187.286 144.578H190.06ZM209.024 156.492V158.542H192.755V156.492H199.61V153.816H194.63V147.839H204.689V145.886H194.61V143.894H207.149V149.792H197.13V151.785H207.56V153.816H202.091V156.492H209.024ZM221.212 147.585C221.202 150.291 222.648 153.416 225.567 154.773L224.181 156.726C222.198 155.818 220.792 154.001 219.991 151.873C219.2 154.216 217.735 156.208 215.685 157.175L214.239 155.203C217.198 153.826 218.692 150.525 218.712 147.585V146.492H214.942V144.46H224.786V146.492H221.212V147.585ZM226.173 160.515V142.742H228.673V149.519H231.29V151.609H228.673V160.515H226.173ZM237.638 147.214C237.628 150.095 238.429 153.064 240.86 154.617L239.513 156.55C237.97 155.623 237.003 154.08 236.437 152.263C235.802 154.275 234.737 155.964 233.126 156.941L231.603 155.105C234.239 153.474 235.216 150.339 235.216 147.332V144.265H237.638V147.214ZM238.985 150.769V148.738H241.29V142.996H243.614V159.695H241.29V150.769H238.985ZM244.962 160.515V142.742H247.345V160.515H244.962ZM264.103 142.742V160.515H261.583V142.742H264.103ZM249.591 147.41V145.417H253.634V142.976H256.173V145.417H260.216V147.41H249.591ZM250.353 152.625C250.353 150.144 252.306 148.376 254.942 148.386C257.569 148.376 259.513 150.144 259.513 152.625C259.513 155.105 257.569 156.853 254.942 156.863C252.306 156.853 250.353 155.105 250.353 152.625ZM252.735 152.625C252.726 154.001 253.644 154.822 254.942 154.812C256.222 154.822 257.13 154.001 257.13 152.625C257.13 151.257 256.222 150.417 254.942 150.398C253.644 150.417 252.726 151.257 252.735 152.625ZM287.325 149.792V151.765H280.45V152.898H285.353V157.449H275.45V158.523H285.821V160.398H273.009V155.691H282.892V154.773H272.989V152.898H277.95V151.765H271.114V149.792H287.325ZM273.126 148.855V143.25H285.274V148.855H273.126ZM275.567 146.941H282.794V145.183H275.567V146.941ZM293.302 143.992C295.704 143.992 297.501 145.964 297.853 149.167H300.939V142.742H303.399V160.554H300.939V151.16H297.882C297.618 154.578 295.782 156.667 293.302 156.667C290.607 156.667 288.673 154.226 288.692 150.32C288.673 146.443 290.607 143.992 293.302 143.992ZM291.075 150.32C291.065 152.966 291.974 154.412 293.302 154.402C294.64 154.412 295.528 152.966 295.528 150.32C295.528 147.683 294.64 146.238 293.302 146.238C291.974 146.238 291.065 147.683 291.075 150.32ZM309.005 144.148V146.375H313.087V144.148H315.587V152.332H312.325V155.027C313.702 154.958 315.079 154.851 316.368 154.675L316.544 156.492C312.823 157.156 308.819 157.166 305.802 157.175L305.47 155.144C306.778 155.144 308.273 155.144 309.845 155.115V152.332H306.564V144.148H309.005ZM309.005 150.378H313.087V148.269H309.005V150.378ZM317.306 160.515V142.742H319.806V149.851H322.228V151.921H319.806V160.515H317.306ZM339.239 156.394V158.445H322.97V156.394H326.603V152.039C325.226 151.208 324.396 149.949 324.396 148.386C324.396 145.505 327.208 143.611 331.075 143.601C334.923 143.611 337.765 145.505 337.774 148.386C337.765 149.919 336.964 151.16 335.626 151.99V156.394H339.239ZM326.857 148.386C326.857 150.125 328.526 151.199 331.075 151.199C333.585 151.199 335.304 150.125 335.314 148.386C335.304 146.599 333.585 145.564 331.075 145.574C328.526 145.564 326.857 146.599 326.857 148.386ZM329.064 156.394H333.107V152.937C332.472 153.064 331.788 153.132 331.075 153.132C330.362 153.132 329.689 153.064 329.064 152.947V156.394Z" fill="#FF6D6D"/>
<path d="M346.756 388.35C339.002 394.237 329.556 400.2 320.268 403.011C317.591 403.846 314.828 404.379 312.032 404.6C309.418 404.809 306.786 404.606 304.236 403.997C297.533 402.335 291.316 399.424 285.3 396.024C283.335 394.911 281.392 393.747 279.461 392.558C276.308 390.616 273.187 388.605 270.057 386.643C269.588 386.346 269.123 386.054 268.654 385.765H268.651C267.896 385.293 267.138 384.826 266.379 384.367C266.245 384.285 266.112 384.205 265.976 384.123C264.541 383.257 263.082 382.41 261.599 381.583C261.417 381.484 261.235 381.382 261.054 381.283C258.183 379.696 255.233 378.257 252.215 376.971C250.233 376.139 248.225 375.388 246.197 374.748H246.194C245.418 374.505 244.64 374.276 243.859 374.066C241.517 373.425 239.131 372.96 236.719 372.673C233.396 372.272 230.035 372.299 226.719 372.752C226.494 372.783 226.273 372.815 226.048 372.851C217.074 374.284 208.882 379.114 199.868 380.253C199.575 380.289 199.286 380.323 198.993 380.349C198.868 380.36 198.743 380.374 198.618 380.383C195.998 380.606 193.362 380.542 190.756 380.19C183.477 379.233 176.388 376.263 170.006 372.52C155.087 363.768 142.988 350.316 135.632 334.738C134.368 332.068 133.247 329.334 132.272 326.547C129.545 318.818 128.043 310.712 127.821 302.522C127.131 274.106 143.328 245.597 168.759 232.745C194.193 219.894 227.65 224.144 248.162 243.887C260.605 255.864 267.805 272.093 277.169 286.593C286.533 301.09 299.842 314.938 317.008 317.05C325.753 318.126 334.904 316.045 343.285 318.752C347.926 320.253 351.885 323.124 355.075 326.782C357.219 329.264 359.014 332.027 360.409 334.993C361.431 337.137 362.261 339.368 362.888 341.658C363.005 342.08 363.113 342.502 363.218 342.924C367.393 359.923 360.721 377.744 346.756 388.35Z" fill="#F2F2F2"/>
<path d="M207.088 357.576H180.39C176.39 357.576 173.147 360.809 173.147 364.796V364.796C173.147 368.784 176.39 372.016 180.39 372.016H207.088C211.087 372.016 214.33 368.784 214.33 364.796C214.33 360.809 211.087 357.576 207.088 357.576Z" fill="#3F3D56"/>
<path d="M198.992 368.335V380.349C196.25 380.613 193.486 380.56 190.756 380.19V368.335H198.992Z" fill="#3F3D56"/>
<path d="M226.718 372.752C226.494 372.784 226.272 372.815 226.048 372.851C217.073 374.284 208.882 379.115 199.867 380.253C199.575 380.29 199.285 380.324 198.993 380.349C198.868 380.36 198.743 380.375 198.618 380.383C196.417 378.234 194.215 375.946 192.148 373.576C191.026 372.294 189.941 370.986 188.921 369.66C186.274 366.24 184.031 362.724 182.548 359.269C182.698 357.613 181.665 353.782 181.17 350.849L181.168 350.846C180.957 349.614 180.844 348.544 180.949 347.856C181.551 343.886 184.803 344.342 185.803 340.452C186.705 339.706 187.665 339.032 188.674 338.439C188.842 338.34 189.012 338.24 189.188 338.141L200.038 330.667L204.184 334.721L210.495 340.894L217.334 347.578L211.529 353.425C211.529 353.425 216.38 359 222.052 366.433C223.574 368.429 225.156 370.561 226.718 372.752Z" fill="#2F2E41"/>
<path d="M320.269 368.335V403.011C317.591 403.846 314.829 404.379 312.032 404.6V368.335H320.269Z" fill="#3F3D56"/>
<path d="M330.919 365.504H304.221C300.221 365.504 296.979 368.736 296.979 372.724V372.724C296.979 376.711 300.221 379.944 304.221 379.944H330.919C334.919 379.944 338.161 376.711 338.161 372.724C338.161 368.736 334.919 365.504 330.919 365.504Z" fill="#3F3D56"/>
<path d="M265.975 384.123C264.54 383.257 263.082 382.41 261.598 381.584C261.416 381.484 261.235 381.383 261.053 381.283L262.03 380.867L264.665 379.738L264.691 379.726L264.719 379.822L265.975 384.123Z" fill="#FFB6B6"/>
<path d="M270.056 386.643C269.588 386.346 269.122 386.054 268.653 385.765H268.651C267.895 385.293 267.138 384.826 266.378 384.367C266.245 384.285 266.111 384.205 265.975 384.123C264.541 383.257 263.082 382.41 261.598 381.583C261.417 381.484 261.235 381.382 261.053 381.283C258.183 379.696 255.233 378.257 252.214 376.971C250.232 376.139 248.224 375.388 246.196 374.748H246.193L244.6 372.09L237.429 360.116L235.852 357.485C235.852 357.485 230.476 359.071 222.867 360.591C220.098 361.146 217.036 361.69 213.824 362.149C210.39 362.636 206.789 363.024 203.21 363.211C201.503 363.301 199.802 363.346 198.126 363.332C193.795 363.304 189.634 362.899 185.99 361.936C184.774 360.798 181.111 359.249 178.486 357.831H178.483C177.382 357.236 176.467 356.667 175.987 356.16C173.221 353.244 175.584 350.97 173.124 347.788C173.091 346.62 173.151 345.452 173.303 344.294C173.329 344.101 173.354 343.906 173.385 343.708L174.161 330.582L179.921 329.823L188.685 328.667L198.18 327.416L199.225 335.576C199.225 335.576 206.618 335.202 215.985 335.327C231.03 335.531 251.161 337.026 253.887 343.442C254.143 344.045 254.399 344.654 254.654 345.262C255.262 346.718 255.864 348.181 256.461 349.651C258.622 354.974 260.684 360.348 262.567 365.428C263.737 368.587 264.839 371.634 265.853 374.485C266.668 376.779 267.424 378.947 268.114 380.944C268.744 382.767 269.315 384.446 269.824 385.952C269.903 386.187 269.98 386.419 270.056 386.643Z" fill="#2F2E41"/>
<path d="M217.072 307.113L198.879 291.71L210.715 279.768L218.973 293.252L249.583 299.301C250.503 298.611 251.605 298.202 252.755 298.125C253.904 298.048 255.051 298.306 256.056 298.868C257.06 299.43 257.88 300.271 258.413 301.288C258.947 302.306 259.172 303.457 259.061 304.6C258.95 305.743 258.508 306.829 257.788 307.726C257.069 308.623 256.103 309.291 255.009 309.65C253.915 310.01 252.739 310.044 251.626 309.748C250.513 309.453 249.51 308.841 248.739 307.988L217.072 307.113Z" fill="#A0616A"/>
<path d="M182.8 271.466C180.698 278.285 200.722 294.548 200.722 294.548C200.944 292.911 212.297 307.027 213.069 305.748C215.265 302.115 217.68 293.134 220.214 291.986C221.664 291.33 213.349 282.205 213.349 282.205C213.349 282.205 209.108 276.612 203.509 269.522C201.963 267.489 199.926 265.878 197.588 264.84C195.25 263.803 192.686 263.372 190.136 263.587C190.136 263.587 184.903 264.647 182.8 271.466Z" fill="#3F3D56"/>
<path d="M191.653 256.371C198.449 256.371 203.958 250.879 203.958 244.104C203.958 237.329 198.449 231.837 191.653 231.837C184.858 231.837 179.349 237.329 179.349 244.104C179.349 250.879 184.858 256.371 191.653 256.371Z" fill="#A0616A"/>
<path d="M197.807 264.478C200.457 266.049 202.043 268.936 202.954 271.873C204.639 277.312 205.653 282.934 205.974 288.617L206.936 305.631L218.844 341.858C208.524 350.563 169.732 343.837 169.732 343.837C169.732 343.837 168.541 343.441 169.732 342.254C170.923 341.067 172.082 342.118 170.891 340.931C169.7 339.744 170.521 341.067 170.918 339.879C171.315 338.692 170.918 339.484 170.521 339.088C170.124 338.692 173.594 335.131 173.594 335.131L170.418 314.336L166.449 272.392C171.212 266.457 180.792 262.958 180.792 262.958L183.267 258.516L195.643 259.503L197.807 264.478Z" fill="#3F3D56"/>
<path d="M201.797 237.587C202.753 238.298 203.462 239.29 203.823 240.424C203.961 238.571 203.97 236.711 203.849 234.858C203.704 233.555 202.784 233.262 201.719 232.922C200.757 232.616 199.669 232.269 199.376 231.005C195.508 227.253 188.775 227.443 184.167 228.751C181.631 229.471 180.172 230.396 180.042 230.938L180.015 231.05L179.912 231.101C177.957 232.075 177.577 235.152 177.602 237.561C177.649 242.1 179.221 247.255 180.107 247.674C180.154 247.696 180.166 247.688 180.186 247.671C181.52 246.608 183.147 247.751 183.862 248.373C184.283 245.552 185.641 242.953 187.718 240.991C189.796 239.03 192.472 237.819 195.321 237.551C196.251 237.462 197.174 237.308 198.083 237.09C198.543 236.971 199.017 236.909 199.493 236.905C200.313 236.893 201.117 237.131 201.797 237.587Z" fill="#2F2E41"/>
<path d="M186.293 325.594L182.529 323.673C182.327 323.529 182.184 323.319 182.125 323.079C182.066 322.839 182.096 322.586 182.209 322.366C182.322 322.147 182.51 321.975 182.74 321.882C182.969 321.789 183.225 321.782 183.459 321.861L187.223 323.783C187.425 323.926 187.568 324.137 187.627 324.377C187.685 324.617 187.656 324.87 187.543 325.089C187.43 325.309 187.241 325.481 187.012 325.574C186.782 325.667 186.527 325.674 186.293 325.594Z" fill="#FF6D6D"/>
<path d="M173.625 320.445L167.433 297.465L183.979 294.343L183.089 310.116L204.83 332.433C205.981 332.386 207.121 332.674 208.11 333.261C209.1 333.849 209.897 334.711 210.403 335.742C210.91 336.774 211.105 337.93 210.964 339.069C210.823 340.209 210.352 341.283 209.61 342.161C208.867 343.039 207.884 343.682 206.781 344.013C205.677 344.343 204.502 344.346 203.397 344.022C202.291 343.698 201.305 343.06 200.557 342.187C199.809 341.313 199.333 340.242 199.185 339.103L173.625 320.445Z" fill="#A0616A"/>
<path d="M165.74 271.7C160.123 276.12 167.332 300.845 167.332 300.845C168.448 299.624 169.745 317.67 171.109 317.056C174.987 315.309 182.093 309.287 184.833 309.778C186.399 310.059 184.758 297.841 184.758 297.841C184.758 297.841 184.456 290.836 183.889 281.83C183.776 279.281 183.017 276.802 181.685 274.623C180.352 272.445 178.488 270.638 176.267 269.371C176.267 269.371 171.356 267.279 165.74 271.7Z" fill="#3F3D56"/>
<path d="M360.41 334.993L135.632 334.738C134.369 332.068 133.248 329.334 132.272 326.547L355.076 326.782C357.22 329.264 359.014 332.027 360.41 334.993Z" fill="#3F3D56"/>
<path d="M288.816 394.401C287.655 394.962 286.483 395.502 285.3 396.023C283.335 394.911 281.392 393.747 279.461 392.558L286.624 389.421L288.816 394.401Z" fill="#FFB6B6"/>
<path d="M341.042 355.385C339.877 356.942 338.676 358.468 337.437 359.963C336.296 361.342 335.124 362.694 333.921 364.02C333.424 364.57 332.922 365.116 332.407 365.657C331.462 366.668 330.495 367.662 329.508 368.638C327.73 369.196 324.128 370.179 320.269 371.096C317.46 371.761 314.514 372.393 312.032 372.795C310.642 373.044 309.237 373.193 307.826 373.242C306.15 373.256 304.449 373.211 302.742 373.121C300.816 373.019 298.888 372.86 296.982 372.656C292.026 372.138 287.226 371.331 283.085 370.501C281.568 370.201 280.143 369.896 278.83 369.598C276.345 369.04 274.266 368.519 272.761 368.123C271.065 367.681 270.1 367.395 270.1 367.395L265.854 374.485L263.65 378.163L262.031 380.867L261.599 381.584C261.417 381.484 261.236 381.383 261.054 381.283C258.184 379.696 255.233 378.257 252.215 376.971C250.233 376.139 248.225 375.388 246.197 374.749H246.194C245.419 374.505 244.64 374.276 243.859 374.066C244.104 373.412 244.351 372.753 244.601 372.09C245.066 370.853 245.542 369.604 246.026 368.344C247.074 365.615 248.159 362.845 249.276 360.09C250.19 357.828 251.122 355.574 252.065 353.352C252.499 352.327 253.382 351.426 254.618 350.636C255.208 350.265 255.824 349.936 256.461 349.651C259.997 348.046 265.206 347.001 270.946 346.33C271.42 346.276 271.898 346.222 272.378 346.171C277.129 345.673 282.171 345.415 286.885 345.296C289.245 345.237 291.523 345.214 293.642 345.211C294.326 345.211 294.992 345.213 295.639 345.217H295.641C297.388 345.226 298.996 345.251 300.41 345.279C300.686 345.285 300.953 345.294 301.214 345.299H301.217C301.393 345.302 301.566 345.308 301.736 345.311C304.829 345.39 306.727 345.486 306.727 345.486L307.462 339.733L307.613 338.572L307.755 337.468V337.465L307.772 337.326L307.888 337.323L309.933 337.284L327.122 336.949L336.512 336.765L335.023 343.125L332.567 353.618C332.816 355.277 341.127 353.977 341.042 355.385Z" fill="#2F2E41"/>
<path d="M290.935 393.354C290.233 393.71 289.526 394.062 288.816 394.401C287.654 394.962 286.482 395.503 285.3 396.024C283.335 394.911 281.392 393.747 279.461 392.558C276.308 390.616 273.187 388.605 270.057 386.643C269.588 386.346 269.122 386.054 268.654 385.766H268.651C267.361 383.857 266.046 381.87 264.72 379.822C264.7 379.794 264.683 379.766 264.666 379.737C264.325 379.216 263.986 378.692 263.649 378.163C261.528 374.85 259.395 371.396 257.324 367.868L262.567 365.428L272.315 360.892L273.996 360.11L278.83 369.598L283.141 378.061L284.101 379.944L290.935 393.354Z" fill="#2F2E41"/>
<path d="M292.404 347.802L317.255 323.909L324.143 304.466L313.983 300.062C308.765 305.045 303.123 320.568 303.123 320.568L286.022 342.258C285.889 342.303 285.756 342.352 285.624 342.409C284.854 342.748 284.185 343.279 283.68 343.951C283.176 344.623 282.854 345.413 282.746 346.245C282.637 347.078 282.746 347.924 283.062 348.702C283.377 349.48 283.889 350.164 284.547 350.687C285.205 351.21 285.987 351.556 286.818 351.69C287.649 351.824 288.501 351.742 289.291 351.451C290.081 351.161 290.782 350.673 291.327 350.034C291.873 349.394 292.243 348.625 292.404 347.802Z" fill="#FFB8B8"/>
<path d="M311.125 302.232L324.012 306.311L324.061 306.303C328.858 305.502 332.838 297.692 335.332 291.281C336.153 289.167 336.137 286.821 335.289 284.717C334.441 282.613 332.823 280.909 330.763 279.949C329.238 279.251 327.548 278.992 325.884 279.201C324.219 279.411 322.646 280.08 321.344 281.134L314.726 286.524L311.125 302.232Z" fill="#FF6D6D"/>
<path d="M340.99 355.671L341.065 355.571C345.086 350.255 339.586 337.09 338.755 335.18L342.494 334.076L341.842 326.98L341.528 323.815L344.435 321.063L344.445 320.993L346.444 306.81L349.06 297.423C350.046 293.874 350.066 290.128 349.12 286.568C348.174 283.009 346.294 279.765 343.675 277.169L338.327 271.876L331.921 261.879L321.179 261.603L317.317 268.443C313.725 269.174 310.504 271.138 308.215 273.993C305.926 276.848 304.714 280.412 304.791 284.066L305.155 302.277L301.3 324.839L301.192 328.938L297.409 332.917L298.109 336.941L295.279 338.064L293.894 343.781C293.365 344.441 289.874 348.841 289.842 350.068C289.837 350.252 289.969 350.433 290.256 350.638C292.517 352.25 305.15 355.744 310.835 353.644C316.891 351.408 340.627 355.606 340.866 355.649L340.99 355.671Z" fill="#FF6D6D"/>
<path d="M325.611 258.539C333.47 258.539 339.841 252.187 339.841 244.352C339.841 236.517 333.47 230.166 325.611 230.166C317.752 230.166 311.381 236.517 311.381 244.352C311.381 252.187 317.752 258.539 325.611 258.539Z" fill="#FFB8B8"/>
<path d="M323.876 258.728C326.079 258.763 328.282 258.609 330.459 258.27C332.618 257.832 337.446 254.305 338.792 252.182C339.792 250.605 340.432 248.142 340.792 246.354C341.277 243.988 341.259 241.547 340.738 239.188C340.216 236.829 339.204 234.606 337.766 232.662C337.214 231.849 336.451 231.2 335.558 230.784C335.479 230.753 335.398 230.726 335.316 230.702C334.016 230.361 332.847 229.641 331.961 228.633C331.789 228.429 331.603 228.238 331.403 228.061C330.402 227.218 329.214 226.623 327.938 226.326C325.877 225.776 322.896 226.322 319.076 227.949C317.156 228.767 315.058 228.471 313.443 228.122C313.352 228.104 313.259 228.111 313.172 228.141C313.084 228.17 313.006 228.222 312.946 228.292C312.259 228.934 311.353 229.294 310.411 229.299C309.834 229.324 309.228 230.121 308.496 231.16C308.33 231.395 308.136 231.671 307.997 231.838L307.978 231.516L307.651 231.875C307.138 232.439 306.777 233.123 306.6 233.864C306.424 234.605 306.438 235.378 306.642 236.112C306.846 236.845 307.233 237.516 307.767 238.06C308.3 238.605 308.964 239.006 309.695 239.226C310.275 239.38 310.87 239.474 311.47 239.508C311.833 239.54 312.209 239.574 312.569 239.636C313.725 239.872 314.8 240.403 315.688 241.177C316.577 241.95 317.249 242.941 317.64 244.051C317.732 244.307 317.882 244.539 318.079 244.729C318.275 244.918 318.513 245.06 318.773 245.144C319.033 245.227 319.309 245.25 319.58 245.21C319.85 245.17 320.108 245.069 320.333 244.914C320.708 244.623 321.148 244.427 321.616 244.342C322.084 244.257 322.565 244.286 323.019 244.427C323.412 244.644 323.717 244.989 323.885 245.405C324.088 245.868 324.425 246.259 324.852 246.53C326.315 247.282 326.416 250.613 325.89 253.389C325.384 256.065 324.383 258.001 323.456 258.096C322.743 258.17 322.661 258.22 322.61 258.346L322.564 258.459L322.644 258.564C323.038 258.707 323.458 258.763 323.876 258.728Z" fill="#2F2E41"/>
<path d="M314.659 297.943L309.172 287.038C301.208 287.58 285.402 296.76 285.402 296.76L255.495 303.082C254.609 302.742 253.649 302.641 252.711 302.789C251.774 302.937 250.892 303.329 250.155 303.924C249.417 304.52 248.85 305.299 248.511 306.183C248.171 307.066 248.071 308.023 248.221 308.958C248.37 309.892 248.764 310.771 249.363 311.505C249.961 312.24 250.743 312.804 251.63 313.142C252.517 313.479 253.477 313.577 254.414 313.427C255.351 313.277 256.232 312.883 256.968 312.286L295.011 309.567L314.659 297.943Z" fill="#FFB8B8"/>
<path d="M312.445 299.734L326.775 289.118L329.299 280.05C329.788 278.268 329.768 276.385 329.24 274.614C328.712 272.843 327.697 271.255 326.311 270.028C324.421 268.378 321.973 267.506 319.462 267.586C316.951 267.667 314.565 268.695 312.785 270.463C307.393 275.829 301.242 283.315 302.563 288.506L302.577 288.558L312.445 299.734Z" fill="#FF6D6D"/>
<path d="M294.707 328.13H256.364V333.226H294.707V328.13Z" fill="white"/>
<path d="M196.72 328.13H158.378V333.226H196.72V328.13Z" fill="white"/>
<path d="M201.198 303.621V327.887C201.198 328.196 201.322 328.492 201.541 328.711C201.761 328.93 202.058 329.053 202.368 329.053H238.44C238.75 329.053 239.047 328.93 239.267 328.711C239.486 328.492 239.609 328.196 239.61 327.887V303.621C239.609 303.312 239.485 303.015 239.266 302.797C239.047 302.579 238.75 302.456 238.44 302.456H202.368C202.058 302.456 201.761 302.579 201.542 302.797C201.323 303.015 201.199 303.312 201.198 303.621Z" fill="#3F3D56"/>
<path d="M202.044 303.922V327.587C202.044 327.753 202.11 327.911 202.227 328.028C202.345 328.145 202.503 328.21 202.669 328.211H238.139C238.305 328.21 238.463 328.145 238.581 328.028C238.698 327.911 238.764 327.753 238.764 327.587V303.922C238.764 303.757 238.698 303.598 238.581 303.481C238.464 303.364 238.305 303.298 238.139 303.298H202.669C202.503 303.298 202.344 303.364 202.227 303.481C202.11 303.598 202.044 303.757 202.044 303.922Z" fill="#FF6D6D"/>
<path d="M200.444 332.619C200.51 332.702 200.594 332.768 200.69 332.814C200.785 332.859 200.89 332.883 200.996 332.882H239.62C239.726 332.882 239.83 332.859 239.925 332.813C240.021 332.768 240.105 332.702 240.171 332.62C240.238 332.538 240.285 332.443 240.31 332.34C240.335 332.238 240.336 332.131 240.315 332.028L239.715 329.189C239.69 329.074 239.637 328.966 239.56 328.876C239.482 328.786 239.384 328.717 239.273 328.675C239.192 328.643 239.107 328.627 239.02 328.627H201.593C201.507 328.627 201.421 328.643 201.341 328.675C201.23 328.717 201.131 328.786 201.054 328.876C200.977 328.966 200.923 329.074 200.898 329.189L200.299 332.028C200.278 332.131 200.279 332.238 200.305 332.34C200.33 332.442 200.377 332.538 200.444 332.619Z" fill="#2F2E41"/>
<path d="M237.695 329.85H238.607C238.684 329.85 238.746 329.788 238.746 329.712V329.277C238.746 329.201 238.684 329.139 238.607 329.139H237.695C237.619 329.139 237.556 329.201 237.556 329.277V329.712C237.556 329.788 237.619 329.85 237.695 329.85Z" fill="#3F3D56"/>
<path d="M235.316 329.85H236.229C236.305 329.85 236.367 329.788 236.367 329.712V329.277C236.367 329.2 236.305 329.138 236.229 329.138H235.316C235.24 329.138 235.178 329.2 235.178 329.277V329.712C235.178 329.788 235.24 329.85 235.316 329.85Z" fill="#3F3D56"/>
<path d="M232.935 329.85H233.848C233.924 329.85 233.986 329.788 233.986 329.712V329.277C233.986 329.201 233.924 329.139 233.848 329.139H232.935C232.859 329.139 232.797 329.201 232.797 329.277V329.712C232.797 329.788 232.859 329.85 232.935 329.85Z" fill="#3F3D56"/>
<path d="M230.557 329.85H231.47C231.546 329.85 231.608 329.788 231.608 329.712V329.277C231.608 329.2 231.546 329.139 231.47 329.139H230.557C230.481 329.139 230.419 329.2 230.419 329.277V329.712C230.419 329.788 230.481 329.85 230.557 329.85Z" fill="#3F3D56"/>
<path d="M228.178 329.85H229.09C229.166 329.85 229.229 329.788 229.229 329.712V329.277C229.229 329.2 229.166 329.139 229.09 329.139H228.178C228.101 329.139 228.039 329.2 228.039 329.277V329.712C228.039 329.788 228.101 329.85 228.178 329.85Z" fill="#3F3D56"/>
<path d="M225.799 329.85H226.711C226.788 329.85 226.85 329.788 226.85 329.712V329.277C226.85 329.201 226.788 329.139 226.711 329.139H225.799C225.722 329.139 225.66 329.201 225.66 329.277V329.712C225.66 329.788 225.722 329.85 225.799 329.85Z" fill="#3F3D56"/>
<path d="M223.42 329.85H224.332C224.409 329.85 224.471 329.788 224.471 329.712V329.277C224.471 329.2 224.409 329.139 224.332 329.139H223.42C223.343 329.139 223.281 329.2 223.281 329.277V329.712C223.281 329.788 223.343 329.85 223.42 329.85Z" fill="#3F3D56"/>
<path d="M221.041 329.85H221.953C222.03 329.85 222.092 329.788 222.092 329.712V329.277C222.092 329.2 222.03 329.139 221.953 329.139H221.041C220.964 329.139 220.902 329.2 220.902 329.277V329.712C220.902 329.788 220.964 329.85 221.041 329.85Z" fill="#3F3D56"/>
<path d="M218.661 329.85H219.573C219.65 329.85 219.712 329.788 219.712 329.712V329.277C219.712 329.2 219.65 329.139 219.573 329.139H218.661C218.584 329.139 218.522 329.2 218.522 329.277V329.712C218.522 329.788 218.584 329.85 218.661 329.85Z" fill="#3F3D56"/>
<path d="M216.282 329.85H217.194C217.271 329.85 217.333 329.788 217.333 329.712V329.277C217.333 329.2 217.271 329.139 217.194 329.139H216.282C216.205 329.139 216.143 329.2 216.143 329.277V329.712C216.143 329.788 216.205 329.85 216.282 329.85Z" fill="#3F3D56"/>
<path d="M213.902 329.85H214.814C214.891 329.85 214.953 329.788 214.953 329.712V329.277C214.953 329.201 214.891 329.139 214.814 329.139H213.902C213.826 329.139 213.764 329.201 213.764 329.277V329.712C213.764 329.788 213.826 329.85 213.902 329.85Z" fill="#3F3D56"/>
<path d="M211.523 329.85H212.436C212.512 329.85 212.574 329.788 212.574 329.712V329.277C212.574 329.2 212.512 329.139 212.436 329.139H211.523C211.447 329.139 211.385 329.2 211.385 329.277V329.712C211.385 329.788 211.447 329.85 211.523 329.85Z" fill="#3F3D56"/>
<path d="M209.144 329.85H210.057C210.133 329.85 210.195 329.788 210.195 329.712V329.277C210.195 329.2 210.133 329.139 210.057 329.139H209.144C209.068 329.139 209.006 329.2 209.006 329.277V329.712C209.006 329.788 209.068 329.85 209.144 329.85Z" fill="#3F3D56"/>
<path d="M206.764 329.85H207.677C207.753 329.85 207.815 329.788 207.815 329.712V329.277C207.815 329.201 207.753 329.139 207.677 329.139H206.764C206.688 329.139 206.626 329.201 206.626 329.277V329.712C206.626 329.788 206.688 329.85 206.764 329.85Z" fill="#3F3D56"/>
<path d="M204.386 329.85H205.298C205.374 329.85 205.437 329.788 205.437 329.712V329.277C205.437 329.201 205.374 329.139 205.298 329.139H204.386C204.309 329.139 204.247 329.201 204.247 329.277V329.712C204.247 329.788 204.309 329.85 204.386 329.85Z" fill="#3F3D56"/>
<path d="M202.007 329.85H202.919C202.996 329.85 203.058 329.788 203.058 329.712V329.277C203.058 329.2 202.996 329.139 202.919 329.139H202.007C201.93 329.139 201.868 329.2 201.868 329.277V329.712C201.868 329.788 201.93 329.85 202.007 329.85Z" fill="#3F3D56"/>
<path d="M237.722 331.036H238.635C238.711 331.036 238.773 330.974 238.773 330.898V330.463C238.773 330.387 238.711 330.325 238.635 330.325H237.722C237.646 330.325 237.584 330.387 237.584 330.463V330.898C237.584 330.974 237.646 331.036 237.722 331.036Z" fill="#3F3D56"/>
<path d="M235.344 331.036H236.256C236.332 331.036 236.395 330.974 236.395 330.898V330.463C236.395 330.386 236.332 330.325 236.256 330.325H235.344C235.267 330.325 235.205 330.386 235.205 330.463V330.898C235.205 330.974 235.267 331.036 235.344 331.036Z" fill="#3F3D56"/>
<path d="M232.965 331.036H233.877C233.954 331.036 234.016 330.974 234.016 330.898V330.463C234.016 330.387 233.954 330.325 233.877 330.325H232.965C232.888 330.325 232.826 330.387 232.826 330.463V330.898C232.826 330.974 232.888 331.036 232.965 331.036Z" fill="#3F3D56"/>
<path d="M230.585 331.036H231.497C231.574 331.036 231.636 330.974 231.636 330.898V330.463C231.636 330.387 231.574 330.325 231.497 330.325H230.585C230.508 330.325 230.446 330.387 230.446 330.463V330.898C230.446 330.974 230.508 331.036 230.585 331.036Z" fill="#3F3D56"/>
<path d="M228.206 331.036H229.118C229.195 331.036 229.257 330.974 229.257 330.898V330.463C229.257 330.387 229.195 330.325 229.118 330.325H228.206C228.129 330.325 228.067 330.387 228.067 330.463V330.898C228.067 330.974 228.129 331.036 228.206 331.036Z" fill="#3F3D56"/>
<path d="M225.827 331.036H226.739C226.816 331.036 226.878 330.974 226.878 330.898V330.463C226.878 330.386 226.816 330.325 226.739 330.325H225.827C225.75 330.325 225.688 330.386 225.688 330.463V330.898C225.688 330.974 225.75 331.036 225.827 331.036Z" fill="#3F3D56"/>
<path d="M223.448 331.036H224.36C224.437 331.036 224.499 330.974 224.499 330.898V330.463C224.499 330.386 224.437 330.325 224.36 330.325H223.448C223.372 330.325 223.309 330.386 223.309 330.463V330.898C223.309 330.974 223.372 331.036 223.448 331.036Z" fill="#3F3D56"/>
<path d="M221.068 331.036H221.98C222.057 331.036 222.119 330.974 222.119 330.898V330.463C222.119 330.386 222.057 330.325 221.98 330.325H221.068C220.992 330.325 220.93 330.386 220.93 330.463V330.898C220.93 330.974 220.992 331.036 221.068 331.036Z" fill="#3F3D56"/>
<path d="M218.689 331.036H219.602C219.678 331.036 219.74 330.974 219.74 330.898V330.463C219.74 330.387 219.678 330.325 219.602 330.325H218.689C218.613 330.325 218.551 330.387 218.551 330.463V330.898C218.551 330.974 218.613 331.036 218.689 331.036Z" fill="#3F3D56"/>
<path d="M216.31 331.036H217.223C217.299 331.036 217.361 330.974 217.361 330.898V330.463C217.361 330.386 217.299 330.325 217.223 330.325H216.31C216.234 330.325 216.172 330.386 216.172 330.463V330.898C216.172 330.974 216.234 331.036 216.31 331.036Z" fill="#3F3D56"/>
<path d="M213.93 331.036H214.843C214.919 331.036 214.981 330.974 214.981 330.898V330.463C214.981 330.386 214.919 330.325 214.843 330.325H213.93C213.854 330.325 213.792 330.386 213.792 330.463V330.898C213.792 330.974 213.854 331.036 213.93 331.036Z" fill="#3F3D56"/>
<path d="M211.552 331.036H212.464C212.54 331.036 212.603 330.974 212.603 330.898V330.463C212.603 330.386 212.54 330.325 212.464 330.325H211.552C211.475 330.325 211.413 330.386 211.413 330.463V330.898C211.413 330.974 211.475 331.036 211.552 331.036Z" fill="#3F3D56"/>
<path d="M209.172 331.036H210.084C210.161 331.036 210.223 330.974 210.223 330.898V330.463C210.223 330.386 210.161 330.325 210.084 330.325H209.172C209.095 330.325 209.033 330.386 209.033 330.463V330.898C209.033 330.974 209.095 331.036 209.172 331.036Z" fill="#3F3D56"/>
<path d="M206.794 331.036H207.706C207.783 331.036 207.845 330.974 207.845 330.898V330.463C207.845 330.386 207.783 330.325 207.706 330.325H206.794C206.717 330.325 206.655 330.386 206.655 330.463V330.898C206.655 330.974 206.717 331.036 206.794 331.036Z" fill="#3F3D56"/>
<path d="M204.414 331.036H205.326C205.403 331.036 205.465 330.974 205.465 330.898V330.463C205.465 330.386 205.403 330.325 205.326 330.325H204.414C204.337 330.325 204.275 330.386 204.275 330.463V330.898C204.275 330.974 204.337 331.036 204.414 331.036Z" fill="#3F3D56"/>
<path d="M202.035 331.036H202.947C203.024 331.036 203.086 330.974 203.086 330.898V330.463C203.086 330.387 203.024 330.325 202.947 330.325H202.035C201.958 330.325 201.896 330.387 201.896 330.463V330.898C201.896 330.974 201.958 331.036 202.035 331.036Z" fill="#3F3D56"/>
<path d="M217.975 332.459H227.215C227.291 332.459 227.354 332.398 227.354 332.321V331.886C227.354 331.81 227.291 331.748 227.215 331.748H217.975C217.899 331.748 217.837 331.81 217.837 331.886V332.321C217.837 332.398 217.899 332.459 217.975 332.459Z" fill="#3F3D56"/>
</svg>
