<svg width="469" height="474" viewBox="0 0 469 474" fill="none" xmlns="http://www.w3.org/2000/svg">
<path d="M127.774 121.852C127.614 121.852 127.494 121.812 127.414 121.732C127.334 121.652 127.294 121.552 127.294 121.432C127.294 121.312 127.334 121.212 127.414 121.132C127.494 121.052 127.614 121.012 127.774 121.012H134.494V117.772C134.494 117.652 134.474 117.532 134.434 117.412C134.414 117.272 134.404 117.132 134.404 116.992C134.404 116.832 134.474 116.692 134.614 116.572C134.754 116.452 134.914 116.392 135.094 116.392C135.254 116.392 135.404 116.452 135.544 116.572C135.684 116.692 135.754 116.832 135.754 116.992C135.754 117.132 135.734 117.272 135.694 117.412C135.674 117.532 135.664 117.652 135.664 117.772V121.012H144.094V117.772C144.094 117.652 144.074 117.532 144.034 117.412C144.014 117.272 144.004 117.132 144.004 116.992C144.004 116.832 144.074 116.692 144.214 116.572C144.354 116.452 144.514 116.392 144.694 116.392C144.854 116.392 145.004 116.452 145.144 116.572C145.284 116.692 145.354 116.832 145.354 116.992C145.354 117.132 145.334 117.272 145.294 117.412C145.274 117.532 145.264 117.652 145.264 117.772V121.012H152.014C152.174 121.012 152.294 121.052 152.374 121.132C152.474 121.212 152.524 121.312 152.524 121.432C152.524 121.552 152.474 121.652 152.374 121.732C152.294 121.812 152.174 121.852 152.014 121.852H127.774ZM130.294 102.562C130.134 102.562 130.014 102.522 129.934 102.442C129.854 102.362 129.814 102.262 129.814 102.142C129.814 102.022 129.854 101.922 129.934 101.842C130.014 101.762 130.134 101.722 130.294 101.722H139.324V98.6625C139.324 98.5425 139.304 98.4225 139.264 98.3025C139.244 98.1625 139.234 98.0225 139.234 97.8825C139.234 97.7225 139.304 97.5825 139.444 97.4625C139.584 97.3425 139.744 97.2825 139.924 97.2825C140.084 97.2825 140.234 97.3425 140.374 97.4625C140.514 97.5825 140.584 97.7225 140.584 97.8825C140.584 98.0225 140.564 98.1625 140.524 98.3025C140.504 98.4225 140.494 98.5425 140.494 98.6625V101.722H149.494C149.654 101.722 149.774 101.762 149.854 101.842C149.954 101.922 150.004 102.022 150.004 102.142C150.004 102.262 149.954 102.362 149.854 102.442C149.774 102.522 149.654 102.562 149.494 102.562H130.294ZM132.124 110.092C132.124 109.072 132.434 108.142 133.054 107.302C133.674 106.442 134.564 105.762 135.724 105.262C136.904 104.762 138.294 104.512 139.894 104.512C141.474 104.512 142.854 104.762 144.034 105.262C145.214 105.762 146.114 106.442 146.734 107.302C147.354 108.142 147.664 109.072 147.664 110.092C147.664 111.112 147.354 112.052 146.734 112.912C146.114 113.772 145.214 114.452 144.034 114.952C142.854 115.452 141.474 115.702 139.894 115.702C138.294 115.702 136.904 115.452 135.724 114.952C134.564 114.452 133.674 113.772 133.054 112.912C132.434 112.052 132.124 111.112 132.124 110.092ZM133.294 110.092C133.294 111.012 133.564 111.832 134.104 112.552C134.644 113.272 135.414 113.842 136.414 114.262C137.414 114.662 138.574 114.862 139.894 114.862C141.214 114.862 142.374 114.662 143.374 114.262C144.374 113.842 145.144 113.272 145.684 112.552C146.224 111.832 146.494 111.012 146.494 110.092C146.494 109.192 146.224 108.382 145.684 107.662C145.144 106.942 144.374 106.382 143.374 105.982C142.374 105.562 141.214 105.352 139.894 105.352C138.574 105.352 137.414 105.562 136.414 105.982C135.414 106.382 134.644 106.942 134.104 107.662C133.564 108.382 133.294 109.192 133.294 110.092ZM175.831 126.172C175.651 126.172 175.491 126.112 175.351 125.992C175.211 125.872 175.141 125.732 175.141 125.572C175.141 125.432 175.151 125.292 175.171 125.152C175.211 125.032 175.231 124.912 175.231 124.792V98.9625C175.231 98.8425 175.211 98.7225 175.171 98.6025C175.151 98.4625 175.141 98.3225 175.141 98.1825C175.141 98.0225 175.211 97.8825 175.351 97.7625C175.491 97.6425 175.651 97.5825 175.831 97.5825C175.991 97.5825 176.141 97.6425 176.281 97.7625C176.421 97.8825 176.491 98.0225 176.491 98.1825C176.491 98.3225 176.471 98.4625 176.431 98.6025C176.411 98.7225 176.401 98.8425 176.401 98.9625V108.322H180.511C180.671 108.322 180.791 108.362 180.871 108.442C180.971 108.522 181.021 108.622 181.021 108.742C181.021 108.862 180.971 108.962 180.871 109.042C180.791 109.122 180.671 109.162 180.511 109.162H176.401V124.792C176.401 124.912 176.411 125.032 176.431 125.152C176.471 125.292 176.491 125.432 176.491 125.572C176.491 125.732 176.421 125.872 176.281 125.992C176.141 126.112 175.991 126.172 175.831 126.172ZM156.841 100.582C156.841 100.402 156.901 100.252 157.021 100.132C157.141 99.9925 157.291 99.9225 157.471 99.9225C157.631 99.9225 157.831 99.9725 158.071 100.072C158.151 100.112 158.311 100.132 158.551 100.132H170.041C170.201 100.132 170.321 100.172 170.401 100.252C170.501 100.332 170.551 100.432 170.551 100.552C170.551 100.672 170.501 100.772 170.401 100.852C170.321 100.932 170.201 100.972 170.041 100.972H158.101V112.462C158.101 113.662 158.281 114.662 158.641 115.462C159.001 116.242 159.531 116.872 160.231 117.352C161.331 118.112 162.751 118.492 164.491 118.492C165.631 118.492 166.791 118.322 167.971 117.982C169.151 117.622 170.261 117.102 171.301 116.422C171.461 116.322 171.601 116.272 171.721 116.272C171.821 116.272 171.901 116.302 171.961 116.362C172.021 116.422 172.051 116.492 172.051 116.572C172.051 116.772 171.931 116.952 171.691 117.112C170.611 117.812 169.431 118.352 168.151 118.732C166.891 119.092 165.651 119.272 164.431 119.272C162.651 119.272 161.131 118.912 159.871 118.192C158.891 117.632 158.151 116.892 157.651 115.972C157.171 115.032 156.931 113.872 156.931 112.492V101.332C156.931 101.212 156.911 101.092 156.871 100.972C156.851 100.832 156.841 100.702 156.841 100.582ZM203.429 114.442C203.249 114.442 203.089 114.382 202.949 114.262C202.809 114.142 202.739 114.002 202.739 113.842C202.739 113.702 202.749 113.572 202.769 113.452C202.809 113.312 202.829 113.182 202.829 113.062V98.9625C202.829 98.8425 202.809 98.7225 202.769 98.6025C202.749 98.4625 202.739 98.3225 202.739 98.1825C202.739 98.0225 202.809 97.8825 202.949 97.7625C203.089 97.6425 203.249 97.5825 203.429 97.5825C203.589 97.5825 203.739 97.6425 203.879 97.7625C204.019 97.8825 204.089 98.0225 204.089 98.1825C204.089 98.3225 204.069 98.4625 204.029 98.6025C204.009 98.7225 203.999 98.8425 203.999 98.9625V105.022H208.109C208.269 105.022 208.389 105.062 208.469 105.142C208.569 105.222 208.619 105.322 208.619 105.442C208.619 105.562 208.569 105.662 208.469 105.742C208.389 105.822 208.269 105.862 208.109 105.862H203.999V113.062C203.999 113.182 204.009 113.312 204.029 113.452C204.069 113.572 204.089 113.702 204.089 113.842C204.089 114.002 204.019 114.142 203.879 114.262C203.739 114.382 203.589 114.442 203.429 114.442ZM184.439 99.9825C184.439 99.8025 184.499 99.6525 184.619 99.5325C184.739 99.3925 184.889 99.3225 185.069 99.3225C185.229 99.3225 185.429 99.3725 185.669 99.4725C185.749 99.5125 185.909 99.5325 186.149 99.5325H197.639C197.799 99.5325 197.919 99.5725 197.999 99.6525C198.099 99.7325 198.149 99.8325 198.149 99.9525C198.149 100.072 198.099 100.172 197.999 100.252C197.919 100.332 197.799 100.372 197.639 100.372H185.699V105.622C185.699 106.942 185.889 107.952 186.269 108.652C186.649 109.332 187.249 109.852 188.069 110.212C189.189 110.692 190.499 110.932 191.999 110.932C193.119 110.932 194.279 110.792 195.479 110.512C196.679 110.212 197.819 109.792 198.899 109.252C199.039 109.172 199.169 109.132 199.289 109.132C199.409 109.132 199.499 109.162 199.559 109.222C199.639 109.282 199.679 109.362 199.679 109.462C199.679 109.642 199.549 109.802 199.289 109.942C198.129 110.522 196.899 110.972 195.599 111.292C194.319 111.612 193.059 111.772 191.819 111.772C190.319 111.772 188.949 111.532 187.709 111.052C186.589 110.612 185.779 109.972 185.279 109.132C184.779 108.292 184.529 107.132 184.529 105.652V100.732C184.529 100.612 184.509 100.492 184.469 100.372C184.449 100.232 184.439 100.102 184.439 99.9825ZM187.019 117.322C186.859 117.322 186.729 117.282 186.629 117.202C186.549 117.122 186.509 117.022 186.509 116.902C186.509 116.782 186.549 116.682 186.629 116.602C186.729 116.522 186.859 116.482 187.019 116.482H202.199C203.399 116.482 203.999 117.062 203.999 118.222V124.762C203.999 124.882 204.009 125.002 204.029 125.122C204.069 125.262 204.089 125.402 204.089 125.542C204.089 125.702 204.019 125.842 203.879 125.962C203.739 126.082 203.589 126.142 203.429 126.142C203.249 126.142 203.089 126.082 202.949 125.962C202.809 125.842 202.739 125.702 202.739 125.542C202.739 125.402 202.749 125.262 202.769 125.122C202.809 125.002 202.829 124.882 202.829 124.762V118.012C202.829 117.812 202.759 117.652 202.619 117.532C202.479 117.392 202.309 117.322 202.109 117.322H187.019ZM227.397 125.752C227.217 125.752 227.057 125.692 226.917 125.572C226.777 125.452 226.707 125.312 226.707 125.152C226.707 125.012 226.717 124.872 226.737 124.732C226.777 124.612 226.797 124.492 226.797 124.372V109.582H222.657H222.627C222.627 112.502 222.127 114.812 221.127 116.512C220.147 118.212 218.747 119.062 216.927 119.062C215.027 119.062 213.597 118.222 212.637 116.542C211.697 114.842 211.227 112.502 211.227 109.522C211.227 106.542 211.697 104.212 212.637 102.532C213.597 100.852 215.027 100.012 216.927 100.012C218.667 100.012 220.027 100.792 221.007 102.352C221.987 103.912 222.527 106.042 222.627 108.742H222.657H226.797V99.1125C226.797 98.9925 226.777 98.8725 226.737 98.7525C226.717 98.6125 226.707 98.4725 226.707 98.3325C226.707 98.1725 226.777 98.0325 226.917 97.9125C227.057 97.7925 227.217 97.7325 227.397 97.7325C227.557 97.7325 227.707 97.7925 227.847 97.9125C227.987 98.0325 228.057 98.1725 228.057 98.3325C228.057 98.4725 228.037 98.6125 227.997 98.7525C227.977 98.8725 227.967 98.9925 227.967 99.1125V124.372C227.967 124.492 227.977 124.612 227.997 124.732C228.037 124.872 228.057 125.012 228.057 125.152C228.057 125.312 227.987 125.452 227.847 125.572C227.707 125.692 227.557 125.752 227.397 125.752ZM212.397 109.522C212.397 112.242 212.777 114.372 213.537 115.912C214.297 117.452 215.427 118.222 216.927 118.222C218.347 118.222 219.457 117.442 220.257 115.882C221.057 114.322 221.457 112.202 221.457 109.522C221.457 106.842 221.057 104.732 220.257 103.192C219.457 101.632 218.347 100.852 216.927 100.852C215.427 100.852 214.297 101.622 213.537 103.162C212.777 104.682 212.397 106.802 212.397 109.522ZM232.287 125.572C232.287 125.432 232.297 125.292 232.317 125.152C232.357 125.032 232.377 124.912 232.377 124.792V98.9625C232.377 98.8425 232.357 98.7225 232.317 98.6025C232.297 98.4625 232.287 98.3225 232.287 98.1825C232.287 98.0225 232.357 97.8825 232.497 97.7625C232.637 97.6425 232.797 97.5825 232.977 97.5825C233.137 97.5825 233.287 97.6425 233.427 97.7625C233.567 97.8825 233.637 98.0225 233.637 98.1825C233.637 98.3225 233.617 98.4625 233.577 98.6025C233.557 98.7225 233.547 98.8425 233.547 98.9625V124.792C233.547 124.912 233.557 125.032 233.577 125.152C233.617 125.292 233.637 125.432 233.637 125.572C233.637 125.732 233.567 125.872 233.427 125.992C233.287 126.112 233.137 126.172 232.977 126.172C232.797 126.172 232.637 126.112 232.497 125.992C232.357 125.872 232.287 125.732 232.287 125.572ZM260.124 126.172C259.944 126.172 259.784 126.112 259.644 125.992C259.504 125.872 259.434 125.732 259.434 125.572C259.434 125.432 259.444 125.292 259.464 125.152C259.504 125.032 259.524 124.912 259.524 124.792V108.982H253.554C253.394 108.982 253.274 108.942 253.194 108.862C253.114 108.782 253.074 108.682 253.074 108.562C253.074 108.442 253.114 108.342 253.194 108.262C253.274 108.182 253.394 108.142 253.554 108.142H259.524V98.9625C259.524 98.8425 259.504 98.7225 259.464 98.6025C259.444 98.4625 259.434 98.3225 259.434 98.1825C259.434 98.0225 259.504 97.8825 259.644 97.7625C259.784 97.6425 259.944 97.5825 260.124 97.5825C260.284 97.5825 260.434 97.6425 260.574 97.7625C260.714 97.8825 260.784 98.0225 260.784 98.1825C260.784 98.3225 260.764 98.4625 260.724 98.6025C260.704 98.7225 260.694 98.8425 260.694 98.9625V124.792C260.694 124.912 260.704 125.032 260.724 125.152C260.764 125.292 260.784 125.432 260.784 125.572C260.784 125.732 260.714 125.872 260.574 125.992C260.434 126.112 260.284 126.172 260.124 126.172ZM238.764 118.612C238.804 118.552 238.854 118.482 238.914 118.402C238.994 118.322 239.054 118.252 239.094 118.192C241.694 113.412 243.844 109.542 245.544 106.582C247.244 103.602 248.424 101.592 249.084 100.552C249.124 100.492 249.154 100.392 249.174 100.252C249.194 100.092 249.244 99.9625 249.324 99.8625C249.444 99.6825 249.614 99.5925 249.834 99.5925C249.954 99.5925 250.074 99.6325 250.194 99.7125C250.414 99.8525 250.524 100.032 250.524 100.252C250.524 100.372 250.494 100.492 250.434 100.612C250.374 100.712 250.284 100.822 250.164 100.942C250.064 101.042 249.994 101.122 249.954 101.182L249.594 101.782C246.754 106.522 243.604 112.112 240.144 118.552C240.104 118.612 240.074 118.702 240.054 118.822C240.034 118.922 240.014 119.002 239.994 119.062C239.934 119.202 239.844 119.312 239.724 119.392C239.604 119.452 239.474 119.482 239.334 119.482C239.154 119.482 239.004 119.422 238.884 119.302C238.764 119.162 238.704 119.012 238.704 118.852C238.704 118.812 238.724 118.732 238.764 118.612ZM247.944 109.072C247.784 108.792 247.704 108.592 247.704 108.472C247.704 108.332 247.784 108.212 247.944 108.112C248.104 108.032 248.254 108.042 248.394 108.142C248.534 108.242 248.694 108.442 248.874 108.742C249.654 109.962 251.144 112.182 253.344 115.402L254.964 117.742C255.004 117.782 255.044 117.822 255.084 117.862C255.124 117.902 255.164 117.942 255.204 117.982C255.344 118.102 255.414 118.262 255.414 118.462C255.414 118.622 255.354 118.762 255.234 118.882C255.094 119.022 254.934 119.092 254.754 119.092C254.614 119.092 254.474 119.042 254.334 118.942C254.254 118.842 254.194 118.752 254.154 118.672C254.114 118.572 254.074 118.502 254.034 118.462C252.234 115.842 250.204 112.712 247.944 109.072ZM272.242 124.882C271.402 124.442 270.702 123.782 270.142 122.902C269.602 122.042 269.332 121.012 269.332 119.812V118.762C269.332 118.642 269.312 118.522 269.272 118.402C269.252 118.262 269.242 118.122 269.242 117.982C269.242 117.822 269.312 117.682 269.452 117.562C269.592 117.442 269.752 117.382 269.932 117.382C270.092 117.382 270.242 117.442 270.382 117.562C270.522 117.682 270.592 117.822 270.592 117.982C270.592 118.122 270.572 118.262 270.532 118.402C270.512 118.522 270.502 118.642 270.502 118.762V119.782C270.502 120.822 270.712 121.692 271.132 122.392C271.552 123.092 272.042 123.622 272.602 123.982C273.282 124.422 274.072 124.752 274.972 124.972C275.892 125.212 276.872 125.332 277.912 125.332C279.472 125.332 281.042 125.082 282.622 124.582C284.202 124.102 285.582 123.412 286.762 122.512C286.922 122.392 287.062 122.332 287.182 122.332C287.282 122.332 287.362 122.362 287.422 122.422C287.482 122.482 287.512 122.562 287.512 122.662C287.512 122.862 287.422 123.022 287.242 123.142C285.962 124.102 284.502 124.842 282.862 125.362C281.222 125.882 279.562 126.142 277.882 126.142C275.742 126.142 273.862 125.722 272.242 124.882ZM265.762 113.962C265.602 113.962 265.482 113.922 265.402 113.842C265.322 113.762 265.282 113.662 265.282 113.542C265.282 113.422 265.322 113.322 265.402 113.242C265.482 113.162 265.602 113.122 265.762 113.122H290.002C290.162 113.122 290.282 113.162 290.362 113.242C290.462 113.322 290.512 113.422 290.512 113.542C290.512 113.662 290.462 113.762 290.362 113.842C290.282 113.922 290.162 113.962 290.002 113.962H265.762ZM269.602 99.8025C269.602 99.6425 269.672 99.5025 269.812 99.3825C269.952 99.2625 270.112 99.2025 270.292 99.2025C270.452 99.2025 270.602 99.2625 270.742 99.3825C270.882 99.5025 270.952 99.6425 270.952 99.8025C270.952 99.9425 270.932 100.082 270.892 100.222C270.872 100.342 270.862 100.462 270.862 100.582V103.432C270.862 105.632 271.592 107.182 273.052 108.082C273.692 108.462 274.482 108.752 275.422 108.952C276.362 109.152 277.392 109.252 278.512 109.252C279.832 109.252 281.162 109.122 282.502 108.862C283.842 108.602 285.082 108.212 286.222 107.692C286.342 107.632 286.452 107.602 286.552 107.602C286.672 107.602 286.762 107.642 286.822 107.722C286.902 107.782 286.942 107.862 286.942 107.962C286.942 108.142 286.822 108.292 286.582 108.412C285.362 108.952 284.042 109.362 282.622 109.642C281.202 109.922 279.802 110.062 278.422 110.062C276.122 110.062 274.212 109.682 272.692 108.922C270.692 107.882 269.692 106.062 269.692 103.462V100.582C269.692 100.462 269.672 100.342 269.632 100.222C269.612 100.082 269.602 99.9425 269.602 99.8025ZM305.48 114.352C304 114.352 302.61 114.042 301.31 113.422C300.03 112.802 299 111.902 298.22 110.722C297.44 109.542 297.05 108.172 297.05 106.612C297.05 105.052 297.44 103.692 298.22 102.532C299 101.352 300.03 100.452 301.31 99.8325C302.61 99.2125 304 98.9025 305.48 98.9025C306.94 98.9025 308.31 99.2125 309.59 99.8325C310.89 100.452 311.93 101.352 312.71 102.532C313.51 103.692 313.91 105.052 313.91 106.612C313.91 108.172 313.51 109.542 312.71 110.722C311.93 111.902 310.89 112.802 309.59 113.422C308.31 114.042 306.94 114.352 305.48 114.352ZM293.36 121.852C293.2 121.852 293.08 121.812 293 121.732C292.92 121.652 292.88 121.552 292.88 121.432C292.88 121.312 292.92 121.212 293 121.132C293.08 121.052 293.2 121.012 293.36 121.012H300.08V115.972C300.08 115.852 300.06 115.732 300.02 115.612C300 115.472 299.99 115.332 299.99 115.192C299.99 115.032 300.06 114.892 300.2 114.772C300.34 114.652 300.5 114.592 300.68 114.592C300.84 114.592 300.99 114.652 301.13 114.772C301.27 114.892 301.34 115.032 301.34 115.192C301.34 115.332 301.32 115.472 301.28 115.612C301.26 115.732 301.25 115.852 301.25 115.972V121.012H309.68V115.972C309.68 115.852 309.66 115.732 309.62 115.612C309.6 115.472 309.59 115.332 309.59 115.192C309.59 115.032 309.66 114.892 309.8 114.772C309.94 114.652 310.1 114.592 310.28 114.592C310.44 114.592 310.59 114.652 310.73 114.772C310.87 114.892 310.94 115.032 310.94 115.192C310.94 115.332 310.92 115.472 310.88 115.612C310.86 115.732 310.85 115.852 310.85 115.972V121.012H317.6C317.76 121.012 317.88 121.052 317.96 121.132C318.06 121.212 318.11 121.312 318.11 121.432C318.11 121.552 318.06 121.652 317.96 121.732C317.88 121.812 317.76 121.852 317.6 121.852H293.36ZM298.22 106.612C298.22 108.072 298.57 109.322 299.27 110.362C299.97 111.402 300.87 112.192 301.97 112.732C303.09 113.252 304.26 113.512 305.48 113.512C306.7 113.512 307.86 113.252 308.96 112.732C310.08 112.192 310.99 111.402 311.69 110.362C312.39 109.322 312.74 108.072 312.74 106.612C312.74 105.152 312.39 103.912 311.69 102.892C310.99 101.852 310.08 101.072 308.96 100.552C307.86 100.012 306.7 99.7425 305.48 99.7425C304.26 99.7425 303.09 100.002 301.97 100.522C300.87 101.042 299.97 101.822 299.27 102.862C298.57 103.902 298.22 105.152 298.22 106.612ZM322.787 123.652C322.487 123.652 322.247 123.552 322.067 123.352C321.887 123.172 321.797 122.922 321.797 122.602C321.797 122.322 321.887 122.092 322.067 121.912C322.267 121.732 322.507 121.642 322.787 121.642C323.067 121.642 323.297 121.732 323.477 121.912C323.657 122.112 323.747 122.342 323.747 122.602C323.747 122.922 323.657 123.172 323.477 123.352C323.297 123.552 323.067 123.652 322.787 123.652ZM329.789 123.652C329.489 123.652 329.249 123.552 329.069 123.352C328.889 123.172 328.799 122.922 328.799 122.602C328.799 122.322 328.889 122.092 329.069 121.912C329.269 121.732 329.509 121.642 329.789 121.642C330.069 121.642 330.299 121.732 330.479 121.912C330.659 122.112 330.749 122.342 330.749 122.602C330.749 122.922 330.659 123.172 330.479 123.352C330.299 123.552 330.069 123.652 329.789 123.652ZM336.791 123.652C336.491 123.652 336.251 123.552 336.071 123.352C335.891 123.172 335.801 122.922 335.801 122.602C335.801 122.322 335.891 122.092 336.071 121.912C336.271 121.732 336.511 121.642 336.791 121.642C337.071 121.642 337.301 121.732 337.481 121.912C337.661 122.112 337.751 122.342 337.751 122.602C337.751 122.922 337.661 123.172 337.481 123.352C337.301 123.552 337.071 123.652 336.791 123.652Z" fill="black"/>
<path d="M142.845 151.085V168.858H140.443V159.972H138.783V167.999H136.439V151.378H138.783V157.96H140.443V151.085H142.845ZM128.236 164.522V153.058H130.736V162.345C132.161 162.306 133.734 162.179 135.443 161.847L135.697 163.995C133.314 164.405 131.283 164.532 129.447 164.522H128.236ZM158.822 151.085V157.901H161.341V159.952H158.822V168.819H156.322V151.085H158.822ZM144.603 163.839C148.812 161.729 151.077 158.897 151.546 154.933H145.618V152.901H154.076C154.056 158.214 151.986 162.813 146.009 165.753L144.603 163.839ZM171.478 152.335C174.193 152.335 176.156 154.786 176.165 158.663C176.156 162.569 174.193 165.011 171.478 165.011C168.753 165.011 166.781 162.569 166.79 158.663C166.781 154.786 168.753 152.335 171.478 152.335ZM169.193 158.663C169.193 161.31 170.12 162.755 171.478 162.745C172.865 162.755 173.773 161.31 173.783 158.663C173.773 156.026 172.865 154.581 171.478 154.581C170.12 154.581 169.193 156.026 169.193 158.663ZM178.216 168.858V151.085H180.716V157.784H183.333V159.854H180.716V168.858H178.216ZM198.411 155.929V157.882H185.99V151.71H188.47V155.929H198.411ZM183.958 161.749V159.796H200.228V161.749H183.958ZM185.833 168.468V163.194H188.333V166.476H198.529V168.468H185.833ZM220.853 151.085V161.632H218.372V157.433H215.599V155.421H218.372V151.085H220.853ZM205.755 159.679C208.665 158.702 209.993 156.378 210.052 154.151H206.478V152.159H216.126V154.151H212.591C212.64 156.222 213.91 158.312 216.673 159.229L215.443 161.183C213.49 160.548 212.132 159.259 211.361 157.667C210.579 159.474 209.154 160.929 207.044 161.651L205.755 159.679ZM208.665 165.46C208.665 163.302 210.99 162.032 214.779 162.022C218.577 162.032 220.902 163.302 220.911 165.46C220.902 167.618 218.577 168.878 214.779 168.878C210.99 168.878 208.665 167.618 208.665 165.46ZM211.146 165.46C211.146 166.476 212.425 166.983 214.779 166.983C217.142 166.983 218.421 166.476 218.431 165.46C218.421 164.435 217.142 163.927 214.779 163.937C212.425 163.927 211.146 164.435 211.146 165.46ZM239.427 164.757V166.788H223.158V164.757H230.013V161.476H224.876V152.218H227.376V154.972H235.13V152.218H237.611V161.476H232.493V164.757H239.427ZM227.376 159.483H235.13V156.964H227.376V159.483ZM256.693 159.054V160.909H240.423V159.054H256.693ZM242.279 163.507V161.788H254.74V165.987H244.779V167.003H255.267V168.702H242.298V164.405H252.279V163.507H242.279ZM242.415 153.097V151.397H254.72V155.577H244.935V156.534H255.033V158.214H242.454V153.995H252.22V153.097H242.415ZM270.345 162.159C274.232 162.159 276.673 163.39 276.693 165.519C276.673 167.618 274.232 168.868 270.345 168.858C266.488 168.868 264.007 167.618 264.017 165.519C264.007 163.39 266.488 162.159 270.345 162.159ZM262.376 161.026V159.015H268.431V155.909H270.892V159.015H278.509V161.026H262.376ZM264.193 153.839V151.886H276.595V153.331C276.605 154.747 276.605 156.271 276.087 158.097L273.646 157.862C274.046 156.251 274.095 155.05 274.115 153.839H264.193ZM266.497 165.519C266.488 166.476 267.894 166.964 270.345 166.964C272.796 166.964 274.212 166.476 274.212 165.519C274.212 164.532 272.796 164.005 270.345 164.015C267.894 164.005 266.488 164.532 266.497 165.519ZM295.872 160.968V162.979H292.064V168.858H289.525V162.979H285.892V168.858H283.333V162.979H279.603V160.968H295.872ZM281.243 155.694C281.234 153.243 283.87 151.681 287.689 151.671C291.507 151.681 294.173 153.243 294.173 155.694C294.173 158.087 291.507 159.61 287.689 159.601C283.87 159.61 281.234 158.087 281.243 155.694ZM283.802 155.694C283.792 156.944 285.306 157.638 287.689 157.647C290.091 157.638 291.595 156.944 291.595 155.694C291.595 154.386 290.091 153.673 287.689 153.663C285.306 153.673 283.792 154.386 283.802 155.694ZM305.482 153.8V155.772H296.888V153.8H299.974V151.573H302.435V153.8H305.482ZM297.298 160.792C297.298 158.321 298.958 156.583 301.224 156.573C303.499 156.583 305.12 158.321 305.13 160.792C305.12 163.272 303.499 165.03 301.224 165.03C298.958 165.03 297.298 163.272 297.298 160.792ZM299.486 160.792C299.486 162.149 300.189 162.921 301.224 162.921C302.22 162.921 302.933 162.149 302.943 160.792C302.933 159.454 302.22 158.644 301.224 158.644C300.189 158.644 299.486 159.454 299.486 160.792ZM306.146 168.097V151.437H308.47V158.312H309.915V151.085H312.279V168.858H309.915V160.304H308.47V168.097H306.146ZM330.462 164.737V166.788H314.193V164.737H317.826V160.382C316.449 159.552 315.618 158.292 315.618 156.729C315.618 153.849 318.431 151.954 322.298 151.944C326.146 151.954 328.988 153.849 328.997 156.729C328.988 158.263 328.187 159.503 326.849 160.333V164.737H330.462ZM318.079 156.729C318.079 158.468 319.749 159.542 322.298 159.542C324.808 159.542 326.527 158.468 326.536 156.729C326.527 154.942 324.808 153.907 322.298 153.917C319.749 153.907 318.079 154.942 318.079 156.729ZM320.286 164.737H324.329V161.28C323.695 161.407 323.011 161.476 322.298 161.476C321.585 161.476 320.911 161.407 320.286 161.29V164.737Z" fill="#FF6D6D"/>
<path d="M261.577 256.581C261.547 256.586 261.502 256.594 261.448 256.603C260.381 256.78 253.931 257.776 247.428 255.296C244.673 254.245 245.613 253.983 239.478 250.33C232.284 246.047 230.438 246.077 229.903 244.08C228.833 240.092 234.544 233.823 238.325 234.236C239.32 234.344 240.386 234.938 242.044 234.536C242.408 234.447 244.002 234.06 244.78 232.738C245.473 231.559 244.886 230.709 245.165 229.742C245.897 227.204 251.998 225.937 257.348 226.832C260.425 227.347 262.818 228.752 267.479 231.541C275.591 236.396 279.647 238.824 280.558 242.543C281.422 246.068 279.349 247.587 280.857 251.361C282.261 254.874 284.492 254.64 285.259 257.482C286.495 262.056 281.91 267.076 280 269.167C277.907 271.459 275.904 272.718 273.246 274.388C269.909 276.485 268.241 277.533 266.235 277.427C262.598 277.233 251.792 277.891 251.651 274.878C251.598 273.749 238.492 274.673 244.946 262.515C245.737 261.024 261.244 262.617 261.449 261.76" fill="#2F2E41"/>
<path d="M267.854 264.361L279.001 281.009L247.005 287.488L249.043 266.645L267.854 264.361Z" fill="#FFB6B6"/>
<path opacity="0.1" d="M267.854 264.361L279.001 281.009L247.005 287.488L249.043 266.645L267.854 264.361Z" fill="black"/>
<path d="M244.608 276.69L279.117 275.25L294.455 283.649L293.736 337.64L309.792 368.116L228.791 352.758L235.022 329.721L232.146 281.249L244.608 276.69Z" fill="#FF6D6D"/>
<path d="M125.524 381.578C124.422 379.839 124.292 377.691 125.176 375.831L138.311 348.198C139.291 346.136 141.398 344.803 143.679 344.803H309.577C311.795 344.803 313.812 346.025 314.842 347.991L328.921 374.862C329.894 376.72 329.83 378.902 328.749 380.699C327.669 382.496 325.774 383.573 323.679 383.582L130.568 384.343H130.544C128.497 384.343 126.621 383.311 125.524 381.578Z" fill="white"/>
<path d="M125.524 381.578C124.422 379.839 124.292 377.691 125.176 375.831L138.311 348.198C139.291 346.136 141.398 344.803 143.679 344.803H309.577C311.795 344.803 313.812 346.025 314.842 347.991L328.921 374.862C329.894 376.72 329.83 378.902 328.749 380.699C327.669 382.496 325.774 383.573 323.679 383.582L130.568 384.343H130.544C128.497 384.343 126.621 383.311 125.524 381.578ZM143.679 345.428C141.638 345.428 139.751 346.621 138.874 348.466L125.74 376.1C124.949 377.764 125.065 379.687 126.051 381.244C127.033 382.794 128.712 383.718 130.544 383.718H130.566L323.677 382.957C325.551 382.949 327.248 381.985 328.215 380.376C329.182 378.768 329.239 376.815 328.368 375.153L314.29 348.281C313.368 346.521 311.562 345.428 309.577 345.428H143.679Z" fill="#3F3D56"/>
<path d="M294.132 373.779L225.671 369.066C224.66 368.996 223.854 368.314 223.617 367.327C223.38 366.341 223.789 365.366 224.657 364.844L239.796 355.749C240.181 355.518 240.622 355.406 241.069 355.427L300.287 358.123C301.07 358.158 301.77 358.586 302.158 359.268C302.547 359.949 302.559 360.77 302.191 361.463L296.295 372.576C295.899 373.322 295.124 373.784 294.288 373.784C294.237 373.784 294.185 373.782 294.132 373.779Z" fill="#3F3D56"/>
<path d="M225.077 366.316L293.257 370.995L298.649 359.357L240.188 357.061L225.077 366.316Z" fill="white"/>
<path d="M258.628 269.969C269.943 269.969 279.116 260.784 279.116 249.454C279.116 238.124 269.943 228.939 258.628 228.939C247.312 228.939 238.14 238.124 238.14 249.454C238.14 260.784 247.312 269.969 258.628 269.969Z" fill="#FFB6B6"/>
<path d="M265.227 250.781C265.197 250.787 265.152 250.794 265.097 250.803C264.03 250.98 257.58 251.977 251.078 249.496C248.323 248.445 249.262 248.183 243.127 244.53C235.934 240.247 234.088 240.277 233.552 238.28C232.482 234.292 238.194 228.023 241.974 228.436C242.969 228.545 244.035 229.139 245.693 228.736C246.057 228.648 247.652 228.26 248.429 226.939C249.123 225.76 248.535 224.909 248.814 223.942C249.546 221.404 255.648 220.138 260.997 221.033C264.074 221.547 266.467 222.953 271.128 225.742C279.24 230.597 283.296 233.024 284.208 236.744C285.072 240.269 282.998 241.788 284.506 245.561C285.911 249.075 288.141 248.84 288.909 251.682C290.144 256.256 285.56 261.276 283.65 263.367C281.556 265.66 279.554 266.918 276.895 268.589C273.559 270.685 271.89 271.734 269.884 271.627C266.248 271.434 262.631 268.134 262.49 265.12C262.437 263.991 262.907 263.652 264.072 259.77C264.557 258.153 264.893 256.817 265.098 255.961" fill="#2F2E41"/>
<path d="M279.269 360.695C280.587 360.748 281.59 361.93 281.663 363.211C281.738 364.541 280.815 365.766 279.706 366.399C278.406 367.141 276.784 367.26 275.321 367.132C274.004 367.018 272.572 366.608 271.725 365.519C271.013 364.604 270.75 363.22 271.356 362.181C271.957 361.15 273.235 360.865 274.305 361.279C275.436 361.717 276.147 362.747 276.154 363.965C276.162 365.314 275.384 366.561 274.292 367.307C273.113 368.112 271.631 368.371 270.228 368.368C268.7 368.364 267.179 368.043 265.773 367.447C264.456 366.888 263.14 366.083 262.199 364.988C261.316 363.962 260.787 362.538 261.277 361.207C261.679 360.115 262.695 359.446 263.858 359.538C264.922 359.623 265.999 360.241 266.472 361.226C267.005 362.338 266.765 363.671 266.087 364.665C265.303 365.812 264.065 366.457 262.69 366.55C261.226 366.649 259.777 366.128 258.573 365.323C257.458 364.578 256.478 363.624 255.281 363.003C254.705 362.705 254.078 362.515 253.426 362.516C252.595 362.517 251.797 362.79 250.989 362.949C250.305 363.083 249.599 363.161 248.924 362.942C248.346 362.755 247.805 362.411 247.441 361.919C247.096 361.452 246.975 360.869 247.17 360.315C247.323 359.881 248.018 360.068 247.864 360.507C247.507 361.518 248.731 362.262 249.588 362.355C250.238 362.425 250.908 362.237 251.535 362.09C252.189 361.937 252.857 361.781 253.533 361.797C255.927 361.856 257.509 363.905 259.439 365.017C261.468 366.186 264.44 366.267 265.683 363.945C266.134 363.101 266.227 361.98 265.607 361.192C265.091 360.535 264.173 360.142 263.341 360.27C262.297 360.429 261.777 361.425 261.815 362.416C261.861 363.628 262.705 364.612 263.604 365.338C265.607 366.954 268.263 367.777 270.824 367.632C272.026 367.565 273.304 367.251 274.237 366.45C275.044 365.758 275.594 364.632 275.401 363.554C275.233 362.62 274.451 361.912 273.507 361.818C272.54 361.722 271.785 362.409 271.742 363.376C271.694 364.463 272.339 365.37 273.273 365.865C274.332 366.426 275.615 366.495 276.788 366.434C278.034 366.369 279.332 366.04 280.204 365.091C280.947 364.281 281.229 363.079 280.544 362.141C280.242 361.727 279.787 361.436 279.269 361.415C278.808 361.397 278.805 360.677 279.269 360.695Z" fill="#FF6D6D"/>
<path d="M246.502 359.925L246.869 357.655L267.209 318.728C267.546 318.084 268.344 317.834 268.988 318.171C269.632 318.508 269.882 319.307 269.545 319.952L249.214 358.862L247.552 360.474C247.355 360.664 247.071 360.705 246.829 360.578C246.587 360.451 246.459 360.195 246.502 359.925Z" fill="#3F3D56"/>
<path d="M260.366 335.159C262.661 335.591 264.819 336.568 266.66 338.007L266.763 338.029L266.784 337.926L288.952 341.402L287.346 311.878L304.147 302.665L300.176 352.57C299.316 355.757 296.012 357.619 292.845 356.701L264.626 348.574L264.697 348.226L264.598 348.199C262.343 348.808 259.975 348.868 257.692 348.372C251.965 347.212 247.921 343.312 248.659 339.663C249.397 336.014 254.638 333.997 260.366 335.159Z" fill="#FFB6B6"/>
<path d="M275.522 288.928L294.455 283.649C294.455 283.649 304.4 290.968 305.598 298.886C305.741 299.828 306.136 343.699 305.718 344.839C302.622 353.291 285.588 339.8 285.588 339.8L275.522 288.928Z" fill="#FF6D6D"/>
<path d="M193.404 367.777L191.441 366.093C191.149 365.842 190.793 365.675 190.414 365.612L146.682 358.314C145.683 358.147 144.946 357.425 144.757 356.43C144.569 355.434 144.99 354.492 145.858 353.971L161.46 344.598C161.981 344.284 162.595 344.186 163.188 344.32L218.637 356.864C219.715 357.107 220.434 357.979 220.469 359.086C220.505 360.192 219.843 361.108 218.782 361.42L195.598 368.248C195.378 368.313 195.154 368.345 194.932 368.345C194.378 368.345 193.837 368.149 193.404 367.777Z" fill="#3F3D56"/>
<path d="M172.343 313.344C174.511 314.214 176.439 315.59 177.966 317.358L178.064 317.4L178.104 317.303L199.181 325.011L221.684 288.527L234.125 296.247L208.033 338.144C206.573 341.104 202.972 342.29 200.042 340.775L173.928 327.331L174.065 327.004L173.973 326.958C171.643 327.119 169.308 326.718 167.164 325.789C161.77 323.541 158.556 318.931 159.986 315.494C161.416 312.057 166.947 311.094 172.343 313.344Z" fill="#FFB6B6"/>
<path d="M245.825 295.114L235.871 280.209C235.871 280.209 224.027 282.557 219.147 288.903C218.538 289.697 197.588 320.12 197.453 321.448C196.508 330.742 220.586 335.096 220.586 335.096L245.825 295.114Z" fill="#FF6D6D"/>
<path d="M192.321 368.225L142.19 361.287C140.513 361.055 139.128 359.851 138.662 358.22L127.149 317.87C126.759 316.503 127.05 315.086 127.948 313.985C128.846 312.883 130.173 312.313 131.589 312.421L182.096 316.296C183.923 316.436 185.457 317.725 185.913 319.502L197.05 362.915C197.405 364.301 197.05 365.765 196.099 366.833C195.28 367.752 194.119 368.265 192.909 368.265C192.714 368.265 192.517 368.252 192.321 368.225Z" fill="#3F3D56"/>
<path d="M181.147 285.576C181.44 285.899 182.503 285.57 184.618 284.899C186.225 284.39 186.473 284.204 186.626 284.071C187.163 283.603 187.304 283.111 187.837 280.939C188.792 277.039 188.822 276.652 189.313 275.825C189.482 275.54 189.908 274.86 189.804 274.776C189.697 274.689 189.235 275.397 188.382 275.665C187.549 275.926 187.175 275.508 186.464 275.614C185.546 275.752 185 276.625 184.144 278.039C183.385 279.291 183.29 279.795 182.226 282.283C181.925 282.987 181.682 283.533 181.496 283.964C179.408 285.915 177.338 287.892 175.286 289.886C175.325 289.825 175.363 289.768 175.395 289.719C176.304 288.321 176.427 287.572 176.414 287.011C176.393 286.101 175.959 285.409 175.092 284.061C174.243 282.739 173.438 281.868 172.469 280.827C171.198 279.464 170.563 278.782 170.31 278.827C168.502 279.147 168.019 291.47 170.293 293.674C169.974 293.902 169.71 294.141 169.518 294.376C167.572 292.212 164.237 289.794 160.543 289.497C158.266 289.313 157.009 290.029 156.618 290.275C154.811 291.411 153.737 293.684 154.277 294.326C154.78 294.924 156.233 293.564 159.08 293.639C161.067 293.691 162.618 294.413 163.54 294.842C165.472 295.74 166.179 296.624 167.604 297.229C166.936 297.78 166.407 298.468 166.075 299.11C165.96 299.229 165.845 299.348 165.73 299.467C164.26 298.638 162.604 298.029 160.868 297.889C158.591 297.706 157.334 298.421 156.943 298.667C155.726 299.433 154.843 300.714 154.561 301.665C154.377 301.702 154.206 301.745 154.049 301.79C153.497 300.541 151.855 299.224 150.328 298.561C147.699 297.418 144.285 297.721 143.919 298.807C143.908 298.842 143.905 298.876 143.9 298.91C144.188 296.582 144.579 294.271 145.068 291.976C145.084 292.041 145.105 292.108 145.133 292.177C145.782 293.809 147.535 295.376 149.925 296.188C151.801 296.826 152.587 296.496 152.787 296.403C152.977 296.315 153.801 295.961 154.003 295.257C154.377 293.952 152.086 290.096 150.641 291.389C145.998 295.545 145.361 292.18 145.147 291.614C145.542 289.799 145.996 287.995 146.506 286.202C146.515 286.213 146.522 286.223 146.532 286.234C147.546 287.466 149.498 288.334 151.792 288.372C153.593 288.403 154.181 287.898 154.328 287.762C154.469 287.633 155.083 287.098 155.063 286.432C155.024 285.199 152.833 284.194 151.08 284.02C149.464 283.86 147.724 284.355 146.861 284.982C147.263 283.639 147.694 282.302 148.155 280.97C149.334 281.452 151.004 281.387 152.645 280.653C153.998 280.047 154.261 279.466 154.324 279.314C154.383 279.168 154.655 278.554 154.409 278.066C153.951 277.159 151.967 277.175 150.599 277.656C150.036 277.855 149.501 278.16 149.042 278.505C149.857 276.322 150.747 274.155 151.703 272.004L150.745 271.764C149.523 274.512 148.458 277.296 147.542 280.11C147.428 279.285 147.143 278.405 146.767 277.691C145.663 275.59 143.304 274.015 142.506 274.526C142.346 274.628 142.279 274.795 142.218 274.993C141.729 276.589 142.097 278.794 143.385 280.82C144.396 282.411 145.175 282.634 145.378 282.684C145.549 282.727 146.21 282.91 146.753 282.674C146.388 283.928 146.05 285.187 145.742 286.452C145.371 285.531 144.641 284.548 143.868 283.869C142.086 282.303 139.32 281.677 138.757 282.44C138.645 282.593 138.642 282.772 138.656 282.979C138.769 284.645 139.901 286.572 141.828 288.003C143.34 289.126 144.147 289.055 144.354 289.03C144.476 289.015 144.845 288.978 145.201 288.817C144.871 290.354 144.582 291.898 144.332 293.449C143.833 291.714 142.139 289.55 140.539 290.239C137.7 291.46 134.364 289.584 133.997 290.404C133.901 290.618 133.98 290.838 134.072 291.077C134.807 293 136.838 294.863 139.627 295.852C141.816 296.628 142.742 296.253 142.977 296.148C143.133 296.078 143.648 295.863 144.031 295.463C143.755 297.456 143.544 299.459 143.395 301.47C142.803 300.177 141.136 298.813 139.576 298.111C136.839 296.878 133.258 297.148 132.861 298.281C132.781 298.507 132.844 298.726 132.938 298.971C133.693 300.945 135.777 302.857 138.64 303.872C140.886 304.669 141.837 304.284 142.078 304.176C142.255 304.097 142.878 303.836 143.275 303.341C143.225 304.271 143.185 305.203 143.16 306.136C143.153 306.402 143.149 306.668 143.144 306.933C143.112 306.986 143.084 307.039 143.065 307.095C142.988 307.323 143.04 307.542 143.13 307.782C143.128 307.951 143.127 308.12 143.126 308.288C142.625 307.834 142.028 307.15 141.309 306.176C140.661 305.297 140.045 305.942 139.65 306.691C139.03 306.552 138.438 306.638 137.973 307.073C134.854 309.991 131.355 308.443 131.306 309.313C131.291 309.564 131.426 309.763 131.595 309.98C132.957 311.722 135.631 312.993 138.807 313.127C141.3 313.232 142.133 312.554 142.341 312.371C142.414 312.307 142.579 312.169 142.756 311.974C142.899 312.088 143.038 312.192 143.178 312.286C143.232 313.956 143.33 315.625 143.476 317.29C143.358 317.3 143.245 317.32 143.16 317.328C141.953 317.452 141.546 315.82 139.722 315.224C139.116 315.026 137.949 314.81 137.334 315.224C137.245 315.284 136.943 315.508 136.474 315.703C136.197 315.818 135.985 315.871 135.901 315.894C135.153 316.099 134.459 316.661 133.991 317.042C133.11 317.756 132.669 318.114 132.463 318.763C132.397 318.967 132.214 319.542 132.463 320.102C132.58 320.367 132.852 320.76 133.895 321.154C134.515 321.388 136.324 322.071 138.48 321.345C138.971 321.18 138.596 321.239 140.486 320.293C141.973 319.549 142.842 319.193 142.969 318.476C143.014 318.224 142.969 317.917 143.16 317.807C143.267 317.746 143.395 317.775 143.524 317.822C143.649 319.16 143.805 320.497 143.994 321.831H142.293C140.034 321.831 138.008 323.09 137.005 325.116L130.641 337.97C130.24 338.782 130.027 339.689 130.027 340.595V373.648C130.027 376.907 132.675 379.559 135.93 379.559H150.783C154.037 379.559 156.685 376.907 156.685 373.648V343.213C156.685 342.471 156.548 341.744 156.277 341.053L150.213 325.582C149.477 323.705 147.884 322.378 145.98 321.967C146.591 321.242 147.202 320.518 147.819 319.795C148.595 320.17 149.449 320.478 150.367 320.694C152.796 321.266 153.741 320.756 153.98 320.616C154.209 320.483 155.198 319.939 155.366 319.032C155.384 318.935 155.391 318.837 155.39 318.738C157.878 320.763 159.176 321.761 160.124 321.428C160.939 321.142 161.405 320.204 161.671 319.363C161.949 319.401 162.245 319.441 162.559 319.483C165.967 319.939 167.684 320.15 168.341 319.342C169.25 318.223 168.387 316.067 168.149 315.472C167.632 314.18 166.837 313.394 166.343 312.916C165.702 312.295 163.874 310.525 160.995 310.289C160.37 310.238 159.808 310.277 159.235 310.397C159.036 310.214 158.825 310.035 158.593 309.865C158.151 309.541 157.715 309.301 157.245 309.113C157.966 308.323 158.688 307.535 159.414 306.751C159.529 306.803 159.638 306.854 159.738 306.9C162.116 308.006 162.638 309.089 164.924 309.659C165.962 309.917 167.136 310.21 167.427 309.77C167.943 308.988 165.751 305.771 162.363 303.594C162.592 303.352 162.821 303.11 163.05 302.869C163.359 302.999 163.632 303.126 163.865 303.234C166.242 304.34 166.765 305.422 169.051 305.992C170.089 306.251 171.263 306.544 171.554 306.104C172.015 305.406 170.319 302.769 167.542 300.662C168.305 300.419 169.316 300.151 170.626 300.185C172.613 300.237 174.165 300.959 175.086 301.387C177.463 302.493 177.986 303.576 180.272 304.146C181.31 304.404 182.484 304.697 182.775 304.257C183.542 303.095 178.327 296.545 172.089 296.043C171.605 296.004 171.17 296.007 170.776 296.036C170.722 295.946 170.663 295.853 170.601 295.759C172.711 295.827 176.833 295.223 180.342 297.689C181.354 298.4 183.319 300.073 186.608 301.448C187.659 301.887 188.188 302.103 188.333 301.923C188.854 301.277 184.521 295.963 178.425 293.345C176.008 292.307 174.514 292.208 173.452 292.366C173.616 292.179 173.775 291.986 173.929 291.792C176.303 289.461 178.707 287.154 181.132 284.878C181.015 285.242 181.018 285.435 181.147 285.576ZM150.683 314.591C148.002 313.722 144.755 314.189 143.908 315.178C143.789 314.302 143.685 313.424 143.6 312.545C144.821 313.228 146.096 313.411 148.514 313.734C149.544 313.872 150.417 313.986 151.155 314.058C151.254 314.327 151.36 314.569 151.483 314.801C151.497 314.828 151.512 314.854 151.527 314.88L151.505 314.904C151.23 314.785 150.954 314.679 150.683 314.591ZM143.559 302.817C143.636 302.563 143.637 302.292 143.579 302.013C143.662 301.003 143.766 299.996 143.89 298.991C143.886 299.145 143.935 299.299 144.001 299.466C144.747 301.34 146.761 303.139 149.506 304.073C150.018 304.247 150.458 304.357 150.836 304.424C150.67 304.714 150.542 304.997 150.458 305.259C149.522 304.506 148.317 303.959 146.95 304.54C146.578 304.698 146.357 305.276 146.165 305.967C144.902 305.989 143.847 306.253 143.345 306.699C143.347 306.513 143.346 306.327 143.351 306.141C143.38 305.078 143.432 304.019 143.506 302.963C143.526 302.916 143.544 302.867 143.559 302.817ZM143.348 308.283C143.403 308.395 143.462 308.506 143.524 308.616C143.468 308.575 143.41 308.53 143.351 308.482C143.35 308.416 143.349 308.349 143.348 308.283ZM145.504 321.885C145.357 321.866 145.209 321.852 145.059 321.844C144.713 320.125 144.394 318.408 144.127 316.687C144.83 317.804 145.976 318.826 147.437 319.601C146.789 320.361 146.146 321.123 145.504 321.885ZM156.821 308.961C155.907 308.667 154.834 308.526 153.349 308.354C152.972 307.83 152.584 307.444 152.298 307.167C152.142 307.016 151.904 306.718 151.595 306.369C152.395 306.112 153.59 305.654 155.278 305.698C156.812 305.738 158.086 306.178 159.011 306.573C158.278 307.366 157.549 308.162 156.821 308.961ZM162.003 303.369C161.105 302.825 160.13 302.36 159.104 302.033C159.204 302.032 159.302 302.029 159.405 302.031C160.677 302.065 161.77 302.373 162.634 302.703C162.424 302.925 162.213 303.146 162.003 303.369Z" fill="#CCCCCC"/>
</svg>
