<svg width="510" height="523" viewBox="0 0 510 523" fill="none" xmlns="http://www.w3.org/2000/svg">
<path d="M146.829 122.206C146.669 122.206 146.549 122.166 146.469 122.086C146.389 122.006 146.349 121.906 146.349 121.786C146.349 121.666 146.389 121.566 146.469 121.486C146.549 121.406 146.669 121.366 146.829 121.366H153.549V118.126C153.549 118.006 153.529 117.886 153.489 117.766C153.469 117.626 153.459 117.486 153.459 117.346C153.459 117.186 153.529 117.046 153.669 116.926C153.809 116.806 153.969 116.746 154.149 116.746C154.309 116.746 154.459 116.806 154.599 116.926C154.739 117.046 154.809 117.186 154.809 117.346C154.809 117.486 154.789 117.626 154.749 117.766C154.729 117.886 154.719 118.006 154.719 118.126V121.366H163.149V118.126C163.149 118.006 163.129 117.886 163.089 117.766C163.069 117.626 163.059 117.486 163.059 117.346C163.059 117.186 163.129 117.046 163.269 116.926C163.409 116.806 163.569 116.746 163.749 116.746C163.909 116.746 164.059 116.806 164.199 116.926C164.339 117.046 164.409 117.186 164.409 117.346C164.409 117.486 164.389 117.626 164.349 117.766C164.329 117.886 164.319 118.006 164.319 118.126V121.366H171.069C171.229 121.366 171.349 121.406 171.429 121.486C171.529 121.566 171.579 121.666 171.579 121.786C171.579 121.906 171.529 122.006 171.429 122.086C171.349 122.166 171.229 122.206 171.069 122.206H146.829ZM149.349 102.916C149.189 102.916 149.069 102.876 148.989 102.796C148.909 102.716 148.869 102.616 148.869 102.496C148.869 102.376 148.909 102.276 148.989 102.196C149.069 102.116 149.189 102.076 149.349 102.076H158.379V99.016C158.379 98.896 158.359 98.776 158.319 98.656C158.299 98.516 158.289 98.376 158.289 98.236C158.289 98.076 158.359 97.936 158.499 97.816C158.639 97.696 158.799 97.636 158.979 97.636C159.139 97.636 159.289 97.696 159.429 97.816C159.569 97.936 159.639 98.076 159.639 98.236C159.639 98.376 159.619 98.516 159.579 98.656C159.559 98.776 159.549 98.896 159.549 99.016V102.076H168.549C168.709 102.076 168.829 102.116 168.909 102.196C169.009 102.276 169.059 102.376 169.059 102.496C169.059 102.616 169.009 102.716 168.909 102.796C168.829 102.876 168.709 102.916 168.549 102.916H149.349ZM151.179 110.446C151.179 109.426 151.489 108.496 152.109 107.656C152.729 106.796 153.619 106.116 154.779 105.616C155.959 105.116 157.349 104.866 158.949 104.866C160.529 104.866 161.909 105.116 163.089 105.616C164.269 106.116 165.169 106.796 165.789 107.656C166.409 108.496 166.719 109.426 166.719 110.446C166.719 111.466 166.409 112.406 165.789 113.266C165.169 114.126 164.269 114.806 163.089 115.306C161.909 115.806 160.529 116.056 158.949 116.056C157.349 116.056 155.959 115.806 154.779 115.306C153.619 114.806 152.729 114.126 152.109 113.266C151.489 112.406 151.179 111.466 151.179 110.446ZM152.349 110.446C152.349 111.366 152.619 112.186 153.159 112.906C153.699 113.626 154.469 114.196 155.469 114.616C156.469 115.016 157.629 115.216 158.949 115.216C160.269 115.216 161.429 115.016 162.429 114.616C163.429 114.196 164.199 113.626 164.739 112.906C165.279 112.186 165.549 111.366 165.549 110.446C165.549 109.546 165.279 108.736 164.739 108.016C164.199 107.296 163.429 106.736 162.429 106.336C161.429 105.916 160.269 105.706 158.949 105.706C157.629 105.706 156.469 105.916 155.469 106.336C154.469 106.736 153.699 107.296 153.159 108.016C152.619 108.736 152.349 109.546 152.349 110.446ZM194.887 126.526C194.707 126.526 194.547 126.466 194.407 126.346C194.267 126.226 194.197 126.086 194.197 125.926C194.197 125.786 194.207 125.646 194.227 125.506C194.267 125.386 194.287 125.266 194.287 125.146V99.316C194.287 99.196 194.267 99.076 194.227 98.956C194.207 98.816 194.197 98.676 194.197 98.536C194.197 98.376 194.267 98.236 194.407 98.116C194.547 97.996 194.707 97.936 194.887 97.936C195.047 97.936 195.197 97.996 195.337 98.116C195.477 98.236 195.547 98.376 195.547 98.536C195.547 98.676 195.527 98.816 195.487 98.956C195.467 99.076 195.457 99.196 195.457 99.316V108.676H199.567C199.727 108.676 199.847 108.716 199.927 108.796C200.027 108.876 200.077 108.976 200.077 109.096C200.077 109.216 200.027 109.316 199.927 109.396C199.847 109.476 199.727 109.516 199.567 109.516H195.457V125.146C195.457 125.266 195.467 125.386 195.487 125.506C195.527 125.646 195.547 125.786 195.547 125.926C195.547 126.086 195.477 126.226 195.337 126.346C195.197 126.466 195.047 126.526 194.887 126.526ZM175.897 100.936C175.897 100.756 175.957 100.606 176.077 100.486C176.197 100.346 176.347 100.276 176.527 100.276C176.687 100.276 176.887 100.326 177.127 100.426C177.207 100.466 177.367 100.486 177.607 100.486H189.097C189.257 100.486 189.377 100.526 189.457 100.606C189.557 100.686 189.607 100.786 189.607 100.906C189.607 101.026 189.557 101.126 189.457 101.206C189.377 101.286 189.257 101.326 189.097 101.326H177.157V112.816C177.157 114.016 177.337 115.016 177.697 115.816C178.057 116.596 178.587 117.226 179.287 117.706C180.387 118.466 181.807 118.846 183.547 118.846C184.687 118.846 185.847 118.676 187.027 118.336C188.207 117.976 189.317 117.456 190.357 116.776C190.517 116.676 190.657 116.626 190.777 116.626C190.877 116.626 190.957 116.656 191.017 116.716C191.077 116.776 191.107 116.846 191.107 116.926C191.107 117.126 190.987 117.306 190.747 117.466C189.667 118.166 188.487 118.706 187.207 119.086C185.947 119.446 184.707 119.626 183.487 119.626C181.707 119.626 180.187 119.266 178.927 118.546C177.947 117.986 177.207 117.246 176.707 116.326C176.227 115.386 175.987 114.226 175.987 112.846V101.686C175.987 101.566 175.967 101.446 175.927 101.326C175.907 101.186 175.897 101.056 175.897 100.936ZM222.485 114.796C222.305 114.796 222.145 114.736 222.005 114.616C221.865 114.496 221.795 114.356 221.795 114.196C221.795 114.056 221.805 113.926 221.825 113.806C221.865 113.666 221.885 113.536 221.885 113.416V99.316C221.885 99.196 221.865 99.076 221.825 98.956C221.805 98.816 221.795 98.676 221.795 98.536C221.795 98.376 221.865 98.236 222.005 98.116C222.145 97.996 222.305 97.936 222.485 97.936C222.645 97.936 222.795 97.996 222.935 98.116C223.075 98.236 223.145 98.376 223.145 98.536C223.145 98.676 223.125 98.816 223.085 98.956C223.065 99.076 223.055 99.196 223.055 99.316V105.376H227.165C227.325 105.376 227.445 105.416 227.525 105.496C227.625 105.576 227.675 105.676 227.675 105.796C227.675 105.916 227.625 106.016 227.525 106.096C227.445 106.176 227.325 106.216 227.165 106.216H223.055V113.416C223.055 113.536 223.065 113.666 223.085 113.806C223.125 113.926 223.145 114.056 223.145 114.196C223.145 114.356 223.075 114.496 222.935 114.616C222.795 114.736 222.645 114.796 222.485 114.796ZM203.495 100.336C203.495 100.156 203.555 100.006 203.675 99.886C203.795 99.746 203.945 99.676 204.125 99.676C204.285 99.676 204.485 99.726 204.725 99.826C204.805 99.866 204.965 99.886 205.205 99.886H216.695C216.855 99.886 216.975 99.926 217.055 100.006C217.155 100.086 217.205 100.186 217.205 100.306C217.205 100.426 217.155 100.526 217.055 100.606C216.975 100.686 216.855 100.726 216.695 100.726H204.755V105.976C204.755 107.296 204.945 108.306 205.325 109.006C205.705 109.686 206.305 110.206 207.125 110.566C208.245 111.046 209.555 111.286 211.055 111.286C212.175 111.286 213.335 111.146 214.535 110.866C215.735 110.566 216.875 110.146 217.955 109.606C218.095 109.526 218.225 109.486 218.345 109.486C218.465 109.486 218.555 109.516 218.615 109.576C218.695 109.636 218.735 109.716 218.735 109.816C218.735 109.996 218.605 110.156 218.345 110.296C217.185 110.876 215.955 111.326 214.655 111.646C213.375 111.966 212.115 112.126 210.875 112.126C209.375 112.126 208.005 111.886 206.765 111.406C205.645 110.966 204.835 110.326 204.335 109.486C203.835 108.646 203.585 107.486 203.585 106.006V101.086C203.585 100.966 203.565 100.846 203.525 100.726C203.505 100.586 203.495 100.456 203.495 100.336ZM206.075 117.676C205.915 117.676 205.785 117.636 205.685 117.556C205.605 117.476 205.565 117.376 205.565 117.256C205.565 117.136 205.605 117.036 205.685 116.956C205.785 116.876 205.915 116.836 206.075 116.836H221.255C222.455 116.836 223.055 117.416 223.055 118.576V125.116C223.055 125.236 223.065 125.356 223.085 125.476C223.125 125.616 223.145 125.756 223.145 125.896C223.145 126.056 223.075 126.196 222.935 126.316C222.795 126.436 222.645 126.496 222.485 126.496C222.305 126.496 222.145 126.436 222.005 126.316C221.865 126.196 221.795 126.056 221.795 125.896C221.795 125.756 221.805 125.616 221.825 125.476C221.865 125.356 221.885 125.236 221.885 125.116V118.366C221.885 118.166 221.815 118.006 221.675 117.886C221.535 117.746 221.365 117.676 221.165 117.676H206.075ZM246.452 126.106C246.272 126.106 246.112 126.046 245.972 125.926C245.832 125.806 245.762 125.666 245.762 125.506C245.762 125.366 245.772 125.226 245.792 125.086C245.832 124.966 245.852 124.846 245.852 124.726V109.936H241.712H241.682C241.682 112.856 241.182 115.166 240.182 116.866C239.202 118.566 237.802 119.416 235.982 119.416C234.082 119.416 232.652 118.576 231.692 116.896C230.752 115.196 230.282 112.856 230.282 109.876C230.282 106.896 230.752 104.566 231.692 102.886C232.652 101.206 234.082 100.366 235.982 100.366C237.722 100.366 239.082 101.146 240.062 102.706C241.042 104.266 241.582 106.396 241.682 109.096H241.712H245.852V99.466C245.852 99.346 245.832 99.226 245.792 99.106C245.772 98.966 245.762 98.826 245.762 98.686C245.762 98.526 245.832 98.386 245.972 98.266C246.112 98.146 246.272 98.086 246.452 98.086C246.612 98.086 246.762 98.146 246.902 98.266C247.042 98.386 247.112 98.526 247.112 98.686C247.112 98.826 247.092 98.966 247.052 99.106C247.032 99.226 247.022 99.346 247.022 99.466V124.726C247.022 124.846 247.032 124.966 247.052 125.086C247.092 125.226 247.112 125.366 247.112 125.506C247.112 125.666 247.042 125.806 246.902 125.926C246.762 126.046 246.612 126.106 246.452 126.106ZM231.452 109.876C231.452 112.596 231.832 114.726 232.592 116.266C233.352 117.806 234.482 118.576 235.982 118.576C237.402 118.576 238.512 117.796 239.312 116.236C240.112 114.676 240.512 112.556 240.512 109.876C240.512 107.196 240.112 105.086 239.312 103.546C238.512 101.986 237.402 101.206 235.982 101.206C234.482 101.206 233.352 101.976 232.592 103.516C231.832 105.036 231.452 107.156 231.452 109.876ZM251.342 125.926C251.342 125.786 251.352 125.646 251.372 125.506C251.412 125.386 251.432 125.266 251.432 125.146V99.316C251.432 99.196 251.412 99.076 251.372 98.956C251.352 98.816 251.342 98.676 251.342 98.536C251.342 98.376 251.412 98.236 251.552 98.116C251.692 97.996 251.852 97.936 252.032 97.936C252.192 97.936 252.342 97.996 252.482 98.116C252.622 98.236 252.692 98.376 252.692 98.536C252.692 98.676 252.672 98.816 252.632 98.956C252.612 99.076 252.602 99.196 252.602 99.316V125.146C252.602 125.266 252.612 125.386 252.632 125.506C252.672 125.646 252.692 125.786 252.692 125.926C252.692 126.086 252.622 126.226 252.482 126.346C252.342 126.466 252.192 126.526 252.032 126.526C251.852 126.526 251.692 126.466 251.552 126.346C251.412 126.226 251.342 126.086 251.342 125.926ZM279.18 126.526C279 126.526 278.84 126.466 278.7 126.346C278.56 126.226 278.49 126.086 278.49 125.926C278.49 125.786 278.5 125.646 278.52 125.506C278.56 125.386 278.58 125.266 278.58 125.146V109.336H272.61C272.45 109.336 272.33 109.296 272.25 109.216C272.17 109.136 272.13 109.036 272.13 108.916C272.13 108.796 272.17 108.696 272.25 108.616C272.33 108.536 272.45 108.496 272.61 108.496H278.58V99.316C278.58 99.196 278.56 99.076 278.52 98.956C278.5 98.816 278.49 98.676 278.49 98.536C278.49 98.376 278.56 98.236 278.7 98.116C278.84 97.996 279 97.936 279.18 97.936C279.34 97.936 279.49 97.996 279.63 98.116C279.77 98.236 279.84 98.376 279.84 98.536C279.84 98.676 279.82 98.816 279.78 98.956C279.76 99.076 279.75 99.196 279.75 99.316V125.146C279.75 125.266 279.76 125.386 279.78 125.506C279.82 125.646 279.84 125.786 279.84 125.926C279.84 126.086 279.77 126.226 279.63 126.346C279.49 126.466 279.34 126.526 279.18 126.526ZM257.82 118.966C257.86 118.906 257.91 118.836 257.97 118.756C258.05 118.676 258.11 118.606 258.15 118.546C260.75 113.766 262.9 109.896 264.6 106.936C266.3 103.956 267.48 101.946 268.14 100.906C268.18 100.846 268.21 100.746 268.23 100.606C268.25 100.446 268.3 100.316 268.38 100.216C268.5 100.036 268.67 99.946 268.89 99.946C269.01 99.946 269.13 99.986 269.25 100.066C269.47 100.206 269.58 100.386 269.58 100.606C269.58 100.726 269.55 100.846 269.49 100.966C269.43 101.066 269.34 101.176 269.22 101.296C269.12 101.396 269.05 101.476 269.01 101.536L268.65 102.136C265.81 106.876 262.66 112.466 259.2 118.906C259.16 118.966 259.13 119.056 259.11 119.176C259.09 119.276 259.07 119.356 259.05 119.416C258.99 119.556 258.9 119.666 258.78 119.746C258.66 119.806 258.53 119.836 258.39 119.836C258.21 119.836 258.06 119.776 257.94 119.656C257.82 119.516 257.76 119.366 257.76 119.206C257.76 119.166 257.78 119.086 257.82 118.966ZM267 109.426C266.84 109.146 266.76 108.946 266.76 108.826C266.76 108.686 266.84 108.566 267 108.466C267.16 108.386 267.31 108.396 267.45 108.496C267.59 108.596 267.75 108.796 267.93 109.096C268.71 110.316 270.2 112.536 272.4 115.756L274.02 118.096C274.06 118.136 274.1 118.176 274.14 118.216C274.18 118.256 274.22 118.296 274.26 118.336C274.4 118.456 274.47 118.616 274.47 118.816C274.47 118.976 274.41 119.116 274.29 119.236C274.15 119.376 273.99 119.446 273.81 119.446C273.67 119.446 273.53 119.396 273.39 119.296C273.31 119.196 273.25 119.106 273.21 119.026C273.17 118.926 273.13 118.856 273.09 118.816C271.29 116.196 269.26 113.066 267 109.426ZM291.298 125.236C290.458 124.796 289.758 124.136 289.198 123.256C288.658 122.396 288.388 121.366 288.388 120.166V119.116C288.388 118.996 288.368 118.876 288.328 118.756C288.308 118.616 288.298 118.476 288.298 118.336C288.298 118.176 288.368 118.036 288.508 117.916C288.648 117.796 288.808 117.736 288.988 117.736C289.148 117.736 289.298 117.796 289.438 117.916C289.578 118.036 289.648 118.176 289.648 118.336C289.648 118.476 289.628 118.616 289.588 118.756C289.568 118.876 289.558 118.996 289.558 119.116V120.136C289.558 121.176 289.768 122.046 290.188 122.746C290.608 123.446 291.098 123.976 291.658 124.336C292.338 124.776 293.128 125.106 294.028 125.326C294.948 125.566 295.928 125.686 296.968 125.686C298.528 125.686 300.098 125.436 301.678 124.936C303.258 124.456 304.638 123.766 305.818 122.866C305.978 122.746 306.118 122.686 306.238 122.686C306.338 122.686 306.418 122.716 306.478 122.776C306.538 122.836 306.568 122.916 306.568 123.016C306.568 123.216 306.478 123.376 306.298 123.496C305.018 124.456 303.558 125.196 301.918 125.716C300.278 126.236 298.618 126.496 296.938 126.496C294.798 126.496 292.918 126.076 291.298 125.236ZM284.818 114.316C284.658 114.316 284.538 114.276 284.458 114.196C284.378 114.116 284.338 114.016 284.338 113.896C284.338 113.776 284.378 113.676 284.458 113.596C284.538 113.516 284.658 113.476 284.818 113.476H309.058C309.218 113.476 309.338 113.516 309.418 113.596C309.518 113.676 309.568 113.776 309.568 113.896C309.568 114.016 309.518 114.116 309.418 114.196C309.338 114.276 309.218 114.316 309.058 114.316H284.818ZM288.658 100.156C288.658 99.996 288.728 99.856 288.868 99.736C289.008 99.616 289.168 99.556 289.348 99.556C289.508 99.556 289.658 99.616 289.798 99.736C289.938 99.856 290.008 99.996 290.008 100.156C290.008 100.296 289.988 100.436 289.948 100.576C289.928 100.696 289.918 100.816 289.918 100.936V103.786C289.918 105.986 290.648 107.536 292.108 108.436C292.748 108.816 293.538 109.106 294.478 109.306C295.418 109.506 296.448 109.606 297.568 109.606C298.888 109.606 300.218 109.476 301.558 109.216C302.898 108.956 304.138 108.566 305.278 108.046C305.398 107.986 305.508 107.956 305.608 107.956C305.728 107.956 305.818 107.996 305.878 108.076C305.958 108.136 305.998 108.216 305.998 108.316C305.998 108.496 305.878 108.646 305.638 108.766C304.418 109.306 303.098 109.716 301.678 109.996C300.258 110.276 298.858 110.416 297.478 110.416C295.178 110.416 293.268 110.036 291.748 109.276C289.748 108.236 288.748 106.416 288.748 103.816V100.936C288.748 100.816 288.728 100.696 288.688 100.576C288.668 100.436 288.658 100.296 288.658 100.156ZM324.535 114.706C323.055 114.706 321.665 114.396 320.365 113.776C319.085 113.156 318.055 112.256 317.275 111.076C316.495 109.896 316.105 108.526 316.105 106.966C316.105 105.406 316.495 104.046 317.275 102.886C318.055 101.706 319.085 100.806 320.365 100.186C321.665 99.566 323.055 99.256 324.535 99.256C325.995 99.256 327.365 99.566 328.645 100.186C329.945 100.806 330.985 101.706 331.765 102.886C332.565 104.046 332.965 105.406 332.965 106.966C332.965 108.526 332.565 109.896 331.765 111.076C330.985 112.256 329.945 113.156 328.645 113.776C327.365 114.396 325.995 114.706 324.535 114.706ZM312.415 122.206C312.255 122.206 312.135 122.166 312.055 122.086C311.975 122.006 311.935 121.906 311.935 121.786C311.935 121.666 311.975 121.566 312.055 121.486C312.135 121.406 312.255 121.366 312.415 121.366H319.135V116.326C319.135 116.206 319.115 116.086 319.075 115.966C319.055 115.826 319.045 115.686 319.045 115.546C319.045 115.386 319.115 115.246 319.255 115.126C319.395 115.006 319.555 114.946 319.735 114.946C319.895 114.946 320.045 115.006 320.185 115.126C320.325 115.246 320.395 115.386 320.395 115.546C320.395 115.686 320.375 115.826 320.335 115.966C320.315 116.086 320.305 116.206 320.305 116.326V121.366H328.735V116.326C328.735 116.206 328.715 116.086 328.675 115.966C328.655 115.826 328.645 115.686 328.645 115.546C328.645 115.386 328.715 115.246 328.855 115.126C328.995 115.006 329.155 114.946 329.335 114.946C329.495 114.946 329.645 115.006 329.785 115.126C329.925 115.246 329.995 115.386 329.995 115.546C329.995 115.686 329.975 115.826 329.935 115.966C329.915 116.086 329.905 116.206 329.905 116.326V121.366H336.655C336.815 121.366 336.935 121.406 337.015 121.486C337.115 121.566 337.165 121.666 337.165 121.786C337.165 121.906 337.115 122.006 337.015 122.086C336.935 122.166 336.815 122.206 336.655 122.206H312.415ZM317.275 106.966C317.275 108.426 317.625 109.676 318.325 110.716C319.025 111.756 319.925 112.546 321.025 113.086C322.145 113.606 323.315 113.866 324.535 113.866C325.755 113.866 326.915 113.606 328.015 113.086C329.135 112.546 330.045 111.756 330.745 110.716C331.445 109.676 331.795 108.426 331.795 106.966C331.795 105.506 331.445 104.266 330.745 103.246C330.045 102.206 329.135 101.426 328.015 100.906C326.915 100.366 325.755 100.096 324.535 100.096C323.315 100.096 322.145 100.356 321.025 100.876C319.925 101.396 319.025 102.176 318.325 103.216C317.625 104.256 317.275 105.506 317.275 106.966ZM341.843 124.006C341.543 124.006 341.303 123.906 341.123 123.706C340.943 123.526 340.853 123.276 340.853 122.956C340.853 122.676 340.943 122.446 341.123 122.266C341.323 122.086 341.563 121.996 341.843 121.996C342.123 121.996 342.353 122.086 342.533 122.266C342.713 122.466 342.803 122.696 342.803 122.956C342.803 123.276 342.713 123.526 342.533 123.706C342.353 123.906 342.123 124.006 341.843 124.006ZM348.845 124.006C348.545 124.006 348.305 123.906 348.125 123.706C347.945 123.526 347.855 123.276 347.855 122.956C347.855 122.676 347.945 122.446 348.125 122.266C348.325 122.086 348.565 121.996 348.845 121.996C349.125 121.996 349.355 122.086 349.535 122.266C349.715 122.466 349.805 122.696 349.805 122.956C349.805 123.276 349.715 123.526 349.535 123.706C349.355 123.906 349.125 124.006 348.845 124.006ZM355.847 124.006C355.547 124.006 355.307 123.906 355.127 123.706C354.947 123.526 354.857 123.276 354.857 122.956C354.857 122.676 354.947 122.446 355.127 122.266C355.327 122.086 355.567 121.996 355.847 121.996C356.127 121.996 356.357 122.086 356.537 122.266C356.717 122.466 356.807 122.696 356.807 122.956C356.807 123.276 356.717 123.526 356.537 123.706C356.357 123.906 356.127 124.006 355.847 124.006Z" fill="black"/>
<path d="M153.053 154.231C153.043 156.39 154.303 158.46 157.116 159.329L155.787 161.263C153.903 160.638 152.584 159.427 151.823 157.874C151.051 159.661 149.674 161.067 147.643 161.751L146.295 159.798C149.264 158.812 150.534 156.448 150.553 153.997V152.376H153.053V154.231ZM148.756 165.774C148.746 163.616 151.1 162.337 154.85 162.337C158.532 162.337 160.836 163.616 160.846 165.774C160.836 167.952 158.532 169.222 154.85 169.212C151.1 169.222 148.746 167.952 148.756 165.774ZM151.256 165.774C151.237 166.78 152.516 167.259 154.85 167.259C157.155 167.259 158.385 166.78 158.385 165.774C158.385 164.808 157.155 164.29 154.85 164.29C152.516 164.29 151.237 164.808 151.256 165.774ZM158.17 161.985V151.438H160.67V155.599H163.073V157.669H160.67V161.985H158.17ZM178.073 151.458V156.497H180.338V158.548H178.073V163.45H175.573V151.458H178.073ZM163.659 161.087C164.957 161.087 166.432 161.077 167.975 161.038V159.993C166.032 159.729 164.84 158.831 164.85 157.513C164.84 155.931 166.549 154.964 169.205 154.974C171.842 154.964 173.551 155.931 173.561 157.513C173.551 158.831 172.369 159.729 170.455 159.993V160.94C171.91 160.872 173.375 160.755 174.752 160.579L174.928 162.259C171.149 162.913 167.057 162.962 163.912 162.962L163.659 161.087ZM164.127 154.544V152.708H167.975V151.302H170.455V152.708H174.303V154.544H164.127ZM166.002 166.419C166.002 164.603 168.2 163.587 172.077 163.606C175.924 163.587 178.131 164.603 178.131 166.419C178.131 168.255 175.924 169.231 172.077 169.231C168.2 169.231 166.002 168.255 166.002 166.419ZM167.233 157.513C167.223 158.138 167.936 158.44 169.205 158.45C170.455 158.44 171.168 158.138 171.178 157.513C171.168 156.927 170.455 156.604 169.205 156.595C167.936 156.604 167.223 156.927 167.233 157.513ZM168.502 166.419C168.493 167.093 169.616 167.425 172.077 167.415C174.498 167.425 175.621 167.093 175.631 166.419C175.621 165.726 174.498 165.403 172.077 165.403C169.616 165.403 168.493 165.726 168.502 166.419ZM200.729 151.438V160.579H198.248V158.802H194.967V160.071H186.51V152.2H189.01V154.271H192.506V152.2H194.967V153.704H198.248V151.438H200.729ZM188.893 163.157V161.243H200.729V165.989H191.412V167.063H201.256V169.017H188.912V164.173H198.248V163.157H188.893ZM189.01 158.118H192.506V156.165H189.01V158.118ZM194.967 156.927H198.248V155.56H194.967V156.927ZM219.303 165.188V167.239H203.034V165.188H209.889V162.513H204.909V156.536H214.967V154.583H204.889V152.591H217.428V158.489H207.409V160.481H217.838V162.513H212.369V165.188H219.303ZM230.475 156.849C230.475 159.544 231.442 162.249 233.971 163.606L232.604 165.423C231.002 164.603 229.938 163.167 229.313 161.438C228.698 163.323 227.633 164.915 226.022 165.853L224.596 163.978C227.164 162.493 228.112 159.593 228.131 156.849V156.438H225.26V154.446H228.131V152.044H230.455V154.446H233.268V156.438H230.475V156.849ZM232.233 160.208V158.177H234.323V151.731H236.666V168.392H234.323V160.208H232.233ZM237.936 169.212V151.438H240.299V169.212H237.936ZM257.194 151.438V162.181H254.713V158.685H252.409V156.653H254.713V151.438H257.194ZM242.252 154.974V152.981H246.276V151.282H248.737V152.981H252.721V154.974H242.252ZM243.229 158.743C243.229 156.888 245.016 155.56 247.506 155.56C250.006 155.56 251.764 156.888 251.764 158.743C251.764 160.687 249.996 161.956 247.506 161.966C245.016 161.956 243.229 160.687 243.229 158.743ZM245.241 169.017V162.942H257.194V169.017H245.241ZM245.631 158.743C245.612 159.642 246.344 160.12 247.506 160.13C248.639 160.12 249.381 159.642 249.381 158.743C249.381 157.903 248.639 157.425 247.506 157.435C246.344 157.425 245.612 157.903 245.631 158.743ZM247.741 167.024H254.752V164.896H247.741V167.024ZM274.381 151.438V169.251H271.862V151.438H274.381ZM260.026 159.017C260.016 155.14 261.998 152.688 264.733 152.688C267.409 152.688 269.401 155.14 269.401 159.017C269.401 162.923 267.409 165.364 264.733 165.364C261.998 165.364 260.016 162.923 260.026 159.017ZM262.428 159.017C262.418 161.663 263.346 163.108 264.733 163.099C266.08 163.108 266.989 161.663 266.998 159.017C266.989 156.38 266.08 154.935 264.733 154.935C263.346 154.935 262.418 156.38 262.428 159.017ZM295.416 151.438V158.255H297.936V160.306H295.416V169.173H292.916V151.438H295.416ZM281.198 164.192C285.407 162.083 287.672 159.251 288.141 155.286H282.213V153.255H290.67C290.651 158.567 288.58 163.167 282.604 166.106L281.198 164.192ZM313.092 155.892V157.884H300.729V151.712H303.209V155.892H313.092ZM298.678 161.438V159.407H314.928V161.438H298.678ZM300.534 165.853C300.534 163.753 302.877 162.562 306.764 162.552C310.621 162.562 312.936 163.753 312.955 165.853C312.936 167.972 310.621 169.153 306.764 169.153C302.877 169.153 300.534 167.972 300.534 165.853ZM303.073 165.853C303.063 166.78 304.303 167.249 306.764 167.259C309.176 167.249 310.446 166.78 310.455 165.853C310.446 164.905 309.176 164.505 306.764 164.485C304.303 164.505 303.063 164.905 303.073 165.853ZM324.537 154.153V156.126H315.944V154.153H319.03V151.927H321.491V154.153H324.537ZM316.354 161.146C316.354 158.675 318.014 156.937 320.28 156.927C322.555 156.937 324.176 158.675 324.186 161.146C324.176 163.626 322.555 165.384 320.28 165.384C318.014 165.384 316.354 163.626 316.354 161.146ZM318.541 161.146C318.541 162.503 319.244 163.274 320.28 163.274C321.276 163.274 321.989 162.503 321.998 161.146C321.989 159.808 321.276 158.997 320.28 158.997C319.244 158.997 318.541 159.808 318.541 161.146ZM325.202 168.45V151.79H327.526V158.665H328.971V151.438H331.334V169.212H328.971V160.657H327.526V168.45H325.202ZM349.518 165.091V167.142H333.248V165.091H336.881V160.735C335.504 159.905 334.674 158.646 334.674 157.083C334.674 154.202 337.487 152.308 341.354 152.298C345.202 152.308 348.043 154.202 348.053 157.083C348.043 158.616 347.243 159.856 345.905 160.687V165.091H349.518ZM337.135 157.083C337.135 158.821 338.805 159.896 341.354 159.896C343.864 159.896 345.582 158.821 345.592 157.083C345.582 155.296 343.864 154.261 341.354 154.271C338.805 154.261 337.135 155.296 337.135 157.083ZM339.342 165.091H343.385V161.634C342.75 161.761 342.067 161.829 341.354 161.829C340.641 161.829 339.967 161.761 339.342 161.644V165.091Z" fill="#FF6D6D"/>
<path d="M223.519 272.017C223.416 272.017 223.318 271.978 223.243 271.909C223.168 271.839 223.123 271.743 223.116 271.641C222.851 268.049 221.24 264.69 218.603 262.235C215.967 259.78 212.501 258.411 208.898 258.401C208.466 258.401 208.013 258.423 207.551 258.466C207.474 258.473 207.396 258.458 207.327 258.422C207.258 258.387 207.201 258.332 207.162 258.264C205.507 255.369 203.036 253.024 200.056 251.524C197.077 250.023 193.721 249.433 190.408 249.827C187.095 250.221 183.971 251.581 181.427 253.739C178.882 255.896 177.03 258.754 176.1 261.957C176.076 262.043 176.023 262.118 175.951 262.171C175.879 262.224 175.792 262.251 175.702 262.249L175.595 262.246C175.539 262.244 175.483 262.242 175.427 262.242C172.694 262.25 170.046 263.193 167.923 264.912C165.799 266.632 164.328 269.026 163.753 271.696C163.734 271.787 163.684 271.869 163.612 271.927C163.54 271.985 163.45 272.017 163.357 272.017H136.259C136.152 272.017 136.049 271.974 135.974 271.899C135.898 271.823 135.855 271.72 135.855 271.613C135.855 271.506 135.898 271.403 135.974 271.328C136.049 271.252 136.152 271.209 136.259 271.209H163.033C163.707 268.431 165.293 265.959 167.536 264.187C169.78 262.415 172.553 261.446 175.413 261.433C176.431 258.142 178.383 255.217 181.033 253.013C183.682 250.81 186.915 249.423 190.338 249.021C193.761 248.619 197.227 249.22 200.315 250.749C203.404 252.279 205.981 254.673 207.734 257.639C208.132 257.608 208.522 257.592 208.898 257.592C212.705 257.603 216.368 259.05 219.154 261.644C221.94 264.239 223.643 267.789 223.923 271.585C223.926 271.638 223.92 271.691 223.903 271.741C223.886 271.792 223.859 271.838 223.825 271.878C223.79 271.918 223.747 271.951 223.7 271.975C223.652 271.999 223.601 272.013 223.548 272.016C223.538 272.017 223.528 272.017 223.519 272.017Z" fill="#CBCBCB"/>
<path d="M218.706 277.202H152.371C152.264 277.202 152.161 277.159 152.085 277.083C152.009 277.007 151.967 276.905 151.967 276.797C151.967 276.69 152.009 276.587 152.085 276.511C152.161 276.436 152.264 276.393 152.371 276.393H218.706C218.814 276.393 218.916 276.436 218.992 276.511C219.068 276.587 219.111 276.69 219.111 276.797C219.111 276.905 219.068 277.007 218.992 277.083C218.916 277.159 218.814 277.202 218.706 277.202Z" fill="#CBCBCB"/>
<path d="M168.55 283.064H146.304C146.251 283.064 146.198 283.054 146.149 283.033C146.1 283.013 146.055 282.983 146.017 282.946C145.98 282.908 145.95 282.864 145.929 282.815C145.909 282.765 145.898 282.713 145.898 282.66C145.898 282.606 145.909 282.554 145.929 282.505C145.95 282.455 145.98 282.411 146.017 282.373C146.055 282.336 146.1 282.306 146.149 282.286C146.198 282.265 146.251 282.255 146.304 282.255H168.55C168.658 282.256 168.76 282.298 168.836 282.374C168.911 282.45 168.954 282.553 168.954 282.66C168.954 282.767 168.911 282.869 168.836 282.945C168.76 283.021 168.658 283.064 168.55 283.064Z" fill="#CBCBCB"/>
<path d="M189.349 361.732C189.349 378.17 172.109 386.035 172.109 386.035C172.109 386.035 154.693 378.17 154.339 361.732C154.131 352.071 162.176 344.234 171.844 344.234C174.143 344.234 176.419 344.687 178.543 345.566C180.667 346.446 182.597 347.735 184.222 349.359C185.848 350.984 187.137 352.913 188.017 355.036C188.896 357.159 189.349 359.434 189.349 361.732Z" fill="#E5E5E5"/>
<path d="M177.945 387.007H166.275L164.86 381.351H179.36L177.945 387.007Z" fill="#CBCBCB"/>
<path d="M177.547 396.679H166.673V402.344H177.547V396.679Z" fill="white"/>
<path d="M177.635 402.432H166.584V396.591H177.635V402.432ZM166.761 402.256H177.458V396.768H166.761V402.256Z" fill="#CBCBCB"/>
<path d="M174.339 387.674H169.881L169.369 386.87H174.85L174.339 387.674Z" fill="#CBCBCB"/>
<path d="M166.54 387.006H166.363V395.667H166.54V387.006Z" fill="#CBCBCB"/>
<path d="M177.857 387.006H177.68V395.667H177.857V387.006Z" fill="#CBCBCB"/>
<path d="M173.882 381.255L173.774 381.115C178.883 377.177 184.972 370.432 184.972 360.656C184.976 357.233 183.969 353.884 182.076 351.03C180.184 348.177 177.491 345.945 174.334 344.615L174.403 344.452C177.592 345.796 180.312 348.05 182.224 350.933C184.135 353.815 185.153 357.198 185.149 360.656C185.149 370.503 179.022 377.293 173.882 381.255Z" fill="#CBCBCB"/>
<path d="M168.224 381.255L168.116 381.115C173.224 377.178 179.314 370.432 179.314 360.657C179.315 357.256 178.32 353.929 176.451 351.088C174.582 348.246 171.921 346.014 168.797 344.667L168.867 344.505C172.023 345.865 174.711 348.12 176.599 350.991C178.486 353.861 179.492 357.222 179.49 360.657C179.49 370.504 173.364 377.294 168.224 381.255Z" fill="#CBCBCB"/>
<path d="M175.465 381.255C170.326 377.294 164.199 370.504 164.199 360.657C164.198 357.222 165.203 353.861 167.091 350.991C168.979 348.12 171.667 345.865 174.822 344.505L174.892 344.667C171.769 346.014 169.108 348.246 167.239 351.088C165.37 353.929 164.375 357.256 164.376 360.657C164.376 370.432 170.465 377.178 175.573 381.115L175.465 381.255Z" fill="#CBCBCB"/>
<path d="M169.807 381.255C164.668 377.293 158.541 370.504 158.541 360.657C158.535 357.185 159.56 353.789 161.485 350.899C163.411 348.009 166.151 345.755 169.358 344.422L169.426 344.586C166.251 345.905 163.539 348.136 161.633 350.997C159.727 353.858 158.712 357.22 158.718 360.657C158.718 370.432 164.807 377.178 169.915 381.115L169.807 381.255Z" fill="#CBCBCB"/>
<path d="M171.934 344.234H171.757V381.351H171.934V344.234Z" fill="#CBCBCB"/>
<path d="M169.853 395.395L166.61 398.636L166.735 398.761L169.978 395.52L169.853 395.395Z" fill="#CBCBCB"/>
<path d="M171.428 395.341L166.608 400.408L166.737 400.53L171.556 395.463L171.428 395.341Z" fill="#CBCBCB"/>
<path d="M178.564 395.402H165.303V396.993H178.564V395.402Z" fill="white"/>
<path d="M178.652 397.081H165.214V395.314H178.652V397.081ZM165.391 396.905H178.475V395.491H165.391V396.905Z" fill="#CBCBCB"/>
<path d="M222.714 320.075C222.714 330.924 211.335 336.116 211.335 336.116C211.335 336.116 199.84 330.924 199.606 320.075C199.469 313.698 204.779 308.526 211.16 308.526C214.225 308.526 217.163 309.742 219.33 311.908C221.497 314.074 222.714 317.012 222.714 320.075Z" fill="#E5E5E5"/>
<path d="M215.186 336.757H207.483L206.55 333.024H216.12L215.186 336.757Z" fill="#CBCBCB"/>
<path d="M214.924 343.142H207.746V346.881H214.924V343.142Z" fill="white"/>
<path d="M214.983 346.939H207.688V343.083H214.983V346.939ZM207.805 346.822H214.866V343.2H207.805V346.822Z" fill="#CBCBCB"/>
<path d="M212.807 337.197H209.864L209.526 336.667H213.144L212.807 337.197Z" fill="#CBCBCB"/>
<path d="M207.659 336.757H207.542V342.474H207.659V336.757Z" fill="#CBCBCB"/>
<path d="M215.128 336.757H215.012V342.473H215.128V336.757Z" fill="#CBCBCB"/>
<path d="M212.505 332.961L212.434 332.868C215.805 330.269 219.824 325.817 219.824 319.365C219.827 317.105 219.162 314.895 217.913 313.011C216.664 311.128 214.886 309.655 212.803 308.777L212.849 308.669C214.953 309.556 216.749 311.044 218.01 312.947C219.272 314.849 219.944 317.082 219.941 319.365C219.941 325.864 215.897 330.346 212.505 332.961Z" fill="#CBCBCB"/>
<path d="M208.77 332.961L208.699 332.869C212.071 330.27 216.09 325.817 216.09 319.365C216.091 317.12 215.434 314.925 214.2 313.049C212.967 311.174 211.211 309.7 209.149 308.811L209.195 308.704C211.278 309.602 213.052 311.09 214.298 312.985C215.544 314.88 216.208 317.098 216.207 319.365C216.207 325.865 212.163 330.346 208.77 332.961Z" fill="#CBCBCB"/>
<path d="M213.549 332.961C210.157 330.346 206.113 325.865 206.113 319.365C206.112 317.098 206.776 314.88 208.022 312.985C209.268 311.091 211.042 309.602 213.125 308.704L213.171 308.811C211.109 309.7 209.353 311.174 208.12 313.049C206.886 314.925 206.229 317.121 206.23 319.365C206.23 325.817 210.249 330.27 213.621 332.869L213.549 332.961Z" fill="#CBCBCB"/>
<path d="M209.815 332.961C206.423 330.346 202.379 325.865 202.379 319.365C202.375 317.073 203.051 314.832 204.322 312.925C205.593 311.017 207.402 309.53 209.519 308.65L209.564 308.758C207.468 309.628 205.678 311.101 204.42 312.989C203.161 314.878 202.492 317.097 202.496 319.365C202.496 325.817 206.515 330.27 209.886 332.869L209.815 332.961Z" fill="#CBCBCB"/>
<path d="M211.218 308.526H211.102V333.024H211.218V308.526Z" fill="#CBCBCB"/>
<path d="M209.845 342.294L207.705 344.433L207.788 344.515L209.928 342.376L209.845 342.294Z" fill="#CBCBCB"/>
<path d="M210.885 342.258L207.704 345.603L207.789 345.683L210.97 342.338L210.885 342.258Z" fill="#CBCBCB"/>
<path d="M215.595 342.299H206.842V343.349H215.595V342.299Z" fill="white"/>
<path d="M215.653 343.407H206.783V342.24H215.653V343.407ZM206.9 343.29H215.536V342.357H206.9V343.29Z" fill="#CBCBCB"/>
<path d="M319.447 334.908C319.52 334.908 319.59 334.88 319.644 334.83C319.698 334.78 319.73 334.712 319.735 334.639C319.925 332.064 321.08 329.656 322.97 327.896C324.859 326.137 327.344 325.155 329.927 325.148C330.236 325.148 330.561 325.164 330.892 325.195C330.947 325.2 331.003 325.189 331.052 325.163C331.102 325.138 331.143 325.099 331.171 325.05C332.357 322.975 334.128 321.294 336.264 320.219C338.4 319.143 340.805 318.72 343.18 319.002C345.555 319.285 347.794 320.26 349.618 321.806C351.441 323.352 352.769 325.401 353.436 327.697C353.453 327.759 353.491 327.813 353.542 327.851C353.594 327.888 353.657 327.908 353.721 327.906L353.798 327.904C353.838 327.903 353.878 327.901 353.918 327.901C355.877 327.907 357.775 328.583 359.297 329.815C360.819 331.048 361.874 332.764 362.286 334.678C362.3 334.743 362.335 334.802 362.387 334.843C362.439 334.885 362.503 334.908 362.57 334.908H381.993C382.031 334.908 382.069 334.901 382.105 334.886C382.14 334.872 382.172 334.851 382.199 334.824C382.226 334.797 382.247 334.765 382.262 334.73C382.277 334.694 382.284 334.657 382.284 334.618C382.284 334.58 382.277 334.543 382.262 334.507C382.247 334.472 382.226 334.44 382.199 334.413C382.172 334.386 382.14 334.365 382.105 334.35C382.069 334.336 382.031 334.328 381.993 334.329H362.802C362.319 332.338 361.182 330.566 359.574 329.296C357.966 328.026 355.978 327.331 353.928 327.322C353.199 324.962 351.799 322.866 349.9 321.286C348.001 319.707 345.684 318.713 343.23 318.425C340.776 318.137 338.292 318.567 336.078 319.664C333.865 320.76 332.017 322.476 330.761 324.602C330.476 324.58 330.196 324.568 329.927 324.568C327.198 324.576 324.572 325.613 322.575 327.473C320.578 329.333 319.357 331.877 319.157 334.598C319.154 334.636 319.159 334.674 319.171 334.71C319.183 334.746 319.202 334.78 319.227 334.808C319.252 334.837 319.283 334.861 319.317 334.878C319.351 334.895 319.388 334.905 319.426 334.908C319.433 334.908 319.44 334.908 319.447 334.908Z" fill="#CBCBCB"/>
<path d="M322.897 338.624H370.445C370.522 338.624 370.596 338.593 370.65 338.539C370.705 338.484 370.735 338.411 370.735 338.334C370.735 338.257 370.705 338.183 370.65 338.129C370.596 338.074 370.522 338.044 370.445 338.044H322.897C322.82 338.044 322.747 338.074 322.692 338.129C322.638 338.183 322.607 338.257 322.607 338.334C322.607 338.411 322.638 338.484 322.692 338.539C322.747 338.593 322.82 338.624 322.897 338.624Z" fill="#CBCBCB"/>
<path d="M358.848 342.826H374.794C374.87 342.826 374.944 342.795 374.998 342.741C375.052 342.686 375.083 342.613 375.083 342.536C375.083 342.459 375.052 342.386 374.998 342.332C374.944 342.277 374.87 342.247 374.794 342.246H358.848C358.809 342.246 358.772 342.254 358.737 342.268C358.701 342.283 358.669 342.304 358.643 342.331C358.616 342.358 358.594 342.39 358.58 342.425C358.565 342.46 358.558 342.498 358.558 342.536C358.558 342.574 358.565 342.612 358.58 342.647C358.594 342.682 358.616 342.714 358.643 342.741C358.669 342.768 358.701 342.789 358.737 342.804C358.772 342.818 358.809 342.826 358.848 342.826Z" fill="#CBCBCB"/>
<path d="M284.75 412.752H283.796L283.342 409.073H284.75V412.752Z" fill="#9F616A"/>
<path d="M284.993 413.677H281.916V413.638C281.916 413.321 282.043 413.017 282.267 412.792C282.492 412.568 282.796 412.442 283.114 412.441H284.993V413.677Z" fill="#2F2E41"/>
<path d="M297.057 410.945L296.239 411.436L293.954 408.516L295.162 407.791L297.057 410.945Z" fill="#9F616A"/>
<path d="M295.105 413.196L295.085 413.163C294.921 412.891 294.873 412.565 294.95 412.257C295.027 411.949 295.222 411.684 295.494 411.52L297.106 410.552L297.742 411.612L295.105 413.196Z" fill="#2F2E41"/>
<path d="M284.999 411.993L284.983 411.993C284.518 411.991 284.055 411.965 283.593 411.913C283.417 411.896 283.227 411.877 282.997 411.858L282.989 411.856C282.832 411.81 282.828 410.34 282.894 405.308C282.928 402.731 282.967 399.81 282.921 397.949L282.92 397.931L282.934 397.919C283.764 397.192 284.755 396.671 285.825 396.399C286.895 396.128 288.014 396.113 289.09 396.357L289.107 396.36L289.116 396.375C290.054 397.961 291.47 400.246 292.84 402.456C295.984 407.529 296.883 409.021 296.784 409.133L296.772 409.143C296.558 409.25 296.396 409.333 296.259 409.403C295.717 409.684 295.16 409.935 294.59 410.155L294.565 410.166L294.546 410.146C291.356 406.652 288.702 402.748 287.06 399.14C286.868 400.372 286.635 401.981 286.389 403.68C285.681 408.567 285.203 411.785 285.011 411.981L284.999 411.993Z" fill="#2F2E41"/>
<path d="M285.858 398.325C287.76 398.317 289.65 398.633 291.446 399.26C291.508 396.247 290.498 393.31 288.595 390.972L288.581 390.955L288.588 390.934C289.089 389.487 289.607 387.991 290.07 386.503L290.063 386.478C289.738 385.324 289.041 384.159 287.933 382.914C287.812 382.79 287.649 382.715 287.476 382.707C287.303 382.698 287.134 382.755 287.001 382.867C286.03 383.755 285.274 384.852 284.789 386.075C284.305 387.298 284.105 388.616 284.205 389.927L284.206 389.935L284.204 389.942C283.336 392.882 283.021 394.392 282.743 395.724C282.54 396.696 282.364 397.537 282.012 398.739C283.275 398.464 284.565 398.326 285.858 398.325Z" fill="#CBCBCB"/>
<path opacity="0.1" d="M288.659 389.033L285.835 395.178L284.222 393.546L288.659 389.033Z" fill="black"/>
<path d="M287.451 382.316C288.561 382.316 289.461 381.417 289.461 380.307C289.461 379.198 288.561 378.299 287.451 378.299C286.342 378.299 285.442 379.198 285.442 380.307C285.442 381.417 286.342 382.316 287.451 382.316Z" fill="#9F616A"/>
<path d="M285.016 379.173H288.206V377.783C287.506 377.505 286.82 377.268 286.406 377.783C286.037 377.783 285.684 377.929 285.423 378.19C285.162 378.451 285.016 378.804 285.016 379.173Z" fill="#2F2E41"/>
<path d="M288.382 377.538C290.29 377.538 290.823 379.927 290.823 381.275C290.823 382.027 290.483 382.296 289.949 382.387L289.76 381.381L289.318 382.43C289.168 382.431 289.01 382.428 288.846 382.425L288.697 382.117L288.362 382.42C287.023 382.422 285.941 382.617 285.941 381.275C285.941 379.927 286.41 377.538 288.382 377.538Z" fill="#2F2E41"/>
<path d="M345.99 284.757C345.99 337.689 290.473 363.017 290.473 363.017C290.473 363.017 234.387 337.689 233.248 284.757C232.579 253.645 258.486 228.41 289.619 228.41C320.752 228.41 345.99 253.637 345.99 284.757Z" fill="#FF6D6D"/>
<path d="M291.664 412.337H290.493L289.937 407.825H291.664V412.337Z" fill="#FFB7B7"/>
<path d="M289.657 412.002H291.914V413.423H288.236C288.236 413.236 288.273 413.052 288.344 412.879C288.416 412.707 288.521 412.55 288.653 412.418C288.784 412.287 288.941 412.182 289.114 412.111C289.286 412.039 289.471 412.002 289.657 412.002Z" fill="#2F2E41"/>
<path d="M296.055 412.337H294.885L294.328 407.825H296.055L296.055 412.337Z" fill="#FFB7B7"/>
<path d="M294.048 412.002H296.305V413.423H292.627C292.627 413.046 292.777 412.685 293.043 412.418C293.31 412.152 293.671 412.002 294.048 412.002Z" fill="#2F2E41"/>
<path d="M295.911 398.899C295.785 398.818 295.678 398.71 295.598 398.584C295.518 398.457 295.467 398.314 295.448 398.165C295.429 398.017 295.443 397.866 295.489 397.723C295.535 397.581 295.612 397.45 295.714 397.34L294.943 386.41L297.163 386.625L297.224 397.329C297.397 397.512 297.497 397.753 297.505 398.005C297.512 398.257 297.427 398.503 297.265 398.697C297.103 398.891 296.876 399.018 296.626 399.055C296.377 399.093 296.122 399.037 295.911 398.899Z" fill="#FFB7B7"/>
<path d="M291.609 410.063L290.32 410.002C290.211 409.997 290.107 409.95 290.031 409.871C289.955 409.791 289.912 409.686 289.911 409.576L289.821 396.547C289.821 396.486 289.834 396.424 289.859 396.368C289.885 396.312 289.922 396.261 289.969 396.221C290.015 396.18 290.07 396.15 290.13 396.132C290.189 396.115 290.251 396.111 290.313 396.119L295.466 396.867C295.568 396.882 295.661 396.932 295.729 397.009C295.796 397.087 295.834 397.186 295.834 397.289L296.497 409.362C296.497 409.418 296.487 409.474 296.465 409.527C296.444 409.579 296.412 409.627 296.372 409.667C296.332 409.707 296.285 409.739 296.233 409.761C296.18 409.783 296.124 409.794 296.067 409.794H294.679C294.576 409.795 294.477 409.758 294.399 409.692C294.321 409.625 294.27 409.533 294.254 409.432C294.254 409.432 293.205 400.376 293.061 400.381C292.916 400.384 292.055 409.686 292.055 409.686C292.043 409.79 291.992 409.886 291.914 409.955C291.835 410.025 291.734 410.064 291.629 410.064C291.622 410.064 291.615 410.064 291.609 410.063Z" fill="#2F2E41"/>
<path d="M295.446 390.082C295.394 390.045 295.351 389.996 295.321 389.94C295.29 389.884 295.272 389.822 295.269 389.758L295.106 386.812C295.09 386.52 295.183 386.233 295.366 386.005C295.55 385.777 295.811 385.626 296.099 385.579C296.388 385.533 296.684 385.594 296.93 385.753C297.175 385.911 297.354 386.155 297.43 386.437L298.145 389.071C298.174 389.181 298.159 389.298 298.102 389.397C298.046 389.496 297.952 389.568 297.842 389.598L295.81 390.149C295.748 390.166 295.684 390.168 295.621 390.157C295.558 390.145 295.498 390.12 295.446 390.082Z" fill="#3F3D56"/>
<path d="M293.548 383.081C294.843 383.081 295.893 382.032 295.893 380.738C295.893 379.443 294.843 378.394 293.548 378.394C292.254 378.394 291.204 379.443 291.204 380.738C291.204 382.032 292.254 383.081 293.548 383.081Z" fill="#FFB7B7"/>
<path d="M295.207 382.592C295.109 382.698 294.983 382.773 294.843 382.81C294.704 382.846 294.557 382.842 294.42 382.798C294.282 382.754 294.161 382.671 294.069 382.56C293.977 382.449 293.918 382.314 293.9 382.171C293.896 382.122 293.896 382.072 293.901 382.023C293.931 381.741 294.094 381.485 294.055 381.188C294.046 381.114 294.018 381.043 293.974 380.983C293.626 380.516 292.808 381.191 292.479 380.769C292.277 380.51 292.514 380.103 292.36 379.813C292.155 379.431 291.55 379.62 291.171 379.41C290.749 379.178 290.774 378.53 291.052 378.136C291.233 377.904 291.463 377.714 291.725 377.58C291.988 377.446 292.277 377.372 292.572 377.363C293.162 377.349 293.748 377.463 294.289 377.698C294.929 377.906 295.493 378.297 295.912 378.823C296.129 379.167 296.266 379.556 296.314 379.96C296.362 380.365 296.32 380.774 296.19 381.16C296.048 381.634 295.564 382.212 295.207 382.592Z" fill="#2F2E41"/>
<path d="M295.888 384.646C295.847 384.617 295.806 384.588 295.764 384.56C295.538 384.411 295.295 384.291 295.039 384.205V383.589H293.225V384.16C292.624 384.326 292.085 384.665 291.675 385.135C291.265 385.604 291.002 386.184 290.919 386.802L289.684 395.966C289.676 396.023 289.68 396.082 289.695 396.137C289.71 396.193 289.737 396.245 289.773 396.291C289.808 396.336 289.852 396.373 289.902 396.4C289.952 396.428 290.007 396.445 290.064 396.45C290.929 396.562 291.763 396.848 292.515 397.289C293.061 397.592 293.676 397.749 294.301 397.745C294.796 397.743 295.288 397.656 295.754 397.486C295.833 397.457 295.902 397.405 295.951 397.337C296.001 397.269 296.029 397.188 296.032 397.104C296.077 396.118 296.337 391.042 297.094 387.945C297.241 387.338 297.205 386.7 296.991 386.113C296.776 385.526 296.392 385.016 295.888 384.646Z" fill="#3F3D56"/>
<path d="M309.263 366.147H271.682L267.127 347.934H313.818L309.263 366.147Z" fill="#3F3D56"/>
<path d="M307.982 397.295H272.964V415.536H307.982V397.295Z" fill="white"/>
<path d="M308.266 415.821H272.679V397.01H308.266V415.821ZM273.248 415.251H307.697V397.579H273.248V415.251Z" fill="#3F3D56"/>
<path d="M297.651 368.295H283.295L281.647 365.707H299.299L297.651 368.295Z" fill="#3F3D56"/>
<path d="M272.536 366.147H271.967V394.036H272.536V366.147Z" fill="#3F3D56"/>
<path d="M308.979 366.147H308.409V394.036H308.979V366.147Z" fill="#3F3D56"/>
<path d="M296.181 347.625L295.833 347.175C312.283 334.495 331.891 312.772 331.891 281.293C331.904 270.268 328.66 259.484 322.567 250.295C316.473 241.105 307.8 233.918 297.636 229.636L297.858 229.112C308.125 233.438 316.886 240.697 323.041 249.98C329.197 259.263 332.474 270.156 332.461 281.293C332.461 313.003 312.731 334.867 296.181 347.625Z" fill="#3F3D56"/>
<path d="M277.96 347.625L277.612 347.175C294.062 334.495 313.671 312.772 313.671 281.293C313.675 270.342 310.47 259.63 304.452 250.479C298.434 241.328 289.865 234.14 279.806 229.803L280.031 229.28C290.193 233.662 298.848 240.923 304.928 250.166C311.007 259.41 314.245 270.231 314.24 281.293C314.24 313.003 294.511 334.868 277.96 347.625Z" fill="#3F3D56"/>
<path d="M301.278 347.625C284.727 334.868 264.998 313.003 264.998 281.293C264.994 270.231 268.231 259.41 274.31 250.166C280.39 240.922 289.045 233.662 299.207 229.28L299.433 229.803C289.373 234.14 280.805 241.328 274.786 250.479C268.768 259.629 265.563 270.342 265.567 281.293C265.567 312.772 285.176 334.495 301.626 347.175L301.278 347.625Z" fill="#3F3D56"/>
<path d="M283.057 347.625C266.507 334.868 246.777 313.004 246.777 281.293C246.759 270.112 250.059 259.177 256.259 249.871C262.46 240.565 271.283 233.307 281.611 229.015L281.831 229.54C271.606 233.789 262.872 240.975 256.733 250.187C250.595 259.399 247.328 270.225 247.347 281.293C247.347 312.772 266.955 334.495 283.405 347.175L283.057 347.625Z" fill="#3F3D56"/>
<path d="M289.903 228.41H289.334V347.934H289.903V228.41Z" fill="#3F3D56"/>
<path d="M283.204 393.159L272.763 403.596L273.165 403.998L283.606 393.561L283.204 393.159Z" fill="#3F3D56"/>
<path d="M288.28 392.985L272.759 409.302L273.171 409.694L288.692 393.377L288.28 392.985Z" fill="#3F3D56"/>
<path d="M311.256 393.182H268.551V398.304H311.256V393.182Z" fill="white"/>
<path d="M311.541 398.589H268.267V392.898H311.541V398.589ZM268.836 398.02H310.972V393.467H268.836V398.02Z" fill="#3F3D56"/>
<path d="M282.363 395.565C282.477 395.557 282.589 395.524 282.689 395.468C282.789 395.413 282.875 395.336 282.943 395.244C283.01 395.151 283.056 395.045 283.078 394.932C283.099 394.82 283.096 394.704 283.068 394.593L285.395 393.07L284.068 392.497L282.062 394.032C281.879 394.091 281.723 394.215 281.625 394.381C281.528 394.547 281.494 394.743 281.531 394.932C281.569 395.121 281.674 395.29 281.827 395.406C281.98 395.523 282.171 395.579 282.363 395.565Z" fill="#9F616A"/>
<path d="M284.603 394.467L284.573 394.446C284.019 394.039 283.405 393.617 282.81 393.21L282.774 393.185L282.803 393.152C284.071 391.668 285.342 390.118 286.571 388.619L286.568 388.613L286.58 388.607L286.585 388.601L286.587 388.604L286.595 388.6L286.561 388.602L286.183 385.634C285.995 385.325 285.899 384.969 285.907 384.608C285.914 384.247 286.024 383.896 286.223 383.595C286.453 383.27 286.795 383.041 287.183 382.953C287.571 382.864 287.978 382.922 288.326 383.115C288.497 383.23 288.641 383.383 288.746 383.561C288.851 383.739 288.914 383.939 288.931 384.145C288.956 384.328 288.939 384.515 288.882 384.691C288.825 384.867 288.729 385.029 288.602 385.163C288.732 386.604 288.79 388.05 288.775 389.497L288.775 389.51L288.766 389.521C287.456 391.185 286.018 392.839 284.626 394.44L284.603 394.467Z" fill="#CBCBCB"/>
<path d="M285.053 385.342C285.065 385.393 285.073 385.446 285.076 385.498L289.176 387.863L290.173 387.289L291.236 388.679L289.103 390.198L284.426 386.51C284.235 386.58 284.027 386.591 283.83 386.541C283.633 386.49 283.456 386.381 283.322 386.228C283.189 386.074 283.105 385.884 283.082 385.682C283.06 385.48 283.099 385.276 283.195 385.097C283.292 384.917 283.44 384.772 283.621 384.679C283.802 384.586 284.007 384.551 284.209 384.578C284.411 384.604 284.6 384.692 284.75 384.828C284.901 384.965 285.007 385.144 285.053 385.342Z" fill="#FFB7B7"/>
<path d="M289.322 387.662C289.315 387.598 289.322 387.534 289.344 387.474C289.365 387.413 289.4 387.359 289.445 387.313L291.532 385.227C291.739 385.02 292.015 384.897 292.307 384.882C292.599 384.867 292.886 384.96 293.114 385.144C293.341 385.328 293.492 385.589 293.538 385.878C293.584 386.167 293.521 386.462 293.362 386.707L291.876 388.996C291.813 389.092 291.716 389.159 291.605 389.182C291.493 389.206 291.377 389.185 291.281 389.123L289.515 387.977C289.461 387.942 289.416 387.896 289.383 387.841C289.349 387.787 289.328 387.726 289.322 387.662Z" fill="#3F3D56"/>
<path d="M260.929 367.35C260.856 367.35 260.786 367.322 260.732 367.272C260.678 367.222 260.646 367.154 260.641 367.08C260.451 364.506 259.296 362.098 257.406 360.338C255.517 358.578 253.032 357.597 250.449 357.59C250.14 357.59 249.815 357.606 249.484 357.637C249.429 357.642 249.373 357.631 249.323 357.605C249.274 357.58 249.233 357.54 249.205 357.492C248.019 355.416 246.248 353.736 244.112 352.66C241.976 351.585 239.571 351.162 237.196 351.444C234.821 351.727 232.582 352.702 230.758 354.248C228.934 355.794 227.607 357.843 226.94 360.139C226.923 360.201 226.885 360.254 226.834 360.292C226.782 360.33 226.719 360.35 226.655 360.348L226.578 360.346C226.538 360.344 226.498 360.343 226.458 360.343C224.499 360.349 222.601 361.025 221.079 362.257C219.557 363.49 218.502 365.206 218.09 367.12C218.076 367.185 218.04 367.243 217.989 367.285C217.937 367.327 217.873 367.35 217.806 367.35H198.383C198.344 367.35 198.307 367.343 198.271 367.328C198.236 367.314 198.204 367.292 198.177 367.265C198.15 367.239 198.129 367.207 198.114 367.171C198.099 367.136 198.092 367.098 198.092 367.06C198.092 367.022 198.099 366.984 198.114 366.949C198.129 366.914 198.15 366.882 198.177 366.855C198.204 366.828 198.236 366.807 198.271 366.792C198.307 366.778 198.344 366.77 198.383 366.77H217.574C218.057 364.779 219.194 363.007 220.802 361.737C222.41 360.467 224.398 359.772 226.448 359.763C227.177 357.404 228.577 355.307 230.476 353.728C232.375 352.149 234.692 351.154 237.146 350.866C239.599 350.578 242.084 351.009 244.298 352.105C246.511 353.202 248.358 354.918 249.615 357.044C249.9 357.021 250.18 357.01 250.449 357.01C253.178 357.018 255.804 358.055 257.801 359.915C259.798 361.774 261.019 364.319 261.219 367.04C261.222 367.078 261.217 367.116 261.205 367.152C261.193 367.188 261.174 367.222 261.149 367.25C261.124 367.279 261.093 367.303 261.059 367.32C261.025 367.337 260.988 367.347 260.95 367.349C260.943 367.35 260.936 367.35 260.929 367.35Z" fill="#CBCBCB"/>
<path d="M257.481 371.066H209.932C209.894 371.066 209.856 371.059 209.821 371.044C209.786 371.029 209.754 371.008 209.727 370.981C209.7 370.954 209.678 370.922 209.664 370.887C209.649 370.852 209.642 370.814 209.642 370.776C209.642 370.738 209.649 370.7 209.664 370.665C209.678 370.63 209.7 370.598 209.727 370.571C209.754 370.544 209.786 370.523 209.821 370.508C209.856 370.493 209.894 370.486 209.932 370.486H257.481C257.557 370.486 257.631 370.517 257.686 370.571C257.74 370.625 257.77 370.699 257.77 370.776C257.77 370.853 257.74 370.927 257.686 370.981C257.631 371.035 257.557 371.066 257.481 371.066Z" fill="#CBCBCB"/>
<path d="M221.529 375.268H205.583C205.545 375.268 205.507 375.261 205.472 375.246C205.436 375.232 205.404 375.211 205.377 375.184C205.35 375.157 205.329 375.125 205.314 375.09C205.3 375.054 205.292 375.017 205.292 374.978C205.292 374.94 205.3 374.903 205.314 374.867C205.329 374.832 205.35 374.8 205.377 374.773C205.404 374.746 205.436 374.725 205.472 374.71C205.507 374.696 205.545 374.688 205.583 374.689H221.529C221.567 374.688 221.605 374.696 221.64 374.71C221.675 374.725 221.707 374.746 221.734 374.773C221.761 374.8 221.783 374.832 221.798 374.867C221.812 374.903 221.82 374.94 221.82 374.978C221.82 375.017 221.812 375.054 221.798 375.09C221.783 375.125 221.761 375.157 221.734 375.184C221.707 375.211 221.675 375.232 221.64 375.246C221.605 375.261 221.567 375.268 221.529 375.268Z" fill="#CBCBCB"/>
</svg>
