<svg width="25" height="25" viewBox="0 0 25 25" fill="none" xmlns="http://www.w3.org/2000/svg">
<path fill-rule="evenodd" clip-rule="evenodd" d="M4.65625 17.7002C4.65625 17.5013 4.73138 17.3105 4.8651 17.1699C4.99883 17.0292 5.1802 16.9502 5.36932 16.9502H19.6307C19.8198 16.9502 20.0012 17.0292 20.1349 17.1699C20.2686 17.3105 20.3438 17.5013 20.3438 17.7002C20.3438 17.8991 20.2686 18.0899 20.1349 18.2305C20.0012 18.3712 19.8198 18.4502 19.6307 18.4502H5.36932C5.1802 18.4502 4.99883 18.3712 4.8651 18.2305C4.73138 18.0899 4.65625 17.8991 4.65625 17.7002ZM4.65625 11.7002C4.65625 11.5013 4.73138 11.3105 4.8651 11.1699C4.99883 11.0292 5.1802 10.9502 5.36932 10.9502H19.6307C19.8198 10.9502 20.0012 11.0292 20.1349 11.1699C20.2686 11.3105 20.3438 11.5013 20.3438 11.7002C20.3438 11.8991 20.2686 12.0899 20.1349 12.2305C20.0012 12.3712 19.8198 12.4502 19.6307 12.4502H5.36932C5.1802 12.4502 4.99883 12.3712 4.8651 12.2305C4.73138 12.0899 4.65625 11.8991 4.65625 11.7002ZM4.65625 5.7002C4.65625 5.50128 4.73138 5.31052 4.8651 5.16987C4.99883 5.02921 5.1802 4.9502 5.36932 4.9502H19.6307C19.8198 4.9502 20.0012 5.02921 20.1349 5.16987C20.2686 5.31052 20.3438 5.50128 20.3438 5.7002C20.3438 5.89911 20.2686 6.08987 20.1349 6.23053C20.0012 6.37118 19.8198 6.4502 19.6307 6.4502H5.36932C5.1802 6.4502 4.99883 6.37118 4.8651 6.23053C4.73138 6.08987 4.65625 5.89911 4.65625 5.7002Z" fill="#FF6D6D"/>
</svg>
