<svg width="24" height="24" viewBox="0 0 24 24" fill="none" xmlns="http://www.w3.org/2000/svg">
<path fill-rule="evenodd" clip-rule="evenodd" d="M4.15625 17.25C4.15625 17.0511 4.23138 16.8603 4.3651 16.7197C4.49883 16.579 4.6802 16.5 4.86932 16.5H19.1307C19.3198 16.5 19.5012 16.579 19.6349 16.7197C19.7686 16.8603 19.8438 17.0511 19.8438 17.25C19.8438 17.4489 19.7686 17.6397 19.6349 17.7803C19.5012 17.921 19.3198 18 19.1307 18H4.86932C4.6802 18 4.49883 17.921 4.3651 17.7803C4.23138 17.6397 4.15625 17.4489 4.15625 17.25ZM4.15625 11.25C4.15625 11.0511 4.23138 10.8603 4.3651 10.7197C4.49883 10.579 4.6802 10.5 4.86932 10.5H19.1307C19.3198 10.5 19.5012 10.579 19.6349 10.7197C19.7686 10.8603 19.8438 11.0511 19.8438 11.25C19.8438 11.4489 19.7686 11.6397 19.6349 11.7803C19.5012 11.921 19.3198 12 19.1307 12H4.86932C4.6802 12 4.49883 11.921 4.3651 11.7803C4.23138 11.6397 4.15625 11.4489 4.15625 11.25ZM4.15625 5.25C4.15625 5.05109 4.23138 4.86032 4.3651 4.71967C4.49883 4.57902 4.6802 4.5 4.86932 4.5H19.1307C19.3198 4.5 19.5012 4.57902 19.6349 4.71967C19.7686 4.86032 19.8438 5.05109 19.8438 5.25C19.8438 5.44891 19.7686 5.63968 19.6349 5.78033C19.5012 5.92098 19.3198 6 19.1307 6H4.86932C4.6802 6 4.49883 5.92098 4.3651 5.78033C4.23138 5.63968 4.15625 5.44891 4.15625 5.25Z" fill="white"/>
</svg>
