<svg width="17" height="17" viewBox="0 0 17 17" fill="none" xmlns="http://www.w3.org/2000/svg">
<g clip-path="url(#clip0_353_368)">
<path fill-rule="evenodd" clip-rule="evenodd" d="M13.7126 2.05762H1.99158C1.73253 2.05762 1.48409 2.16297 1.30092 2.35051C1.11774 2.53805 1.01483 2.7924 1.01483 3.05762V12.0576L3.59931 9.70362C3.67914 9.62218 3.78403 9.57152 3.89618 9.56022C4.00834 9.54892 4.12086 9.57768 4.21466 9.64162L6.81281 11.4146L10.4366 7.70462C10.509 7.63039 10.6024 7.58137 10.7035 7.5645C10.8047 7.54763 10.9084 7.56377 11.0001 7.61062L14.6893 9.55762V3.05762C14.6893 2.7924 14.5864 2.53805 14.4032 2.35051C14.2201 2.16297 13.9716 2.05762 13.7126 2.05762V2.05762ZM1.99158 1.05762C1.47348 1.05762 0.976604 1.26833 0.610252 1.6434C0.2439 2.01848 0.0380859 2.52718 0.0380859 3.05762V13.0576C0.0380859 13.5881 0.2439 14.0968 0.610252 14.4718C0.976604 14.8469 1.47348 15.0576 1.99158 15.0576H13.7126C13.9691 15.0576 14.2231 15.0059 14.4601 14.9054C14.6971 14.8049 14.9125 14.6575 15.0939 14.4718C15.2753 14.2861 15.4192 14.0656 15.5174 13.823C15.6155 13.5803 15.6661 13.3203 15.6661 13.0576V3.05762C15.6661 2.52718 15.4602 2.01848 15.0939 1.6434C14.7275 1.26833 14.2307 1.05762 13.7126 1.05762H1.99158V1.05762ZM5.89858 5.55762C5.89858 5.7546 5.86068 5.94965 5.78705 6.13164C5.71342 6.31363 5.6055 6.47899 5.46945 6.61828C5.3334 6.75757 5.17189 6.86805 4.99413 6.94344C4.81638 7.01882 4.62586 7.05762 4.43345 7.05762C4.24105 7.05762 4.05053 7.01882 3.87278 6.94344C3.69502 6.86805 3.5335 6.75757 3.39746 6.61828C3.26141 6.47899 3.15349 6.31363 3.07986 6.13164C3.00623 5.94965 2.96833 5.7546 2.96833 5.55762C2.96833 5.15979 3.12269 4.77826 3.39746 4.49696C3.67222 4.21565 4.04488 4.05762 4.43345 4.05762C4.82203 4.05762 5.19469 4.21565 5.46945 4.49696C5.74422 4.77826 5.89858 5.15979 5.89858 5.55762V5.55762Z" fill="black"/>
</g>
<defs>
<clipPath id="clip0_353_368">
<rect width="16.6047" height="16" fill="white" transform="translate(0.0361328 0.0576172)"/>
</clipPath>
</defs>
</svg>
