<svg width="116" height="116" viewBox="0 0 116 116" fill="none" xmlns="http://www.w3.org/2000/svg">
<path d="M25.2169 56.7041C25.9958 52.6982 26.3853 50.6952 27.3147 49.1331C28.554 47.0503 30.4792 45.4634 32.7602 44.6445C34.471 44.0303 36.5115 44.0303 40.5925 44.0303L75.6838 44.0303C79.7648 44.0303 81.8053 44.0303 83.5161 44.6445C85.7972 45.4634 87.7223 47.0503 88.9616 49.1331C89.8911 50.6952 90.2805 52.6982 91.0595 56.7041C92.1631 62.38 92.7149 65.2179 92.1393 67.485C91.3717 70.5078 89.2933 73.0292 86.4726 74.3596C84.3571 75.3574 81.466 75.3574 75.6839 75.3574H40.5925C34.8103 75.3574 31.9192 75.3574 29.8037 74.3596C26.983 73.0292 24.9046 70.5078 24.1371 67.485C23.5614 65.2179 24.1132 62.38 25.2169 56.7041Z" fill="url(#paint0_linear_100_1929)"/>
<g filter="url(#filter0_b_100_1929)">
<circle cx="58.5892" cy="37.7299" r="19.7767" fill="#B9DDFF" fill-opacity="0.6"/>
<circle cx="58.5892" cy="37.7299" r="19.5376" stroke="url(#paint1_linear_100_1929)" stroke-width="0.478371"/>
</g>
<g filter="url(#filter1_b_100_1929)">
<path d="M25.6914 83.026C25.6914 83.026 25.6914 83.026 25.6914 83.026C25.6914 92.0003 32.9665 99.2754 41.9408 99.2754C41.9408 99.2754 41.9408 99.2754 41.9408 99.2754L74.4395 99.2754C74.4395 99.2754 74.4395 99.2754 74.4395 99.2754C83.4137 99.2754 90.6888 92.0003 90.6888 83.0261C90.6888 83.0261 90.6888 83.0261 90.6888 83.026C90.6888 83.026 90.6888 83.026 90.6888 83.026C90.6888 71.0603 80.9887 61.3602 69.023 61.3602C69.023 61.3602 69.0209 61.3602 69.0166 61.3602C61.2955 61.3602 55.0847 61.3602 47.3636 61.3602C47.3593 61.3602 47.3572 61.3602 47.3572 61.3602C35.3915 61.3602 25.6914 71.0603 25.6914 83.026C25.6914 83.026 25.6914 83.026 25.6914 83.026Z" fill="#B9DDFF" fill-opacity="0.6"/>
<path d="M25.9306 83.026C25.9306 91.8682 33.0986 99.0362 41.9408 99.0362L74.4395 99.0362C83.2816 99.0362 90.4496 91.8682 90.4496 83.0261C90.4496 71.1924 80.8566 61.5994 69.023 61.5994L69.023 61.5994L69.023 61.5994L69.0229 61.5994L69.0229 61.5994L69.0229 61.5994L69.0228 61.5994L69.0228 61.5994L69.0228 61.5994L69.0228 61.5994L69.0227 61.5994L69.0227 61.5994L69.0227 61.5994L69.0226 61.5994L69.0226 61.5994L69.0226 61.5994L69.0225 61.5994L69.0225 61.5994L69.0225 61.5994L69.0224 61.5994L69.0224 61.5994L69.0224 61.5994L69.0223 61.5994L69.0223 61.5994L69.0223 61.5994L69.0222 61.5994L69.0222 61.5994L69.0222 61.5994L69.0221 61.5994L69.0221 61.5994L69.0221 61.5994L69.022 61.5994L69.022 61.5994L69.022 61.5994L69.0219 61.5994L69.0219 61.5994L69.0219 61.5994L69.0218 61.5994L69.0218 61.5994L69.0218 61.5994L69.0217 61.5994L69.0217 61.5994L69.0217 61.5994L69.0216 61.5994L69.0216 61.5994L69.0216 61.5994L69.0215 61.5994L69.0215 61.5994L69.0215 61.5994L69.0214 61.5994L69.0214 61.5994L69.0213 61.5994L69.0213 61.5994L69.0213 61.5994L69.0212 61.5994L69.0212 61.5994L69.0211 61.5994L69.0211 61.5994L69.0211 61.5994L69.021 61.5994L69.021 61.5994L69.0209 61.5994L69.0209 61.5994L69.0209 61.5994L69.0208 61.5994L69.0208 61.5994L69.0208 61.5994L69.0207 61.5994L69.0207 61.5994L69.0207 61.5994L69.0206 61.5994L69.0206 61.5994L69.0206 61.5994L69.0205 61.5994L69.0205 61.5994L69.0205 61.5994L69.0204 61.5994L69.0204 61.5994L69.0204 61.5994L69.0203 61.5994L69.0203 61.5994L69.0203 61.5994L69.0202 61.5994L69.0202 61.5994L69.0202 61.5994L69.0201 61.5994L69.0201 61.5994L69.0201 61.5994L69.02 61.5994L69.02 61.5994L69.02 61.5994L69.0199 61.5994L69.0199 61.5994L69.0199 61.5994L69.0198 61.5994L69.0198 61.5994L69.0198 61.5994L69.0197 61.5994L69.0197 61.5994L69.0197 61.5994L69.0196 61.5994L69.0196 61.5994L69.0195 61.5994L69.0195 61.5994L69.0195 61.5994L69.0194 61.5994L69.0194 61.5994L69.0194 61.5994L69.0193 61.5994L69.0193 61.5994L69.0192 61.5994L69.0192 61.5994L69.0192 61.5994L69.0191 61.5994L69.0191 61.5994L69.0191 61.5994L69.019 61.5994L69.019 61.5994L69.0189 61.5994L69.0189 61.5994L69.0189 61.5994L69.0188 61.5994L69.0188 61.5994L69.0187 61.5994L69.0187 61.5994L69.0187 61.5994L69.0186 61.5994L69.0186 61.5994L69.0185 61.5994L69.0185 61.5994L69.0184 61.5994L69.0184 61.5994L69.0184 61.5994L69.0183 61.5994L69.0183 61.5994L69.0182 61.5994L69.0182 61.5994L69.0181 61.5994L69.0181 61.5994L69.0181 61.5994L69.018 61.5994L69.018 61.5994L69.0179 61.5994L69.0179 61.5994L69.0178 61.5994L69.0178 61.5994L69.0177 61.5994L69.0177 61.5994L69.0176 61.5994L69.0176 61.5994L69.0176 61.5994L69.0175 61.5994L69.0175 61.5994L69.0174 61.5994L69.0174 61.5994L69.0173 61.5994L69.0173 61.5994L69.0172 61.5994L69.0172 61.5994L69.0171 61.5994L69.0171 61.5994L69.017 61.5994L69.017 61.5994L69.0169 61.5994L69.0169 61.5994L69.0168 61.5994L69.0168 61.5994L69.0167 61.5994L69.0167 61.5994L69.0166 61.5994L68.9714 61.5994L68.9262 61.5994L68.8811 61.5994L68.836 61.5994L68.7909 61.5994L68.7458 61.5994L68.7008 61.5994L68.6558 61.5994L68.6109 61.5994L68.5659 61.5994L68.5211 61.5994L68.4762 61.5994L68.4314 61.5994L68.3866 61.5994L68.3418 61.5994L68.2971 61.5994L68.2524 61.5994L68.2078 61.5994L68.1632 61.5994L68.1186 61.5994L68.074 61.5994L68.0295 61.5994L67.985 61.5994L67.9405 61.5994L67.8961 61.5994L67.8517 61.5994L67.8073 61.5994L67.763 61.5994L67.7186 61.5994L67.6744 61.5994L67.6301 61.5994L67.5859 61.5994L67.5417 61.5994L67.4975 61.5994L67.4534 61.5994L67.4093 61.5994L67.3653 61.5994L67.3212 61.5994L67.2772 61.5994L67.2332 61.5994L67.1893 61.5994L67.1453 61.5994L67.1015 61.5994L67.0576 61.5994L67.0138 61.5994L66.9699 61.5994L66.9262 61.5994L66.8824 61.5994L66.8387 61.5994L66.795 61.5994L66.7513 61.5994L66.7077 61.5994L66.6641 61.5994L66.6205 61.5994L66.5769 61.5994L66.5334 61.5994L66.4899 61.5994L66.4464 61.5994L66.403 61.5994L66.3595 61.5994L66.3161 61.5994L66.2728 61.5994L66.2294 61.5994L66.1861 61.5994L66.1428 61.5994L66.0996 61.5994L66.0563 61.5994L66.0131 61.5994L65.9699 61.5994L65.9267 61.5994L65.8836 61.5994L65.8405 61.5994L65.7974 61.5994L65.7543 61.5994L65.7113 61.5994L65.6683 61.5994L65.6253 61.5994L65.5823 61.5994L65.5394 61.5994L65.4965 61.5994L65.4536 61.5994L65.4107 61.5994L65.3678 61.5994L65.325 61.5994L65.2822 61.5994L65.2394 61.5994L65.1967 61.5994L65.154 61.5994L65.1112 61.5994L65.0686 61.5994L65.0259 61.5994L64.9832 61.5994L64.9406 61.5994L64.898 61.5994L64.8554 61.5994L64.8129 61.5994L64.7704 61.5994L64.7278 61.5994L64.6854 61.5994L64.6429 61.5994L64.6004 61.5994L64.558 61.5994L64.5156 61.5994L64.4732 61.5994L64.4308 61.5994L64.3885 61.5994L64.3462 61.5994L64.3039 61.5994L64.2616 61.5994L64.2193 61.5994L64.1771 61.5994L64.1348 61.5994L64.0926 61.5994L64.0505 61.5994L64.0083 61.5994L63.9661 61.5994L63.924 61.5994L63.8819 61.5994L63.8398 61.5994L63.7977 61.5994L63.7557 61.5994L63.7136 61.5994L63.6716 61.5994L63.6296 61.5994L63.5876 61.5994L63.5457 61.5994L63.5037 61.5994L63.4618 61.5994L63.4199 61.5994L63.378 61.5994L63.3361 61.5994L63.2942 61.5994L63.2524 61.5994L63.2106 61.5994L63.1687 61.5994L63.1269 61.5994L63.0852 61.5994L63.0434 61.5994L63.0017 61.5994L62.9599 61.5994L62.9182 61.5994L62.8765 61.5994L62.8348 61.5994L62.7932 61.5994L62.7515 61.5994L62.7099 61.5994L62.6682 61.5994L62.6266 61.5994L62.585 61.5994L62.5434 61.5994L62.5019 61.5994L62.4603 61.5994L62.4188 61.5994L62.3773 61.5994L62.3357 61.5994L62.2942 61.5994L62.2528 61.5994L62.2113 61.5994L62.1698 61.5994L62.1284 61.5994L62.087 61.5994L62.0455 61.5994L62.0041 61.5994L61.9627 61.5994L61.9214 61.5994L61.88 61.5994L61.8386 61.5994L61.7973 61.5994L61.7559 61.5994L61.7146 61.5994L61.6733 61.5994L61.632 61.5994L61.5907 61.5994L61.5495 61.5994L61.5082 61.5994L61.4669 61.5994L61.4257 61.5994L61.3845 61.5994L61.3432 61.5994L61.302 61.5994L61.2608 61.5994L61.2196 61.5994L61.1785 61.5994L61.1373 61.5994L61.0961 61.5994L61.055 61.5994L61.0138 61.5994L60.9727 61.5994L60.9316 61.5994L60.8905 61.5994L60.8493 61.5994L60.8083 61.5994L60.7672 61.5994L60.7261 61.5994L60.685 61.5994L60.644 61.5994L60.6029 61.5994L60.5618 61.5994L60.5208 61.5994L60.4798 61.5994L60.4388 61.5994L60.3977 61.5994L60.3567 61.5994L60.3157 61.5994L60.2747 61.5994L60.2337 61.5994L60.1928 61.5994L60.1518 61.5994L60.1108 61.5994L60.0699 61.5994L60.0289 61.5994L59.9879 61.5994L59.947 61.5994L59.9061 61.5994L59.8651 61.5994L59.8242 61.5994L59.7833 61.5994L59.7424 61.5994L59.7015 61.5994L59.6606 61.5994L59.6197 61.5994L59.5788 61.5994L59.5379 61.5994L59.497 61.5994L59.4561 61.5994L59.4152 61.5994L59.3743 61.5994L59.3335 61.5994L59.2926 61.5994L59.2517 61.5994L59.2109 61.5994L59.17 61.5994L59.1292 61.5994L59.0883 61.5994L59.0475 61.5994L59.0066 61.5994L58.9658 61.5994L58.9249 61.5994L58.8841 61.5994L58.8433 61.5994L58.8024 61.5994L58.7616 61.5994L58.7208 61.5994L58.6799 61.5994L58.6391 61.5994L58.5983 61.5994L58.5575 61.5994L58.5167 61.5994L58.4758 61.5994L58.435 61.5994L58.3942 61.5994L58.3534 61.5994L58.3126 61.5994L58.2718 61.5994L58.2309 61.5994L58.1901 61.5994L58.1493 61.5994L58.1085 61.5994L58.0677 61.5994L58.0269 61.5994L57.986 61.5994L57.9452 61.5994L57.9044 61.5994L57.8636 61.5994L57.8228 61.5994L57.7819 61.5994L57.7411 61.5994L57.7003 61.5994L57.6595 61.5994L57.6186 61.5994L57.5778 61.5994L57.537 61.5994L57.4961 61.5994L57.4553 61.5994L57.4145 61.5994L57.3736 61.5994L57.3328 61.5994L57.2919 61.5994L57.2511 61.5994L57.2102 61.5994L57.1694 61.5994L57.1285 61.5994L57.0876 61.5994L57.0468 61.5994L57.0059 61.5994L56.965 61.5994L56.9241 61.5994L56.8833 61.5994L56.8424 61.5994L56.8015 61.5994L56.7606 61.5994L56.7197 61.5994L56.6788 61.5994L56.6379 61.5994L56.597 61.5994L56.556 61.5994L56.5151 61.5994L56.4742 61.5994L56.4332 61.5994L56.3923 61.5994L56.3513 61.5994L56.3104 61.5994L56.2694 61.5994L56.2285 61.5994L56.1875 61.5994L56.1465 61.5994L56.1055 61.5994L56.0645 61.5994L56.0235 61.5994L55.9825 61.5994L55.9415 61.5994L55.9005 61.5994L55.8594 61.5994L55.8184 61.5994L55.7773 61.5994L55.7363 61.5994L55.6952 61.5994L55.6542 61.5994L55.6131 61.5994L55.572 61.5994L55.5309 61.5994L55.4898 61.5994L55.4487 61.5994L55.4075 61.5994L55.3664 61.5994L55.3253 61.5994L55.2841 61.5994L55.243 61.5994L55.2018 61.5994L55.1606 61.5994L55.1194 61.5994L55.0782 61.5994L55.037 61.5994L54.9958 61.5994L54.9545 61.5994L54.9133 61.5994L54.872 61.5994L54.8308 61.5994L54.7895 61.5994L54.7482 61.5994L54.7069 61.5994L54.6656 61.5994L54.6243 61.5994L54.583 61.5994L54.5416 61.5994L54.5003 61.5994L54.4589 61.5994L54.4175 61.5994L54.3761 61.5994L54.3347 61.5994L54.2933 61.5994L54.2519 61.5994L54.2104 61.5994L54.1689 61.5994L54.1275 61.5994L54.086 61.5994L54.0445 61.5994L54.003 61.5994L53.9615 61.5994L53.9199 61.5994L53.8784 61.5994L53.8368 61.5994L53.7952 61.5994L53.7536 61.5994L53.712 61.5994L53.6704 61.5994L53.6287 61.5994L53.5871 61.5994L53.5454 61.5994L53.5037 61.5994L53.462 61.5994L53.4203 61.5994L53.3786 61.5994L53.3368 61.5994L53.2951 61.5994L53.2533 61.5994L53.2115 61.5994L53.1697 61.5994L53.1278 61.5994L53.086 61.5994L53.0441 61.5994L53.0023 61.5994L52.9604 61.5994L52.9184 61.5994L52.8765 61.5994L52.8346 61.5994L52.7926 61.5994L52.7506 61.5994L52.7086 61.5994L52.6666 61.5994L52.6246 61.5994L52.5825 61.5994L52.5404 61.5994L52.4983 61.5994L52.4562 61.5994L52.4141 61.5994L52.3719 61.5994L52.3298 61.5994L52.2876 61.5994L52.2454 61.5994L52.2032 61.5994L52.1609 61.5994L52.1186 61.5994L52.0764 61.5994L52.0341 61.5994L51.9917 61.5994L51.9494 61.5994L51.907 61.5994L51.8646 61.5994L51.8222 61.5994L51.7798 61.5994L51.7374 61.5994L51.6949 61.5994L51.6524 61.5994L51.6099 61.5994L51.5673 61.5994L51.5248 61.5994L51.4822 61.5994L51.4396 61.5994L51.397 61.5994L51.3544 61.5994L51.3117 61.5994L51.269 61.5994L51.2263 61.5994L51.1836 61.5994L51.1408 61.5994L51.098 61.5994L51.0552 61.5994L51.0124 61.5994L50.9695 61.5994L50.9267 61.5994L50.8838 61.5994L50.8409 61.5994L50.7979 61.5994L50.7549 61.5994L50.712 61.5994L50.6689 61.5994L50.6259 61.5994L50.5828 61.5994L50.5397 61.5994L50.4966 61.5994L50.4535 61.5994L50.4103 61.5994L50.3671 61.5994L50.3239 61.5994L50.2807 61.5994L50.2374 61.5994L50.1941 61.5994L50.1508 61.5994L50.1075 61.5994L50.0641 61.5994L50.0207 61.5994L49.9773 61.5994L49.9338 61.5994L49.8903 61.5994L49.8468 61.5994L49.8033 61.5994L49.7597 61.5994L49.7162 61.5994L49.6726 61.5994L49.6289 61.5994L49.5852 61.5994L49.5415 61.5994L49.4978 61.5994L49.4541 61.5994L49.4103 61.5994L49.3665 61.5994L49.3226 61.5994L49.2788 61.5994L49.2349 61.5994L49.191 61.5994L49.147 61.5994L49.103 61.5994L49.059 61.5994L49.015 61.5994L48.9709 61.5994L48.9268 61.5994L48.8827 61.5994L48.8385 61.5994L48.7943 61.5994L48.7501 61.5994L48.7059 61.5994L48.6616 61.5994L48.6173 61.5994L48.5729 61.5994L48.5286 61.5994L48.4842 61.5994L48.4397 61.5994L48.3953 61.5994L48.3508 61.5994L48.3062 61.5994L48.2617 61.5994L48.2171 61.5994L48.1725 61.5994L48.1278 61.5994L48.0831 61.5994L48.0384 61.5994L47.9936 61.5994L47.9489 61.5994L47.904 61.5994L47.8592 61.5994L47.8143 61.5994L47.7694 61.5994L47.7244 61.5994L47.6794 61.5994L47.6344 61.5994L47.5894 61.5994L47.5443 61.5994L47.4992 61.5994L47.454 61.5994L47.4088 61.5994L47.3636 61.5994L47.3635 61.5994L47.3635 61.5994L47.3634 61.5994L47.3634 61.5994L47.3633 61.5994L47.3633 61.5994L47.3632 61.5994L47.3632 61.5994L47.3632 61.5994L47.3631 61.5994L47.3631 61.5994L47.363 61.5994L47.363 61.5994L47.3629 61.5994L47.3629 61.5994L47.3628 61.5994L47.3628 61.5994L47.3627 61.5994L47.3627 61.5994L47.3626 61.5994L47.3626 61.5994L47.3625 61.5994L47.3625 61.5994L47.3625 61.5994L47.3624 61.5994L47.3624 61.5994L47.3623 61.5994L47.3623 61.5994L47.3622 61.5994L47.3622 61.5994L47.3621 61.5994L47.3621 61.5994L47.3621 61.5994L47.362 61.5994L47.362 61.5994L47.3619 61.5994L47.3619 61.5994L47.3618 61.5994L47.3618 61.5994L47.3618 61.5994L47.3617 61.5994L47.3617 61.5994L47.3616 61.5994L47.3616 61.5994L47.3615 61.5994L47.3615 61.5994L47.3615 61.5994L47.3614 61.5994L47.3614 61.5994L47.3613 61.5994L47.3613 61.5994L47.3613 61.5994L47.3612 61.5994L47.3612 61.5994L47.3611 61.5994L47.3611 61.5994L47.3611 61.5994L47.361 61.5994L47.361 61.5994L47.361 61.5994L47.3609 61.5994L47.3609 61.5994L47.3608 61.5994L47.3608 61.5994L47.3608 61.5994L47.3607 61.5994L47.3607 61.5994L47.3607 61.5994L47.3606 61.5994L47.3606 61.5994L47.3605 61.5994L47.3605 61.5994L47.3605 61.5994L47.3604 61.5994L47.3604 61.5994L47.3604 61.5994L47.3603 61.5994L47.3603 61.5994L47.3603 61.5994L47.3602 61.5994L47.3602 61.5994L47.3602 61.5994L47.3601 61.5994L47.3601 61.5994L47.3601 61.5994L47.36 61.5994L47.36 61.5994L47.36 61.5994L47.3599 61.5994L47.3599 61.5994L47.3599 61.5994L47.3598 61.5994L47.3598 61.5994L47.3598 61.5994L47.3597 61.5994L47.3597 61.5994L47.3597 61.5994L47.3596 61.5994L47.3596 61.5994L47.3596 61.5994L47.3596 61.5994L47.3595 61.5994L47.3595 61.5994L47.3595 61.5994L47.3594 61.5994L47.3594 61.5994L47.3594 61.5994L47.3593 61.5994L47.3593 61.5994L47.3593 61.5994L47.3593 61.5994L47.3592 61.5994L47.3592 61.5994L47.3592 61.5994L47.3591 61.5994L47.3591 61.5994L47.3591 61.5994L47.359 61.5994L47.359 61.5994L47.3589 61.5994L47.3589 61.5994L47.3589 61.5994L47.3588 61.5994L47.3588 61.5994L47.3587 61.5994L47.3587 61.5994L47.3587 61.5994L47.3586 61.5994L47.3586 61.5994L47.3586 61.5994L47.3585 61.5994L47.3585 61.5994L47.3585 61.5994L47.3584 61.5994L47.3584 61.5994L47.3584 61.5994L47.3583 61.5994L47.3583 61.5994L47.3583 61.5994L47.3582 61.5994L47.3582 61.5994L47.3582 61.5994L47.3582 61.5994L47.3581 61.5994L47.3581 61.5994L47.3581 61.5994L47.358 61.5994L47.358 61.5994L47.358 61.5994L47.3579 61.5994L47.3579 61.5994L47.3579 61.5994L47.3578 61.5994L47.3578 61.5994L47.3578 61.5994L47.3577 61.5994L47.3577 61.5994L47.3577 61.5994L47.3576 61.5994L47.3576 61.5994L47.3576 61.5994L47.3575 61.5994L47.3575 61.5994L47.3575 61.5994L47.3575 61.5994L47.3574 61.5994L47.3574 61.5994L47.3574 61.5994L47.3573 61.5994L47.3573 61.5994L47.3573 61.5994L47.3572 61.5994L47.3572 61.5994C35.5236 61.5994 25.9306 71.1924 25.9306 83.026Z" stroke="url(#paint2_linear_100_1929)" stroke-width="0.478371"/>
</g>
<defs>
<filter id="filter0_b_100_1929" x="28.5599" y="7.7005" width="60.0599" height="60.059" filterUnits="userSpaceOnUse" color-interpolation-filters="sRGB">
<feFlood flood-opacity="0" result="BackgroundImageFix"/>
<feGaussianBlur in="BackgroundImageFix" stdDeviation="5.12631"/>
<feComposite in2="SourceAlpha" operator="in" result="effect1_backgroundBlur_100_1929"/>
<feBlend mode="normal" in="SourceGraphic" in2="effect1_backgroundBlur_100_1929" result="shape"/>
</filter>
<filter id="filter1_b_100_1929" x="15.4388" y="51.1077" width="85.5013" height="58.4203" filterUnits="userSpaceOnUse" color-interpolation-filters="sRGB">
<feFlood flood-opacity="0" result="BackgroundImageFix"/>
<feGaussianBlur in="BackgroundImageFix" stdDeviation="5.12631"/>
<feComposite in2="SourceAlpha" operator="in" result="effect1_backgroundBlur_100_1929"/>
<feBlend mode="normal" in="SourceGraphic" in2="effect1_backgroundBlur_100_1929" result="shape"/>
</filter>
<linearGradient id="paint0_linear_100_1929" x1="42.6754" y1="50.8831" x2="80.8289" y2="81.4979" gradientUnits="userSpaceOnUse">
<stop stop-color="#7FC0FB"/>
<stop offset="1" stop-color="#4088F4"/>
</linearGradient>
<linearGradient id="paint1_linear_100_1929" x1="36.8348" y1="20.7784" x2="65.4278" y2="64.4477" gradientUnits="userSpaceOnUse">
<stop stop-color="white"/>
<stop offset="0.765625" stop-color="white" stop-opacity="0"/>
</linearGradient>
<linearGradient id="paint2_linear_100_1929" x1="22.4415" y1="96.5672" x2="42.3763" y2="44.3745" gradientUnits="userSpaceOnUse">
<stop stop-color="white"/>
<stop offset="0.765625" stop-color="white" stop-opacity="0"/>
</linearGradient>
</defs>
</svg>
