<svg width="19" height="20" viewBox="0 0 19 20" fill="none" xmlns="http://www.w3.org/2000/svg">
<g clip-path="url(#clip0_353_278)">
<path d="M16.6004 3.98423L11.859 17.2221C11.8025 17.3786 11.654 17.4828 11.4876 17.4829H11.3612C11.206 17.4829 11.0646 17.3937 10.9977 17.2537L9.13273 13.3021C8.85812 12.7195 8.96441 12.0286 9.40141 11.5555L11.7721 8.96325C11.9176 8.8106 11.9176 8.57058 11.7721 8.41793L11.4718 8.11761C11.3192 7.97209 11.0792 7.97209 10.9266 8.11761L8.33459 10.4886C7.86156 10.9256 7.17069 11.0319 6.58818 10.7573L2.637 8.89212C2.48463 8.83475 2.38175 8.69132 2.37623 8.52858V8.40213C2.36223 8.22431 2.46908 8.05916 2.637 7.99906L15.8734 3.25714C16.0157 3.20488 16.1754 3.23865 16.2844 3.34407L16.4898 3.54956C16.6133 3.65745 16.6573 3.83042 16.6004 3.98423Z" fill="white"/>
</g>
<defs>
<clipPath id="clip0_353_278">
<rect width="19" height="19" fill="white" transform="translate(0.000976562 0.85791)"/>
</clipPath>
</defs>
</svg>
