<svg width="156" height="157" viewBox="0 0 156 157" fill="none" xmlns="http://www.w3.org/2000/svg">
<path d="M10.2408 102.113C11.3155 112.857 19.8435 121.573 30.5615 122.882C38.6159 123.865 46.8874 124.713 55.3214 124.713C63.7555 124.713 72.0269 123.865 80.0814 122.882C90.7994 121.573 99.3274 112.857 100.402 102.113C101.331 92.8252 102.156 83.2668 102.156 73.5087C102.156 63.7506 101.331 54.1922 100.402 44.9043C99.3274 34.1604 90.7994 25.4441 80.0814 24.1357C72.0269 23.1524 63.7555 22.3047 55.3215 22.3047C46.8874 22.3047 38.6159 23.1524 30.5614 24.1357C19.8435 25.4441 11.3155 34.1604 10.2408 44.9043C9.31164 54.1922 8.4873 63.7506 8.4873 73.5087C8.4873 83.2668 9.31164 92.8252 10.2408 102.113Z" fill="white"/>
<path d="M99.5644 40.6504C96.9693 31.9284 89.343 25.2663 80.0814 24.1357C72.027 23.1524 63.7555 22.3047 55.3215 22.3047C46.8874 22.3047 38.6159 23.1524 30.5614 24.1357C19.8435 25.4441 11.3155 34.1604 10.2408 44.9043C9.31164 54.1922 8.4873 63.7506 8.4873 73.5087C8.4873 83.2668 9.31164 92.8252 10.2408 102.113C11.3155 112.857 19.8435 121.573 30.5614 122.882C34.4679 123.359 38.4253 123.804 42.4276 124.136" stroke="#EBEBEB" stroke-width="16.7764" stroke-linecap="round"/>
<path d="M30.6812 23.4396C30.6812 31.3555 38.2143 37.3058 46.1179 37.745C49.1371 37.9127 52.2083 38.0316 55.3215 38.0316C58.4348 38.0316 61.5059 37.9127 64.5251 37.745C72.4287 37.3058 79.9619 31.3555 79.9619 23.4396C79.9619 15.5238 72.4287 9.57344 64.5251 9.13432C61.5059 8.96657 58.4348 8.84766 55.3215 8.84766C52.2082 8.84766 49.1371 8.96657 46.1179 9.13432C38.2143 9.57344 30.6812 15.5238 30.6812 23.4396Z" fill="#F8F8F8" stroke="#EBEBEB" stroke-width="16.7764"/>
<path d="M71.1315 126.111C72.1497 136.86 80.7236 145.655 91.4522 146.874C97.1164 147.517 102.903 148.015 108.785 148.015C114.667 148.015 120.454 147.517 126.118 146.874C136.847 145.655 145.421 136.86 146.439 126.111C147.073 119.422 147.581 112.572 147.581 105.6C147.581 98.6272 147.073 91.7777 146.439 85.089C145.421 74.3396 136.847 65.5445 126.118 64.3258C120.454 63.6823 114.667 63.1846 108.785 63.1846C102.903 63.1846 97.1164 63.6823 91.4522 64.3258C80.7236 65.5445 72.1497 74.3396 71.1315 85.089C70.4978 91.7777 69.9897 98.6272 69.9897 105.6C69.9897 112.572 70.4978 119.422 71.1315 126.111Z" fill="#F8F8F8" stroke="#EBEBEB" stroke-width="16.7764"/>
<path d="M120.516 93.5703L97.0609 93.5703" stroke="#EBEBEB" stroke-width="16.7764" stroke-linecap="round"/>
<path d="M120.516 119.98L97.0609 119.98" stroke="#EBEBEB" stroke-width="16.7764" stroke-linecap="round"/>
</svg>
