<svg width="150" height="148" viewBox="0 0 150 148" fill="none" xmlns="http://www.w3.org/2000/svg">
<path d="M100.421 74.0892C114.427 74.0892 125.781 62.7353 125.781 48.7297C125.781 34.724 114.427 23.3701 100.421 23.3701C86.4154 23.3701 75.0615 34.724 75.0615 48.7297C75.0615 62.7353 86.4154 74.0892 100.421 74.0892Z" fill="white"/>
<path d="M100.416 74.0853C114.422 74.0853 125.776 62.7315 125.776 48.7258C125.776 37.8915 118.981 28.6442 109.421 25.0117" stroke="#EBEBEB" stroke-width="16.6655" stroke-linecap="round" stroke-linejoin="round"/>
<path d="M135.055 109.71C147.46 117.972 139.084 133.906 124.18 133.906H68.2102C53.3061 133.906 44.9299 117.972 57.3345 109.71C68.4612 102.299 81.8237 97.9805 96.1949 97.9805C110.566 97.9805 123.929 102.299 135.055 109.71Z" fill="white"/>
<path d="M57.7463 69.0581C72.9283 69.0581 85.2358 56.7506 85.2358 41.5686C85.2358 26.3866 72.9283 14.0791 57.7463 14.0791C42.5643 14.0791 30.2568 26.3866 30.2568 41.5686C30.2568 56.7506 42.5643 69.0581 57.7463 69.0581Z" fill="white" stroke="#EBEBEB" stroke-width="16.6655" stroke-linecap="round" stroke-linejoin="round"/>
<path d="M99.8532 107.68C113.3 116.635 104.22 133.908 88.064 133.908H27.3938C11.2379 133.908 2.15815 116.635 15.6046 107.68C27.6658 99.6465 42.1506 94.9648 57.7289 94.9648C73.3072 94.9648 87.792 99.6465 99.8532 107.68Z" fill="white" stroke="#EBEBEB" stroke-width="16.6655"/>
<path d="M85.7256 133.908H124.18C139.084 133.908 147.46 117.973 135.056 109.711C131.63 107.43 127.993 105.442 124.18 103.782" stroke="#EBEBEB" stroke-width="16.6655" stroke-linecap="round"/>
</svg>
