<svg width="25" height="25" viewBox="0 0 25 25" fill="none" xmlns="http://www.w3.org/2000/svg">
<g clip-path="url(#clip0_167_1262)">
<path d="M12.0781 2.76172C6.55528 2.76172 2.07812 7.23887 2.07812 12.7617C2.07812 18.2846 6.55528 22.7617 12.0781 22.7617C17.601 22.7617 22.0781 18.2846 22.0781 12.7617C22.0781 10.1096 21.0246 7.56601 19.1492 5.69065C17.2738 3.81529 14.7303 2.76172 12.0781 2.76172ZM12.0781 5.76172C13.735 5.76172 15.0781 7.10486 15.0781 8.76172C15.0781 10.4186 13.735 11.7617 12.0781 11.7617C10.4213 11.7617 9.07812 10.4186 9.07812 8.76172C9.07812 7.10486 10.4213 5.76172 12.0781 5.76172ZM17.6981 16.9217C16.3776 18.7001 14.2932 19.7485 12.0781 19.7485C9.86305 19.7485 7.77869 18.7001 6.45813 16.9217C6.25734 16.625 6.23064 16.2435 6.38812 15.9217L6.59812 15.4817C7.09301 14.4327 8.14825 13.763 9.30812 13.7617H14.8481C15.9917 13.7632 17.035 14.4148 17.5381 15.4417L17.7681 15.9117C17.9295 16.2362 17.9028 16.6226 17.6981 16.9217Z" fill="#333333"/>
</g>
<defs>
<clipPath id="clip0_167_1262">
<rect width="24" height="24" fill="white" transform="translate(0.078125 0.761719)"/>
</clipPath>
</defs>
</svg>
