<svg width="25" height="25" viewBox="0 0 25 25" fill="none" xmlns="http://www.w3.org/2000/svg">
<path d="M10.5781 20.7617H14.5781C14.5781 21.8663 13.6827 22.7617 12.5781 22.7617C11.4736 22.7617 10.5781 21.8663 10.5781 20.7617ZM19.4581 15.6417C18.8954 15.0796 18.5788 14.3171 18.5781 13.5217V10.7617C18.5781 9.4635 18.1571 8.2003 17.3781 7.16172L16.4781 5.96172C15.9116 5.2063 15.0224 4.76172 14.0781 4.76172H13.5781V3.26172C13.5781 2.98558 13.3543 2.76172 13.0781 2.76172H12.0781C11.802 2.76172 11.5781 2.98558 11.5781 3.26172V4.76172H11.0781C10.1339 4.76172 9.24469 5.2063 8.67813 5.96172L7.77813 7.16172C6.99919 8.2003 6.57813 9.4635 6.57813 10.7617V13.5217C6.57743 14.3171 6.26089 15.0796 5.69812 15.6417L4.86812 16.4717C4.68338 16.658 4.57923 16.9094 4.57812 17.1717V17.7617C4.57812 18.314 5.02584 18.7617 5.57812 18.7617H19.5781C20.1304 18.7617 20.5781 18.314 20.5781 17.7617V17.1717C20.577 16.9094 20.4729 16.658 20.2881 16.4717L19.4581 15.6417Z" fill="#333333"/>
</svg>
