<svg width="23" height="23" viewBox="0 0 23 23" fill="none" xmlns="http://www.w3.org/2000/svg">
<path d="M6.69685 21.1994C8.04633 21.2973 9.54396 21.3432 11.2377 21.3432C12.9315 21.3432 14.4291 21.2973 15.7786 21.1994C17.7936 21.0532 19.3694 19.4569 19.533 17.4432C19.6123 16.4664 19.6576 15.4712 19.6576 14.4543C19.6576 13.4374 19.6123 12.4422 19.533 11.4654C19.3694 9.45177 17.7936 7.85545 15.7786 7.70929C14.4291 7.61141 12.9315 7.56543 11.2377 7.56543C9.54396 7.56543 8.04633 7.61141 6.69685 7.70929C4.68183 7.85545 3.10599 9.45177 2.94244 11.4655C2.86311 12.4422 2.81787 13.4374 2.81787 14.4543C2.81787 15.4712 2.86311 16.4664 2.94244 17.4432C3.10599 19.4569 4.68183 21.0532 6.69685 21.1994Z" fill="#FFE1E1" stroke="#FF6D6D" stroke-width="2.35661"/>
<path d="M2.81787 12.9238H19.6576" stroke="#FF6D6D" stroke-width="2.35661"/>
<path d="M11.2378 21.3434V7.56543" stroke="#FF6D6D" stroke-width="2.35661"/>
<path d="M11.2378 7.53708L13.6275 3.69124C14.6549 2.03779 17.1049 2.11842 18.0195 3.83578C18.6874 5.08968 18.1763 6.64299 16.8914 7.26471L15.951 7.7197" stroke="#FF6D6D" stroke-width="2.35661" stroke-linecap="round" stroke-linejoin="round"/>
<path d="M11.2378 7.53708L8.84808 3.69124C7.82067 2.03779 5.37071 2.11842 4.45604 3.83578C3.78822 5.08968 4.29928 6.64299 5.58421 7.26471L6.52458 7.7197" stroke="#FF6D6D" stroke-width="2.35661" stroke-linecap="round" stroke-linejoin="round"/>
</svg>
