<svg width="23" height="23" viewBox="0 0 23 23" fill="none" xmlns="http://www.w3.org/2000/svg">
<path d="M7.13044 21.1994C8.47993 21.2973 9.97755 21.3432 11.6713 21.3432C13.3651 21.3432 14.8627 21.2973 16.2122 21.1994C18.2272 21.0532 19.803 19.4569 19.9666 17.4432C20.0459 16.4664 20.0911 15.4712 20.0911 14.4543C20.0911 13.4374 20.0459 12.4422 19.9666 11.4654C19.803 9.45177 18.2272 7.85545 16.2122 7.70929C14.8627 7.61141 13.3651 7.56543 11.6713 7.56543C9.97755 7.56543 8.47993 7.61141 7.13044 7.70929C5.11543 7.85545 3.53958 9.45177 3.37603 11.4655C3.2967 12.4422 3.25146 13.4374 3.25146 14.4543C3.25146 15.4712 3.2967 16.4664 3.37604 17.4432C3.53959 19.4569 5.11543 21.0532 7.13044 21.1994Z" fill="#EAEAEA" stroke="#999999" stroke-width="2.35661"/>
<path d="M3.25146 12.9238H20.0911" stroke="#999999" stroke-width="2.35661"/>
<path d="M11.6714 21.3434V7.56543" stroke="#999999" stroke-width="2.35661"/>
<path d="M11.6714 7.53708L14.0611 3.69124C15.0885 2.03779 17.5385 2.11842 18.4531 3.83578C19.121 5.08968 18.6099 6.64299 17.325 7.26471L16.3846 7.7197" stroke="#999999" stroke-width="2.35661" stroke-linecap="round" stroke-linejoin="round"/>
<path d="M11.6714 7.53708L9.28168 3.69124C8.25427 2.03779 5.8043 2.11842 4.88964 3.83578C4.22181 5.08968 4.73288 6.64299 6.01781 7.26471L6.95817 7.7197" stroke="#999999" stroke-width="2.35661" stroke-linecap="round" stroke-linejoin="round"/>
</svg>
