<svg width="27" height="26" viewBox="0 0 27 26" fill="none" xmlns="http://www.w3.org/2000/svg">
<path d="M1.13007 23.2158C0.515767 23.8301 0.515766 24.8261 1.13007 25.4404C1.74437 26.0547 2.74034 26.0547 3.35464 25.4404L13.3652 15.4298L23.3758 25.4404C23.9901 26.0547 24.9861 26.0547 25.6004 25.4404C26.2147 24.8261 26.2147 23.8301 25.6004 23.2158L15.5898 13.2052L25.6004 3.19461C26.2147 2.58031 26.2147 1.58433 25.6004 0.970033C24.9861 0.355732 23.9901 0.355734 23.3758 0.970033L13.3652 10.9806L3.35464 0.970031C2.74034 0.355732 1.74437 0.355731 1.13007 0.970031C0.515766 1.58433 0.515766 2.58031 1.13007 3.19461L11.1407 13.2052L1.13007 23.2158Z" fill="#999999"/>
</svg>
