<svg width="68" height="68" viewBox="0 0 68 68" fill="none" xmlns="http://www.w3.org/2000/svg">
<path d="M34.0013 0.541992C15.5918 0.541992 0.667969 15.4658 0.667969 33.8753C0.667969 52.2848 15.5918 67.2087 34.0013 67.2087C52.4108 67.2087 67.3346 52.2848 67.3346 33.8753C67.3346 25.0348 63.8227 16.5563 57.5715 10.3051C51.3203 4.05389 42.8419 0.541992 34.0013 0.541992ZM34.0013 10.542C39.5242 10.542 44.0013 15.0191 44.0013 20.542C44.0013 26.0648 39.5242 30.542 34.0013 30.542C28.4785 30.542 24.0013 26.0648 24.0013 20.542C24.0013 15.0191 28.4785 10.542 34.0013 10.542ZM52.7346 47.742C48.3328 53.6699 41.3849 57.1647 34.0013 57.1647C26.6177 57.1647 19.6698 53.6699 15.268 47.742C14.5987 46.7529 14.5097 45.4813 15.0346 44.4087L15.7346 42.942C17.3842 39.4453 20.9017 37.2128 24.768 37.2087H43.2346C47.0466 37.2137 50.5241 39.3856 52.2013 42.8087L52.968 44.3753C53.506 45.4569 53.4167 46.745 52.7346 47.742Z" fill="#999999"/>
</svg>
