<svg width="26" height="25" viewBox="0 0 26 25" fill="none" xmlns="http://www.w3.org/2000/svg">
<path fill-rule="evenodd" clip-rule="evenodd" d="M22.7163 2.62625H3.24769C2.81741 2.62625 2.40475 2.80113 2.1005 3.11243C1.79624 3.42373 1.62531 3.84594 1.62531 4.28618V19.2256L5.91814 15.3181C6.05074 15.183 6.22495 15.0989 6.41124 15.0801C6.59753 15.0613 6.78442 15.1091 6.94024 15.2152L11.2558 18.1583L17.2748 11.9999C17.3951 11.8767 17.5503 11.7953 17.7183 11.7673C17.8863 11.7393 18.0586 11.7661 18.2109 11.8439L24.3387 15.0758V4.28618C24.3387 3.84594 24.1677 3.42373 23.8635 3.11243C23.5592 2.80113 23.1466 2.62625 22.7163 2.62625ZM3.24769 0.966309C2.38713 0.966309 1.56181 1.31608 0.953299 1.93868C0.344788 2.56128 0.00292969 3.4057 0.00292969 4.28618V20.8856C0.00292969 21.766 0.344788 22.6105 0.953299 23.2331C1.56181 23.8557 2.38713 24.2054 3.24769 24.2054H22.7163C23.1424 24.2054 23.5643 24.1196 23.958 23.9527C24.3517 23.7859 24.7094 23.5413 25.0107 23.2331C25.312 22.9248 25.551 22.5588 25.7141 22.156C25.8771 21.7532 25.9611 21.3215 25.9611 20.8856V4.28618C25.9611 3.4057 25.6192 2.56128 25.0107 1.93868C24.4022 1.31608 23.5769 0.966309 22.7163 0.966309H3.24769ZM9.73723 8.43603C9.73723 8.76301 9.67428 9.08679 9.55198 9.38888C9.42968 9.69096 9.25043 9.96545 9.02445 10.1967C8.79847 10.4279 8.5302 10.6113 8.23494 10.7364C7.93969 10.8615 7.62323 10.9259 7.30365 10.9259C6.98407 10.9259 6.66762 10.8615 6.37236 10.7364C6.07711 10.6113 5.80883 10.4279 5.58285 10.1967C5.35688 9.96545 5.17762 9.69096 5.05532 9.38888C4.93302 9.08679 4.87008 8.76301 4.87008 8.43603C4.87008 7.77566 5.12647 7.14235 5.58285 6.6754C6.03924 6.20845 6.65823 5.94612 7.30365 5.94612C7.94908 5.94612 8.56806 6.20845 9.02445 6.6754C9.48083 7.14235 9.73723 7.77566 9.73723 8.43603Z" fill="black"/>
</svg>
