<svg width="11" height="20" viewBox="0 0 11 20" fill="none" xmlns="http://www.w3.org/2000/svg">
<path fill-rule="evenodd" clip-rule="evenodd" d="M10.6779 19.0773C10.61 19.1454 10.5294 19.1994 10.4407 19.2362C10.3519 19.273 10.2567 19.292 10.1606 19.292C10.0645 19.292 9.96935 19.273 9.88058 19.2362C9.79182 19.1994 9.71119 19.1454 9.64332 19.0773L0.875475 10.3095C0.807432 10.2416 0.753449 10.161 0.716615 10.0722C0.67978 9.98346 0.660818 9.8883 0.660818 9.79219C0.660818 9.69608 0.67978 9.60092 0.716615 9.51216C0.753449 9.42339 0.807432 9.34276 0.875475 9.27489L9.64332 0.507048C9.78051 0.36985 9.9666 0.292774 10.1606 0.292774C10.3546 0.292774 10.5407 0.36985 10.6779 0.507048C10.8151 0.644243 10.8922 0.830324 10.8922 1.02435C10.8922 1.21838 10.8151 1.40446 10.6779 1.54165L2.42592 9.79219L10.6779 18.0427C10.746 18.1106 10.8 18.1912 10.8368 18.28C10.8736 18.3688 10.8926 18.4639 10.8926 18.56C10.8926 18.6561 10.8736 18.7513 10.8368 18.8401C10.8 18.9288 10.746 19.0095 10.6779 19.0773Z" fill="#999999"/>
</svg>
