<svg width="98" height="99" viewBox="0 0 98 99" fill="none" xmlns="http://www.w3.org/2000/svg">
<circle cx="49.2344" cy="49.4609" r="48.6113" fill="#D9D9D9"/>
<path d="M53.8918 25.698C53.4991 27.3993 51.2549 28.2384 50.3062 29.5723C49.3231 30.9583 49.2342 33.3628 47.824 34.2482C46.4139 35.1336 44.2384 34.1498 42.5732 34.4276C40.9653 34.6967 39.2283 36.3576 37.543 35.9612C35.8577 35.5647 35.0265 33.2991 33.7052 32.3414C32.3323 31.3489 29.9505 31.2592 29.0734 29.8356C28.1964 28.412 29.1709 26.213 28.8957 24.5348C28.6292 22.9115 26.984 21.1552 27.3767 19.4567C27.7693 17.7582 30.0135 16.9162 30.9623 15.5823C31.9454 14.1963 32.0342 11.7919 33.4444 10.9064C34.8545 10.021 37.03 11.0048 38.6952 10.7271C40.3032 10.458 42.0401 8.7942 43.7254 9.19061C45.4107 9.58702 46.2419 11.8584 47.5632 12.8133C48.9361 13.8057 51.3179 13.8954 52.195 15.319C53.072 16.7426 52.0975 18.9388 52.3727 20.6199C52.6478 22.2431 54.2844 24.0111 53.8918 25.698Z" fill="#F1F1F1"/>
<path d="M58.9983 64.7023C58.276 65.5703 57.6512 66.5223 56.9175 67.3759C53.0137 71.9071 44.5069 68.9297 40.2792 66.2185C37.1723 64.2364 34.8335 61.2475 32.8271 58.1341C30.3622 54.2944 28.3014 50.1191 27.41 45.6313C23.32 25.0876 49.4167 16.1467 64.0572 26.2449C69.5029 30.0065 74.427 38.4439 73.229 45.206C72.6185 48.6347 70.1994 51.725 70.4602 55.2001C70.7468 58.9442 74.0974 62.5119 72.693 65.987C72.1427 67.3498 70.9589 68.322 69.9959 69.4244C68.6975 70.9117 67.7517 72.7751 67.637 74.7543C67.5224 76.7334 68.3392 78.8051 69.9586 79.9394C65.966 79.4041 63.504 74.5778 64.5387 70.6484C64.8769 69.3579 65.4988 68.1513 65.7711 66.8464C66.0434 65.5414 65.8858 64.0194 64.9113 63.134C63.6416 61.9969 61.5722 62.428 60.2394 63.487C59.7862 63.8488 59.3704 64.256 58.9983 64.7023Z" fill="#F1F1F1"/>
<path d="M63.7219 85.4891C54.4081 92.7288 61.8028 91.3631 50.0481 91.3108C38.2933 91.2584 38.8283 97.3187 29.5781 89.9962L32.8473 83.4897C33.2743 83.2859 33.6904 83.0599 34.0941 82.8126L34.4152 82.6101C34.5298 82.5378 34.6416 82.4625 34.7534 82.3844C36.5129 81.1589 37.955 79.5245 38.9581 77.6188C40.1045 75.4343 40.4829 73.0211 40.5001 70.5616C40.5001 68.9065 40.4112 67.2515 40.394 65.5935C40.3826 64.6772 40.373 63.76 40.3654 62.8418L40.9386 63.1311L42.429 63.9095L51.1107 65.3996L60.0303 66.9332L60.2997 76.1923L60.4344 80.7843L63.7219 82.1356L66.3015 83.1888L63.7219 85.4891Z" fill="#F2A196"/>
<path d="M60.2947 76.1864C57.412 76.7061 54.4457 76.475 51.6761 75.5151C45.4908 73.4173 41.3263 68.3566 40.9336 63.1426L42.424 63.9209L51.1057 65.4111L60.0253 66.9446L60.2947 76.1864Z" fill="#69303A"/>
<path d="M32.0522 58.499C34.7432 58.499 36.9247 56.2967 36.9247 53.5801C36.9247 50.8634 34.7432 48.6611 32.0522 48.6611C29.3612 48.6611 27.1797 50.8634 27.1797 53.5801C27.1797 56.2967 29.3612 58.499 32.0522 58.499Z" fill="#F2A196"/>
<path d="M33.7729 57.9199C36.4639 57.9199 38.6454 55.7176 38.6454 53.001C38.6454 50.2843 36.4639 48.082 33.7729 48.082C31.0819 48.082 28.9004 50.2843 28.9004 53.001C28.9004 55.7176 31.0819 57.9199 33.7729 57.9199Z" fill="#69303A"/>
<path d="M67.2823 45.8305C70.8535 58.313 63.903 72.8123 58.6092 73.4055C45.8174 74.8522 36.7287 68.258 33.1603 55.7755C29.5919 43.293 34.3354 30.9436 43.7652 28.1976C53.1949 25.4517 63.7139 33.3451 67.2823 45.8305Z" fill="#F2A196"/>
<path d="M48.6992 61.0967C50.0766 62.6495 51.9642 63.6465 54.0131 63.9034" stroke="#2F2E41" stroke-miterlimit="10"/>
<path d="M59.6953 49.5234C59.7044 49.8998 59.7935 50.2698 59.9567 50.6083C60.1199 50.9468 60.3533 51.2458 60.6412 51.4852C61.2203 51.9628 61.8653 52.3527 62.5558 52.6426" stroke="#2F2E41" stroke-miterlimit="10"/>
<path d="M56.1896 48.8955C56.1724 48.965 57.7775 53.4904 58.7491 56.2218C58.8293 56.4509 58.854 56.6962 58.8209 56.9369C58.7878 57.1776 58.698 57.4068 58.559 57.6052C58.42 57.8037 58.2359 57.9655 58.0221 58.0773C57.8083 58.189 57.5711 58.2473 57.3303 58.2473H56.2899" stroke="#2F2E41" stroke-miterlimit="10"/>
<path d="M47.6215 53.5598C50.6292 53.5598 53.0673 52.026 53.0673 50.1339C53.0673 48.2418 50.6292 46.708 47.6215 46.708C44.6139 46.708 42.1758 48.2418 42.1758 50.1339C42.1758 52.026 44.6139 53.5598 47.6215 53.5598Z" stroke="white" stroke-miterlimit="10"/>
<path d="M63.3286 52.8215C66.3362 52.8215 68.7743 51.2877 68.7743 49.3956C68.7743 47.5035 66.3362 45.9697 63.3286 45.9697C60.321 45.9697 57.8828 47.5035 57.8828 49.3956C57.8828 51.2877 60.321 52.8215 63.3286 52.8215Z" stroke="white" stroke-miterlimit="10"/>
<path d="M53.0684 50.134L57.9237 49.7607" stroke="white" stroke-miterlimit="10"/>
<path d="M55.6153 31.7514C54.9274 33.1258 53.4943 34.315 52.643 35.7183C51.5281 37.5586 50.6854 39.5551 49.7396 41.4822C49.0374 42.9289 48.2549 44.3583 47.0654 45.4202C45.876 46.4821 44.1992 47.1129 42.6773 46.6702C41.634 46.3664 40.7856 45.6141 39.8541 45.0527C38.9226 44.4914 37.7245 44.1239 36.7672 44.6418C35.357 45.4057 35.3771 47.4832 34.3682 48.7361C32.0523 51.6094 27.8104 47.7379 27.2973 45.2263C26.5492 41.5603 29.5301 38.4961 31.6969 35.9672C33.5026 33.8578 35.9475 30.6345 38.785 29.9285C38.8337 29.9285 55.4089 23.2734 55.4089 23.2734C55.5579 25.5101 56.4522 28.8174 55.9162 30.9585C55.8477 31.234 55.7466 31.5002 55.6153 31.7514Z" fill="#F1F1F1"/>
<path d="M52.667 56.4385C52.4818 56.5493 52.342 56.7233 52.2727 56.9291C52.2034 57.1349 52.2092 57.3589 52.2891 57.5607C52.369 57.7626 52.5177 57.9289 52.7084 58.0298C52.8991 58.1307 53.1192 58.1595 53.3291 58.1109" stroke="#2F2E41" stroke-miterlimit="10"/>
<path d="M59.0078 44.3035C61.0302 43.2666 63.368 43.0463 65.5456 43.6872" stroke="#2F2E41" stroke-miterlimit="10"/>
<path d="M43.2109 45.3741C44.5902 44.6649 46.1074 44.2713 47.6545 44.2213C49.2016 44.1713 50.7406 44.4661 52.162 45.0848" stroke="#2F2E41" stroke-miterlimit="10"/>
<path fill-rule="evenodd" clip-rule="evenodd" d="M78.5703 88.2268C70.4172 94.406 60.2545 98.0723 49.2355 98.0723C38.7288 98.0723 29.0006 94.739 21.0508 89.0723L32.8483 83.4894C33.5125 83.1742 34.15 82.8045 34.7543 82.3841C34.9378 82.2567 35.1212 82.1236 35.296 81.9847C36.8139 80.8123 38.0634 79.323 38.959 77.6185C39.6361 76.3088 40.086 74.8917 40.2889 73.4287C40.4914 73.6267 40.7037 73.8141 40.9252 73.99C42.6825 75.303 44.5898 76.3978 46.606 77.251C47.5848 77.6632 48.5857 78.0196 49.6041 78.3187C52.672 79.2218 55.8752 79.5638 59.0625 79.3285C59.2509 79.3137 59.4398 79.2973 59.6287 79.2809C59.8826 79.2589 60.1365 79.2368 60.3895 79.2186L60.4325 80.6885V80.784L63.9006 82.2076L78.5703 88.2268Z" fill="#3F3D56"/>
<path d="M47.123 53.0507C47.5196 53.0757 47.9171 53.0201 48.292 52.8872C48.6669 52.7543 49.0115 52.5468 49.3055 52.277C49.5995 52.0072 49.8369 51.6805 50.0035 51.3164C50.1702 50.9523 50.2628 50.5581 50.2759 50.1572" stroke="#2F2E41" stroke-miterlimit="10"/>
<path d="M45.0996 61.7509C45.4572 61.1468 45.8982 60.5973 46.4095 60.119C47.4619 59.1427 48.7833 58.512 50.1986 58.3105" stroke="#2F2E41" stroke-miterlimit="10"/>
<path d="M52.4727 38.7539H59.2569" stroke="#2F2E41" stroke-miterlimit="10"/>
<path d="M50.8184 41.0166H59.2564" stroke="#2F2E41" stroke-miterlimit="10"/>
<path d="M47.8983 48.6261C49.6467 48.6058 49.6983 51.3026 47.9499 51.3518H47.8725C46.1241 51.372 46.0726 48.6753 47.8209 48.6261H47.8983Z" fill="#2F2E41"/>
<path d="M62.2977 48.1513C63.9199 48.1311 63.9687 50.6368 62.3464 50.6802H62.2747C60.6496 50.6976 60.6009 48.1947 62.226 48.1484H62.2977V48.1513Z" fill="#2F2E41"/>
</svg>
