<svg width="98" height="99" viewBox="0 0 98 99" fill="none" xmlns="http://www.w3.org/2000/svg">
<circle cx="49.125" cy="49.4609" r="48.6113" fill="#D9D9D9"/>
<path fill-rule="evenodd" clip-rule="evenodd" d="M43.6346 97.7656C32.9159 96.5607 23.252 91.8703 15.8027 84.8543L26.0505 80.1411C26.7211 79.8319 27.3646 79.4692 27.9747 79.0567C28.1599 78.9318 28.3451 78.8012 28.5216 78.6649C30.054 77.5146 31.3153 76.0534 32.2195 74.381C32.9031 73.0961 33.3571 71.7057 33.562 70.2703C33.7034 69.3389 33.7749 68.3986 33.7761 67.457C33.7761 66.5587 33.7487 65.6605 33.7212 64.7617C33.699 64.0357 33.6768 63.3094 33.6691 62.5826C33.6628 62.0998 33.6572 61.6166 33.6521 61.1332C33.6477 60.7166 33.6437 60.2998 33.6401 59.8828L34.2189 60.1667L35.7235 60.9304L36.4208 61.0468L44.4878 62.3924L53.4923 63.897L53.7644 72.9815L53.854 75.951L53.8975 77.3931V77.4811L57.3986 78.8778L77.5026 86.9005C68.1 94.0037 56.5538 97.8318 44.687 97.7804C44.3359 97.7788 43.9851 97.7739 43.6346 97.7656Z" fill="#F2A196"/>
<path d="M53.8629 76.8082C52.8684 76.976 51.8453 76.8205 50.9492 76.3653L33.6924 62.5172C33.6722 61.8756 33.6548 62.5484 33.6461 61.9068C33.6345 61.0078 33.6249 60.1079 33.6172 59.207L34.1959 59.4909L35.7005 60.2546L36.3978 60.371L44.4649 61.7166L53.4694 63.2212L53.7414 72.3057L53.8311 75.2752L53.8745 76.7173V76.811L53.8629 76.8082Z" fill="#E88870"/>
<path d="M72.3218 30.0433C72.2958 30.2108 72.2639 30.3755 72.2263 30.5401C72.0256 31.3841 71.7031 32.1957 71.2686 32.9503L71.2454 32.9901C71.0805 33.274 70.904 33.5578 70.713 33.8417C70.2064 34.5705 69.6536 35.2674 69.058 35.9283L68.7021 36.3173C68.4619 36.5813 68.2188 36.8396 67.9758 37.0951C68.1592 37.0565 68.3476 37.046 68.5342 37.0639C68.6036 37.0695 68.6723 37.0809 68.7397 37.0979C69.6627 37.2853 70.4526 38.1285 70.6986 39.0852C70.713 39.1476 70.7275 39.2129 70.7391 39.2754C70.9677 40.5472 70.4497 41.8304 69.8103 42.9659C68.6905 44.9759 67.0759 46.313 65.6552 48.0589C64.5904 49.3591 64.0001 50.8978 62.8399 52.1412L62.7531 52.2349L62.6836 52.3031C59.6165 55.4031 54.822 56.1384 50.8203 57.4784C49.3736 57.9666 33.6851 62.3385 33.6851 63.2924C33.6851 63.0852 32.1486 61.5891 30.2129 59.7693C23.2685 53.2995 20.9856 43.3038 25.1175 34.7303C29.559 25.5039 39.6457 18.9205 49.252 15.758C52.2555 14.7701 55.664 14.1058 58.5112 15.4741C61.3584 16.8424 62.7762 21.0866 60.4151 23.159C61.9002 22.0566 63.7472 21.53 65.6031 21.6799C67.3173 21.7853 68.934 22.4986 70.1517 23.687C70.8321 24.3561 71.3796 25.1436 71.7663 26.0092C71.9254 26.3684 72.0579 26.7385 72.1627 27.1164C72.4232 28.0705 72.4774 29.0675 72.3218 30.0433Z" fill="#2F2E41"/>
<path d="M72.3226 30.0427C72.2966 30.2102 72.2648 30.3749 72.2272 30.5395C72.0264 31.3836 71.7039 32.1951 71.2694 32.9497L71.2463 32.9895C71.0813 33.2734 70.9048 33.5573 70.7139 33.8412C70.2072 34.57 69.6544 35.2669 69.0588 35.9277L68.7029 36.3167C68.4627 36.5807 68.2197 36.839 67.9766 37.0945C68.16 37.056 68.3484 37.0454 68.5351 37.0633C68.6044 37.0689 68.6731 37.0803 68.7405 37.0974C69.6635 37.2847 70.4535 38.1279 70.6994 39.0846C70.7139 39.1471 70.7283 39.2123 70.7399 39.2748C70.9685 40.5466 70.4506 41.8298 69.8111 42.9654C68.6913 44.9753 67.0768 46.3124 65.6561 48.0583C64.5912 49.3586 64.001 50.8972 62.8407 52.1407L62.7539 52.2344L62.6844 52.3025C61.521 50.7665 60.7797 48.9629 60.5317 47.0647C60.0369 43.1357 60.3378 38.8546 60.2018 34.8774C60.1555 33.4891 60.0716 31.8341 60.5259 30.5168C60.6501 30.1907 60.8164 29.8816 61.0207 29.597C61.5532 28.7543 62.1602 27.9591 62.8349 27.2209C63.6 26.4217 64.566 25.8343 65.6358 25.5175C66.2134 25.3565 66.8054 25.25 67.4037 25.1996C68.0434 25.138 68.6882 25.1504 69.325 25.2365C70.1744 25.3554 70.9954 25.6217 71.7497 26.0229C71.9089 26.3821 72.0414 26.7521 72.1461 27.13C72.4105 28.0784 72.4706 29.0703 72.3226 30.0427Z" fill="#2F2E41"/>
<path d="M30.7939 56.7567C33.5106 56.7567 35.7129 54.596 35.7129 51.9306C35.7129 49.2652 33.5106 47.1045 30.7939 47.1045C28.0773 47.1045 25.875 49.2652 25.875 51.9306C25.875 54.596 28.0773 56.7567 30.7939 56.7567Z" fill="#F2A196"/>
<path d="M32.3551 56.2519C34.7873 56.2519 36.7589 54.3175 36.7589 51.9311C36.7589 49.5448 34.7873 47.6104 32.3551 47.6104C29.9229 47.6104 27.9512 49.5448 27.9512 51.9311C27.9512 54.3175 29.9229 56.2519 32.3551 56.2519Z" fill="#E88870"/>
<path d="M32.418 47.3887L33.6911 63.5704L52.9154 74.591C54.2453 75.0783 55.7124 75.0628 57.0312 74.5475C58.3501 74.0322 59.4264 73.054 60.0508 71.8032C62.8169 66.2446 67.2556 57.4696 66.6711 54.202C65.803 49.3759 63.4882 47.6726 63.4882 47.6726L64.4518 42.0118C64.8134 39.8798 65.2793 37.6541 64.7411 35.5108C64.1248 33.0551 62.2325 32.0047 60.6758 30.168C56.5786 35.3461 49.8425 38.273 43.9601 41.2396C40.9248 42.784 32.418 47.3887 32.418 47.3887Z" fill="#F2A196"/>
<path d="M53.9854 45.9971C53.9622 46.0936 57.8511 56.2512 57.8511 56.2512L52.6602 56.501" stroke="#2F2E41" stroke-miterlimit="10"/>
<path d="M41.6914 44.0301C44.3701 43.4875 47.1253 43.4116 49.8308 43.8059" stroke="#2F2E41" stroke-miterlimit="10"/>
<path d="M58.7773 44.0617C60.4314 43.6868 62.1355 43.5708 63.8265 43.7182" stroke="#2F2E41" stroke-miterlimit="10"/>
<path d="M47.34 59.3406C47.3796 59.2792 47.4316 59.2264 47.4929 59.1857C47.5542 59.1449 47.6234 59.117 47.6962 59.1037C47.769 59.0904 47.8438 59.0919 47.9159 59.1082C47.988 59.1246 48.056 59.1554 48.1154 59.1986C48.7173 59.6131 49.8168 60.4932 51.3793 60.7969C53.5089 61.2142 55.3549 60.3768 55.7976 60.9161C56.0465 61.2199 55.7427 61.5918 55.1611 62.0517C54.552 62.4992 53.8577 62.8224 53.1193 63.0023C52.3808 63.1822 51.613 63.2152 50.8614 63.0993C48.8128 62.7217 47.2734 60.3938 47.2734 59.5677C47.2759 59.4877 47.2987 59.4096 47.34 59.3406Z" fill="white"/>
<path d="M46.5767 47.2861C48.3417 47.3003 48.3417 49.9462 46.5767 49.9604H46.4956C44.7306 49.9462 44.7306 47.3003 46.4956 47.2861H46.5767Z" fill="#2F2E41"/>
<path d="M61.1192 47.1045C62.7569 47.1045 62.7569 49.5743 61.1192 49.5857H61.0469C59.4063 49.5857 59.4063 47.1158 61.0469 47.1045H61.1192Z" fill="#2F2E41"/>
<path fill-rule="evenodd" clip-rule="evenodd" d="M79.6133 87.3251C71.2748 94.0478 60.6699 98.0723 49.1251 98.0723C36.2283 98.0723 24.5044 93.0499 15.8027 84.8544L26.0505 80.1413C26.7211 79.832 27.3646 79.4693 27.9747 79.0568C28.1599 78.9319 28.3451 78.8013 28.5216 78.665C35.3357 83.423 44.6354 86.4237 52.6793 82.8723C54.5947 82.0206 56.354 80.6466 57.3956 78.8808L79.6133 87.3251Z" fill="#FF6D6D"/>
</svg>
