<svg width="98" height="99" viewBox="0 0 98 99" fill="none" xmlns="http://www.w3.org/2000/svg">
<circle cx="49.2617" cy="49.4609" r="48.6113" fill="#D9D9D9"/>
<path d="M58.0513 18.1444C54.9699 17.1173 51.6704 16.2751 48.4119 16.6423C43.2426 17.2357 38.3218 19.1845 34.1479 22.2914C25.9593 28.3975 23.8538 39.4389 20.4335 48.5622C19.1496 51.985 17.8657 55.4412 17.3085 59.0566C15.6857 69.7822 22.8472 73.6493 32.1297 76.2838C43.8258 79.6039 56.6262 78.6127 68.0296 74.607C77.7435 71.1945 81.6388 62.9673 79.5846 53.1405C78.5574 48.2926 76.6214 43.6911 74.6698 39.1333C70.9569 30.4851 67.4467 21.3156 58.0513 18.1444Z" fill="#2F2E41"/>
<path fill-rule="evenodd" clip-rule="evenodd" d="M56.2963 97.567C54.9411 97.6658 53.5788 97.7127 52.2123 97.7066C40.3456 97.6537 28.8344 93.6124 19.4961 86.2208L33.5758 79.5585C34.0068 79.3528 34.4269 79.1247 34.8345 78.8751L35.1585 78.6706C35.2743 78.5976 35.3871 78.5217 35.5 78.4428C37.2763 77.2058 38.7321 75.5559 39.7447 73.6323C40.9021 71.4271 41.284 68.9911 41.3014 66.5085C41.3014 65.5841 41.274 64.6598 41.2465 63.7349C41.2243 62.9882 41.2021 62.2411 41.1944 61.4935C41.1828 60.5686 41.1731 59.6427 41.1654 58.7158L41.7441 59.0079L43.2487 59.7936L52.0073 61.2949L61.0119 62.8429L61.2838 72.1894L61.4198 76.8247L64.7387 78.1887L67.3428 79.2519L82.095 85.3088C75.0781 91.739 66.1675 96.1361 56.2963 97.567Z" fill="#F2A196"/>
<path d="M61.2289 71.1093C60.4418 71.6 59.6982 71.8307 59.0472 71.7606C54.7677 71.2962 46.42 67.911 41.1654 61.646C41.1654 61.3402 41.1596 61.0336 41.1481 60.7259C41.1365 59.799 41.1269 58.8732 41.1191 57.9482L41.6978 58.2403L43.2025 59.026L51.9668 60.5302L60.9714 62.0782L61.2289 71.1093Z" fill="#E88870"/>
<path d="M33.4443 53.9609C36.161 53.9609 38.3632 51.7379 38.3632 48.9956C38.3632 46.2533 36.161 44.0303 33.4443 44.0303C30.7277 44.0303 28.5254 46.2533 28.5254 48.9956C28.5254 51.7379 30.7277 53.9609 33.4443 53.9609Z" fill="#F2A196"/>
<path d="M35.1806 53.377C37.8973 53.377 40.0996 51.1539 40.0996 48.4116C40.0996 45.6693 37.8973 43.4463 35.1806 43.4463C32.464 43.4463 30.2617 45.6693 30.2617 48.4116C30.2617 51.1539 32.464 53.377 35.1806 53.377Z" fill="#E88870"/>
<path d="M66.8762 41.4748C70.2732 53.3594 63.0568 67.7268 58.6182 67.7268C52.5419 67.7268 37.7851 62.8257 34.391 50.941C30.997 39.0564 35.5108 27.306 44.4806 24.6919C53.4504 22.0778 63.4764 29.593 66.8762 41.4748Z" fill="#F2A196"/>
<path d="M57.9785 40.3033C60.0231 39.2521 62.3883 39.0295 64.5901 39.6811" stroke="#2F2E41" stroke-miterlimit="10"/>
<path d="M58.3106 57.9482C56.0637 58.4344 53.7214 58.0372 51.7633 56.8379" stroke="#2F2E41" stroke-miterlimit="10"/>
<path d="M43.8359 40.9726C45.2284 40.2569 46.76 39.8597 48.3218 39.8092C49.8837 39.7587 51.4373 40.0562 52.8723 40.6806" stroke="#2F2E41" stroke-miterlimit="10"/>
<path d="M55.3326 47.4189C55.3326 47.4189 55.4165 49.0692 55.8014 49.8432C55.9663 50.1762 56.2209 50.4595 56.3801 50.7895C57.0195 52.0571 55.9836 52.3229 54.9883 52.3229" stroke="#2F2E41" stroke-miterlimit="10"/>
<path d="M64.7996 31.9732L58.3935 34.3945L43.735 39.9352H43.7322L32.7861 44.074L32.6183 36.3135L32.3926 25.8395L39.1894 23.7015L50.0428 20.29L64.7996 31.9732Z" fill="#2F2E41"/>
<ellipse cx="48.5967" cy="45.6255" rx="1.0498" ry="1.79346" fill="#2F2E41"/>
<ellipse cx="61.2842" cy="45.6255" rx="1.0498" ry="1.79346" fill="#2F2E41"/>
<path fill-rule="evenodd" clip-rule="evenodd" d="M36.8721 96.4795C28.4609 94.2695 20.9404 89.8623 14.9609 83.9082L33.5752 79.5596C34.0088 79.3525 34.4287 79.126 34.833 78.8789C41.6855 83.9639 51.2227 87.2734 59.4453 83.5371C61.7773 82.4805 63.8809 80.6016 64.7373 78.1895L67.3418 79.2529L83.3877 84.0801C76.1445 91.2207 66.6709 96.1045 56.1064 97.5938C54.7529 97.6748 53.4482 97.7129 52.2109 97.707C48.3438 97.6895 42.8477 97.2803 36.8721 96.4795Z" fill="#FF6D6D"/>
</svg>
