<svg width="98" height="99" viewBox="0 0 98 99" fill="none" xmlns="http://www.w3.org/2000/svg">
<circle cx="49.0645" cy="49.4609" r="48.6113" fill="#D9D9D9"/>
<path d="M81.3936 83.5475C72.4091 91.2015 61.155 95.6163 49.4084 96.0947C37.6618 96.5731 35.32 90.4461 25.7539 83.5475L30.1662 78.9555C30.8164 78.6109 31.4375 78.2131 32.0235 77.7663C32.2012 77.6303 32.376 77.4769 32.5451 77.3409C34.0112 76.1056 35.1952 74.5648 36.0161 72.8242C36.6377 71.4835 37.0255 70.0446 37.1626 68.5708C37.2617 67.6165 37.2904 66.6561 37.2485 65.6975C37.1855 64.0454 37.0135 62.3961 36.9218 60.7381C36.8702 59.8238 36.8215 58.9065 36.7699 57.9922L37.3431 58.2613L38.8651 58.9702L39.5616 59.0599L47.6041 60.0668L56.5839 61.1982L57.2631 70.4255L57.4867 73.4463L57.5928 74.9104V75.0059L61.121 76.2732L81.3936 83.5475Z" fill="#F2A196"/>
<path fill-rule="evenodd" clip-rule="evenodd" d="M83.608 83.6633C74.7979 92.5607 62.5748 98.0723 49.0644 98.0723C36.7585 98.0723 25.5205 93.4996 16.957 85.9608L30.1659 78.9558C30.8161 78.6111 31.4373 78.2134 32.0232 77.7665C32.1318 77.6835 32.2392 77.594 32.345 77.5058C32.4124 77.4497 32.479 77.3941 32.5449 77.3412C39.5097 81.8811 48.8478 84.5286 56.6524 80.553C58.5097 79.6097 60.1893 78.1224 61.1409 76.2793L83.608 83.6633Z" fill="#3F3D56"/>
<path d="M57.606 75.0114C54.6223 75.3297 51.2344 74.6063 48.0415 72.9339C42.0454 69.7916 38.6576 63.9873 39.5633 59.0654L47.6087 60.0724L56.5856 61.2037L57.2649 70.431L57.606 75.0114Z" fill="#E88870"/>
<path d="M70.6718 27.1681C71.4617 28.6753 71.923 30.3357 72.0246 32.0378C72.36 38.1605 69.0782 44.2368 65.312 48.8201C65.2862 48.8548 65.2576 48.8866 65.2318 48.9184C62.3427 52.272 57.5876 53.2384 53.6638 54.7922C52.2479 55.3536 36.9253 60.5069 36.9683 61.4791C36.9683 61.2678 35.3718 59.8066 33.3626 58.0474C29.7234 54.8538 27.1765 50.5814 26.0853 45.8398C25.1796 41.8439 25.5694 36.8352 26.5697 32.8769C28.3697 25.7416 34.0734 20.9182 40.8806 18.8435C47.4729 16.8412 56.0485 16.74 62.3942 19.6248C65.7907 21.1554 68.9464 23.8145 70.6718 27.1681Z" fill="#F1F1F1"/>
<path d="M33.5913 54.9511C36.2823 54.9511 38.4638 52.7489 38.4638 50.0322C38.4638 47.3156 36.2823 45.1133 33.5913 45.1133C30.9003 45.1133 28.7188 47.3156 28.7188 50.0322C28.7188 52.7489 30.9003 54.9511 33.5913 54.9511Z" fill="#F2A196"/>
<path d="M35.1358 54.3664C37.545 54.3664 39.4981 52.3947 39.4981 49.9625C39.4981 47.5303 37.545 45.5586 35.1358 45.5586C32.7265 45.5586 30.7734 47.5303 30.7734 49.9625C30.7734 52.3947 32.7265 54.3664 35.1358 54.3664Z" fill="#E88870"/>
<path d="M34.9961 45.3213L36.0451 54.0018L36.733 59.6846C36.9852 61.7766 37.8537 62.9976 39.281 64.6035C41.8211 67.4737 44.9917 69.7033 48.5388 71.1139C51.9238 72.4565 56.5957 73.7354 60.0753 72.1266C63.6322 70.4802 64.6067 66.3223 65.6729 62.8674C66.7391 59.4126 67.7079 55.6106 67.4872 51.9358C67.1863 46.9504 65.7675 44.2131 65.7675 44.2131C66.0006 42.2841 66.2318 40.3474 66.4611 38.403C66.7248 36.2184 67.0831 33.9297 66.4611 31.7711C65.7417 29.2972 63.8214 28.299 62.1991 26.5137C58.3756 31.9679 51.8436 35.2491 46.1484 38.5448C43.2077 40.2635 34.9961 45.3213 34.9961 45.3213Z" fill="#F2A196"/>
<path d="M56.3359 44.3115C56.3158 44.4128 60.6667 55.2605 60.6667 55.2605L55.5391 55.7437" stroke="#00214E" stroke-miterlimit="10"/>
<path d="M43.0703 43.0129C45.6978 42.3456 48.421 42.1497 51.1157 42.4342" stroke="#00214E" stroke-miterlimit="10"/>
<path d="M60.9805 41.9281C62.6001 41.4702 64.2815 41.2749 65.9619 41.3494" stroke="#00214E" stroke-miterlimit="10"/>
<path d="M46.3672 60.209C47.3479 58.4005 48.7922 56.8914 50.549 55.8398" stroke="#00214E" stroke-miterlimit="10"/>
<path d="M50.9207 47.0605C50.8837 47.5491 50.741 48.0235 50.5029 48.4504C50.2647 48.8773 49.9367 49.2464 49.5421 49.5316C49.3799 49.6498 49.2072 49.7525 49.0261 49.8383C48.4454 50.0825 47.8338 50.2442 47.209 50.3186" stroke="#00214E" stroke-miterlimit="10"/>
<path d="M69.8674 38.7216C70.0795 35.4259 69.7327 32.0029 68.1907 29.0892C67.2473 27.2779 65.8154 25.7732 64.0606 24.7489C62.8138 24.0429 60.0479 22.8711 58.7782 24.0603C56.1527 26.4995 62.0485 32.4167 63.5475 33.9126C65.4311 35.7943 67.5568 37.4118 69.8674 38.7216Z" fill="#F1F1F1"/>
<path d="M50.8984 37.6833L59.947 37.2725" stroke="#00214E" stroke-miterlimit="10"/>
<path d="M49.8281 39.6218L58.8767 39.2109" stroke="#00214E" stroke-miterlimit="10"/>
<path d="M60.2891 45.9756C60.5951 46.6999 60.9858 47.3847 61.4527 48.0155C61.9089 48.5961 62.5667 48.9799 63.2928 49.089" stroke="#00214E" stroke-miterlimit="10"/>
<path d="M49.7743 59.0455C49.8106 58.981 49.8598 58.9247 49.9187 58.8804C49.9776 58.836 50.045 58.8043 50.1166 58.7875C50.1882 58.7706 50.2625 58.7689 50.3348 58.7824C50.4071 58.796 50.4758 58.8245 50.5367 58.8661C51.15 59.2625 52.2764 60.1074 53.8385 60.3475C55.9624 60.6774 57.7537 59.7428 58.2152 60.2723C58.476 60.5617 58.1923 60.961 57.6419 61.4702C57.0597 61.9525 56.3877 62.3124 55.6656 62.5285C54.9435 62.7447 54.1858 62.8128 53.4372 62.7289C51.3908 62.4395 49.7628 60.1248 49.7255 59.2943C49.7203 59.2085 49.7371 59.1228 49.7743 59.0455Z" fill="white"/>
<path d="M47.9228 45.4059C49.6684 45.3076 49.8403 48.0101 48.0948 48.1287H48.0174C46.2719 48.2271 46.1 45.5246 47.8455 45.4059H47.9228Z" fill="#00214E"/>
<path d="M62.2882 44.2828C63.9076 44.1902 64.0653 46.6902 62.4487 46.8088H62.3857C60.7663 46.8985 60.6058 44.4014 62.2252 44.2828H62.2997H62.2882Z" fill="#00214E"/>
</svg>
