<svg width="25" height="25" viewBox="0 0 25 25" fill="none" xmlns="http://www.w3.org/2000/svg">
<path d="M23.7125 3.36957C23.8527 3.51016 23.9314 3.70057 23.9314 3.89907C23.9314 4.09758 23.8527 4.28799 23.7125 4.42857L22.148 5.99457L19.148 2.99457L20.7125 1.42857C20.8532 1.28797 21.0439 1.20898 21.2428 1.20898C21.4417 1.20898 21.6324 1.28797 21.773 1.42857L23.7125 3.36807V3.36957ZM21.0875 7.05357L18.0875 4.05357L7.86803 14.2746C7.78548 14.3571 7.72333 14.4578 7.68653 14.5686L6.47903 18.1896C6.45714 18.2556 6.45403 18.3264 6.47005 18.3941C6.48608 18.4617 6.52062 18.5236 6.5698 18.5728C6.61898 18.622 6.68086 18.6565 6.74854 18.6726C6.81622 18.6886 6.88702 18.6855 6.95303 18.6636L10.574 17.4561C10.6847 17.4197 10.7853 17.3581 10.868 17.2761L21.0875 7.05507V7.05357Z" fill="white"/>
<path fill-rule="evenodd" clip-rule="evenodd" d="M1.95996 20.71C1.95996 21.3067 2.19701 21.879 2.61897 22.301C3.04093 22.7229 3.61322 22.96 4.20996 22.96H20.71C21.3067 22.96 21.879 22.7229 22.301 22.301C22.7229 21.879 22.96 21.3067 22.96 20.71V11.71C22.96 11.511 22.8809 11.3203 22.7403 11.1796C22.5996 11.039 22.4089 10.96 22.21 10.96C22.011 10.96 21.8203 11.039 21.6796 11.1796C21.539 11.3203 21.46 11.511 21.46 11.71V20.71C21.46 20.9089 21.3809 21.0996 21.2403 21.2403C21.0996 21.3809 20.9089 21.46 20.71 21.46H4.20996C4.01105 21.46 3.82028 21.3809 3.67963 21.2403C3.53898 21.0996 3.45996 20.9089 3.45996 20.71V4.20996C3.45996 4.01105 3.53898 3.82028 3.67963 3.67963C3.82028 3.53898 4.01105 3.45996 4.20996 3.45996H13.96C14.1589 3.45996 14.3496 3.38094 14.4903 3.24029C14.6309 3.09964 14.71 2.90887 14.71 2.70996C14.71 2.51105 14.6309 2.32028 14.4903 2.17963C14.3496 2.03898 14.1589 1.95996 13.96 1.95996H4.20996C3.61322 1.95996 3.04093 2.19701 2.61897 2.61897C2.19701 3.04093 1.95996 3.61322 1.95996 4.20996V20.71Z" fill="white"/>
</svg>
