<svg width="34" height="34" viewBox="0 0 34 34" fill="none" xmlns="http://www.w3.org/2000/svg">
<g clip-path="url(#clip0_260_272)">
<path fill-rule="evenodd" clip-rule="evenodd" d="M23.5025 0.211474C23.7043 0.328497 23.8605 0.510516 23.9456 0.727795C24.0306 0.945074 24.0395 1.18477 23.9707 1.40772L20.2561 13.4775H27.1098C27.3112 13.4774 27.5082 13.5363 27.6765 13.6469C27.8449 13.7575 27.9771 13.915 28.057 14.0999C28.1368 14.2848 28.1607 14.4891 28.1258 14.6874C28.0909 14.8858 27.9987 15.0696 27.8605 15.2162L11.3605 32.7474C11.2009 32.9172 10.9884 33.0279 10.7578 33.0614C10.5272 33.095 10.292 33.0495 10.0906 32.9322C9.88917 32.815 9.73339 32.633 9.64864 32.416C9.5639 32.1989 9.55518 31.9595 9.62391 31.7368L13.3385 19.665H6.48479C6.28337 19.6651 6.08634 19.6061 5.91802 19.4955C5.7497 19.3849 5.61746 19.2274 5.53761 19.0425C5.45777 18.8576 5.43382 18.6534 5.46873 18.455C5.50364 18.2566 5.59587 18.0728 5.73404 17.9263L22.234 0.395036C22.3935 0.225497 22.6056 0.114884 22.8359 0.0811825C23.0662 0.0474811 23.3011 0.0926733 23.5025 0.209411V0.211474Z" fill="white"/>
</g>
<defs>
<clipPath id="clip0_260_272">
<rect width="33" height="33" fill="white" transform="translate(0.296875 0.0712891)"/>
</clipPath>
</defs>
</svg>
