<svg width="24" height="25" viewBox="0 0 24 25" fill="none" xmlns="http://www.w3.org/2000/svg">
<path d="M1.08227 21.4427C0.532692 21.9923 0.53269 22.8833 1.08227 23.4329C1.63184 23.9825 2.52288 23.9825 3.07246 23.4329L12.0283 14.477L20.9842 23.4329C21.5338 23.9825 22.4248 23.9825 22.9744 23.4329C23.524 22.8833 23.5239 21.9923 22.9744 21.4427L14.0185 12.4868L22.9744 3.53097C23.524 2.9814 23.524 2.09036 22.9744 1.54078C22.4248 0.991204 21.5338 0.991205 20.9842 1.54078L12.0283 10.4966L3.07246 1.54078C2.52288 0.991204 1.63184 0.991203 1.08227 1.54078C0.53269 2.09036 0.532691 2.98139 1.08227 3.53097L10.0381 12.4868L1.08227 21.4427Z" fill="white" stroke="white" stroke-linecap="round"/>
</svg>
