<svg width="7" height="12" viewBox="0 0 7 12" fill="none" xmlns="http://www.w3.org/2000/svg">
<path fill-rule="evenodd" clip-rule="evenodd" d="M0.623987 1.2358C0.66041 1.19929 0.70368 1.17032 0.751318 1.15055C0.798956 1.13078 0.850024 1.12061 0.901601 1.12061C0.953177 1.12061 1.00425 1.13078 1.05189 1.15055C1.09952 1.17032 1.14279 1.19929 1.17922 1.2358L5.88455 5.94114C5.92107 5.97756 5.95004 6.02083 5.96981 6.06847C5.98958 6.11611 5.99975 6.16718 5.99975 6.21876C5.99975 6.27033 5.98958 6.3214 5.96981 6.36904C5.95004 6.41668 5.92107 6.45995 5.88455 6.49637L1.17922 11.2017C1.10559 11.2753 1.00573 11.3167 0.901601 11.3167C0.797475 11.3167 0.697615 11.2753 0.623987 11.2017C0.550359 11.1281 0.508994 11.0282 0.508994 10.9241C0.508994 10.82 0.550359 10.7201 0.623987 10.6465L5.05249 6.21876L0.623987 1.79103C0.587471 1.75461 0.558498 1.71134 0.538731 1.6637C0.518963 1.61606 0.508789 1.56499 0.508789 1.51342C0.508789 1.46184 0.518963 1.41077 0.538731 1.36313C0.558498 1.3155 0.587471 1.27223 0.623987 1.2358Z" fill="#999999" stroke="#999999" stroke-linecap="round"/>
</svg>
