<svg width="22" height="39" viewBox="0 0 22 39" fill="none" xmlns="http://www.w3.org/2000/svg">
<path fill-rule="evenodd" clip-rule="evenodd" d="M0.656862 0.570436C0.795232 0.431716 0.95961 0.321656 1.14058 0.246562C1.32155 0.171467 1.51556 0.132812 1.71149 0.132812C1.90742 0.132812 2.10144 0.171467 2.28241 0.246562C2.46338 0.321656 2.62775 0.431716 2.76612 0.570436L20.6412 18.4455C20.7799 18.5839 20.89 18.7483 20.9651 18.9293C21.0402 19.1102 21.0789 19.3042 21.0789 19.5002C21.0789 19.6961 21.0402 19.8901 20.9651 20.0711C20.89 20.2521 20.7799 20.4164 20.6412 20.5548L2.76612 38.4299C2.48642 38.7096 2.10705 38.8667 1.71149 38.8667C1.31593 38.8667 0.936568 38.7096 0.656862 38.4299C0.377156 38.1502 0.220019 37.7708 0.220019 37.3753C0.220019 36.9797 0.377156 36.6003 0.656862 36.3206L17.4803 19.5002L0.656862 2.6797C0.518142 2.54133 0.408078 2.37695 0.332984 2.19598C0.257889 2.01501 0.219238 1.821 0.219238 1.62507C0.219238 1.42913 0.257889 1.23513 0.332984 1.05416C0.408078 0.873185 0.518142 0.708806 0.656862 0.570436Z" fill="#999999"/>
</svg>
