<svg width="21" height="21" viewBox="0 0 21 21" fill="none" xmlns="http://www.w3.org/2000/svg">
<g clip-path="url(#clip0_179_403)">
<path fill-rule="evenodd" clip-rule="evenodd" d="M8.26758 15.2646C9.17042 15.2646 10.0644 15.0868 10.8985 14.7413C11.7326 14.3958 12.4905 13.8894 13.1289 13.251C13.7673 12.6126 14.2737 11.8547 14.6193 11.0206C14.9648 10.1865 15.1426 9.29249 15.1426 8.38965C15.1426 7.48681 14.9648 6.59281 14.6193 5.7587C14.2737 4.92459 13.7673 4.16669 13.1289 3.52829C12.4905 2.88989 11.7326 2.38348 10.8985 2.03798C10.0644 1.69248 9.17042 1.51465 8.26758 1.51465C6.44421 1.51465 4.69553 2.23898 3.40622 3.52829C2.11691 4.8176 1.39258 6.56629 1.39258 8.38965C1.39258 10.213 2.11691 11.9617 3.40622 13.251C4.69553 14.5403 6.44421 15.2646 8.26758 15.2646ZM16.3926 8.38965C16.3926 10.5445 15.5366 12.6112 14.0128 14.1349C12.4891 15.6586 10.4225 16.5146 8.26758 16.5146C6.11269 16.5146 4.04607 15.6586 2.52234 14.1349C0.998602 12.6112 0.142578 10.5445 0.142578 8.38965C0.142578 6.23476 0.998602 4.16814 2.52234 2.64441C4.04607 1.12067 6.11269 0.264648 8.26758 0.264648C10.4225 0.264648 12.4891 1.12067 14.0128 2.64441C15.5366 4.16814 16.3926 6.23476 16.3926 8.38965Z" fill="#ABB5BE"/>
<path d="M13.0723 14.9421C13.1098 14.9921 13.1498 15.0396 13.1948 15.0859L18.0073 19.8984C18.2417 20.1329 18.5596 20.2647 18.8912 20.2649C19.2228 20.265 19.5408 20.1334 19.7754 19.899C20.0099 19.6646 20.1418 19.3466 20.1419 19.015C20.142 18.6835 20.0104 18.3654 19.776 18.1309L14.9635 13.3184C14.9188 13.2731 14.8708 13.2313 14.8198 13.1934C14.3294 13.862 13.7402 14.452 13.0723 14.9434V14.9421Z" fill="#ABB5BE"/>
</g>
<defs>
<clipPath id="clip0_179_403">
<rect width="20" height="20" fill="white" transform="translate(0.142578 0.264648)"/>
</clipPath>
</defs>
</svg>
