<svg width="367" height="279" viewBox="0 0 367 279" fill="none" xmlns="http://www.w3.org/2000/svg">
<g clip-path="url(#clip0_100_2690)">
<path d="M339.561 253.596C327.536 262.757 312.886 272.038 298.483 276.414C294.331 277.713 290.047 278.542 285.71 278.886C281.656 279.212 277.575 278.896 273.619 277.948C263.225 275.361 253.583 270.831 244.254 265.538C241.206 263.806 238.193 261.995 235.198 260.144C230.309 257.121 225.468 253.992 220.615 250.938C219.888 250.476 219.166 250.022 218.439 249.572H218.434C217.263 248.836 216.088 248.111 214.911 247.395C214.704 247.267 214.497 247.144 214.285 247.016C212.061 245.668 209.798 244.35 207.498 243.063C207.216 242.909 206.934 242.75 206.652 242.596C202.201 240.126 197.626 237.886 192.945 235.885C189.871 234.589 186.757 233.421 183.612 232.425H183.607C182.405 232.046 181.198 231.689 179.987 231.363C176.355 230.366 172.653 229.641 168.914 229.195C163.76 228.571 158.548 228.612 153.405 229.318C153.057 229.367 152.714 229.415 152.366 229.473C138.447 231.703 125.744 239.221 111.764 240.992C111.31 241.049 110.861 241.102 110.407 241.142C110.214 241.16 110.02 241.182 109.826 241.195C105.763 241.543 101.675 241.442 97.6342 240.895C86.3452 239.406 75.3514 234.783 65.4542 228.957C42.3169 215.336 23.5534 194.399 12.1455 170.153C10.1865 165.997 8.44728 161.742 6.93492 157.404C2.70647 145.374 0.37786 132.759 0.0329081 120.012C-1.03741 75.785 24.0819 31.4128 63.5206 11.4102C102.964 -8.59232 154.85 -1.97769 186.66 28.751C205.956 47.3919 217.122 72.6517 231.644 95.219C246.166 117.782 266.806 139.336 293.427 142.623C306.989 144.298 321.18 141.059 334.178 145.272C341.375 147.607 347.515 152.076 352.462 157.769C355.787 161.633 358.57 165.933 360.733 170.549C362.319 173.887 363.606 177.358 364.579 180.923C364.759 181.579 364.927 182.236 365.09 182.893C371.564 209.351 361.218 237.088 339.561 253.596Z" fill="white"/>
<path d="M122.959 205.698H81.5559C75.3528 205.698 70.3242 210.729 70.3242 216.936V216.936C70.3242 223.142 75.3528 228.173 81.5559 228.173H122.959C129.162 228.173 134.191 223.142 134.191 216.936C134.191 210.729 129.162 205.698 122.959 205.698Z" fill="#3F3D56"/>
<path d="M110.406 222.443V241.141C106.153 241.553 101.867 241.47 97.6328 240.895V222.443H110.406Z" fill="#3F3D56"/>
<path d="M153.405 229.318C153.057 229.367 152.713 229.415 152.365 229.473C138.447 231.702 125.744 239.22 111.764 240.992C111.31 241.049 110.861 241.102 110.407 241.142C110.214 241.159 110.02 241.181 109.826 241.195C106.412 237.85 102.999 234.289 99.7923 230.601C98.0524 228.604 96.3699 226.568 94.7886 224.506C90.6836 219.183 87.2039 213.709 84.9047 208.333C85.1382 205.755 83.5349 199.793 82.7685 195.227L82.7641 195.223C82.4382 193.306 82.262 191.64 82.4249 190.569C83.3587 184.391 88.402 185.1 89.9524 179.045C91.351 177.884 92.8401 176.836 94.4054 175.912C94.6653 175.758 94.9296 175.604 95.2027 175.449L112.028 163.815L118.459 170.126L128.246 179.733L138.852 190.137L129.849 199.237C129.849 199.237 137.372 207.914 146.168 219.482C148.529 222.589 150.982 225.907 153.405 229.318Z" fill="#2F2E41"/>
<path d="M298.484 222.443V276.414C294.332 277.713 290.048 278.542 285.711 278.886V222.443H298.484Z" fill="#3F3D56"/>
<path d="M315.002 218.037H273.599C267.396 218.037 262.367 223.068 262.367 229.274V229.274C262.367 235.481 267.396 240.512 273.599 240.512H315.002C321.205 240.512 326.234 235.481 326.234 229.274C326.234 223.068 321.205 218.037 315.002 218.037Z" fill="#3F3D56"/>
<path d="M214.286 247.017C212.061 245.668 209.799 244.351 207.498 243.064C207.216 242.909 206.934 242.751 206.652 242.597L208.168 241.949L212.255 240.19L212.295 240.173L212.339 240.323L214.286 247.017Z" fill="#FFB6B6"/>
<path d="M220.615 250.939C219.888 250.476 219.166 250.022 218.439 249.573H218.435C217.263 248.837 216.089 248.111 214.911 247.396C214.704 247.268 214.497 247.144 214.286 247.017C212.062 245.668 209.799 244.35 207.498 243.064C207.216 242.909 206.935 242.751 206.653 242.597C202.201 240.126 197.626 237.886 192.946 235.885C189.871 234.589 186.757 233.422 183.612 232.426H183.608L181.137 228.288L170.015 209.651L167.571 205.557C167.571 205.557 159.233 208.025 147.433 210.391C143.139 211.255 138.39 212.101 133.409 212.815C128.084 213.573 122.499 214.177 116.949 214.468C114.302 214.609 111.663 214.679 109.065 214.657C102.348 214.613 95.8949 213.983 90.2439 212.485C88.3587 210.713 82.6768 208.303 78.6069 206.095H78.6025C76.8935 205.169 75.4753 204.284 74.7309 203.495C70.4408 198.956 74.1054 195.417 70.2911 190.464C70.2397 188.647 70.3325 186.828 70.5686 185.026C70.6082 184.726 70.6478 184.422 70.6963 184.114L71.8987 163.684L80.8312 162.503L94.4238 160.705L109.148 158.757L110.769 171.457C110.769 171.457 122.234 170.876 136.761 171.069C160.092 171.387 191.312 173.714 195.54 183.699C195.936 184.638 196.333 185.586 196.729 186.533C197.672 188.798 198.606 191.075 199.531 193.364C202.882 201.648 206.08 210.013 209 217.918C210.815 222.836 212.524 227.578 214.096 232.016C215.361 235.585 216.532 238.961 217.603 242.068C218.58 244.906 219.466 247.519 220.254 249.863C220.377 250.229 220.496 250.59 220.615 250.939Z" fill="#2F2E41"/>
<path d="M138.444 127.156L110.23 103.182L128.587 84.5957L141.393 105.582L188.863 114.998C190.29 113.924 191.999 113.288 193.782 113.168C195.564 113.048 197.343 113.45 198.901 114.324C200.459 115.198 201.73 116.507 202.557 118.091C203.385 119.675 203.733 121.466 203.561 123.245C203.389 125.024 202.703 126.714 201.588 128.11C200.472 129.506 198.974 130.547 197.277 131.106C195.581 131.665 193.758 131.718 192.032 131.258C190.305 130.799 188.75 129.846 187.555 128.518L138.444 127.156Z" fill="#A0616A"/>
<path d="M85.2946 71.675C82.034 82.2878 113.087 107.599 113.087 107.599C113.432 105.052 131.039 127.022 132.236 125.032C135.641 119.377 139.387 105.399 143.317 103.612C145.565 102.591 132.671 88.3896 132.671 88.3896C132.671 88.3896 126.094 79.6835 117.409 68.6496C115.012 65.4846 111.854 62.9778 108.227 61.3627C104.601 59.7477 100.626 59.0767 96.6709 59.4124C96.6709 59.4124 88.5552 61.0623 85.2946 71.675Z" fill="#3F3D56"/>
<path d="M99.0278 48.1813C109.567 48.1813 118.11 39.6334 118.11 29.0892C118.11 18.5449 109.567 9.99707 99.0278 9.99707C88.4888 9.99707 79.9453 18.5449 79.9453 29.0892C79.9453 39.6334 88.4888 48.1813 99.0278 48.1813Z" fill="#A0616A"/>
<path d="M108.567 60.7998C112.678 63.2451 115.137 67.738 116.549 72.3099C119.163 80.7741 120.736 89.5255 121.234 98.3704L122.725 124.851L141.192 181.235C125.187 194.784 65.0281 184.314 65.0281 184.314C65.0281 184.314 63.1814 183.698 65.0281 181.851C66.8748 180.003 68.6725 181.64 66.8259 179.792C64.9792 177.945 66.2522 180.003 66.8678 178.155C67.4834 176.308 66.8678 177.54 66.2522 176.924C65.6367 176.308 71.0176 170.765 71.0176 170.765L66.0931 138.4L59.9375 73.1173C67.3243 63.8792 82.18 58.4334 82.18 58.4334L86.0185 51.5205L105.211 53.0567L108.567 60.7998Z" fill="#3F3D56"/>
<path d="M114.758 18.9461C116.241 20.0529 117.34 21.5972 117.9 23.3615C118.115 20.4782 118.129 17.5833 117.941 14.698C117.716 12.6705 116.289 12.2144 114.637 11.686C113.145 11.2086 111.458 10.6692 111.004 8.70101C105.006 2.86267 94.5635 3.15707 87.4172 5.19357C83.485 6.31423 81.2223 7.75403 81.0199 8.59749L80.978 8.77112L80.8183 8.851C77.7872 10.3673 77.1971 15.1555 77.2361 18.9052C77.31 25.97 79.748 33.9937 81.1215 34.6456C81.1942 34.6801 81.2126 34.6665 81.2441 34.6403C83.3122 32.9867 85.8353 34.766 86.9441 35.7332C87.5981 31.3423 89.7039 27.2974 92.9252 24.2444C96.1465 21.1914 100.297 19.3065 104.715 18.8906C106.158 18.7511 107.589 18.511 108.998 18.1721C109.713 17.9871 110.448 17.8906 111.186 17.8848C112.457 17.8655 113.704 18.2359 114.758 18.9461Z" fill="#2F2E41"/>
<path d="M90.7119 155.921L84.8745 152.93C84.5618 152.707 84.3396 152.379 84.2487 152.005C84.1577 151.632 84.204 151.238 84.379 150.896C84.5541 150.554 84.8462 150.287 85.2022 150.143C85.5581 149.998 85.954 149.987 86.3176 150.11L92.155 153.102C92.4677 153.325 92.6899 153.653 92.7808 154.026C92.8718 154.399 92.8256 154.793 92.6505 155.135C92.4754 155.477 92.1833 155.744 91.8273 155.889C91.4714 156.033 91.0755 156.044 90.7119 155.921Z" fill="#FF6D6D"/>
<path d="M71.0674 147.907L61.4648 112.14L87.1254 107.28L85.7455 131.83L119.461 166.564C121.246 166.491 123.014 166.939 124.549 167.854C126.083 168.769 127.319 170.11 128.105 171.716C128.89 173.321 129.192 175.12 128.974 176.894C128.755 178.668 128.025 180.34 126.873 181.706C125.721 183.072 124.197 184.073 122.486 184.587C120.775 185.102 118.952 185.107 117.238 184.602C115.524 184.098 113.994 183.105 112.835 181.746C111.675 180.386 110.936 178.718 110.707 176.946L71.0674 147.907Z" fill="#A0616A"/>
<path d="M58.8361 72.0392C50.126 78.9189 61.3055 117.401 61.3055 117.401C63.0363 115.5 65.0477 143.588 67.1633 142.632C73.1762 139.914 84.197 130.54 88.4457 131.304C90.8755 131.741 88.3299 112.726 88.3299 112.726C88.3299 112.726 87.8617 101.822 86.9816 87.8059C86.8063 83.8387 85.6306 79.9802 83.5639 76.5899C81.4972 73.1995 78.6068 70.3874 75.1616 68.4153C75.1616 68.4153 67.5462 65.1595 58.8361 72.0392Z" fill="#3F3D56"/>
<path d="M360.732 170.549L12.1442 170.152C10.1852 165.997 8.44595 161.741 6.93359 157.403L352.46 157.769C355.786 161.633 358.569 165.932 360.732 170.549Z" fill="#3F3D56"/>
<path d="M249.708 263.013C247.906 263.886 246.089 264.728 244.255 265.538C241.207 263.807 238.194 261.995 235.199 260.144L246.308 255.262L249.708 263.013Z" fill="#FFB6B6"/>
<path d="M330.7 202.287C328.894 204.711 327.031 207.086 325.111 209.413C323.34 211.559 321.522 213.664 319.658 215.728C318.887 216.583 318.107 217.433 317.31 218.275C315.843 219.848 314.344 221.395 312.813 222.915C310.056 223.783 304.471 225.312 298.485 226.74C294.129 227.776 289.561 228.759 285.712 229.384C283.557 229.771 281.377 230.004 279.188 230.081C276.59 230.103 273.951 230.032 271.304 229.891C268.318 229.733 265.327 229.486 262.372 229.168C254.686 228.362 247.242 227.106 240.82 225.815C238.468 225.348 236.257 224.872 234.222 224.409C230.368 223.541 227.144 222.73 224.809 222.113C222.18 221.426 220.682 220.981 220.682 220.981L214.097 232.015L210.679 237.74L208.169 241.948L207.499 243.063C207.217 242.909 206.936 242.75 206.654 242.596C202.202 240.126 197.627 237.886 192.947 235.884C189.872 234.589 186.758 233.421 183.613 232.425H183.609C182.406 232.046 181.2 231.689 179.988 231.363C180.367 230.345 180.75 229.32 181.138 228.287C181.86 226.361 182.597 224.418 183.349 222.457C184.974 218.209 186.657 213.899 188.388 209.611C189.806 206.09 191.251 202.582 192.713 199.123C193.387 197.527 194.757 196.126 196.673 194.897C197.589 194.319 198.544 193.806 199.531 193.363C205.015 190.864 213.093 189.238 221.995 188.194C222.73 188.11 223.47 188.026 224.215 187.947C231.584 187.171 239.402 186.77 246.713 186.585C250.374 186.493 253.906 186.458 257.192 186.453C258.253 186.453 259.286 186.456 260.288 186.462H260.293C263.002 186.475 265.495 186.515 267.688 186.559C268.115 186.568 268.529 186.581 268.935 186.59H268.939C269.212 186.594 269.481 186.603 269.745 186.607C274.542 186.731 277.484 186.881 277.484 186.881L278.625 177.926L278.858 176.119L279.078 174.401V174.396L279.105 174.18L279.285 174.176L282.457 174.114L309.113 173.594L323.675 173.308L321.367 183.205L317.557 199.537C317.944 202.119 330.832 200.097 330.7 202.287Z" fill="#2F2E41"/>
<path d="M252.991 261.382C251.903 261.937 250.806 262.484 249.705 263.013C247.904 263.885 246.086 264.727 244.252 265.538C241.204 263.806 238.192 261.995 235.197 260.144C230.307 257.121 225.467 253.992 220.613 250.938C219.886 250.475 219.164 250.021 218.437 249.572H218.433C216.433 246.602 214.394 243.508 212.337 240.322C212.306 240.278 212.279 240.234 212.253 240.19C211.725 239.379 211.199 238.562 210.676 237.739C207.386 232.583 204.078 227.207 200.867 221.716L208.998 217.918L224.115 210.858L226.722 209.642L234.219 224.409L240.905 237.581L242.394 240.511L252.991 261.382Z" fill="#2F2E41"/>
<path d="M255.271 190.484L293.811 153.298L304.494 123.037L288.737 116.182C280.644 123.938 271.895 148.098 271.895 148.098L245.374 181.856C245.168 181.927 244.961 182.002 244.758 182.092C243.563 182.619 242.525 183.445 241.743 184.491C240.961 185.537 240.462 186.767 240.294 188.062C240.126 189.358 240.294 190.674 240.784 191.885C241.273 193.096 242.066 194.161 243.087 194.975C244.107 195.79 245.32 196.327 246.609 196.536C247.898 196.744 249.219 196.617 250.444 196.165C251.669 195.714 252.757 194.954 253.602 193.958C254.448 192.963 255.023 191.767 255.271 190.484Z" fill="#FFB8B8"/>
<path d="M284.305 119.56L304.291 125.908L304.366 125.896C311.805 124.649 317.977 112.494 321.845 102.516C323.118 99.2249 323.094 95.5731 321.779 92.2989C320.464 89.0247 317.955 86.3723 314.76 84.8779C312.395 83.7915 309.774 83.3884 307.193 83.7143C304.611 84.0401 302.172 85.0819 300.152 86.7219L289.889 95.1122L284.305 119.56Z" fill="#FF6D6D"/>
<path d="M330.618 202.733L330.734 202.578C336.97 194.303 328.441 173.813 327.152 170.841L332.95 169.123L331.94 158.078L331.453 153.153L335.961 148.869L335.976 148.76L339.076 126.685L343.133 112.075C344.662 106.552 344.694 100.721 343.227 95.1808C341.759 89.6409 338.844 84.5915 334.782 80.551L326.489 72.3134L316.554 56.7545L299.896 56.3242L293.906 66.9706C288.335 68.1081 283.34 71.1647 279.79 75.608C276.241 80.0513 274.361 85.5998 274.48 91.2868L275.044 119.63L269.067 154.746L268.899 161.125L263.033 167.319L264.117 173.581L259.729 175.33L257.582 184.228C256.761 185.254 251.346 192.103 251.297 194.012C251.29 194.298 251.494 194.581 251.94 194.9C255.445 197.409 275.036 202.846 283.854 199.577C293.246 196.099 330.056 202.632 330.426 202.699L330.618 202.733Z" fill="#FF6D6D"/>
<path d="M306.772 51.555C318.96 51.555 328.84 41.6695 328.84 29.4752C328.84 17.2809 318.96 7.39551 306.772 7.39551C294.584 7.39551 284.703 17.2809 284.703 29.4752C284.703 41.6695 294.584 51.555 306.772 51.555Z" fill="#FFB8B8"/>
<path d="M304.079 51.8507C307.497 51.904 310.912 51.6652 314.289 51.1368C317.636 50.4558 325.124 44.9658 327.212 41.6622C328.762 39.2077 329.754 35.3747 330.313 32.5917C331.066 28.9088 331.037 25.1089 330.229 21.4378C329.42 17.7668 327.851 14.3065 325.621 11.2812C324.764 10.0157 323.581 9.00554 322.197 8.35751C322.074 8.30953 321.948 8.26701 321.82 8.23066C319.804 7.69987 317.992 6.57824 316.618 5.00977C316.351 4.69253 316.062 4.3949 315.753 4.11921C314.199 2.80747 312.358 1.8822 310.378 1.41903C307.183 0.563486 302.559 1.41273 296.635 3.94561C293.659 5.21818 290.404 4.75763 287.9 4.21418C287.759 4.18704 287.614 4.19716 287.479 4.24355C287.344 4.28994 287.223 4.37098 287.128 4.47859C286.063 5.47925 284.659 6.03938 283.197 6.04639C282.302 6.08571 281.363 7.32559 280.228 8.94243C279.971 9.30945 279.67 9.7378 279.453 9.99834L279.424 9.49779L278.918 10.0562C278.122 10.9338 277.561 11.9986 277.288 13.1515C277.014 14.3044 277.036 15.5079 277.353 16.6498C277.669 17.7917 278.269 18.835 279.097 19.6825C279.924 20.53 280.953 21.1541 282.087 21.4968C282.987 21.7364 283.91 21.8835 284.84 21.9357C285.403 21.9864 285.986 22.0389 286.544 22.1358C288.337 22.5031 290.004 23.3291 291.382 24.5332C292.76 25.7374 293.803 27.2785 294.408 29.0061C294.551 29.4054 294.784 29.7665 295.089 30.0615C295.393 30.3565 295.762 30.5775 296.165 30.7074C296.569 30.8373 296.997 30.8726 297.417 30.8107C297.836 30.7488 298.236 30.5913 298.585 30.3503C299.167 29.897 299.849 29.5913 300.575 29.4591C301.3 29.3269 302.047 29.3723 302.751 29.5913C303.36 29.9298 303.833 30.4674 304.093 31.1138C304.408 31.834 304.93 32.444 305.594 32.8658C307.862 34.0359 308.018 39.2192 307.204 43.5401C306.418 47.7051 304.866 50.7181 303.429 50.867C302.322 50.9815 302.196 51.0602 302.116 51.256L302.044 51.4312L302.169 51.5952C302.78 51.8168 303.431 51.904 304.079 51.8507Z" fill="#2F2E41"/>
<path d="M289.783 112.885L281.274 95.9121C268.923 96.7562 244.41 111.044 244.41 111.044L198.03 120.882C196.656 120.354 195.167 120.197 193.713 120.427C192.26 120.658 190.892 121.267 189.748 122.194C188.605 123.121 187.725 124.334 187.199 125.709C186.672 127.084 186.517 128.574 186.749 130.028C186.981 131.483 187.592 132.85 188.52 133.993C189.448 135.136 190.661 136.015 192.036 136.54C193.411 137.065 194.9 137.218 196.354 136.985C197.807 136.751 199.173 136.138 200.314 135.208L259.312 130.977L289.783 112.885Z" fill="#FFB8B8"/>
<path d="M286.353 115.672L308.576 99.1487L312.49 85.0349C313.248 82.2614 313.216 79.3309 312.397 76.5746C311.579 73.8183 310.005 71.3461 307.856 69.4373C304.925 66.8696 301.128 65.5112 297.234 65.6369C293.34 65.7626 289.639 67.363 286.88 70.1145C278.517 78.4659 268.978 90.117 271.027 98.1961L271.048 98.278L286.353 115.672Z" fill="#FF6D6D"/>
<path d="M258.841 159.867H199.379V167.799H258.841V159.867Z" fill="white"/>
<path d="M106.884 159.867H47.4219V167.799H106.884V159.867Z" fill="white"/>
<path d="M113.828 121.72V159.489C113.829 159.97 114.02 160.431 114.36 160.772C114.7 161.112 115.161 161.303 115.642 161.304H171.583C172.064 161.303 172.525 161.112 172.865 160.772C173.205 160.431 173.397 159.97 173.397 159.489V121.72C173.396 121.24 173.204 120.779 172.864 120.439C172.524 120.099 172.063 119.908 171.583 119.907H115.642C115.162 119.908 114.701 120.099 114.361 120.439C114.021 120.779 113.829 121.24 113.828 121.72Z" fill="#3F3D56"/>
<path d="M115.141 122.191V159.023C115.141 159.28 115.243 159.527 115.425 159.709C115.607 159.891 115.853 159.993 116.11 159.993H171.117C171.374 159.993 171.621 159.891 171.802 159.709C171.984 159.527 172.086 159.28 172.087 159.023V122.191C172.087 121.933 171.985 121.686 171.803 121.504C171.621 121.322 171.374 121.219 171.117 121.219H116.11C115.853 121.219 115.606 121.322 115.425 121.504C115.243 121.686 115.141 121.933 115.141 122.191Z" fill="#FF6D6D"/>
<path d="M112.658 166.855C112.76 166.983 112.891 167.087 113.039 167.158C113.187 167.229 113.35 167.265 113.514 167.264H173.413C173.577 167.264 173.738 167.227 173.886 167.157C174.034 167.086 174.164 166.984 174.268 166.856C174.371 166.729 174.444 166.58 174.483 166.421C174.521 166.262 174.524 166.096 174.49 165.935L173.56 161.517C173.522 161.336 173.439 161.169 173.319 161.029C173.199 160.889 173.046 160.781 172.874 160.715C172.75 160.667 172.617 160.641 172.483 160.642H114.44C114.306 160.641 114.174 160.667 114.049 160.715C113.877 160.781 113.724 160.889 113.604 161.029C113.484 161.169 113.401 161.336 113.363 161.517L112.433 165.935C112.4 166.096 112.403 166.261 112.442 166.42C112.481 166.579 112.555 166.728 112.658 166.855Z" fill="#2F2E41"/>
<path d="M170.429 162.545H171.844C171.962 162.545 172.059 162.449 172.059 162.33V161.653C172.059 161.534 171.962 161.437 171.844 161.437H170.429C170.31 161.437 170.214 161.534 170.214 161.653V162.33C170.214 162.449 170.31 162.545 170.429 162.545Z" fill="#3F3D56"/>
<path d="M166.737 162.545H168.152C168.271 162.545 168.367 162.449 168.367 162.33V161.653C168.367 161.534 168.271 161.437 168.152 161.437H166.737C166.619 161.437 166.522 161.534 166.522 161.653V162.33C166.522 162.449 166.619 162.545 166.737 162.545Z" fill="#3F3D56"/>
<path d="M163.046 162.545H164.461C164.58 162.545 164.676 162.449 164.676 162.33V161.653C164.676 161.534 164.58 161.437 164.461 161.437H163.046C162.927 161.437 162.831 161.534 162.831 161.653V162.33C162.831 162.449 162.927 162.545 163.046 162.545Z" fill="#3F3D56"/>
<path d="M159.358 162.545H160.773C160.892 162.545 160.988 162.449 160.988 162.33V161.653C160.988 161.534 160.892 161.437 160.773 161.437H159.358C159.24 161.437 159.143 161.534 159.143 161.653V162.33C159.143 162.449 159.24 162.545 159.358 162.545Z" fill="#3F3D56"/>
<path d="M155.667 162.545H157.082C157.201 162.545 157.297 162.449 157.297 162.33V161.653C157.297 161.534 157.201 161.437 157.082 161.437H155.667C155.548 161.437 155.452 161.534 155.452 161.653V162.33C155.452 162.449 155.548 162.545 155.667 162.545Z" fill="#3F3D56"/>
<path d="M151.98 162.545H153.394C153.513 162.545 153.609 162.449 153.609 162.33V161.653C153.609 161.534 153.513 161.437 153.394 161.437H151.98C151.861 161.437 151.765 161.534 151.765 161.653V162.33C151.765 162.449 151.861 162.545 151.98 162.545Z" fill="#3F3D56"/>
<path d="M148.288 162.545H149.703C149.822 162.545 149.918 162.449 149.918 162.33V161.653C149.918 161.534 149.822 161.437 149.703 161.437H148.288C148.169 161.437 148.073 161.534 148.073 161.653V162.33C148.073 162.449 148.169 162.545 148.288 162.545Z" fill="#3F3D56"/>
<path d="M144.601 162.545H146.015C146.134 162.545 146.23 162.449 146.23 162.33V161.653C146.23 161.534 146.134 161.437 146.015 161.437H144.601C144.482 161.437 144.386 161.534 144.386 161.653V162.33C144.386 162.449 144.482 162.545 144.601 162.545Z" fill="#3F3D56"/>
<path d="M140.909 162.545H142.324C142.443 162.545 142.539 162.449 142.539 162.33V161.653C142.539 161.534 142.443 161.437 142.324 161.437H140.909C140.79 161.437 140.694 161.534 140.694 161.653V162.33C140.694 162.449 140.79 162.545 140.909 162.545Z" fill="#3F3D56"/>
<path d="M137.218 162.545H138.633C138.751 162.545 138.848 162.449 138.848 162.33V161.653C138.848 161.534 138.751 161.437 138.633 161.437H137.218C137.099 161.437 137.003 161.534 137.003 161.653V162.33C137.003 162.449 137.099 162.545 137.218 162.545Z" fill="#3F3D56"/>
<path d="M133.53 162.545H134.945C135.064 162.545 135.16 162.449 135.16 162.33V161.653C135.16 161.534 135.064 161.437 134.945 161.437H133.53C133.412 161.437 133.315 161.534 133.315 161.653V162.33C133.315 162.449 133.412 162.545 133.53 162.545Z" fill="#3F3D56"/>
<path d="M129.839 162.545H131.254C131.372 162.545 131.469 162.449 131.469 162.33V161.653C131.469 161.534 131.372 161.437 131.254 161.437H129.839C129.72 161.437 129.624 161.534 129.624 161.653V162.33C129.624 162.449 129.72 162.545 129.839 162.545Z" fill="#3F3D56"/>
<path d="M126.151 162.545H127.566C127.685 162.545 127.781 162.449 127.781 162.33V161.653C127.781 161.534 127.685 161.437 127.566 161.437H126.151C126.033 161.437 125.936 161.534 125.936 161.653V162.33C125.936 162.449 126.033 162.545 126.151 162.545Z" fill="#3F3D56"/>
<path d="M122.46 162.545H123.875C123.994 162.545 124.09 162.449 124.09 162.33V161.653C124.09 161.534 123.994 161.437 123.875 161.437H122.46C122.341 161.437 122.245 161.534 122.245 161.653V162.33C122.245 162.449 122.341 162.545 122.46 162.545Z" fill="#3F3D56"/>
<path d="M118.773 162.545H120.187C120.306 162.545 120.402 162.449 120.402 162.33V161.653C120.402 161.534 120.306 161.437 120.187 161.437H118.773C118.654 161.437 118.557 161.534 118.557 161.653V162.33C118.557 162.449 118.654 162.545 118.773 162.545Z" fill="#3F3D56"/>
<path d="M115.081 162.545H116.496C116.615 162.545 116.711 162.449 116.711 162.33V161.653C116.711 161.534 116.615 161.437 116.496 161.437H115.081C114.962 161.437 114.866 161.534 114.866 161.653V162.33C114.866 162.449 114.962 162.545 115.081 162.545Z" fill="#3F3D56"/>
<path d="M170.472 164.391H171.887C172.005 164.391 172.102 164.294 172.102 164.175V163.498C172.102 163.379 172.005 163.283 171.887 163.283H170.472C170.353 163.283 170.257 163.379 170.257 163.498V164.175C170.257 164.294 170.353 164.391 170.472 164.391Z" fill="#3F3D56"/>
<path d="M166.78 164.391H168.195C168.314 164.391 168.41 164.294 168.41 164.175V163.498C168.41 163.379 168.314 163.283 168.195 163.283H166.78C166.662 163.283 166.565 163.379 166.565 163.498V164.175C166.565 164.294 166.662 164.391 166.78 164.391Z" fill="#3F3D56"/>
<path d="M163.093 164.391H164.508C164.626 164.391 164.723 164.294 164.723 164.175V163.498C164.723 163.379 164.626 163.283 164.508 163.283H163.093C162.974 163.283 162.878 163.379 162.878 163.498V164.175C162.878 164.294 162.974 164.391 163.093 164.391Z" fill="#3F3D56"/>
<path d="M159.401 164.391H160.816C160.935 164.391 161.031 164.294 161.031 164.175V163.498C161.031 163.379 160.935 163.283 160.816 163.283H159.401C159.283 163.283 159.186 163.379 159.186 163.498V164.175C159.186 164.294 159.283 164.391 159.401 164.391Z" fill="#3F3D56"/>
<path d="M155.71 164.391H157.125C157.244 164.391 157.34 164.294 157.34 164.175V163.498C157.34 163.379 157.244 163.283 157.125 163.283H155.71C155.591 163.283 155.495 163.379 155.495 163.498V164.175C155.495 164.294 155.591 164.391 155.71 164.391Z" fill="#3F3D56"/>
<path d="M152.023 164.391H153.437C153.556 164.391 153.652 164.294 153.652 164.175V163.498C153.652 163.379 153.556 163.283 153.437 163.283H152.023C151.904 163.283 151.807 163.379 151.807 163.498V164.175C151.807 164.294 151.904 164.391 152.023 164.391Z" fill="#3F3D56"/>
<path d="M148.331 164.391H149.746C149.865 164.391 149.961 164.294 149.961 164.175V163.498C149.961 163.379 149.865 163.283 149.746 163.283H148.331C148.212 163.283 148.116 163.379 148.116 163.498V164.175C148.116 164.294 148.212 164.391 148.331 164.391Z" fill="#3F3D56"/>
<path d="M144.644 164.391H146.058C146.177 164.391 146.273 164.294 146.273 164.175V163.498C146.273 163.379 146.177 163.283 146.058 163.283H144.644C144.525 163.283 144.429 163.379 144.429 163.498V164.175C144.429 164.294 144.525 164.391 144.644 164.391Z" fill="#3F3D56"/>
<path d="M140.952 164.391H142.367C142.486 164.391 142.582 164.294 142.582 164.175V163.498C142.582 163.379 142.486 163.283 142.367 163.283H140.952C140.833 163.283 140.737 163.379 140.737 163.498V164.175C140.737 164.294 140.833 164.391 140.952 164.391Z" fill="#3F3D56"/>
<path d="M137.265 164.391H138.68C138.798 164.391 138.895 164.294 138.895 164.175V163.498C138.895 163.379 138.798 163.283 138.68 163.283H137.265C137.146 163.283 137.05 163.379 137.05 163.498V164.175C137.05 164.294 137.146 164.391 137.265 164.391Z" fill="#3F3D56"/>
<path d="M133.573 164.391H134.988C135.107 164.391 135.203 164.294 135.203 164.175V163.498C135.203 163.379 135.107 163.283 134.988 163.283H133.573C133.455 163.283 133.358 163.379 133.358 163.498V164.175C133.358 164.294 133.455 164.391 133.573 164.391Z" fill="#3F3D56"/>
<path d="M129.882 164.391H131.297C131.415 164.391 131.512 164.294 131.512 164.175V163.498C131.512 163.379 131.415 163.283 131.297 163.283H129.882C129.763 163.283 129.667 163.379 129.667 163.498V164.175C129.667 164.294 129.763 164.391 129.882 164.391Z" fill="#3F3D56"/>
<path d="M126.194 164.391H127.609C127.728 164.391 127.824 164.294 127.824 164.175V163.498C127.824 163.379 127.728 163.283 127.609 163.283H126.194C126.076 163.283 125.979 163.379 125.979 163.498V164.175C125.979 164.294 126.076 164.391 126.194 164.391Z" fill="#3F3D56"/>
<path d="M122.503 164.391H123.918C124.037 164.391 124.133 164.294 124.133 164.175V163.498C124.133 163.379 124.037 163.283 123.918 163.283H122.503C122.384 163.283 122.288 163.379 122.288 163.498V164.175C122.288 164.294 122.384 164.391 122.503 164.391Z" fill="#3F3D56"/>
<path d="M118.815 164.391H120.23C120.349 164.391 120.445 164.294 120.445 164.175V163.498C120.445 163.379 120.349 163.283 120.23 163.283H118.815C118.697 163.283 118.6 163.379 118.6 163.498V164.175C118.6 164.294 118.697 164.391 118.815 164.391Z" fill="#3F3D56"/>
<path d="M115.124 164.391H116.539C116.658 164.391 116.754 164.294 116.754 164.175V163.498C116.754 163.379 116.658 163.283 116.539 163.283H115.124C115.005 163.283 114.909 163.379 114.909 163.498V164.175C114.909 164.294 115.005 164.391 115.124 164.391Z" fill="#3F3D56"/>
<path d="M139.847 166.605H154.176C154.294 166.605 154.391 166.509 154.391 166.39V165.713C154.391 165.594 154.294 165.498 154.176 165.498H139.847C139.728 165.498 139.632 165.594 139.632 165.713V166.39C139.632 166.509 139.728 166.605 139.847 166.605Z" fill="#3F3D56"/>
</g>
<defs>
<clipPath id="clip0_100_2690">
<rect width="367" height="279" fill="white"/>
</clipPath>
</defs>
</svg>
