<svg width="363" height="285" viewBox="0 0 363 285" fill="none" xmlns="http://www.w3.org/2000/svg">
<g clip-path="url(#clip0_325_331)">
<path d="M223.269 252.332L213.608 261.197L221.286 248.356C215.236 237.422 205.343 227.973 205.343 227.973C205.343 227.973 184.818 247.573 184.818 262.98C184.818 278.388 194.008 283.767 205.343 283.767C216.679 283.767 225.868 278.388 225.868 262.98C225.868 259.551 224.85 255.914 223.269 252.332Z" fill="#E0E0E0"/>
<path d="M211.122 261.676V262.435C211.077 271.263 209.583 278.15 206.652 283C206.611 283.072 206.566 283.139 206.524 283.211L206.196 283.012L205.883 282.816C209.134 277.579 210.285 270.176 210.326 262.477C210.33 262.228 210.334 261.976 210.33 261.725C210.319 258.465 210.119 255.168 209.798 251.965C209.776 251.716 209.749 251.465 209.723 251.213C209.278 246.987 208.636 242.949 207.98 239.441C207.935 239.193 207.886 238.945 207.837 238.701C206.701 232.768 205.543 228.471 205.279 227.519C205.249 227.403 205.23 227.339 205.227 227.324L205.585 227.222L205.589 227.219L205.951 227.117C205.955 227.132 206.019 227.347 206.124 227.745C206.528 229.234 207.576 233.275 208.606 238.607C208.651 238.847 208.7 239.095 208.746 239.344C209.281 242.19 209.806 245.37 210.221 248.709C210.326 249.547 210.42 250.374 210.503 251.19C210.534 251.442 210.56 251.694 210.583 251.942C210.93 255.405 211.11 258.649 211.122 261.676Z" fill="white"/>
<path d="M208.607 238.607C208.355 238.641 208.098 238.674 207.838 238.701C207.131 238.773 206.421 238.81 205.71 238.81C202.682 238.814 199.692 238.141 196.96 236.84C196.801 237.039 196.643 237.238 196.48 237.441C199.355 238.84 202.512 239.565 205.71 239.562C206.469 239.562 207.227 239.521 207.981 239.441C208.238 239.415 208.494 239.381 208.747 239.344C210.833 239.046 212.861 238.433 214.763 237.528C214.601 237.321 214.442 237.118 214.288 236.919C212.488 237.757 210.574 238.326 208.607 238.607Z" fill="white"/>
<path d="M210.503 251.191C210.243 251.206 209.983 251.214 209.722 251.214C209.643 251.218 209.56 251.218 209.481 251.218C206.2 251.218 202.967 250.427 200.059 248.913C197.151 247.398 194.653 245.206 192.779 242.521C192.628 242.743 192.477 242.965 192.33 243.191C194.284 245.907 196.858 248.12 199.841 249.646C202.824 251.173 206.128 251.969 209.481 251.969C209.587 251.969 209.692 251.969 209.798 251.966C210.062 251.962 210.322 251.954 210.582 251.943C214.61 251.737 218.492 250.38 221.766 248.033C221.645 247.811 221.525 247.589 221.4 247.368C218.219 249.672 214.431 251.001 210.503 251.191Z" fill="white"/>
<path d="M211.122 261.676C210.858 261.699 210.594 261.714 210.33 261.725C210.047 261.736 209.764 261.744 209.481 261.744C205.072 261.739 200.783 260.31 197.257 257.673C193.731 255.035 191.156 251.329 189.92 247.111C189.75 247.416 189.58 247.717 189.418 248.021C190.811 252.229 193.5 255.893 197.102 258.492C200.703 261.09 205.035 262.491 209.481 262.496C209.764 262.496 210.047 262.492 210.326 262.477C210.594 262.469 210.858 262.454 211.122 262.436C216.455 262.02 221.43 259.599 225.04 255.664C224.961 255.386 224.87 255.112 224.78 254.834C221.293 258.798 216.394 261.252 211.122 261.676Z" fill="white"/>
<path d="M50.4766 100.306C77.8222 100.306 99.9902 78.2105 99.9902 50.9539C99.9902 23.6974 77.8222 1.60156 50.4766 1.60156C23.1309 1.60156 0.962891 23.6974 0.962891 50.9539C0.962891 78.2105 23.1309 100.306 50.4766 100.306Z" fill="#E4E4E4"/>
<path d="M50.4762 92.0801C73.2643 92.0801 91.7376 73.667 91.7376 50.9532C91.7376 28.2394 73.2643 9.82617 50.4762 9.82617C27.6882 9.82617 9.21484 28.2394 9.21484 50.9532C9.21484 73.667 27.6882 92.0801 50.4762 92.0801Z" fill="#FF6D6D"/>
<path d="M181.963 100.306C209.309 100.306 231.477 78.2105 231.477 50.9539C231.477 23.6974 209.309 1.60156 181.963 1.60156C154.617 1.60156 132.449 23.6974 132.449 50.9539C132.449 78.2105 154.617 100.306 181.963 100.306Z" fill="#E4E4E4"/>
<path d="M181.963 92.0801C204.751 92.0801 223.224 73.667 223.224 50.9532C223.224 28.2394 204.751 9.82617 181.963 9.82617C159.175 9.82617 140.701 28.2394 140.701 50.9532C140.701 73.667 159.175 92.0801 181.963 92.0801Z" fill="white"/>
<path d="M313.449 100.306C340.795 100.306 362.963 78.2105 362.963 50.9539C362.963 23.6974 340.795 1.60156 313.449 1.60156C286.104 1.60156 263.936 23.6974 263.936 50.9539C263.936 78.2105 286.104 100.306 313.449 100.306Z" fill="#E4E4E4"/>
<path d="M313.449 92.0801C336.237 92.0801 354.71 73.667 354.71 50.9532C354.71 28.2394 336.237 9.82617 313.449 9.82617C290.661 9.82617 272.188 28.2394 272.188 50.9532C272.188 73.667 290.661 92.0801 313.449 92.0801Z" fill="white"/>
<path d="M46.9701 65.8262C46.8964 65.8262 46.8225 65.8244 46.7486 65.8209C46.096 65.7895 45.458 65.6178 44.8782 65.3176C44.2985 65.0174 43.7908 64.5957 43.3899 64.0815L37.0606 55.9703C36.3236 55.0236 35.9934 53.8243 36.1425 52.6353C36.2915 51.4463 36.9077 50.3648 37.8557 49.628L38.0834 49.4513C39.0332 48.7168 40.2366 48.3877 41.4295 48.5363C42.6225 48.6849 43.7076 49.299 44.4469 50.2439C44.8036 50.7011 45.2552 51.076 45.7708 51.3431C46.2864 51.6102 46.8538 51.763 47.4342 51.7912C48.0145 51.8194 48.5942 51.7223 49.1334 51.5065C49.6726 51.2907 50.1587 50.9613 50.5583 50.5409L63.41 37.0188C63.8196 36.5879 64.3102 36.2416 64.8541 35.9997C65.3979 35.7578 65.9841 35.6251 66.5794 35.6091C67.1747 35.593 67.7673 35.6941 68.3234 35.9063C68.8796 36.1186 69.3883 36.438 69.8205 36.8462L70.0304 37.0444C70.9033 37.8688 71.412 39.0051 71.4444 40.2033C71.4769 41.4014 71.0305 42.5634 70.2034 43.4336L50.2609 64.4148C49.8375 64.8608 49.3273 65.2159 48.7615 65.4586C48.1957 65.7013 47.5861 65.8264 46.9701 65.8262Z" fill="white"/>
<path d="M160.231 40.9602H127.641V12.7094C127.674 10.9602 128.402 9.29559 129.665 8.08052C130.928 6.86544 132.623 6.19905 134.378 6.22743H145.211C153.493 6.22743 160.231 12.7101 160.231 20.6784V40.9602Z" fill="#2F2E41"/>
<path d="M172.296 277.362L166.11 277.362L163.166 253.576L172.297 253.577L172.296 277.362Z" fill="#FFB6B6"/>
<path d="M173.875 283.339L153.926 283.338V283.087C153.926 281.034 154.744 279.066 156.2 277.615C157.656 276.163 159.631 275.348 161.691 275.348L173.875 275.348L173.875 283.339Z" fill="#2F2E41"/>
<path d="M115.273 277.362L109.086 277.362L106.143 253.576L115.274 253.577L115.273 277.362Z" fill="#FFB6B6"/>
<path d="M116.849 283.339L96.9004 283.338V283.087C96.9005 281.034 97.7187 279.066 99.1748 277.615C100.631 276.163 102.606 275.348 104.665 275.348L116.85 275.348L116.849 283.339Z" fill="#2F2E41"/>
<path d="M122.742 86.2715L118.705 111.925L157.058 112.427L152.012 87.7807L122.742 86.2715Z" fill="#FFB6B6"/>
<path d="M119.819 105.66L107.604 138.08L106.09 272.433H116.435L141.163 164.488L163.872 269.615H173.965L166.9 151.41C166.9 151.41 168.983 127.684 158.321 113.684L155.725 106.211L119.819 105.66Z" fill="#2F2E41"/>
<path d="M172.216 130.934C171.148 130.644 170.157 130.124 169.312 129.411C168.468 128.698 167.79 127.809 167.328 126.807C166.865 125.804 166.629 124.713 166.635 123.61C166.642 122.507 166.891 121.418 167.365 120.421L151.049 67.4005L163.05 65.0293L177.972 117.001C179.6 117.906 180.838 119.374 181.452 121.128C182.066 122.882 182.013 124.799 181.303 126.516C180.593 128.234 179.276 129.632 177.602 130.446C175.927 131.261 174.01 131.434 172.216 130.934Z" fill="#FFB6B6"/>
<path d="M150.622 100.439L124.184 99.9305C123.428 99.9145 122.699 99.652 122.107 99.1833C121.515 98.7145 121.094 98.0654 120.908 97.3353C119.49 91.7421 116.372 77.1656 118.026 62.6474C118.353 59.8349 119.242 57.1162 120.641 54.6522C122.04 52.1882 123.92 50.0289 126.171 48.3021C128.422 46.5753 130.998 45.316 133.746 44.5988C136.494 43.8816 139.358 43.721 142.169 44.1265C145.135 44.5497 147.977 45.593 150.51 47.1881C153.042 48.7832 155.208 50.894 156.864 53.382C158.521 55.87 159.631 58.6789 160.121 61.6246C160.612 64.5703 160.473 67.5861 159.712 70.4742C156.384 83.0709 154.504 92.0828 154.125 97.26C154.068 98.0086 153.768 98.7182 153.269 99.2806C152.77 99.843 152.101 100.227 151.362 100.374C151.142 100.418 150.919 100.44 150.695 100.44C150.671 100.44 150.646 100.44 150.622 100.439Z" fill="#E4E4E4"/>
<path d="M70.316 53.8653C70.4748 54.2203 70.6053 54.5873 70.7062 54.9627L103.799 66.1712L110.193 60.6032L119.885 69.1238L109.526 80.0775C108.689 80.9624 107.587 81.5528 106.385 81.7602C105.183 81.9675 103.945 81.7806 102.859 81.2274L67.4477 63.1983C66.1671 63.9813 64.6777 64.3571 63.1777 64.2757C61.6776 64.1944 60.2379 63.6598 59.0501 62.743C57.8623 61.8262 56.9827 60.5707 56.5282 59.1434C56.0738 57.7162 56.0661 56.1848 56.5061 54.7531C56.9461 53.3214 57.813 52.0571 58.9915 51.1285C60.1699 50.1998 61.6042 49.6507 63.1033 49.5544C64.6025 49.458 66.0956 49.8188 67.384 50.5889C68.6724 51.3589 69.6951 52.5017 70.316 53.8653Z" fill="#FFB6B6"/>
<path d="M103.867 64.3843C103.87 63.9301 103.971 63.4817 104.163 63.0699C104.355 62.658 104.634 62.2924 104.981 61.9979L117.098 51.71C118.632 49.9586 120.8 48.8848 123.126 48.7241C125.453 48.5635 127.748 49.3292 129.509 50.8532C131.27 52.3772 132.353 54.5352 132.52 56.8538C132.687 59.1724 131.924 61.4623 130.399 63.2213L121.771 76.6143C121.524 76.9965 121.198 77.3213 120.815 77.5666C120.431 77.8119 119.999 77.9719 119.548 78.0357C119.097 78.0996 118.637 78.0657 118.2 77.9365C117.763 77.8072 117.359 77.5857 117.016 77.2869L104.952 66.7845C104.609 66.4858 104.334 66.1167 104.147 65.7025C103.96 65.2883 103.864 64.8387 103.867 64.3843Z" fill="#E4E4E4"/>
<path d="M150.317 80.8311C149.914 80.6197 149.561 80.324 149.283 79.9642C149.005 79.6045 148.808 79.1891 148.705 78.7465L145.123 63.2882C144.269 61.1251 144.311 58.713 145.24 56.5808C146.168 54.4487 147.907 52.7705 150.075 51.9142C152.243 51.058 154.663 51.0937 156.804 52.0134C158.946 52.933 160.634 54.6617 161.499 56.8203L169.453 70.622C169.68 71.0159 169.819 71.454 169.861 71.9063C169.903 72.3586 169.846 72.8146 169.695 73.2433C169.544 73.6719 169.303 74.063 168.986 74.3901C168.67 74.7171 168.287 74.9724 167.863 75.1385L152.954 80.9762C152.53 81.1426 152.075 81.2157 151.62 81.1907C151.165 81.1656 150.721 81.043 150.317 80.8311Z" fill="#E4E4E4"/>
<path d="M163.143 8.98895C164.367 6.1326 162.262 2.49828 158.441 0.871446C154.62 -0.755392 150.53 0.241303 149.306 3.09765C148.082 5.954 150.187 9.58834 154.008 11.2152C157.829 12.842 161.919 11.8453 163.143 8.98895Z" fill="#2F2E41"/>
<path d="M151.29 30.22C155.377 22.7669 152.629 13.4222 145.152 9.34802C137.674 5.27381 128.299 8.01291 124.212 15.466C120.124 22.919 122.872 32.2637 130.35 36.3379C137.827 40.4122 147.202 37.6731 151.29 30.22Z" fill="#FFB6B6"/>
<path d="M146.214 5.22894H128.565C127.271 5.21225 126.018 5.68377 125.059 6.54892C124.099 7.41407 123.503 8.6089 123.39 9.89377C123.344 10.5766 123.44 11.2614 123.671 11.9059C123.901 12.5505 124.262 13.1409 124.732 13.6406C125.201 14.1403 125.768 14.5387 126.397 14.811C127.027 15.0834 127.706 15.224 128.393 15.224C129.723 15.224 130.998 15.7505 131.938 16.6877C132.879 17.6249 133.407 18.8961 133.407 20.2215V40.7113H160.983V19.95C160.983 18.0168 160.601 16.1025 159.859 14.3165C159.117 12.5304 158.029 10.9076 156.657 9.54063C155.286 8.17366 153.658 7.08931 151.866 6.34951C150.074 5.60971 148.153 5.22894 146.214 5.22894Z" fill="#2F2E41"/>
<path d="M233.217 284.089H42.1889C42.0559 284.089 41.9284 284.037 41.8344 283.943C41.7403 283.849 41.6875 283.722 41.6875 283.59C41.6875 283.457 41.7403 283.33 41.8344 283.236C41.9284 283.143 42.0559 283.09 42.1889 283.09H233.217C233.35 283.09 233.477 283.143 233.571 283.236C233.665 283.33 233.718 283.457 233.718 283.59C233.718 283.722 233.665 283.849 233.571 283.943C233.477 284.037 233.35 284.089 233.217 284.089Z" fill="#CACACA"/>
</g>
<defs>
<clipPath id="clip0_325_331">
<rect width="362" height="284" fill="white" transform="translate(0.962891 0.0898438)"/>
</clipPath>
</defs>
</svg>
