<svg width="26" height="27" viewBox="0 0 26 27" fill="none" xmlns="http://www.w3.org/2000/svg">
<path d="M0.81952 23.563C0.20522 24.1773 0.20522 25.1732 0.81952 25.7875C1.43382 26.4018 2.4298 26.4018 3.0441 25.7875L13.0547 15.7769L23.0653 25.7875C23.6796 26.4018 24.6756 26.4018 25.2899 25.7875C25.9042 25.1732 25.9042 24.1773 25.2899 23.563L15.2793 13.5524L25.2899 3.54178C25.9042 2.92748 25.9042 1.9315 25.2899 1.3172C24.6756 0.7029 23.6796 0.702902 23.0653 1.3172L13.0547 11.3278L3.0441 1.3172C2.4298 0.7029 1.43382 0.702899 0.81952 1.3172C0.20522 1.9315 0.20522 2.92748 0.819519 3.54178L10.8301 13.5524L0.81952 23.563Z" fill="#999999"/>
</svg>
