<svg width="322" height="322" viewBox="0 0 322 322" fill="none" xmlns="http://www.w3.org/2000/svg">
<path d="M311.597 55.6008C324.097 43.1008 324.097 22.8008 311.597 10.3008C299.097 -2.19922 278.797 -2.19922 266.297 10.3008L160.997 115.701L55.5969 10.4008C43.0969 -2.09922 22.7969 -2.09922 10.2969 10.4008C-2.20312 22.9008 -2.20312 43.2008 10.2969 55.7008L115.697 161.001L10.3969 266.401C-2.10312 278.901 -2.10312 299.201 10.3969 311.701C22.8969 324.201 43.1969 324.201 55.6969 311.701L160.997 206.301L266.397 311.601C278.897 324.101 299.197 324.101 311.697 311.601C324.197 299.101 324.197 278.801 311.697 266.301L206.297 161.001L311.597 55.6008Z" fill="black"/>
</svg>
