<svg width="266" height="57" viewBox="0 0 266 57" fill="none" xmlns="http://www.w3.org/2000/svg">
<g style="mix-blend-mode:luminosity" clip-path="url(#clip0_313_589)">
<path d="M20.0814 10.7656L14.2008 33.7896L8.38288 10.7656H0.0625588H0L0.0625588 10.8901V55.5069H8.00753V42.0658L11.3857 55.5069H17.016L20.4567 42.0658V55.5069H28.4017V10.8901V10.7656H20.0814Z" fill="#452613"/>
<path d="M134.752 13.1298L133.251 12.6942L133.751 10.8896C133.939 10.3296 133.564 9.89396 133.001 9.64505L111.981 1.9289L106.851 0.0620849C106.288 -0.124596 105.725 0.186539 105.6 0.746583L104.662 4.2313L102.159 3.48457C101.596 3.29789 101.033 3.60903 100.783 4.10684L99.0312 7.96492L134.877 18.6058L135.566 14.4365C135.691 13.8765 135.315 13.3165 134.752 13.1298Z" fill="#FFDC00"/>
<path d="M117.612 28.6251L111.105 13.5039L100.721 10.3926L104.161 36.3413L110.417 36.5902L109.854 25.6382L114.421 36.5902H120.74L125.369 25.7627L124.618 36.5902L130.686 36.279L133.001 20.0378L122.679 16.9264L117.612 28.6251Z" fill="#FFDC00"/>
<path d="M111.105 48.289C112.482 48.5379 113.483 48.5379 113.483 48.5379L113.545 50.9025C112.356 50.8403 110.605 50.467 109.979 50.2803C109.291 50.0936 109.166 49.4091 109.166 49.4091L108.54 42.4397C108.54 42.4397 108.54 42.0041 109.354 42.1285C112.607 42.5641 117.048 42.4397 117.048 42.4397V38.2704C114.609 38.2082 106.413 37.6482 106.413 37.6482C103.911 37.5237 104.161 39.515 104.161 39.515C104.161 39.515 105.287 47.7912 105.6 50.0936C105.913 52.396 106.726 53.2049 107.539 54.0139C108.353 54.8229 111.043 55.8185 112.857 56.0674C114.671 56.3163 117.173 56.3163 117.173 56.3163V44.9287C113.545 44.9287 110.792 44.6176 110.792 44.6176L111.105 48.289Z" fill="#FFDC00"/>
<path d="M118.361 41.3179C118.361 43.3714 118.236 52.3321 118.236 52.3321C118.236 52.3321 117.923 56.2524 120.864 56.0657C123.804 55.879 126.431 54.7589 128.433 53.2655L128.934 48.5984C128.934 48.5984 126.682 50.0919 124.242 50.4653C124.242 50.4653 123.554 50.5897 123.303 50.5897C122.991 50.5897 122.866 50.403 122.866 49.9674C122.866 49.4696 123.241 42.8736 123.241 42.8736C123.241 42.8736 123.241 42.3135 124.054 42.1891C124.867 42.1268 128.684 41.6912 129.935 41.1312L130.498 37.6465C130.498 37.6465 123.241 38.2065 121.552 38.2065C119.612 38.3932 118.361 39.2644 118.361 41.3179Z" fill="#FFDC00"/>
<path d="M50.8604 55.5069V46.9196H41.1012V37.461H49.4841V28.8737H41.1012V19.4152H50.8604V10.7656H33.1562V55.5069H50.8604Z" fill="#452613"/>
<path d="M244.667 55.8177V47.2304H234.783V37.7719H243.291V29.1845H234.783V19.726H244.667V11.1387H226.65V55.8177H244.667Z" fill="#452613"/>
<path d="M195.308 55.8177V37.7719H203.816V29.1845H195.308V19.726H205.193V11.1387H187.176V55.8177H195.308Z" fill="#452613"/>
<path d="M215.015 55.8177V37.7719H223.523V29.1845H215.015V19.726H224.962V11.1387H206.945V55.8177H215.015Z" fill="#452613"/>
<path d="M265.999 55.8177V47.2304H256.053V37.7719H264.623V29.1845H256.053V19.726H265.999V11.1387H247.982V55.8177H265.999Z" fill="#452613"/>
<path d="M65.5612 26.322H73.4437V18.8547C73.4437 13.5654 71.5043 9.33398 63.9347 9.33398C56.3651 9.33398 54.4258 13.5654 54.4258 18.7925V47.417C54.4258 52.7063 56.3651 56.9377 63.9347 56.9377C71.5043 56.9377 73.4437 52.7063 73.4437 47.417V28.8733H63.2466V37.4606H65.4987V46.2969C65.4987 47.3547 64.8731 48.2881 64.0598 48.4126C63.1215 48.537 62.3707 47.6036 62.3707 46.4213V19.9748C62.3707 18.917 62.9963 17.9835 63.8096 17.8591C64.748 17.7346 65.4987 18.668 65.4987 19.8504L65.5612 26.322Z" fill="#452613"/>
<path d="M151.392 39.5135V45.9851C151.392 47.043 150.766 47.9764 149.89 48.0386C148.952 48.1631 148.139 47.2297 148.139 46.1096V20.1609C148.139 19.103 148.764 18.1696 149.64 18.1074C150.579 17.983 151.392 18.9164 151.392 20.0365V26.6948H159.65V18.9786C159.65 13.8137 157.585 9.64453 149.703 9.64453C141.82 9.64453 139.756 13.8137 139.756 18.9786V47.1052C139.756 52.2701 141.82 56.4393 149.703 56.4393C157.585 56.4393 159.65 52.2701 159.65 47.1052V39.5135H151.392Z" fill="#452613"/>
<path d="M182.734 18.9786C182.734 13.8137 180.669 9.64453 172.787 9.64453C164.904 9.64453 162.84 13.8137 162.84 18.9786V47.1052C162.84 52.2701 164.904 56.4393 172.787 56.4393C180.669 56.4393 182.734 52.2701 182.734 47.1052V18.9786ZM174.413 45.9851C174.413 47.043 173.788 47.9764 172.912 48.0386C171.973 48.1631 171.16 47.2297 171.16 46.1096V20.1609C171.16 19.103 171.786 18.1696 172.662 18.1074C173.6 17.983 174.413 18.9164 174.413 20.0365V45.9851Z" fill="#452613"/>
<path d="M81.8887 10.7656L75.5703 55.5069H83.5153L84.4537 46.7951H89.7086L90.647 55.5069H98.592L92.2735 10.7656H81.8887ZM85.2669 39.0789L87.0811 21.5309L88.8953 39.0789H85.2669Z" fill="#452613"/>
</g>
<defs>
<clipPath id="clip0_313_589">
<rect width="266" height="57" fill="white"/>
</clipPath>
</defs>
</svg>
