<svg width="23" height="23" viewBox="0 0 23 23" fill="none" xmlns="http://www.w3.org/2000/svg">
<path d="M2.43555 4.0528C2.43555 3.29445 3.05031 2.67969 3.80865 2.67969H7.92798C8.68633 2.67969 9.30109 3.29445 9.30109 4.0528V8.17212C9.30109 8.93047 8.68633 9.54523 7.92798 9.54523H3.80865C3.05031 9.54523 2.43555 8.93047 2.43555 8.17212V4.0528Z" fill="#FFE1E1" stroke="#FF6D6D" stroke-width="2.05966"/>
<path d="M2.43555 14.3516C2.43555 13.5933 3.05031 12.9785 3.80865 12.9785H7.92798C8.68633 12.9785 9.30109 13.5933 9.30109 14.3516V18.4709C9.30109 19.2293 8.68633 19.8441 7.92798 19.8441H3.80865C3.05031 19.8441 2.43555 19.2293 2.43555 18.4709V14.3516Z" fill="#FFE1E1" stroke="#FF6D6D" stroke-width="2.05966"/>
<path d="M12.7344 4.0528C12.7344 3.29445 13.3491 2.67969 14.1075 2.67969H18.2268C18.9852 2.67969 19.5999 3.29445 19.5999 4.0528V8.17212C19.5999 8.93047 18.9852 9.54523 18.2268 9.54523H14.1075C13.3491 9.54523 12.7344 8.93047 12.7344 8.17212V4.0528Z" fill="#FFE1E1" stroke="#FF6D6D" stroke-width="2.05966"/>
<path d="M12.7344 14.3516C12.7344 13.5933 13.3491 12.9785 14.1075 12.9785H18.2268C18.9852 12.9785 19.5999 13.5933 19.5999 14.3516V18.4709C19.5999 19.2293 18.9852 19.8441 18.2268 19.8441H14.1075C13.3491 19.8441 12.7344 19.2293 12.7344 18.4709V14.3516Z" fill="#FFE1E1" stroke="#FF6D6D" stroke-width="2.05966"/>
</svg>
